%TF.GenerationSoftware,KiCad,Pcbnew,6.0.10+dfsg-1~bpo11+1*%
%TF.CreationDate,2023-02-14T07:58:38+00:00*%
%TF.ProjectId,PCRD06A,50435244-3036-4412-9e6b-696361645f70,REV*%
%TF.SameCoordinates,Original*%
%TF.FileFunction,Soldermask,Bot*%
%TF.FilePolarity,Negative*%
%FSLAX46Y46*%
G04 Gerber Fmt 4.6, Leading zero omitted, Abs format (unit mm)*
G04 Created by KiCad (PCBNEW 6.0.10+dfsg-1~bpo11+1) date 2023-02-14 07:58:38*
%MOMM*%
%LPD*%
G01*
G04 APERTURE LIST*
%ADD10C,6.000000*%
%ADD11R,1.524000X1.524000*%
%ADD12R,0.889000X1.397000*%
%ADD13R,0.650000X2.000000*%
%ADD14R,2.550160X2.499360*%
%ADD15R,1.800000X2.500000*%
%ADD16R,1.397000X0.889000*%
%ADD17R,1.300000X1.500000*%
%ADD18R,0.700000X3.000000*%
%ADD19R,3.800000X1.000000*%
%ADD20R,2.300000X1.000000*%
%ADD21R,1.000000X3.800000*%
%ADD22R,1.000000X1.000000*%
%ADD23R,1.000000X2.300000*%
%ADD24R,1.560000X0.650000*%
G04 APERTURE END LIST*
D10*
%TO.C,M1*%
X5080000Y35560000D03*
%TD*%
%TO.C,M2*%
X45720000Y5080000D03*
%TD*%
%TO.C,M3*%
X45720000Y35560000D03*
%TD*%
%TO.C,M4*%
X5080000Y5080000D03*
%TD*%
D11*
%TO.C,J8*%
X12700000Y31242000D03*
X12700000Y33782000D03*
X15240000Y31242000D03*
X15240000Y33782000D03*
X17780000Y31242000D03*
X17780000Y33782000D03*
%TD*%
%TO.C,J1*%
X37846000Y8636000D03*
X35306000Y8636000D03*
X37846000Y11176000D03*
X35306000Y11176000D03*
X37846000Y13716000D03*
X35306000Y13716000D03*
%TD*%
%TO.C,J2*%
X35306000Y32004000D03*
X37846000Y32004000D03*
%TD*%
%TO.C,J3*%
X18796000Y21590000D03*
X18796000Y24130000D03*
%TD*%
%TO.C,J5*%
X35306000Y26924000D03*
X37846000Y26924000D03*
%TD*%
%TO.C,J6*%
X35306000Y29464000D03*
X37846000Y29464000D03*
%TD*%
%TO.C,J7*%
X21336000Y21590000D03*
X21336000Y24130000D03*
%TD*%
D12*
%TO.C,C2*%
X16637000Y21844000D03*
X14732000Y21844000D03*
%TD*%
D13*
%TO.C,U2*%
X26284000Y30108000D03*
X25334000Y30108000D03*
X24384000Y30108000D03*
X24384000Y33528000D03*
X26284000Y33528000D03*
%TD*%
D14*
%TO.C,C1*%
X21844000Y8128000D03*
X16794480Y8128000D03*
%TD*%
D12*
%TO.C,C4*%
X29972000Y15240000D03*
X31877000Y15240000D03*
%TD*%
%TO.C,C7*%
X28067000Y30988000D03*
X29972000Y30988000D03*
%TD*%
%TO.C,C8*%
X25273000Y22352000D03*
X23368000Y22352000D03*
%TD*%
%TO.C,C9*%
X17780000Y12192000D03*
X15875000Y12192000D03*
%TD*%
%TO.C,C12*%
X28067000Y33528000D03*
X29972000Y33528000D03*
%TD*%
%TO.C,C13*%
X25273000Y24384000D03*
X23368000Y24384000D03*
%TD*%
%TO.C,C14*%
X17653000Y14732000D03*
X15748000Y14732000D03*
%TD*%
%TO.C,C19*%
X25019000Y27432000D03*
X26924000Y27432000D03*
%TD*%
D15*
%TO.C,D1*%
X26416000Y12160000D03*
X26416000Y8160000D03*
%TD*%
D16*
%TO.C,R1*%
X32004000Y29972000D03*
X32004000Y31877000D03*
%TD*%
%TO.C,R3*%
X29464000Y28829000D03*
X29464000Y26924000D03*
%TD*%
%TO.C,R4*%
X25908000Y20193000D03*
X25908000Y18288000D03*
%TD*%
D12*
%TO.C,R5*%
X19812000Y12192000D03*
X21717000Y12192000D03*
%TD*%
%TO.C,R12*%
X16637000Y24384000D03*
X14732000Y24384000D03*
%TD*%
%TO.C,R13*%
X22860000Y17780000D03*
X20955000Y17780000D03*
%TD*%
D17*
%TO.C,C21*%
X29812000Y11176000D03*
D18*
X31162000Y11176000D03*
D17*
X32512000Y11176000D03*
%TD*%
D19*
%TO.C,M5*%
X34400000Y4928000D03*
D20*
X39650000Y36728000D03*
D19*
X34400000Y36728000D03*
D21*
X9500000Y29828000D03*
X41300000Y17828000D03*
X41300000Y29828000D03*
D20*
X11150000Y36728000D03*
D19*
X22400000Y36728000D03*
D21*
X9500000Y11828000D03*
D22*
X41300000Y4928000D03*
D21*
X9500000Y23828000D03*
D19*
X16400000Y4928000D03*
D23*
X41300000Y6578000D03*
D20*
X11150000Y4928000D03*
X39650000Y4928000D03*
D19*
X16400000Y36728000D03*
D22*
X9500000Y4928000D03*
D23*
X41300000Y35078000D03*
D19*
X28400000Y36728000D03*
X22400000Y4928000D03*
D21*
X41300000Y11828000D03*
D23*
X9500000Y35078000D03*
D22*
X9500000Y36728000D03*
D21*
X41300000Y23828000D03*
D23*
X9500000Y6578000D03*
D21*
X9500000Y17828000D03*
D19*
X28400000Y4928000D03*
D22*
X41300000Y36728000D03*
%TD*%
D24*
%TO.C,U5*%
X14398000Y17338000D03*
X14398000Y18288000D03*
X14398000Y19238000D03*
X17098000Y19238000D03*
X17098000Y17338000D03*
%TD*%
%TO.C,U1*%
X18970000Y26990000D03*
X18970000Y27940000D03*
X18970000Y28890000D03*
X21670000Y28890000D03*
X21670000Y26990000D03*
%TD*%
M02*
