%TF.GenerationSoftware,KiCad,Pcbnew,6.0.10+dfsg-1~bpo11+1*%
%TF.CreationDate,2023-02-14T07:58:38+00:00*%
%TF.ProjectId,PCRD06A,50435244-3036-4412-9e6b-696361645f70,REV*%
%TF.SameCoordinates,Original*%
%TF.FileFunction,Legend,Bot*%
%TF.FilePolarity,Positive*%
%FSLAX46Y46*%
G04 Gerber Fmt 4.6, Leading zero omitted, Abs format (unit mm)*
G04 Created by KiCad (PCBNEW 6.0.10+dfsg-1~bpo11+1) date 2023-02-14 07:58:38*
%MOMM*%
%LPD*%
G01*
G04 APERTURE LIST*
%ADD10C,0.150000*%
%ADD11C,0.304800*%
%ADD12C,0.120000*%
G04 APERTURE END LIST*
D10*
%TO.C,U2*%
X22412380Y33181904D02*
X23221904Y33181904D01*
X23317142Y33134285D01*
X23364761Y33086666D01*
X23412380Y32991428D01*
X23412380Y32800952D01*
X23364761Y32705714D01*
X23317142Y32658095D01*
X23221904Y32610476D01*
X22412380Y32610476D01*
X22507619Y32181904D02*
X22460000Y32134285D01*
X22412380Y32039047D01*
X22412380Y31800952D01*
X22460000Y31705714D01*
X22507619Y31658095D01*
X22602857Y31610476D01*
X22698095Y31610476D01*
X22840952Y31658095D01*
X23412380Y32229523D01*
X23412380Y31610476D01*
D11*
%TO.C,C1*%
X13944000Y7425714D02*
X14016571Y7353142D01*
X14234285Y7280571D01*
X14379428Y7280571D01*
X14597142Y7353142D01*
X14742285Y7498285D01*
X14814857Y7643428D01*
X14887428Y7933714D01*
X14887428Y8151428D01*
X14814857Y8441714D01*
X14742285Y8586857D01*
X14597142Y8732000D01*
X14379428Y8804571D01*
X14234285Y8804571D01*
X14016571Y8732000D01*
X13944000Y8659428D01*
X12492571Y7280571D02*
X13363428Y7280571D01*
X12928000Y7280571D02*
X12928000Y8804571D01*
X13073142Y8586857D01*
X13218285Y8441714D01*
X13363428Y8369142D01*
D10*
%TO.C,D1*%
X26868380Y15470095D02*
X25868380Y15470095D01*
X25868380Y15232000D01*
X25916000Y15089142D01*
X26011238Y14993904D01*
X26106476Y14946285D01*
X26296952Y14898666D01*
X26439809Y14898666D01*
X26630285Y14946285D01*
X26725523Y14993904D01*
X26820761Y15089142D01*
X26868380Y15232000D01*
X26868380Y15470095D01*
X26868380Y13946285D02*
X26868380Y14517714D01*
X26868380Y14232000D02*
X25868380Y14232000D01*
X26011238Y14327238D01*
X26106476Y14422476D01*
X26154095Y14517714D01*
X29433780Y13546104D02*
X28433780Y13546104D01*
X29433780Y12974676D02*
X28862352Y13403247D01*
X28433780Y12974676D02*
X29005209Y13546104D01*
%TO.C,C21*%
X31812857Y8902857D02*
X31860476Y8855238D01*
X32003333Y8807619D01*
X32098571Y8807619D01*
X32241428Y8855238D01*
X32336666Y8950476D01*
X32384285Y9045714D01*
X32431904Y9236190D01*
X32431904Y9379047D01*
X32384285Y9569523D01*
X32336666Y9664761D01*
X32241428Y9760000D01*
X32098571Y9807619D01*
X32003333Y9807619D01*
X31860476Y9760000D01*
X31812857Y9712380D01*
X31431904Y9712380D02*
X31384285Y9760000D01*
X31289047Y9807619D01*
X31050952Y9807619D01*
X30955714Y9760000D01*
X30908095Y9712380D01*
X30860476Y9617142D01*
X30860476Y9521904D01*
X30908095Y9379047D01*
X31479523Y8807619D01*
X30860476Y8807619D01*
X29908095Y8807619D02*
X30479523Y8807619D01*
X30193809Y8807619D02*
X30193809Y9807619D01*
X30289047Y9664761D01*
X30384285Y9569523D01*
X30479523Y9521904D01*
%TO.C,M5*%
X25929523Y2747619D02*
X25929523Y3747619D01*
X25596190Y3033333D01*
X25262857Y3747619D01*
X25262857Y2747619D01*
X24310476Y3747619D02*
X24786666Y3747619D01*
X24834285Y3271428D01*
X24786666Y3319047D01*
X24691428Y3366666D01*
X24453333Y3366666D01*
X24358095Y3319047D01*
X24310476Y3271428D01*
X24262857Y3176190D01*
X24262857Y2938095D01*
X24310476Y2842857D01*
X24358095Y2795238D01*
X24453333Y2747619D01*
X24691428Y2747619D01*
X24786666Y2795238D01*
X24834285Y2842857D01*
%TO.C,U5*%
X12951904Y18837619D02*
X12951904Y18028095D01*
X12904285Y17932857D01*
X12856666Y17885238D01*
X12761428Y17837619D01*
X12570952Y17837619D01*
X12475714Y17885238D01*
X12428095Y17932857D01*
X12380476Y18028095D01*
X12380476Y18837619D01*
X11428095Y18837619D02*
X11904285Y18837619D01*
X11951904Y18361428D01*
X11904285Y18409047D01*
X11809047Y18456666D01*
X11570952Y18456666D01*
X11475714Y18409047D01*
X11428095Y18361428D01*
X11380476Y18266190D01*
X11380476Y18028095D01*
X11428095Y17932857D01*
X11475714Y17885238D01*
X11570952Y17837619D01*
X11809047Y17837619D01*
X11904285Y17885238D01*
X11951904Y17932857D01*
%TO.C,U1*%
X21101904Y31037619D02*
X21101904Y30228095D01*
X21054285Y30132857D01*
X21006666Y30085238D01*
X20911428Y30037619D01*
X20720952Y30037619D01*
X20625714Y30085238D01*
X20578095Y30132857D01*
X20530476Y30228095D01*
X20530476Y31037619D01*
X19530476Y30037619D02*
X20101904Y30037619D01*
X19816190Y30037619D02*
X19816190Y31037619D01*
X19911428Y30894761D01*
X20006666Y30799523D01*
X20101904Y30751904D01*
%TO.C,C2*%
X16192500Y21082000D02*
X17208500Y21082000D01*
X14160500Y22606000D02*
X14160500Y21082000D01*
X15176500Y22606000D02*
X14160500Y22606000D01*
X17208500Y21082000D02*
X17208500Y22606000D01*
X17208500Y22606000D02*
X16192500Y22606000D01*
X14160500Y21082000D02*
X15176500Y21082000D01*
X17462500Y21082000D02*
G75*
G03*
X17462500Y21082000I-127000J0D01*
G01*
D12*
%TO.C,U2*%
X26844000Y32698000D02*
X26844000Y30268000D01*
X23774000Y30938000D02*
X23774000Y32698000D01*
D10*
%TO.C,C1*%
X23619460Y9827260D02*
X23619460Y6428740D01*
X16342360Y9829800D02*
X22341840Y9829800D01*
X24320500Y11181080D02*
X24320500Y10081260D01*
X24919940Y10680700D02*
X23721060Y10680700D01*
X23637240Y9829800D02*
X23637240Y6431280D01*
X16319500Y6428740D02*
X22318980Y6428740D01*
%TO.C,C4*%
X30416500Y16002000D02*
X29400500Y16002000D01*
X32448500Y16002000D02*
X31432500Y16002000D01*
X29400500Y16002000D02*
X29400500Y14478000D01*
X32448500Y14478000D02*
X32448500Y16002000D01*
X29400500Y14478000D02*
X30416500Y14478000D01*
X31432500Y14478000D02*
X32448500Y14478000D01*
X29400500Y16002000D02*
G75*
G03*
X29400500Y16002000I-127000J0D01*
G01*
%TO.C,C7*%
X29527500Y30226000D02*
X30543500Y30226000D01*
X30543500Y30226000D02*
X30543500Y31750000D01*
X27495500Y31750000D02*
X27495500Y30226000D01*
X27495500Y30226000D02*
X28511500Y30226000D01*
X28511500Y31750000D02*
X27495500Y31750000D01*
X30543500Y31750000D02*
X29527500Y31750000D01*
X27495500Y31750000D02*
G75*
G03*
X27495500Y31750000I-127000J0D01*
G01*
%TO.C,C8*%
X23812500Y23114000D02*
X22796500Y23114000D01*
X25844500Y21590000D02*
X25844500Y23114000D01*
X25844500Y23114000D02*
X24828500Y23114000D01*
X24828500Y21590000D02*
X25844500Y21590000D01*
X22796500Y21590000D02*
X23812500Y21590000D01*
X22796500Y23114000D02*
X22796500Y21590000D01*
X26098500Y21590000D02*
G75*
G03*
X26098500Y21590000I-127000J0D01*
G01*
%TO.C,C9*%
X17335500Y11430000D02*
X18351500Y11430000D01*
X18351500Y11430000D02*
X18351500Y12954000D01*
X15303500Y12954000D02*
X15303500Y11430000D01*
X18351500Y12954000D02*
X17335500Y12954000D01*
X16319500Y12954000D02*
X15303500Y12954000D01*
X15303500Y11430000D02*
X16319500Y11430000D01*
X18605500Y11430000D02*
G75*
G03*
X18605500Y11430000I-127000J0D01*
G01*
%TO.C,C12*%
X27495500Y34290000D02*
X27495500Y32766000D01*
X28511500Y34290000D02*
X27495500Y34290000D01*
X27495500Y32766000D02*
X28511500Y32766000D01*
X30543500Y32766000D02*
X30543500Y34290000D01*
X29527500Y32766000D02*
X30543500Y32766000D01*
X30543500Y34290000D02*
X29527500Y34290000D01*
X27495500Y34290000D02*
G75*
G03*
X27495500Y34290000I-127000J0D01*
G01*
%TO.C,C13*%
X25844500Y23622000D02*
X25844500Y25146000D01*
X22796500Y25146000D02*
X22796500Y23622000D01*
X23812500Y25146000D02*
X22796500Y25146000D01*
X22796500Y23622000D02*
X23812500Y23622000D01*
X24828500Y23622000D02*
X25844500Y23622000D01*
X25844500Y25146000D02*
X24828500Y25146000D01*
X26098500Y23622000D02*
G75*
G03*
X26098500Y23622000I-127000J0D01*
G01*
%TO.C,C14*%
X15176500Y13970000D02*
X16192500Y13970000D01*
X18224500Y15494000D02*
X17208500Y15494000D01*
X16192500Y15494000D02*
X15176500Y15494000D01*
X15176500Y15494000D02*
X15176500Y13970000D01*
X18224500Y13970000D02*
X18224500Y15494000D01*
X17208500Y13970000D02*
X18224500Y13970000D01*
X18478500Y13970000D02*
G75*
G03*
X18478500Y13970000I-127000J0D01*
G01*
%TO.C,C19*%
X25463500Y28194000D02*
X24447500Y28194000D01*
X27495500Y28194000D02*
X26479500Y28194000D01*
X24447500Y28194000D02*
X24447500Y26670000D01*
X24447500Y26670000D02*
X25463500Y26670000D01*
X27495500Y26670000D02*
X27495500Y28194000D01*
X26479500Y26670000D02*
X27495500Y26670000D01*
X24447500Y28194000D02*
G75*
G03*
X24447500Y28194000I-127000J0D01*
G01*
D12*
%TO.C,D1*%
X24766000Y13560000D02*
X28066000Y13560000D01*
X24766000Y13560000D02*
X24766000Y8160000D01*
X28066000Y13560000D02*
X28066000Y8160000D01*
D10*
%TO.C,R1*%
X31242000Y29400500D02*
X32766000Y29400500D01*
X32766000Y32448500D02*
X31242000Y32448500D01*
X32766000Y29400500D02*
X32766000Y30416500D01*
X31242000Y30416500D02*
X31242000Y29400500D01*
X32766000Y31432500D02*
X32766000Y32448500D01*
X31242000Y32448500D02*
X31242000Y31432500D01*
X31369000Y29273500D02*
G75*
G03*
X31369000Y29273500I-127000J0D01*
G01*
%TO.C,R3*%
X30226000Y26352500D02*
X30226000Y27368500D01*
X30226000Y29400500D02*
X28702000Y29400500D01*
X28702000Y26352500D02*
X30226000Y26352500D01*
X28702000Y27368500D02*
X28702000Y26352500D01*
X28702000Y29400500D02*
X28702000Y28384500D01*
X30226000Y28384500D02*
X30226000Y29400500D01*
X30353000Y29527500D02*
G75*
G03*
X30353000Y29527500I-127000J0D01*
G01*
%TO.C,R4*%
X25146000Y20764500D02*
X25146000Y19748500D01*
X25146000Y17716500D02*
X26670000Y17716500D01*
X26670000Y19748500D02*
X26670000Y20764500D01*
X25146000Y18732500D02*
X25146000Y17716500D01*
X26670000Y17716500D02*
X26670000Y18732500D01*
X26670000Y20764500D02*
X25146000Y20764500D01*
X26797000Y20891500D02*
G75*
G03*
X26797000Y20891500I-127000J0D01*
G01*
%TO.C,R5*%
X22288500Y12954000D02*
X21272500Y12954000D01*
X19240500Y11430000D02*
X20256500Y11430000D01*
X19240500Y12954000D02*
X19240500Y11430000D01*
X22288500Y11430000D02*
X22288500Y12954000D01*
X20256500Y12954000D02*
X19240500Y12954000D01*
X21272500Y11430000D02*
X22288500Y11430000D01*
X19240500Y12954000D02*
G75*
G03*
X19240500Y12954000I-127000J0D01*
G01*
%TO.C,R12*%
X17208500Y23622000D02*
X17208500Y25146000D01*
X14160500Y25146000D02*
X14160500Y23622000D01*
X17208500Y25146000D02*
X16192500Y25146000D01*
X14160500Y23622000D02*
X15176500Y23622000D01*
X16192500Y23622000D02*
X17208500Y23622000D01*
X15176500Y25146000D02*
X14160500Y25146000D01*
X17462500Y23622000D02*
G75*
G03*
X17462500Y23622000I-127000J0D01*
G01*
%TO.C,R13*%
X22415500Y17018000D02*
X23431500Y17018000D01*
X21399500Y18542000D02*
X20383500Y18542000D01*
X23431500Y18542000D02*
X22415500Y18542000D01*
X23431500Y17018000D02*
X23431500Y18542000D01*
X20383500Y17018000D02*
X21399500Y17018000D01*
X20383500Y18542000D02*
X20383500Y17018000D01*
X23685500Y17018000D02*
G75*
G03*
X23685500Y17018000I-127000J0D01*
G01*
%TO.C,C21*%
X33194000Y11938000D02*
X29130000Y11938000D01*
X29130000Y10414000D02*
X33194000Y10414000D01*
X29130000Y11938000D02*
X29130000Y10414000D01*
X29130000Y10414000D02*
X29130000Y10541000D01*
X33194000Y10414000D02*
X33194000Y11938000D01*
D12*
%TO.C,M5*%
X9250000Y8028000D02*
X9250000Y9628000D01*
X41550000Y14028000D02*
X41550000Y15628000D01*
X12600000Y4678000D02*
X14200000Y4678000D01*
X9250000Y32028000D02*
X9250000Y33628000D01*
X41550000Y8028000D02*
X41550000Y9628000D01*
X9250000Y14028000D02*
X9250000Y15628000D01*
X41550000Y20028000D02*
X41550000Y21628000D01*
X41550000Y32028000D02*
X41550000Y33628000D01*
X36600000Y4678000D02*
X38200000Y4678000D01*
X30600000Y4678000D02*
X32200000Y4678000D01*
X12600000Y36978000D02*
X14200000Y36978000D01*
X24600000Y36978000D02*
X26200000Y36978000D01*
X30600000Y36978000D02*
X32200000Y36978000D01*
X9250000Y20028000D02*
X9250000Y21628000D01*
X36600000Y36978000D02*
X38200000Y36978000D01*
X18600000Y36978000D02*
X20200000Y36978000D01*
X41550000Y26028000D02*
X41550000Y27628000D01*
X18600000Y4678000D02*
X20200000Y4678000D01*
X24600000Y4678000D02*
X26200000Y4678000D01*
X9250000Y26028000D02*
X9250000Y27628000D01*
%TO.C,U5*%
X14848000Y19898000D02*
X16648000Y19898000D01*
X16648000Y16678000D02*
X14198000Y16678000D01*
%TO.C,U1*%
X21220000Y26330000D02*
X18770000Y26330000D01*
X19420000Y29550000D02*
X21220000Y29550000D01*
%TD*%
M02*
