%TF.GenerationSoftware,KiCad,Pcbnew,6.0.10+dfsg-1~bpo11+1*%
%TF.CreationDate,2023-02-14T07:58:38+00:00*%
%TF.ProjectId,PCRD06A,50435244-3036-4412-9e6b-696361645f70,REV*%
%TF.SameCoordinates,Original*%
%TF.FileFunction,Copper,L2,Bot*%
%TF.FilePolarity,Positive*%
%FSLAX46Y46*%
G04 Gerber Fmt 4.6, Leading zero omitted, Abs format (unit mm)*
G04 Created by KiCad (PCBNEW 6.0.10+dfsg-1~bpo11+1) date 2023-02-14 07:58:38*
%MOMM*%
%LPD*%
G01*
G04 APERTURE LIST*
%ADD10C,0.300000*%
%TA.AperFunction,NonConductor*%
%ADD11C,0.300000*%
%TD*%
%TA.AperFunction,ComponentPad*%
%ADD12C,6.000000*%
%TD*%
%TA.AperFunction,ComponentPad*%
%ADD13R,1.524000X1.524000*%
%TD*%
%TA.AperFunction,SMDPad,CuDef*%
%ADD14R,0.889000X1.397000*%
%TD*%
%TA.AperFunction,SMDPad,CuDef*%
%ADD15R,0.650000X2.000000*%
%TD*%
%TA.AperFunction,SMDPad,CuDef*%
%ADD16R,2.550160X2.499360*%
%TD*%
%TA.AperFunction,SMDPad,CuDef*%
%ADD17R,1.800000X2.500000*%
%TD*%
%TA.AperFunction,SMDPad,CuDef*%
%ADD18R,1.397000X0.889000*%
%TD*%
%TA.AperFunction,SMDPad,CuDef*%
%ADD19R,1.300000X1.500000*%
%TD*%
%TA.AperFunction,SMDPad,CuDef*%
%ADD20R,0.700000X3.000000*%
%TD*%
%TA.AperFunction,SMDPad,CuDef*%
%ADD21R,3.800000X1.000000*%
%TD*%
%TA.AperFunction,SMDPad,CuDef*%
%ADD22R,2.300000X1.000000*%
%TD*%
%TA.AperFunction,SMDPad,CuDef*%
%ADD23R,1.000000X3.800000*%
%TD*%
%TA.AperFunction,SMDPad,CuDef*%
%ADD24R,1.000000X1.000000*%
%TD*%
%TA.AperFunction,SMDPad,CuDef*%
%ADD25R,1.000000X2.300000*%
%TD*%
%TA.AperFunction,SMDPad,CuDef*%
%ADD26R,1.560000X0.650000*%
%TD*%
%TA.AperFunction,ViaPad*%
%ADD27C,0.800000*%
%TD*%
%TA.AperFunction,Conductor*%
%ADD28C,0.400000*%
%TD*%
%TA.AperFunction,Conductor*%
%ADD29C,0.250000*%
%TD*%
%TA.AperFunction,Conductor*%
%ADD30C,0.800000*%
%TD*%
G04 APERTURE END LIST*
D10*
D11*
X4742571Y19561428D02*
X3242571Y19561428D01*
X4314000Y19061428D01*
X3242571Y18561428D01*
X4742571Y18561428D01*
X4742571Y17132857D02*
X4742571Y17847142D01*
X3242571Y17847142D01*
X4314000Y16704285D02*
X4314000Y15990000D01*
X4742571Y16847142D02*
X3242571Y16347142D01*
X4742571Y15847142D01*
X3956857Y14847142D02*
X4028285Y14632857D01*
X4099714Y14561428D01*
X4242571Y14490000D01*
X4456857Y14490000D01*
X4599714Y14561428D01*
X4671142Y14632857D01*
X4742571Y14775714D01*
X4742571Y15347142D01*
X3242571Y15347142D01*
X3242571Y14847142D01*
X3314000Y14704285D01*
X3385428Y14632857D01*
X3528285Y14561428D01*
X3671142Y14561428D01*
X3814000Y14632857D01*
X3885428Y14704285D01*
X3956857Y14847142D01*
X3956857Y15347142D01*
X4599714Y13847142D02*
X4671142Y13775714D01*
X4742571Y13847142D01*
X4671142Y13918571D01*
X4599714Y13847142D01*
X4742571Y13847142D01*
X4599714Y12275714D02*
X4671142Y12347142D01*
X4742571Y12561428D01*
X4742571Y12704285D01*
X4671142Y12918571D01*
X4528285Y13061428D01*
X4385428Y13132857D01*
X4099714Y13204285D01*
X3885428Y13204285D01*
X3599714Y13132857D01*
X3456857Y13061428D01*
X3314000Y12918571D01*
X3242571Y12704285D01*
X3242571Y12561428D01*
X3314000Y12347142D01*
X3385428Y12275714D01*
X3242571Y11775714D02*
X3242571Y10775714D01*
X4742571Y11775714D01*
X4742571Y10775714D01*
D12*
%TO.P,M1,1*%
%TO.N,GND*%
X5080000Y35560000D03*
%TD*%
%TO.P,M2,1*%
%TO.N,GND*%
X45720000Y5080000D03*
%TD*%
%TO.P,M3,1*%
%TO.N,GND*%
X45720000Y35560000D03*
%TD*%
%TO.P,M4,1*%
%TO.N,GND*%
X5080000Y5080000D03*
%TD*%
D13*
%TO.P,J8,1*%
%TO.N,GND*%
X12700000Y31242000D03*
%TO.P,J8,2*%
X12700000Y33782000D03*
%TO.P,J8,3*%
%TO.N,/IN*%
X15240000Y31242000D03*
%TO.P,J8,4*%
X15240000Y33782000D03*
%TO.P,J8,5*%
%TO.N,GND*%
X17780000Y31242000D03*
%TO.P,J8,6*%
X17780000Y33782000D03*
%TD*%
%TO.P,J1,1*%
%TO.N,GND*%
X37846000Y8636000D03*
%TO.P,J1,2*%
X35306000Y8636000D03*
%TO.P,J1,3*%
%TO.N,Net-(C21-Pad3)*%
X37846000Y11176000D03*
%TO.P,J1,4*%
X35306000Y11176000D03*
%TO.P,J1,5*%
%TO.N,GND*%
X37846000Y13716000D03*
%TO.P,J1,6*%
X35306000Y13716000D03*
%TD*%
%TO.P,J2,1*%
%TO.N,GND*%
X35306000Y32004000D03*
%TO.P,J2,2*%
X37846000Y32004000D03*
%TD*%
%TO.P,J3,1*%
%TO.N,/#PeakDetect/Trace*%
X18796000Y21590000D03*
%TO.P,J3,2*%
X18796000Y24130000D03*
%TD*%
%TO.P,J5,1*%
%TO.N,GND*%
X35306000Y26924000D03*
%TO.P,J5,2*%
X37846000Y26924000D03*
%TD*%
%TO.P,J6,1*%
%TO.N,/A/D*%
X35306000Y29464000D03*
%TO.P,J6,2*%
X37846000Y29464000D03*
%TD*%
%TO.P,J7,1*%
%TO.N,GND*%
X21336000Y21590000D03*
%TO.P,J7,2*%
X21336000Y24130000D03*
%TD*%
D14*
%TO.P,C2,1*%
%TO.N,/#PeakDetect/Trace*%
X16637000Y21844000D03*
%TO.P,C2,2*%
%TO.N,Net-(C2-Pad2)*%
X14732000Y21844000D03*
%TD*%
D15*
%TO.P,U2,1*%
%TO.N,Net-(R1-Pad2)*%
X26284000Y30108000D03*
%TO.P,U2,2*%
%TO.N,GND*%
X25334000Y30108000D03*
%TO.P,U2,3*%
%TO.N,Net-(C19-Pad1)*%
X24384000Y30108000D03*
%TO.P,U2,4*%
%TO.N,Net-(R1-Pad2)*%
X24384000Y33528000D03*
%TO.P,U2,5*%
%TO.N,/VCC2*%
X26284000Y33528000D03*
%TD*%
D16*
%TO.P,C1,1*%
%TO.N,VCC*%
X21844000Y8128000D03*
%TO.P,C1,2*%
%TO.N,GND*%
X16794480Y8128000D03*
%TD*%
D14*
%TO.P,C4,1*%
%TO.N,VCC*%
X29972000Y15240000D03*
%TO.P,C4,2*%
%TO.N,GND*%
X31877000Y15240000D03*
%TD*%
%TO.P,C7,1*%
%TO.N,/VCC2*%
X28067000Y30988000D03*
%TO.P,C7,2*%
%TO.N,GND*%
X29972000Y30988000D03*
%TD*%
%TO.P,C8,1*%
%TO.N,/VCC3*%
X25273000Y22352000D03*
%TO.P,C8,2*%
%TO.N,GND*%
X23368000Y22352000D03*
%TD*%
%TO.P,C9,1*%
%TO.N,/VCC4*%
X17780000Y12192000D03*
%TO.P,C9,2*%
%TO.N,GND*%
X15875000Y12192000D03*
%TD*%
%TO.P,C12,1*%
%TO.N,/VCC2*%
X28067000Y33528000D03*
%TO.P,C12,2*%
%TO.N,GND*%
X29972000Y33528000D03*
%TD*%
%TO.P,C13,1*%
%TO.N,/VCC3*%
X25273000Y24384000D03*
%TO.P,C13,2*%
%TO.N,GND*%
X23368000Y24384000D03*
%TD*%
%TO.P,C14,1*%
%TO.N,/VCC4*%
X17653000Y14732000D03*
%TO.P,C14,2*%
%TO.N,GND*%
X15748000Y14732000D03*
%TD*%
%TO.P,C19,1*%
%TO.N,Net-(C19-Pad1)*%
X25019000Y27432000D03*
%TO.P,C19,2*%
%TO.N,GND*%
X26924000Y27432000D03*
%TD*%
D17*
%TO.P,D1,1*%
%TO.N,VCC*%
X26416000Y12160000D03*
%TO.P,D1,2*%
%TO.N,GND*%
X26416000Y8160000D03*
%TD*%
D18*
%TO.P,R1,1*%
%TO.N,/A/D*%
X32004000Y29972000D03*
%TO.P,R1,2*%
%TO.N,Net-(R1-Pad2)*%
X32004000Y31877000D03*
%TD*%
%TO.P,R3,1*%
%TO.N,/VCC2*%
X29464000Y28829000D03*
%TO.P,R3,2*%
%TO.N,VCC*%
X29464000Y26924000D03*
%TD*%
%TO.P,R4,1*%
%TO.N,/VCC3*%
X25908000Y20193000D03*
%TO.P,R4,2*%
%TO.N,VCC*%
X25908000Y18288000D03*
%TD*%
D14*
%TO.P,R5,1*%
%TO.N,/VCC4*%
X19812000Y12192000D03*
%TO.P,R5,2*%
%TO.N,VCC*%
X21717000Y12192000D03*
%TD*%
%TO.P,R12,1*%
%TO.N,/#PeakDetect/Trace*%
X16637000Y24384000D03*
%TO.P,R12,2*%
%TO.N,Net-(C2-Pad2)*%
X14732000Y24384000D03*
%TD*%
%TO.P,R13,1*%
%TO.N,Net-(C19-Pad1)*%
X22860000Y17780000D03*
%TO.P,R13,2*%
%TO.N,Net-(R13-Pad2)*%
X20955000Y17780000D03*
%TD*%
D19*
%TO.P,C21,1*%
%TO.N,VCC*%
X29812000Y11176000D03*
D20*
%TO.P,C21,2*%
%TO.N,GND*%
X31162000Y11176000D03*
D19*
%TO.P,C21,3*%
%TO.N,Net-(C21-Pad3)*%
X32512000Y11176000D03*
%TD*%
D21*
%TO.P,M5,1*%
%TO.N,GND*%
X34400000Y4928000D03*
D22*
X39650000Y36728000D03*
D21*
X34400000Y36728000D03*
D23*
X9500000Y29828000D03*
X41300000Y17828000D03*
X41300000Y29828000D03*
D22*
X11150000Y36728000D03*
D21*
X22400000Y36728000D03*
D23*
X9500000Y11828000D03*
D24*
X41300000Y4928000D03*
D23*
X9500000Y23828000D03*
D21*
X16400000Y4928000D03*
D25*
X41300000Y6578000D03*
D22*
X11150000Y4928000D03*
X39650000Y4928000D03*
D21*
X16400000Y36728000D03*
D24*
X9500000Y4928000D03*
D25*
X41300000Y35078000D03*
D21*
X28400000Y36728000D03*
X22400000Y4928000D03*
D23*
X41300000Y11828000D03*
D25*
X9500000Y35078000D03*
D24*
X9500000Y36728000D03*
D23*
X41300000Y23828000D03*
D25*
X9500000Y6578000D03*
D23*
X9500000Y17828000D03*
D21*
X28400000Y4928000D03*
D24*
X41300000Y36728000D03*
%TD*%
D26*
%TO.P,U5,1*%
%TO.N,/IN*%
X14398000Y17338000D03*
%TO.P,U5,2*%
%TO.N,Net-(R13-Pad2)*%
X14398000Y18288000D03*
%TO.P,U5,3*%
%TO.N,GND*%
X14398000Y19238000D03*
%TO.P,U5,4*%
%TO.N,/#PeakDetect/Trace*%
X17098000Y19238000D03*
%TO.P,U5,5*%
%TO.N,/VCC4*%
X17098000Y17338000D03*
%TD*%
%TO.P,U1,1*%
%TO.N,Net-(C2-Pad2)*%
X18970000Y26990000D03*
%TO.P,U1,2*%
%TO.N,GND*%
X18970000Y27940000D03*
%TO.P,U1,3*%
%TO.N,/IN*%
X18970000Y28890000D03*
%TO.P,U1,4*%
%TO.N,Net-(R1-Pad2)*%
X21670000Y28890000D03*
%TO.P,U1,5*%
%TO.N,/VCC3*%
X21670000Y26990000D03*
%TD*%
D27*
%TO.N,GND*%
X20828000Y19304000D03*
X21844000Y19304000D03*
X22860000Y19304000D03*
X16256000Y25908000D03*
X27940000Y25908000D03*
X30988000Y34036000D03*
X31496000Y24892000D03*
X36576000Y16764000D03*
X30988000Y33020000D03*
X12192000Y14224000D03*
X35560000Y16764000D03*
X13208000Y20828000D03*
X19812000Y19304000D03*
X26416000Y16764000D03*
X28448000Y8636000D03*
X23368000Y28448000D03*
X21336000Y14732000D03*
X15240000Y10668000D03*
X13208000Y23368000D03*
X28448000Y15240000D03*
X19304000Y14732000D03*
X11176000Y26924000D03*
X13208000Y28956000D03*
X28448000Y10160000D03*
X31496000Y21844000D03*
X22352000Y34036000D03*
X11176000Y15748000D03*
X27432000Y15240000D03*
X20828000Y16256000D03*
X13208000Y24384000D03*
X23876000Y16256000D03*
X28448000Y7112000D03*
X27940000Y16764000D03*
X13716000Y15240000D03*
X12192000Y15240000D03*
X13716000Y10668000D03*
X27432000Y28956000D03*
X13716000Y13208000D03*
X28448000Y24892000D03*
X13208000Y21844000D03*
X31496000Y20828000D03*
X38100000Y16764000D03*
X26416000Y24384000D03*
X24892000Y16256000D03*
X26416000Y21844000D03*
X32004000Y17272000D03*
X31496000Y19812000D03*
X31496000Y18796000D03*
X22860000Y14732000D03*
X20828000Y30988000D03*
X19304000Y16256000D03*
X28448000Y21844000D03*
X15748000Y27940000D03*
X23368000Y27432000D03*
X13716000Y12192000D03*
X17272000Y27940000D03*
X20828000Y34036000D03*
X28448000Y20320000D03*
X28448000Y23368000D03*
X34544000Y16764000D03*
X22352000Y16256000D03*
X12192000Y27940000D03*
X13716000Y25908000D03*
X26416000Y22860000D03*
X20828000Y32512000D03*
X18796000Y19304000D03*
X14732000Y26924000D03*
X23368000Y29972000D03*
X22860000Y30988000D03*
X31496000Y22860000D03*
X31496000Y23876000D03*
X13716000Y14224000D03*
%TD*%
D28*
%TO.N,GND*%
X25334000Y30108000D02*
X25334000Y29022000D01*
D29*
X23368000Y27432000D02*
X24391501Y26408499D01*
X24957186Y26408499D02*
X26416000Y24949685D01*
D28*
X25334000Y29022000D02*
X26924000Y27432000D01*
D29*
X26416000Y24949685D02*
X26416000Y24384000D01*
X24391501Y26408499D02*
X24957186Y26408499D01*
D30*
%TO.N,VCC*%
X21844000Y8128000D02*
X22384000Y8128000D01*
X29972000Y15240000D02*
X29972000Y11336000D01*
X21717000Y12192000D02*
X21717000Y8255000D01*
X29972000Y26416000D02*
X29464000Y26924000D01*
X25908000Y18288000D02*
X29972000Y18288000D01*
X29972000Y15240000D02*
X29972000Y18288000D01*
X29972000Y18288000D02*
X29972000Y26416000D01*
X29972000Y11336000D02*
X29812000Y11176000D01*
X29812000Y11176000D02*
X27400000Y11176000D01*
X21717000Y8255000D02*
X21844000Y8128000D01*
X27400000Y11176000D02*
X26416000Y12160000D01*
X22384000Y8128000D02*
X26416000Y12160000D01*
D28*
%TO.N,/VCC2*%
X26284000Y33528000D02*
X28067000Y33528000D01*
X28067000Y30988000D02*
X28067000Y30226000D01*
X28067000Y33528000D02*
X28067000Y30988000D01*
X28067000Y30226000D02*
X29464000Y28829000D01*
%TO.N,/VCC3*%
X25273000Y24384000D02*
X25273000Y24638000D01*
X21670000Y26990000D02*
X22125000Y26990000D01*
D30*
X25273000Y24384000D02*
X25273000Y22352000D01*
X25273000Y22352000D02*
X25273000Y20828000D01*
D28*
X25273000Y24638000D02*
X24428499Y25482501D01*
X22125000Y26990000D02*
X23632499Y25482501D01*
X24428499Y25482501D02*
X23632499Y25482501D01*
D30*
X25273000Y20828000D02*
X25908000Y20193000D01*
D28*
%TO.N,/VCC4*%
X17653000Y12319000D02*
X17780000Y12192000D01*
X17653000Y14732000D02*
X17653000Y12319000D01*
X17098000Y15287000D02*
X17653000Y14732000D01*
X19812000Y12192000D02*
X17780000Y12192000D01*
X17098000Y17338000D02*
X17098000Y15287000D01*
%TO.N,Net-(C19-Pad1)*%
X24384000Y28067000D02*
X25019000Y27432000D01*
X27432000Y19853998D02*
X26926501Y19348499D01*
X22860000Y18034000D02*
X22860000Y17780000D01*
X25019000Y27432000D02*
X25019000Y27178000D01*
X25019000Y27178000D02*
X27432000Y24765000D01*
X24384000Y30108000D02*
X24384000Y28067000D01*
X26926501Y19348499D02*
X24174499Y19348499D01*
X24174499Y19348499D02*
X22860000Y18034000D01*
X27432000Y24765000D02*
X27432000Y19853998D01*
%TO.N,/#PeakDetect/Trace*%
X18542000Y21844000D02*
X18796000Y21590000D01*
X17098000Y21383000D02*
X16637000Y21844000D01*
X16637000Y24384000D02*
X18542000Y24384000D01*
X17098000Y19238000D02*
X17098000Y21383000D01*
X16637000Y24384000D02*
X16637000Y21844000D01*
X16637000Y21844000D02*
X18542000Y21844000D01*
X18542000Y24384000D02*
X18796000Y24130000D01*
%TO.N,/A/D*%
X32512000Y29464000D02*
X32004000Y29972000D01*
X37846000Y29464000D02*
X35306000Y29464000D01*
X35306000Y29464000D02*
X32512000Y29464000D01*
%TO.N,Net-(R13-Pad2)*%
X14398000Y18288000D02*
X17780000Y18288000D01*
X20447000Y18288000D02*
X20955000Y17780000D01*
X17780000Y18288000D02*
X20447000Y18288000D01*
X18459500Y18288000D02*
X17780000Y18288000D01*
D30*
%TO.N,Net-(C21-Pad3)*%
X35306000Y11176000D02*
X32512000Y11176000D01*
X37846000Y11176000D02*
X35306000Y11176000D01*
D28*
%TO.N,Net-(R1-Pad2)*%
X24384000Y35052000D02*
X25159999Y35827999D01*
X25109000Y32128000D02*
X24554500Y32682500D01*
X24384000Y33528000D02*
X24384000Y35052000D01*
X22813500Y32682500D02*
X24554500Y32682500D01*
X21670000Y28890000D02*
X21670000Y31539000D01*
X25784000Y32128000D02*
X25109000Y32128000D01*
X25159999Y35827999D02*
X30720001Y35827999D01*
X32004000Y34544000D02*
X32004000Y31877000D01*
X21670000Y31539000D02*
X22813500Y32682500D01*
X26284000Y31628000D02*
X25784000Y32128000D01*
X24554500Y32682500D02*
X24384000Y32853000D01*
X26284000Y30108000D02*
X26284000Y31628000D01*
X30720001Y35827999D02*
X32004000Y34544000D01*
X24384000Y32853000D02*
X24384000Y33528000D01*
%TO.N,Net-(C2-Pad2)*%
X18970000Y26990000D02*
X17206000Y26990000D01*
X14732000Y24384000D02*
X14732000Y21844000D01*
X14732000Y24384000D02*
X14732000Y25739998D01*
X15982002Y26990000D02*
X17206000Y26990000D01*
X14732000Y25739998D02*
X15070001Y26077999D01*
D29*
X14732000Y25850998D02*
X14732000Y24384000D01*
D28*
X14871501Y25879499D02*
X15070001Y26077999D01*
D29*
X14760501Y25879499D02*
X14732000Y25850998D01*
D28*
X15070001Y26077999D02*
X15982002Y26990000D01*
%TO.N,/IN*%
X12192000Y25908000D02*
X15240000Y28956000D01*
X13218000Y17338000D02*
X12192000Y18364000D01*
X14398000Y17338000D02*
X13218000Y17338000D01*
X15306000Y28890000D02*
X15240000Y28956000D01*
X18970000Y28890000D02*
X15306000Y28890000D01*
X15240000Y28956000D02*
X15240000Y31242000D01*
X15240000Y33782000D02*
X15240000Y31242000D01*
X12192000Y18364000D02*
X12192000Y25908000D01*
%TD*%
%TA.AperFunction,Conductor*%
%TO.N,GND*%
G36*
X50180122Y40057998D02*
G01*
X50226615Y40004342D01*
X50238001Y39952000D01*
X50238000Y688000D01*
X50217998Y619879D01*
X50164342Y573386D01*
X50112000Y562000D01*
X688000Y562000D01*
X619879Y582002D01*
X573386Y635658D01*
X562000Y688000D01*
X562000Y9377680D01*
X20255920Y9377680D01*
X20255920Y6878320D01*
X20288734Y6738804D01*
X20358053Y6647010D01*
X20455851Y6586456D01*
X20568920Y6565320D01*
X23119080Y6565320D01*
X23258596Y6598134D01*
X23350390Y6667453D01*
X23410944Y6765251D01*
X23432080Y6878320D01*
X23432080Y8121921D01*
X23468985Y8211016D01*
X25818065Y10560095D01*
X25907160Y10597000D01*
X26946959Y10597000D01*
X27017001Y10572814D01*
X27017913Y10574320D01*
X27024410Y10570385D01*
X27030388Y10565698D01*
X27037312Y10562572D01*
X27039625Y10561171D01*
X27054241Y10552834D01*
X27056618Y10551559D01*
X27062835Y10547190D01*
X27069914Y10544430D01*
X27069916Y10544429D01*
X27098365Y10533337D01*
X27122343Y10523989D01*
X27128419Y10521435D01*
X27179708Y10498277D01*
X27179710Y10498276D01*
X27186634Y10495150D01*
X27194100Y10493766D01*
X27196672Y10492960D01*
X27212871Y10488346D01*
X27215479Y10487676D01*
X27222560Y10484916D01*
X27285900Y10476577D01*
X27292404Y10475547D01*
X27355199Y10463909D01*
X27362779Y10464346D01*
X27362780Y10464346D01*
X27413856Y10467291D01*
X27421109Y10467500D01*
X28739436Y10467500D01*
X28807557Y10447498D01*
X28862089Y10370348D01*
X28881814Y10286484D01*
X28951133Y10194690D01*
X29048931Y10134136D01*
X29162000Y10113000D01*
X30462000Y10113000D01*
X30601516Y10145814D01*
X30693310Y10215133D01*
X30753864Y10312931D01*
X30775000Y10426000D01*
X30775000Y11926000D01*
X31549000Y11926000D01*
X31549000Y10426000D01*
X31581814Y10286484D01*
X31651133Y10194690D01*
X31748931Y10134136D01*
X31862000Y10113000D01*
X33162000Y10113000D01*
X33301516Y10145814D01*
X33393310Y10215133D01*
X33453864Y10312931D01*
X33463532Y10364653D01*
X33495710Y10427937D01*
X33587387Y10467500D01*
X34118614Y10467500D01*
X34186735Y10447498D01*
X34241267Y10370348D01*
X34263814Y10274484D01*
X34333133Y10182690D01*
X34430931Y10122136D01*
X34544000Y10101000D01*
X36068000Y10101000D01*
X36207516Y10133814D01*
X36299310Y10203133D01*
X36359864Y10300931D01*
X36362009Y10312407D01*
X36362010Y10312409D01*
X36371775Y10364651D01*
X36403953Y10427937D01*
X36495630Y10467500D01*
X36658614Y10467500D01*
X36726735Y10447498D01*
X36781267Y10370348D01*
X36803814Y10274484D01*
X36873133Y10182690D01*
X36970931Y10122136D01*
X37084000Y10101000D01*
X38608000Y10101000D01*
X38747516Y10133814D01*
X38839310Y10203133D01*
X38899864Y10300931D01*
X38921000Y10414000D01*
X38921000Y11938000D01*
X38888186Y12077516D01*
X38818867Y12169310D01*
X38721069Y12229864D01*
X38608000Y12251000D01*
X37084000Y12251000D01*
X36944484Y12218186D01*
X36852690Y12148867D01*
X36792136Y12051069D01*
X36789991Y12039593D01*
X36789990Y12039591D01*
X36780225Y11987349D01*
X36748047Y11924063D01*
X36656370Y11884500D01*
X36493386Y11884500D01*
X36425265Y11904502D01*
X36370733Y11981652D01*
X36351196Y12064718D01*
X36348186Y12077516D01*
X36278867Y12169310D01*
X36181069Y12229864D01*
X36068000Y12251000D01*
X34544000Y12251000D01*
X34404484Y12218186D01*
X34312690Y12148867D01*
X34252136Y12051069D01*
X34249991Y12039593D01*
X34249990Y12039591D01*
X34240225Y11987349D01*
X34208047Y11924063D01*
X34116370Y11884500D01*
X33584564Y11884500D01*
X33516443Y11904502D01*
X33461911Y11981652D01*
X33445196Y12052718D01*
X33442186Y12065516D01*
X33372867Y12157310D01*
X33275069Y12217864D01*
X33162000Y12239000D01*
X31862000Y12239000D01*
X31722484Y12206186D01*
X31630690Y12136867D01*
X31570136Y12039069D01*
X31549000Y11926000D01*
X30775000Y11926000D01*
X30769598Y11948970D01*
X30748406Y12039069D01*
X30742186Y12065516D01*
X30705949Y12113502D01*
X30680500Y12189433D01*
X30680500Y14347580D01*
X30699373Y14413910D01*
X30702216Y14418502D01*
X30708364Y14428431D01*
X30729500Y14541500D01*
X30729500Y15938500D01*
X30696686Y16078016D01*
X30691504Y16084879D01*
X30680500Y16134214D01*
X30680500Y18317938D01*
X30680502Y18318597D01*
X30680756Y18367224D01*
X30680771Y18370008D01*
X30680541Y18370967D01*
X30680500Y18371675D01*
X30680500Y26390062D01*
X30680792Y26398632D01*
X30684006Y26445766D01*
X30684006Y26445770D01*
X30684522Y26453342D01*
X30673536Y26516293D01*
X30672576Y26522796D01*
X30665817Y26578653D01*
X30665816Y26578656D01*
X30664904Y26586194D01*
X30662219Y26593300D01*
X30661587Y26595873D01*
X30657122Y26612198D01*
X30656352Y26614747D01*
X30655047Y26622225D01*
X30629378Y26680701D01*
X30626886Y26686807D01*
X30606991Y26739458D01*
X30606989Y26739462D01*
X30604306Y26746562D01*
X30600006Y26752819D01*
X30598763Y26755196D01*
X30590565Y26769923D01*
X30589193Y26772244D01*
X30586138Y26779202D01*
X30581513Y26785229D01*
X30581511Y26785233D01*
X30547256Y26829875D01*
X30543378Y26835212D01*
X30511506Y26881587D01*
X30511505Y26881589D01*
X30507204Y26887846D01*
X30506229Y26888715D01*
X30475500Y26970039D01*
X30475500Y27368500D01*
X30464155Y27416738D01*
X30453702Y27461178D01*
X30442686Y27508016D01*
X30373367Y27599810D01*
X30275569Y27660364D01*
X30162500Y27681500D01*
X28765500Y27681500D01*
X28758413Y27679833D01*
X28758412Y27679833D01*
X28693241Y27664505D01*
X28625984Y27648686D01*
X28534190Y27579367D01*
X28473636Y27481569D01*
X28452500Y27368500D01*
X28452500Y26479500D01*
X28485314Y26339984D01*
X28554633Y26248190D01*
X28652431Y26187636D01*
X28765500Y26166500D01*
X29137501Y26166500D01*
X29205622Y26146498D01*
X29252115Y26092842D01*
X29263501Y26040500D01*
X29263500Y19122500D01*
X29243498Y19054379D01*
X29189842Y19007886D01*
X29137500Y18996500D01*
X27597820Y18996500D01*
X27529699Y19016502D01*
X27483206Y19070158D01*
X27473102Y19140432D01*
X27508725Y19211596D01*
X27742034Y19444904D01*
X27750770Y19451884D01*
X27750382Y19452340D01*
X27757218Y19458158D01*
X27764810Y19462948D01*
X27798002Y19500531D01*
X27803348Y19506218D01*
X27816251Y19519121D01*
X27823484Y19528772D01*
X27829862Y19536606D01*
X27855245Y19565346D01*
X27855247Y19565350D01*
X27861187Y19572075D01*
X27865003Y19580203D01*
X27866632Y19582683D01*
X27875602Y19597611D01*
X27877030Y19600219D01*
X27882414Y19607403D01*
X27899029Y19651725D01*
X27902948Y19661024D01*
X27919248Y19695740D01*
X27919249Y19695744D01*
X27923062Y19703865D01*
X27924442Y19712728D01*
X27925309Y19715564D01*
X27929731Y19732419D01*
X27930370Y19735328D01*
X27933521Y19743732D01*
X27936298Y19781098D01*
X27937028Y19790916D01*
X27938180Y19800957D01*
X27938800Y19804940D01*
X27940500Y19815857D01*
X27940500Y19832974D01*
X27940847Y19842312D01*
X27943646Y19879970D01*
X27943646Y19879973D01*
X27944311Y19888924D01*
X27942437Y19897704D01*
X27941826Y19906659D01*
X27941915Y19906665D01*
X27940500Y19920073D01*
X27940500Y24694955D01*
X27941742Y24706067D01*
X27941145Y24706115D01*
X27941865Y24715064D01*
X27943846Y24723819D01*
X27940742Y24773847D01*
X27940500Y24781650D01*
X27940500Y24799913D01*
X27938791Y24811848D01*
X27937759Y24821913D01*
X27935386Y24860170D01*
X27934830Y24869132D01*
X27931781Y24877578D01*
X27931172Y24880518D01*
X27926963Y24897397D01*
X27926132Y24900238D01*
X27924860Y24909122D01*
X27921146Y24917290D01*
X27921145Y24917294D01*
X27905273Y24952202D01*
X27901459Y24961570D01*
X27897097Y24973654D01*
X27885393Y25006074D01*
X27880099Y25013321D01*
X27878694Y25015963D01*
X27869928Y25030963D01*
X27868316Y25033484D01*
X27864599Y25041659D01*
X27854556Y25053314D01*
X27833714Y25077503D01*
X27827427Y25085421D01*
X27821412Y25093655D01*
X27821407Y25093661D01*
X27818533Y25097595D01*
X27806438Y25109690D01*
X27800080Y25116537D01*
X27789770Y25128502D01*
X27769562Y25151955D01*
X27762028Y25156838D01*
X27755266Y25162737D01*
X27755325Y25162805D01*
X27744841Y25171287D01*
X26782838Y26133290D01*
X25813405Y27102722D01*
X25776500Y27191817D01*
X25776500Y28130500D01*
X25743686Y28270016D01*
X25733951Y28282908D01*
X25695602Y28333690D01*
X25674367Y28361810D01*
X25576569Y28422364D01*
X25463500Y28443500D01*
X25018500Y28443500D01*
X24950379Y28463502D01*
X24903886Y28517158D01*
X24892500Y28569500D01*
X24892500Y28799060D01*
X24925384Y28883945D01*
X24930991Y28890096D01*
X24940310Y28897133D01*
X25000864Y28994931D01*
X25022000Y29108000D01*
X25022000Y31108000D01*
X24989186Y31247516D01*
X24919867Y31339310D01*
X24822069Y31399864D01*
X24709000Y31421000D01*
X24059000Y31421000D01*
X24051913Y31419333D01*
X24051912Y31419333D01*
X24040492Y31416647D01*
X23919484Y31388186D01*
X23827690Y31318867D01*
X23767136Y31221069D01*
X23746000Y31108000D01*
X23746000Y29108000D01*
X23778814Y28968484D01*
X23786737Y28957992D01*
X23848133Y28876690D01*
X23842931Y28872761D01*
X23875501Y28799010D01*
X23875501Y28137051D01*
X23874259Y28125934D01*
X23874855Y28125886D01*
X23874135Y28116935D01*
X23872154Y28108181D01*
X23874363Y28072571D01*
X23875259Y28058137D01*
X23875501Y28050334D01*
X23875501Y28032087D01*
X23876136Y28027656D01*
X23877209Y28020163D01*
X23878239Y28010106D01*
X23881170Y27962869D01*
X23884218Y27954425D01*
X23884817Y27951534D01*
X23889037Y27934609D01*
X23889868Y27931769D01*
X23891141Y27922878D01*
X23910731Y27879794D01*
X23914536Y27870443D01*
X23930607Y27825927D01*
X23935904Y27818677D01*
X23937298Y27816054D01*
X23946088Y27801013D01*
X23947685Y27798515D01*
X23951402Y27790341D01*
X23957260Y27783542D01*
X23957261Y27783541D01*
X23982287Y27754497D01*
X23988574Y27746579D01*
X23994594Y27738338D01*
X23994598Y27738334D01*
X23997467Y27734406D01*
X24009563Y27722310D01*
X24015920Y27715464D01*
X24046439Y27680045D01*
X24053973Y27675162D01*
X24060735Y27669263D01*
X24060676Y27669195D01*
X24071160Y27660713D01*
X24224595Y27507278D01*
X24261500Y27418183D01*
X24261500Y26733500D01*
X24294314Y26593984D01*
X24363633Y26502190D01*
X24461431Y26441636D01*
X24574500Y26420500D01*
X25005183Y26420500D01*
X25094278Y26383595D01*
X25878545Y25599328D01*
X25912571Y25537016D01*
X25907506Y25466201D01*
X25864959Y25409365D01*
X25766298Y25386378D01*
X25726418Y25393833D01*
X25723225Y25394430D01*
X25723223Y25394430D01*
X25717500Y25395500D01*
X25286817Y25395500D01*
X25197722Y25432405D01*
X24837599Y25792528D01*
X24830614Y25801269D01*
X24830159Y25800882D01*
X24824337Y25807723D01*
X24819549Y25815311D01*
X24781957Y25848511D01*
X24776270Y25853857D01*
X24763375Y25866752D01*
X24759794Y25869436D01*
X24759787Y25869442D01*
X24753733Y25873979D01*
X24745895Y25880361D01*
X24717155Y25905743D01*
X24717149Y25905747D01*
X24710422Y25911688D01*
X24702294Y25915504D01*
X24699814Y25917133D01*
X24684886Y25926103D01*
X24682278Y25927531D01*
X24675094Y25932915D01*
X24630772Y25949530D01*
X24621473Y25953449D01*
X24586757Y25969749D01*
X24586753Y25969750D01*
X24578632Y25973563D01*
X24569769Y25974943D01*
X24566933Y25975810D01*
X24550090Y25980229D01*
X24547171Y25980871D01*
X24538765Y25984022D01*
X24491581Y25987528D01*
X24481533Y25988682D01*
X24466640Y25991001D01*
X24449527Y25991001D01*
X24440190Y25991347D01*
X24427001Y25992327D01*
X24393573Y25994811D01*
X24384797Y25992938D01*
X24375840Y25992327D01*
X24375834Y25992416D01*
X24362425Y25991001D01*
X23895316Y25991001D01*
X23806221Y26027906D01*
X22799905Y27034222D01*
X22763000Y27123317D01*
X22763000Y27315000D01*
X22760046Y27327562D01*
X22733196Y27441718D01*
X22730186Y27454516D01*
X22718212Y27470373D01*
X22700833Y27493386D01*
X22660867Y27546310D01*
X22563069Y27606864D01*
X22450000Y27628000D01*
X20890000Y27628000D01*
X20750484Y27595186D01*
X20739992Y27587263D01*
X20729536Y27579367D01*
X20658690Y27525867D01*
X20598136Y27428069D01*
X20577000Y27315000D01*
X20577000Y26665000D01*
X20609814Y26525484D01*
X20679133Y26433690D01*
X20776931Y26373136D01*
X20890000Y26352000D01*
X21991683Y26352000D01*
X22080778Y26315095D01*
X22652736Y25743136D01*
X23223402Y25172470D01*
X23230385Y25163731D01*
X23230841Y25164119D01*
X23236659Y25157283D01*
X23241449Y25149691D01*
X23248177Y25143749D01*
X23248178Y25143748D01*
X23279031Y25116500D01*
X23284719Y25111153D01*
X23297622Y25098250D01*
X23307273Y25091017D01*
X23315107Y25084639D01*
X23343847Y25059256D01*
X23343851Y25059254D01*
X23350576Y25053314D01*
X23358704Y25049498D01*
X23361184Y25047869D01*
X23376112Y25038899D01*
X23378720Y25037471D01*
X23385904Y25032087D01*
X23430226Y25015472D01*
X23439525Y25011553D01*
X23474241Y24995253D01*
X23474245Y24995252D01*
X23482366Y24991439D01*
X23491229Y24990059D01*
X23494065Y24989192D01*
X23510920Y24984770D01*
X23513829Y24984131D01*
X23522233Y24980980D01*
X23553856Y24978630D01*
X23569417Y24977473D01*
X23579456Y24976321D01*
X23594358Y24974001D01*
X23611475Y24974001D01*
X23620813Y24973654D01*
X23658471Y24970855D01*
X23658474Y24970855D01*
X23667425Y24970190D01*
X23676205Y24972064D01*
X23685160Y24972675D01*
X23685166Y24972586D01*
X23698574Y24974001D01*
X24165681Y24974001D01*
X24254777Y24937096D01*
X24478596Y24713276D01*
X24515500Y24624181D01*
X24515500Y23685500D01*
X24548314Y23545984D01*
X24553497Y23539121D01*
X24564500Y23489786D01*
X24564501Y23244423D01*
X24545627Y23178090D01*
X24536636Y23163569D01*
X24515500Y23050500D01*
X24515500Y21653500D01*
X24548314Y21513984D01*
X24553497Y21507120D01*
X24564501Y21457784D01*
X24564501Y20853954D01*
X24564209Y20845383D01*
X24560478Y20790659D01*
X24571467Y20727691D01*
X24572425Y20721201D01*
X24580097Y20657806D01*
X24582783Y20650698D01*
X24583424Y20648088D01*
X24587881Y20631795D01*
X24588647Y20629256D01*
X24589953Y20621776D01*
X24593005Y20614824D01*
X24593005Y20614823D01*
X24615631Y20563279D01*
X24618124Y20557170D01*
X24634806Y20513024D01*
X24640695Y20497438D01*
X24644996Y20491180D01*
X24646245Y20488791D01*
X24654437Y20474072D01*
X24655808Y20471754D01*
X24658861Y20464799D01*
X24697760Y20414104D01*
X24701614Y20408800D01*
X24733492Y20362417D01*
X24733494Y20362414D01*
X24737797Y20356154D01*
X24743471Y20351099D01*
X24781683Y20317053D01*
X24786959Y20312072D01*
X24859595Y20239436D01*
X24896500Y20150341D01*
X24896500Y19982999D01*
X24876498Y19914878D01*
X24822842Y19868385D01*
X24770500Y19856999D01*
X24244544Y19856999D01*
X24233432Y19858241D01*
X24233384Y19857644D01*
X24224435Y19858364D01*
X24215680Y19860345D01*
X24181770Y19858241D01*
X24165652Y19857241D01*
X24157849Y19856999D01*
X24139586Y19856999D01*
X24135156Y19856364D01*
X24135150Y19856364D01*
X24130063Y19855635D01*
X24127651Y19855290D01*
X24117594Y19854259D01*
X24070367Y19851329D01*
X24061921Y19848280D01*
X24058981Y19847671D01*
X24042102Y19843462D01*
X24039261Y19842631D01*
X24030377Y19841359D01*
X24022209Y19837645D01*
X24022205Y19837644D01*
X23987297Y19821772D01*
X23977934Y19817960D01*
X23933425Y19801892D01*
X23926178Y19796598D01*
X23923536Y19795193D01*
X23908536Y19786427D01*
X23906015Y19784815D01*
X23897840Y19781098D01*
X23891038Y19775237D01*
X23861996Y19750213D01*
X23854078Y19743926D01*
X23845844Y19737911D01*
X23845838Y19737906D01*
X23841904Y19735032D01*
X23829809Y19722937D01*
X23822963Y19716580D01*
X23787544Y19686061D01*
X23782661Y19678527D01*
X23776762Y19671765D01*
X23776695Y19671824D01*
X23768215Y19661343D01*
X22935278Y18828405D01*
X22846182Y18791500D01*
X22415500Y18791500D01*
X22275984Y18758686D01*
X22184190Y18689367D01*
X22123636Y18591569D01*
X22102500Y18478500D01*
X22102500Y17081500D01*
X22135314Y16941984D01*
X22204633Y16850190D01*
X22302431Y16789636D01*
X22415500Y16768500D01*
X23304500Y16768500D01*
X23444016Y16801314D01*
X23535810Y16870633D01*
X23596364Y16968431D01*
X23617500Y17081500D01*
X23617500Y18020183D01*
X23654405Y18109278D01*
X24348221Y18803094D01*
X24437316Y18839999D01*
X24770500Y18839999D01*
X24838621Y18819997D01*
X24885114Y18766341D01*
X24896500Y18713999D01*
X24896500Y17843500D01*
X24929314Y17703984D01*
X24998633Y17612190D01*
X25096431Y17551636D01*
X25209500Y17530500D01*
X26606500Y17530500D01*
X26746016Y17563314D01*
X26752879Y17568496D01*
X26802214Y17579500D01*
X29137501Y17579500D01*
X29205622Y17559498D01*
X29252115Y17505842D01*
X29263501Y17453500D01*
X29263500Y16791009D01*
X29263500Y16132420D01*
X29244627Y16066090D01*
X29235636Y16051569D01*
X29214500Y15938500D01*
X29214500Y14541500D01*
X29247314Y14401984D01*
X29252496Y14395121D01*
X29263500Y14345786D01*
X29263501Y13319906D01*
X29263501Y12362158D01*
X29243499Y12294037D01*
X29189843Y12247544D01*
X29161828Y12239731D01*
X29162000Y12239000D01*
X29022484Y12206186D01*
X28930690Y12136867D01*
X28870136Y12039069D01*
X28867991Y12027592D01*
X28860468Y11987348D01*
X28828290Y11924063D01*
X28736613Y11884500D01*
X27755000Y11884500D01*
X27686879Y11904502D01*
X27640386Y11958158D01*
X27629000Y12010500D01*
X27629000Y13410000D01*
X27596186Y13549516D01*
X27526867Y13641310D01*
X27429069Y13701864D01*
X27316000Y13723000D01*
X25516000Y13723000D01*
X25508913Y13721333D01*
X25508912Y13721333D01*
X25443741Y13706005D01*
X25376484Y13690186D01*
X25284690Y13620867D01*
X25224136Y13523069D01*
X25203000Y13410000D01*
X25203000Y12001160D01*
X25166095Y11912065D01*
X22981616Y9727585D01*
X22892521Y9690680D01*
X22551500Y9690680D01*
X22483379Y9710682D01*
X22436886Y9764338D01*
X22425500Y9816680D01*
X22425500Y11299580D01*
X22444373Y11365910D01*
X22447216Y11370502D01*
X22453364Y11380431D01*
X22474500Y11493500D01*
X22474500Y12890500D01*
X22441686Y13030016D01*
X22372367Y13121810D01*
X22274569Y13182364D01*
X22161500Y13203500D01*
X21272500Y13203500D01*
X21132984Y13170686D01*
X21041190Y13101367D01*
X20980636Y13003569D01*
X20959500Y12890500D01*
X20959500Y11493500D01*
X20992314Y11353984D01*
X20997496Y11347121D01*
X21008500Y11297786D01*
X21008501Y10521435D01*
X21008501Y9816680D01*
X20988499Y9748559D01*
X20934843Y9702066D01*
X20882501Y9690680D01*
X20568920Y9690680D01*
X20429404Y9657866D01*
X20337610Y9588547D01*
X20277056Y9490749D01*
X20255920Y9377680D01*
X562000Y9377680D01*
X562000Y20526572D01*
X2451000Y20526572D01*
X2451000Y9953429D01*
X5782000Y9953429D01*
X5782000Y20526572D01*
X2451000Y20526572D01*
X562000Y20526572D01*
X562000Y25873074D01*
X11679690Y25873074D01*
X11681563Y25864298D01*
X11682174Y25855341D01*
X11682085Y25855335D01*
X11683501Y25841921D01*
X11683500Y18434045D01*
X11682258Y18422933D01*
X11682855Y18422885D01*
X11682135Y18413936D01*
X11680154Y18405181D01*
X11680710Y18396222D01*
X11683258Y18355153D01*
X11683500Y18347350D01*
X11683500Y18329088D01*
X11685058Y18318215D01*
X11685209Y18317158D01*
X11686240Y18307096D01*
X11689170Y18259869D01*
X11692219Y18251423D01*
X11692828Y18248483D01*
X11697037Y18231604D01*
X11697868Y18228763D01*
X11699140Y18219879D01*
X11702854Y18211711D01*
X11702855Y18211707D01*
X11718728Y18176797D01*
X11722542Y18167428D01*
X11735558Y18131371D01*
X11735560Y18131367D01*
X11738607Y18122927D01*
X11743902Y18115679D01*
X11745301Y18113048D01*
X11754093Y18098002D01*
X11755687Y18095509D01*
X11759401Y18087341D01*
X11765258Y18080543D01*
X11765259Y18080542D01*
X11790295Y18051486D01*
X11796577Y18043574D01*
X11805467Y18031406D01*
X11817556Y18019317D01*
X11823913Y18012471D01*
X11854438Y17977045D01*
X11861972Y17972161D01*
X11868735Y17966262D01*
X11868676Y17966195D01*
X11879164Y17957709D01*
X12808900Y17027973D01*
X12815885Y17019232D01*
X12816340Y17019619D01*
X12822162Y17012778D01*
X12826950Y17005190D01*
X12833677Y16999249D01*
X12864541Y16971991D01*
X12870229Y16966644D01*
X12883123Y16953750D01*
X12886704Y16951066D01*
X12886711Y16951060D01*
X12892765Y16946523D01*
X12900604Y16940141D01*
X12929348Y16914755D01*
X12929351Y16914753D01*
X12936077Y16908813D01*
X12944201Y16904999D01*
X12946696Y16903360D01*
X12961619Y16894393D01*
X12964226Y16892966D01*
X12971404Y16887586D01*
X13015733Y16870968D01*
X13025034Y16867048D01*
X13059742Y16850752D01*
X13059746Y16850751D01*
X13067867Y16846938D01*
X13076732Y16845558D01*
X13079570Y16844690D01*
X13096417Y16840271D01*
X13099321Y16839632D01*
X13107733Y16836479D01*
X13146633Y16833589D01*
X13154916Y16832973D01*
X13164965Y16831819D01*
X13170391Y16830974D01*
X13179859Y16829500D01*
X13196972Y16829500D01*
X13206310Y16829154D01*
X13252926Y16825690D01*
X13261702Y16827563D01*
X13270659Y16828174D01*
X13270665Y16828085D01*
X13284074Y16829500D01*
X13309060Y16829500D01*
X13393945Y16796616D01*
X13400095Y16791009D01*
X13407133Y16781690D01*
X13504931Y16721136D01*
X13618000Y16700000D01*
X15178000Y16700000D01*
X15317516Y16732814D01*
X15409310Y16802133D01*
X15469864Y16899931D01*
X15491000Y17013000D01*
X15491000Y17653500D01*
X15511002Y17721621D01*
X15564658Y17768114D01*
X15617000Y17779500D01*
X15879000Y17779500D01*
X15947121Y17759498D01*
X15993614Y17705842D01*
X16005000Y17653500D01*
X16005000Y17013000D01*
X16037814Y16873484D01*
X16107133Y16781690D01*
X16204931Y16721136D01*
X16318000Y16700000D01*
X16463500Y16700000D01*
X16531621Y16679998D01*
X16578114Y16626342D01*
X16589500Y16574000D01*
X16589501Y15357051D01*
X16588259Y15345934D01*
X16588855Y15345886D01*
X16588135Y15336935D01*
X16586154Y15328181D01*
X16586710Y15319222D01*
X16589259Y15278137D01*
X16589501Y15270334D01*
X16589501Y15252087D01*
X16590136Y15247656D01*
X16591209Y15240163D01*
X16592239Y15230106D01*
X16595170Y15182869D01*
X16598218Y15174425D01*
X16598817Y15171534D01*
X16603037Y15154609D01*
X16603868Y15151769D01*
X16605141Y15142878D01*
X16624731Y15099794D01*
X16628536Y15090443D01*
X16644607Y15045927D01*
X16649904Y15038677D01*
X16651298Y15036054D01*
X16660088Y15021013D01*
X16661685Y15018515D01*
X16665402Y15010341D01*
X16671260Y15003542D01*
X16671261Y15003541D01*
X16696287Y14974497D01*
X16702574Y14966579D01*
X16708594Y14958338D01*
X16708598Y14958334D01*
X16711467Y14954406D01*
X16723563Y14942310D01*
X16729920Y14935464D01*
X16760439Y14900045D01*
X16767973Y14895162D01*
X16774735Y14889263D01*
X16774676Y14889195D01*
X16785160Y14880713D01*
X16858595Y14807278D01*
X16895500Y14718183D01*
X16895500Y14033500D01*
X16928314Y13893984D01*
X16997633Y13802190D01*
X17084830Y13748200D01*
X17132218Y13695333D01*
X17144500Y13641073D01*
X17144501Y13191214D01*
X17111970Y13107242D01*
X17104190Y13101367D01*
X17043636Y13003569D01*
X17022500Y12890500D01*
X17022500Y11493500D01*
X17055314Y11353984D01*
X17124633Y11262190D01*
X17222431Y11201636D01*
X17335500Y11180500D01*
X18224500Y11180500D01*
X18364016Y11213314D01*
X18455810Y11282633D01*
X18516364Y11380431D01*
X18537500Y11493500D01*
X18537500Y11557500D01*
X18557502Y11625621D01*
X18611158Y11672114D01*
X18663500Y11683500D01*
X18928500Y11683500D01*
X18996621Y11663498D01*
X19043114Y11609842D01*
X19054500Y11557500D01*
X19054500Y11493500D01*
X19087314Y11353984D01*
X19156633Y11262190D01*
X19254431Y11201636D01*
X19367500Y11180500D01*
X20256500Y11180500D01*
X20396016Y11213314D01*
X20487810Y11282633D01*
X20548364Y11380431D01*
X20569500Y11493500D01*
X20569500Y12890500D01*
X20536686Y13030016D01*
X20467367Y13121810D01*
X20369569Y13182364D01*
X20256500Y13203500D01*
X19367500Y13203500D01*
X19227984Y13170686D01*
X19136190Y13101367D01*
X19075636Y13003569D01*
X19054500Y12890500D01*
X19054500Y12826500D01*
X19034498Y12758379D01*
X18980842Y12711886D01*
X18928500Y12700500D01*
X18663500Y12700500D01*
X18595379Y12720502D01*
X18548886Y12774158D01*
X18537500Y12826500D01*
X18537500Y12890500D01*
X18504686Y13030016D01*
X18435367Y13121810D01*
X18337569Y13182364D01*
X18264347Y13196051D01*
X18201063Y13228230D01*
X18161500Y13319906D01*
X18161500Y13640818D01*
X18181502Y13708939D01*
X18230397Y13751757D01*
X18237016Y13753314D01*
X18328810Y13822633D01*
X18389364Y13920431D01*
X18410500Y14033500D01*
X18410500Y15430500D01*
X18377686Y15570016D01*
X18308367Y15661810D01*
X18210569Y15722364D01*
X18097500Y15743500D01*
X17732500Y15743500D01*
X17664379Y15763502D01*
X17617886Y15817158D01*
X17606500Y15869500D01*
X17606500Y16574000D01*
X17626502Y16642121D01*
X17680158Y16688614D01*
X17732500Y16700000D01*
X17878000Y16700000D01*
X18017516Y16732814D01*
X18109310Y16802133D01*
X18169864Y16899931D01*
X18191000Y17013000D01*
X18191000Y17653500D01*
X18211002Y17721621D01*
X18264658Y17768114D01*
X18317000Y17779500D01*
X20071500Y17779500D01*
X20139621Y17759498D01*
X20186114Y17705842D01*
X20197500Y17653500D01*
X20197500Y17081500D01*
X20230314Y16941984D01*
X20299633Y16850190D01*
X20397431Y16789636D01*
X20510500Y16768500D01*
X21399500Y16768500D01*
X21539016Y16801314D01*
X21630810Y16870633D01*
X21691364Y16968431D01*
X21712500Y17081500D01*
X21712500Y18478500D01*
X21679686Y18618016D01*
X21610367Y18709810D01*
X21512569Y18770364D01*
X21399500Y18791500D01*
X20535315Y18791500D01*
X20525979Y18791846D01*
X20510084Y18793027D01*
X20500034Y18794181D01*
X20485141Y18796500D01*
X20468028Y18796500D01*
X20458691Y18796846D01*
X20445502Y18797826D01*
X20412074Y18800310D01*
X20403298Y18798437D01*
X20394341Y18797826D01*
X20394335Y18797915D01*
X20380926Y18796500D01*
X18317000Y18796500D01*
X18248879Y18816502D01*
X18202386Y18870158D01*
X18191000Y18922500D01*
X18191000Y19563000D01*
X18180557Y19607403D01*
X18161196Y19689718D01*
X18158186Y19702516D01*
X18088867Y19794310D01*
X17991069Y19854864D01*
X17878000Y19876000D01*
X17732500Y19876000D01*
X17664379Y19896002D01*
X17617886Y19949658D01*
X17606500Y20002000D01*
X17606500Y20511718D01*
X17626502Y20579839D01*
X17680158Y20626332D01*
X17750432Y20636436D01*
X17816762Y20605127D01*
X17823133Y20596690D01*
X17920931Y20536136D01*
X18034000Y20515000D01*
X19558000Y20515000D01*
X19588175Y20522097D01*
X19684718Y20544804D01*
X19697516Y20547814D01*
X19709906Y20557170D01*
X19779991Y20610096D01*
X19789310Y20617133D01*
X19849864Y20714931D01*
X19871000Y20828000D01*
X19871000Y22352000D01*
X19838186Y22491516D01*
X19768867Y22583310D01*
X19671069Y22643864D01*
X19558000Y22665000D01*
X18034000Y22665000D01*
X17894484Y22632186D01*
X17802690Y22562867D01*
X17742136Y22465069D01*
X17739991Y22453596D01*
X17735771Y22442703D01*
X17734198Y22443312D01*
X17708143Y22392065D01*
X17616464Y22352500D01*
X17520500Y22352500D01*
X17452379Y22372502D01*
X17405886Y22426158D01*
X17394500Y22478500D01*
X17394500Y22542500D01*
X17361686Y22682016D01*
X17292367Y22773810D01*
X17205170Y22827800D01*
X17157782Y22880667D01*
X17145500Y22934927D01*
X17145500Y23292818D01*
X17165502Y23360939D01*
X17214397Y23403757D01*
X17221016Y23405314D01*
X17312810Y23474633D01*
X17373364Y23572431D01*
X17394500Y23685500D01*
X17394500Y23749500D01*
X17414502Y23817621D01*
X17468158Y23864114D01*
X17520500Y23875500D01*
X17595000Y23875500D01*
X17663121Y23855498D01*
X17709614Y23801842D01*
X17721000Y23749500D01*
X17721000Y23368000D01*
X17753814Y23228484D01*
X17823133Y23136690D01*
X17920931Y23076136D01*
X18034000Y23055000D01*
X19558000Y23055000D01*
X19569004Y23057588D01*
X19684718Y23084804D01*
X19697516Y23087814D01*
X19789310Y23157133D01*
X19849864Y23254931D01*
X19871000Y23368000D01*
X19871000Y24892000D01*
X19860394Y24937096D01*
X19849667Y24982703D01*
X19838186Y25031516D01*
X19828374Y25044510D01*
X19804086Y25076672D01*
X19768867Y25123310D01*
X19671069Y25183864D01*
X19558000Y25205000D01*
X18034000Y25205000D01*
X18026913Y25203333D01*
X18026912Y25203333D01*
X17993902Y25195569D01*
X17894484Y25172186D01*
X17883992Y25164263D01*
X17867694Y25151955D01*
X17802690Y25102867D01*
X17742136Y25005069D01*
X17739991Y24993596D01*
X17735771Y24982703D01*
X17734198Y24983312D01*
X17708143Y24932065D01*
X17616464Y24892500D01*
X17520500Y24892500D01*
X17452379Y24912502D01*
X17405886Y24966158D01*
X17394500Y25018500D01*
X17394500Y25082500D01*
X17391427Y25095568D01*
X17364696Y25209218D01*
X17361686Y25222016D01*
X17292367Y25313810D01*
X17194569Y25374364D01*
X17081500Y25395500D01*
X16192500Y25395500D01*
X16052984Y25362686D01*
X15961190Y25293367D01*
X15900636Y25195569D01*
X15879500Y25082500D01*
X15879500Y23685500D01*
X15912314Y23545984D01*
X15981633Y23454190D01*
X16068830Y23400200D01*
X16116218Y23347333D01*
X16128500Y23293073D01*
X16128501Y22935182D01*
X16108499Y22867062D01*
X16059604Y22824243D01*
X16052984Y22822686D01*
X15961190Y22753367D01*
X15900636Y22655569D01*
X15879500Y22542500D01*
X15879500Y21145500D01*
X15912314Y21005984D01*
X15981633Y20914190D01*
X16079431Y20853636D01*
X16192500Y20832500D01*
X16463501Y20832500D01*
X16531622Y20812498D01*
X16578115Y20758842D01*
X16589501Y20706500D01*
X16589500Y20002000D01*
X16569498Y19933879D01*
X16515842Y19887386D01*
X16463500Y19876000D01*
X16318000Y19876000D01*
X16178484Y19843186D01*
X16086690Y19773867D01*
X16026136Y19676069D01*
X16005000Y19563000D01*
X16005000Y18922500D01*
X15984998Y18854379D01*
X15931342Y18807886D01*
X15879000Y18796500D01*
X15486940Y18796500D01*
X15402055Y18829384D01*
X15395905Y18834991D01*
X15388867Y18844310D01*
X15291069Y18904864D01*
X15178000Y18926000D01*
X13618000Y18926000D01*
X13478484Y18893186D01*
X13386690Y18823867D01*
X13326136Y18726069D01*
X13305000Y18613000D01*
X13305000Y18274319D01*
X13284998Y18206198D01*
X13231342Y18159705D01*
X13161068Y18149601D01*
X13089905Y18185223D01*
X12737405Y18537722D01*
X12700500Y18626818D01*
X12700500Y25082500D01*
X13974500Y25082500D01*
X13974500Y23685500D01*
X14007314Y23545984D01*
X14076633Y23454190D01*
X14163830Y23400200D01*
X14211218Y23347333D01*
X14223500Y23293073D01*
X14223501Y22935182D01*
X14203499Y22867062D01*
X14154604Y22824243D01*
X14147984Y22822686D01*
X14056190Y22753367D01*
X13995636Y22655569D01*
X13974500Y22542500D01*
X13974500Y21145500D01*
X14007314Y21005984D01*
X14076633Y20914190D01*
X14174431Y20853636D01*
X14287500Y20832500D01*
X15176500Y20832500D01*
X15316016Y20865314D01*
X15407810Y20934633D01*
X15468364Y21032431D01*
X15489500Y21145500D01*
X15489500Y22542500D01*
X15456686Y22682016D01*
X15387367Y22773810D01*
X15300170Y22827800D01*
X15252782Y22880667D01*
X15240500Y22934927D01*
X15240500Y23292818D01*
X15260502Y23360939D01*
X15309397Y23403757D01*
X15316016Y23405314D01*
X15407810Y23474633D01*
X15468364Y23572431D01*
X15489500Y23685500D01*
X15489500Y25082500D01*
X15486427Y25095568D01*
X15459696Y25209218D01*
X15456686Y25222016D01*
X15387367Y25313810D01*
X15300170Y25367800D01*
X15252782Y25420667D01*
X15240500Y25474927D01*
X15240500Y25477180D01*
X15277405Y25566276D01*
X15356313Y25645183D01*
X15454252Y25743122D01*
X15454265Y25743136D01*
X16155724Y26444595D01*
X16244819Y26481500D01*
X17881060Y26481500D01*
X17965945Y26448616D01*
X17972095Y26443009D01*
X17979133Y26433690D01*
X18076931Y26373136D01*
X18190000Y26352000D01*
X19750000Y26352000D01*
X19889516Y26384814D01*
X19902143Y26394349D01*
X19936772Y26420500D01*
X19981310Y26454133D01*
X20041864Y26551931D01*
X20063000Y26665000D01*
X20063000Y27315000D01*
X20060046Y27327562D01*
X20033196Y27441718D01*
X20030186Y27454516D01*
X20018212Y27470373D01*
X20000833Y27493386D01*
X19960867Y27546310D01*
X19863069Y27606864D01*
X19750000Y27628000D01*
X18190000Y27628000D01*
X18050484Y27595186D01*
X18039992Y27587263D01*
X17993902Y27552458D01*
X17958690Y27525867D01*
X17954767Y27531062D01*
X17881010Y27498500D01*
X16052047Y27498500D01*
X16040935Y27499742D01*
X16040887Y27499145D01*
X16031938Y27499865D01*
X16023183Y27501846D01*
X15989273Y27499742D01*
X15973155Y27498742D01*
X15965352Y27498500D01*
X15947089Y27498500D01*
X15942659Y27497865D01*
X15942653Y27497865D01*
X15937566Y27497136D01*
X15935154Y27496791D01*
X15925097Y27495760D01*
X15877870Y27492830D01*
X15869424Y27489781D01*
X15866484Y27489172D01*
X15849605Y27484963D01*
X15846764Y27484132D01*
X15837880Y27482860D01*
X15829712Y27479146D01*
X15829708Y27479145D01*
X15794800Y27463273D01*
X15785437Y27459461D01*
X15740928Y27443393D01*
X15733681Y27438099D01*
X15731039Y27436694D01*
X15716039Y27427928D01*
X15713518Y27426316D01*
X15705343Y27422599D01*
X15698541Y27416738D01*
X15669499Y27391714D01*
X15661581Y27385427D01*
X15653347Y27379412D01*
X15653341Y27379407D01*
X15649407Y27376533D01*
X15637312Y27364438D01*
X15630466Y27358081D01*
X15595047Y27327562D01*
X15590164Y27320028D01*
X15584265Y27313266D01*
X15584198Y27313325D01*
X15575718Y27302844D01*
X14737407Y26464532D01*
X14521741Y26248866D01*
X14506132Y26236005D01*
X14502759Y26234253D01*
X14498892Y26230951D01*
X14449572Y26181631D01*
X14438483Y26171776D01*
X14412347Y26151172D01*
X14399983Y26133283D01*
X14390775Y26121518D01*
X14366000Y26093466D01*
X14360654Y26087779D01*
X14347749Y26074874D01*
X14340511Y26065216D01*
X14334139Y26057389D01*
X14302814Y26021921D01*
X14298999Y26013795D01*
X14297351Y26011286D01*
X14288397Y25996384D01*
X14286967Y25993773D01*
X14281586Y25986593D01*
X14278437Y25978193D01*
X14278436Y25978191D01*
X14273876Y25966025D01*
X14267689Y25949520D01*
X14264972Y25942273D01*
X14261043Y25932951D01*
X14244753Y25898256D01*
X14244752Y25898251D01*
X14240939Y25890131D01*
X14239558Y25881265D01*
X14238691Y25878428D01*
X14234261Y25861539D01*
X14233630Y25858671D01*
X14230479Y25850264D01*
X14229814Y25841314D01*
X14226972Y25803066D01*
X14225820Y25793031D01*
X14223501Y25778139D01*
X14223501Y25761039D01*
X14223155Y25751702D01*
X14219690Y25705072D01*
X14221563Y25696296D01*
X14222174Y25687339D01*
X14222085Y25687333D01*
X14223501Y25673919D01*
X14223501Y25475182D01*
X14203499Y25407061D01*
X14154604Y25364243D01*
X14147984Y25362686D01*
X14056190Y25293367D01*
X13995636Y25195569D01*
X13974500Y25082500D01*
X12700500Y25082500D01*
X12700500Y25645183D01*
X12737405Y25734278D01*
X15347723Y28344595D01*
X15436818Y28381500D01*
X17881060Y28381500D01*
X17965945Y28348616D01*
X17972095Y28343009D01*
X17979133Y28333690D01*
X18076931Y28273136D01*
X18190000Y28252000D01*
X19750000Y28252000D01*
X19772186Y28257218D01*
X19876718Y28281804D01*
X19889516Y28284814D01*
X19981310Y28354133D01*
X20041864Y28451931D01*
X20063000Y28565000D01*
X20063000Y29215000D01*
X20577000Y29215000D01*
X20577000Y28565000D01*
X20609814Y28425484D01*
X20679133Y28333690D01*
X20776931Y28273136D01*
X20890000Y28252000D01*
X22450000Y28252000D01*
X22472186Y28257218D01*
X22576718Y28281804D01*
X22589516Y28284814D01*
X22681310Y28354133D01*
X22741864Y28451931D01*
X22763000Y28565000D01*
X22763000Y29215000D01*
X22758147Y29235636D01*
X22733196Y29341718D01*
X22730186Y29354516D01*
X22712836Y29377492D01*
X22678086Y29423508D01*
X22660867Y29446310D01*
X22563069Y29506864D01*
X22450000Y29528000D01*
X22304500Y29528000D01*
X22236379Y29548002D01*
X22189886Y29601658D01*
X22178500Y29654000D01*
X22178500Y31276183D01*
X22215405Y31365278D01*
X22987222Y32137095D01*
X23076317Y32174000D01*
X24291683Y32174000D01*
X24380778Y32137095D01*
X24699900Y31817973D01*
X24706885Y31809232D01*
X24707340Y31809619D01*
X24713162Y31802778D01*
X24717950Y31795190D01*
X24724677Y31789249D01*
X24755541Y31761991D01*
X24761229Y31756644D01*
X24774123Y31743750D01*
X24777711Y31741061D01*
X24777712Y31741060D01*
X24783766Y31736522D01*
X24791604Y31730140D01*
X24820347Y31704756D01*
X24820350Y31704754D01*
X24827077Y31698813D01*
X24835198Y31695001D01*
X24837689Y31693364D01*
X24852593Y31684409D01*
X24855222Y31682970D01*
X24862404Y31677587D01*
X24870811Y31674436D01*
X24870810Y31674436D01*
X24906702Y31660981D01*
X24916025Y31657052D01*
X24950736Y31640755D01*
X24950739Y31640754D01*
X24958867Y31636938D01*
X24967739Y31635556D01*
X24970563Y31634693D01*
X24987437Y31630266D01*
X24990330Y31629630D01*
X24998733Y31626480D01*
X25045934Y31622972D01*
X25055953Y31621821D01*
X25066053Y31620248D01*
X25066057Y31620248D01*
X25070859Y31619500D01*
X25087988Y31619500D01*
X25097300Y31619155D01*
X25143925Y31615690D01*
X25152701Y31617563D01*
X25161662Y31618174D01*
X25161668Y31618085D01*
X25175073Y31619500D01*
X25521182Y31619500D01*
X25610278Y31582595D01*
X25713913Y31478959D01*
X25747938Y31416647D01*
X25742872Y31345831D01*
X25726762Y31319441D01*
X25727690Y31318867D01*
X25667136Y31221069D01*
X25646000Y31108000D01*
X25646000Y29108000D01*
X25678814Y28968484D01*
X25686737Y28957992D01*
X25690993Y28952356D01*
X25748133Y28876690D01*
X25845931Y28816136D01*
X25959000Y28795000D01*
X26609000Y28795000D01*
X26626050Y28799010D01*
X26735718Y28824804D01*
X26748516Y28827814D01*
X26840310Y28897133D01*
X26900864Y28994931D01*
X26922000Y29108000D01*
X26922000Y31108000D01*
X26889186Y31247516D01*
X26854851Y31292984D01*
X26819867Y31339310D01*
X26825062Y31343233D01*
X26792500Y31416990D01*
X26792500Y31557954D01*
X26793742Y31569066D01*
X26793145Y31569114D01*
X26793865Y31578063D01*
X26795846Y31586818D01*
X26792742Y31636847D01*
X26792500Y31644650D01*
X26792500Y31662913D01*
X26790791Y31674848D01*
X26789759Y31684913D01*
X26789498Y31689133D01*
X26786830Y31732132D01*
X26783781Y31740578D01*
X26783172Y31743518D01*
X26778963Y31760397D01*
X26778132Y31763238D01*
X26776860Y31772122D01*
X26773146Y31780290D01*
X26773145Y31780294D01*
X26757273Y31815202D01*
X26753459Y31824570D01*
X26752347Y31827652D01*
X26748340Y31838750D01*
X26740441Y31860632D01*
X26740440Y31860634D01*
X26737393Y31869074D01*
X26732098Y31876322D01*
X26730697Y31878956D01*
X26721926Y31893965D01*
X26720317Y31896481D01*
X26716599Y31904659D01*
X26685701Y31940519D01*
X26679425Y31948423D01*
X26670533Y31960594D01*
X26658444Y31972683D01*
X26652086Y31979530D01*
X26647849Y31984447D01*
X26621562Y32014955D01*
X26619874Y32016049D01*
X26583574Y32072950D01*
X26583811Y32143946D01*
X26622394Y32203544D01*
X26675740Y32230697D01*
X26735718Y32244804D01*
X26748516Y32247814D01*
X26840310Y32317133D01*
X26900864Y32414931D01*
X26922000Y32528000D01*
X26922000Y32893500D01*
X26942002Y32961621D01*
X26995658Y33008114D01*
X27048000Y33019500D01*
X27183500Y33019500D01*
X27251621Y32999498D01*
X27298114Y32945842D01*
X27309500Y32893500D01*
X27309500Y32829500D01*
X27342314Y32689984D01*
X27350237Y32679492D01*
X27365128Y32659773D01*
X27411633Y32598190D01*
X27498830Y32544200D01*
X27546218Y32491333D01*
X27558500Y32437073D01*
X27558501Y32079182D01*
X27538499Y32011062D01*
X27489604Y31968243D01*
X27482984Y31966686D01*
X27391190Y31897367D01*
X27330636Y31799569D01*
X27309500Y31686500D01*
X27309500Y30289500D01*
X27342314Y30149984D01*
X27411633Y30058190D01*
X27509431Y29997636D01*
X27520903Y29995492D01*
X27520904Y29995491D01*
X27536895Y29992502D01*
X27565346Y29987184D01*
X27637646Y29945576D01*
X27662164Y29917122D01*
X27665288Y29913496D01*
X27671574Y29905579D01*
X27677594Y29897338D01*
X27677598Y29897334D01*
X27680467Y29893406D01*
X27692563Y29881310D01*
X27698920Y29874464D01*
X27729439Y29839045D01*
X27736973Y29834162D01*
X27743735Y29828263D01*
X27743676Y29828195D01*
X27754160Y29819713D01*
X28415595Y29158278D01*
X28452500Y29069183D01*
X28452500Y28384500D01*
X28485314Y28244984D01*
X28554633Y28153190D01*
X28652431Y28092636D01*
X28765500Y28071500D01*
X30162500Y28071500D01*
X30302016Y28104314D01*
X30327051Y28123219D01*
X30346078Y28137588D01*
X30393810Y28173633D01*
X30454364Y28271431D01*
X30475500Y28384500D01*
X30475500Y29273500D01*
X30442686Y29413016D01*
X30432982Y29425867D01*
X30398024Y29472158D01*
X30373367Y29504810D01*
X30275569Y29565364D01*
X30162500Y29586500D01*
X29477819Y29586500D01*
X29388724Y29623404D01*
X29122168Y29889960D01*
X28855420Y30156707D01*
X28821395Y30219020D01*
X28820660Y30268952D01*
X28823429Y30283766D01*
X28823430Y30283775D01*
X28824500Y30289500D01*
X28824500Y30416500D01*
X30992500Y30416500D01*
X30992500Y29527500D01*
X30994167Y29520413D01*
X30994167Y29520412D01*
X30997837Y29504810D01*
X31025314Y29387984D01*
X31033237Y29377492D01*
X31048128Y29357773D01*
X31094633Y29296190D01*
X31192431Y29235636D01*
X31305500Y29214500D01*
X31990183Y29214500D01*
X32079278Y29177595D01*
X32102900Y29153973D01*
X32109885Y29145232D01*
X32110340Y29145619D01*
X32116162Y29138778D01*
X32120950Y29131190D01*
X32155234Y29100912D01*
X32158541Y29097991D01*
X32164229Y29092644D01*
X32177123Y29079750D01*
X32180711Y29077061D01*
X32180712Y29077060D01*
X32186766Y29072522D01*
X32194604Y29066140D01*
X32223347Y29040756D01*
X32223350Y29040754D01*
X32230077Y29034813D01*
X32238198Y29031001D01*
X32240689Y29029364D01*
X32255593Y29020409D01*
X32258222Y29018970D01*
X32265404Y29013587D01*
X32273811Y29010436D01*
X32273810Y29010436D01*
X32309702Y28996981D01*
X32319025Y28993052D01*
X32353736Y28976755D01*
X32353739Y28976754D01*
X32361867Y28972938D01*
X32370739Y28971556D01*
X32373563Y28970693D01*
X32390437Y28966266D01*
X32393330Y28965630D01*
X32401733Y28962480D01*
X32448934Y28958972D01*
X32458953Y28957821D01*
X32469053Y28956248D01*
X32469057Y28956248D01*
X32473859Y28955500D01*
X32490988Y28955500D01*
X32500300Y28955155D01*
X32546925Y28951690D01*
X32555701Y28953563D01*
X32564662Y28954174D01*
X32564668Y28954085D01*
X32578073Y28955500D01*
X34105000Y28955500D01*
X34173121Y28935498D01*
X34219614Y28881842D01*
X34231000Y28829500D01*
X34231000Y28702000D01*
X34263814Y28562484D01*
X34333133Y28470690D01*
X34430931Y28410136D01*
X34544000Y28389000D01*
X36068000Y28389000D01*
X36207516Y28421814D01*
X36299310Y28491133D01*
X36359864Y28588931D01*
X36381000Y28702000D01*
X36381000Y28829500D01*
X36401002Y28897621D01*
X36454658Y28944114D01*
X36507000Y28955500D01*
X36645000Y28955500D01*
X36713121Y28935498D01*
X36759614Y28881842D01*
X36771000Y28829500D01*
X36771000Y28702000D01*
X36803814Y28562484D01*
X36873133Y28470690D01*
X36970931Y28410136D01*
X37084000Y28389000D01*
X38608000Y28389000D01*
X38747516Y28421814D01*
X38839310Y28491133D01*
X38899864Y28588931D01*
X38921000Y28702000D01*
X38921000Y30226000D01*
X38888186Y30365516D01*
X38878451Y30378408D01*
X38841803Y30426937D01*
X38818867Y30457310D01*
X38721069Y30517864D01*
X38608000Y30539000D01*
X37084000Y30539000D01*
X36944484Y30506186D01*
X36933992Y30498263D01*
X36917525Y30485828D01*
X36852690Y30436867D01*
X36792136Y30339069D01*
X36771000Y30226000D01*
X36771000Y30098500D01*
X36750998Y30030379D01*
X36697342Y29983886D01*
X36645000Y29972500D01*
X36507000Y29972500D01*
X36438879Y29992502D01*
X36392386Y30046158D01*
X36381000Y30098500D01*
X36381000Y30226000D01*
X36348186Y30365516D01*
X36338451Y30378408D01*
X36301803Y30426937D01*
X36278867Y30457310D01*
X36181069Y30517864D01*
X36068000Y30539000D01*
X34544000Y30539000D01*
X34404484Y30506186D01*
X34393992Y30498263D01*
X34377525Y30485828D01*
X34312690Y30436867D01*
X34252136Y30339069D01*
X34231000Y30226000D01*
X34231000Y30098500D01*
X34210998Y30030379D01*
X34157342Y29983886D01*
X34105000Y29972500D01*
X33141500Y29972500D01*
X33073379Y29992502D01*
X33026886Y30046158D01*
X33015500Y30098500D01*
X33015500Y30416500D01*
X32982686Y30556016D01*
X32913367Y30647810D01*
X32815569Y30708364D01*
X32702500Y30729500D01*
X31305500Y30729500D01*
X31165984Y30696686D01*
X31074190Y30627367D01*
X31013636Y30529569D01*
X30992500Y30416500D01*
X28824500Y30416500D01*
X28824500Y31686500D01*
X28809186Y31751613D01*
X28795571Y31809498D01*
X28791686Y31826016D01*
X28722367Y31917810D01*
X28635170Y31971800D01*
X28587782Y32024667D01*
X28575500Y32078927D01*
X28575500Y32436818D01*
X28595502Y32504939D01*
X28644397Y32547757D01*
X28651016Y32549314D01*
X28692976Y32581000D01*
X28699888Y32586220D01*
X28742810Y32618633D01*
X28803364Y32716431D01*
X28824500Y32829500D01*
X28824500Y34226500D01*
X28791686Y34366016D01*
X28722367Y34457810D01*
X28624569Y34518364D01*
X28511500Y34539500D01*
X27622500Y34539500D01*
X27482984Y34506686D01*
X27391190Y34437367D01*
X27330636Y34339569D01*
X27309500Y34226500D01*
X27309500Y34162500D01*
X27289498Y34094379D01*
X27235842Y34047886D01*
X27183500Y34036500D01*
X27048000Y34036500D01*
X26979879Y34056502D01*
X26933386Y34110158D01*
X26922000Y34162500D01*
X26922000Y34528000D01*
X26889186Y34667516D01*
X26877104Y34683516D01*
X26837614Y34735809D01*
X26819867Y34759310D01*
X26722069Y34819864D01*
X26609000Y34841000D01*
X25959000Y34841000D01*
X25951913Y34839333D01*
X25951912Y34839333D01*
X25901427Y34827459D01*
X25819484Y34808186D01*
X25727690Y34738867D01*
X25667136Y34641069D01*
X25646000Y34528000D01*
X25646000Y32762500D01*
X25625998Y32694379D01*
X25572342Y32647886D01*
X25520000Y32636500D01*
X25371819Y32636500D01*
X25282724Y32673404D01*
X25058905Y32897222D01*
X25022000Y32986318D01*
X25022000Y34528000D01*
X24989186Y34667516D01*
X24977104Y34683516D01*
X24938859Y34734160D01*
X24913769Y34800576D01*
X24928569Y34870013D01*
X24950314Y34899187D01*
X25333721Y35282594D01*
X25422816Y35319499D01*
X30457184Y35319499D01*
X30546278Y35282595D01*
X31458597Y34370275D01*
X31495500Y34281182D01*
X31495501Y32760500D01*
X31475499Y32692379D01*
X31421843Y32645886D01*
X31369501Y32634500D01*
X31305500Y32634500D01*
X31298413Y32632833D01*
X31298412Y32632833D01*
X31238038Y32618633D01*
X31165984Y32601686D01*
X31074190Y32532367D01*
X31013636Y32434569D01*
X30992500Y32321500D01*
X30992500Y31432500D01*
X31025314Y31292984D01*
X31094633Y31201190D01*
X31192431Y31140636D01*
X31305500Y31119500D01*
X32702500Y31119500D01*
X32842016Y31152314D01*
X32933810Y31221633D01*
X32994364Y31319431D01*
X33015500Y31432500D01*
X33015500Y32321500D01*
X32982686Y32461016D01*
X32913367Y32552810D01*
X32815569Y32613364D01*
X32702500Y32634500D01*
X32638500Y32634500D01*
X32570379Y32654502D01*
X32523886Y32708158D01*
X32512500Y32760500D01*
X32512500Y34473954D01*
X32513742Y34485066D01*
X32513145Y34485114D01*
X32513865Y34494063D01*
X32515846Y34502818D01*
X32512742Y34552847D01*
X32512500Y34560650D01*
X32512500Y34578913D01*
X32510791Y34590848D01*
X32509759Y34600913D01*
X32507386Y34639170D01*
X32506830Y34648132D01*
X32503781Y34656578D01*
X32503172Y34659518D01*
X32498963Y34676397D01*
X32498132Y34679238D01*
X32496860Y34688122D01*
X32493146Y34696290D01*
X32493145Y34696294D01*
X32477273Y34731202D01*
X32473459Y34740570D01*
X32471534Y34745904D01*
X32457393Y34785074D01*
X32452098Y34792322D01*
X32450697Y34794956D01*
X32441926Y34809965D01*
X32440317Y34812481D01*
X32436599Y34820659D01*
X32405701Y34856519D01*
X32399425Y34864423D01*
X32395341Y34870013D01*
X32390533Y34876594D01*
X32378444Y34888683D01*
X32372086Y34895530D01*
X32347423Y34924153D01*
X32341562Y34930955D01*
X32334028Y34935839D01*
X32327265Y34941738D01*
X32327324Y34941805D01*
X32316836Y34950291D01*
X31129101Y36138026D01*
X31122116Y36146767D01*
X31121661Y36146380D01*
X31115839Y36153221D01*
X31111051Y36160809D01*
X31073459Y36194009D01*
X31067772Y36199355D01*
X31054877Y36212250D01*
X31051296Y36214934D01*
X31051289Y36214940D01*
X31045235Y36219477D01*
X31037397Y36225859D01*
X31008657Y36251241D01*
X31008651Y36251245D01*
X31001924Y36257186D01*
X30993796Y36261002D01*
X30991316Y36262631D01*
X30976388Y36271601D01*
X30973780Y36273029D01*
X30966596Y36278413D01*
X30922274Y36295028D01*
X30912975Y36298947D01*
X30878259Y36315247D01*
X30878255Y36315248D01*
X30870134Y36319061D01*
X30861271Y36320441D01*
X30858435Y36321308D01*
X30841592Y36325727D01*
X30838673Y36326369D01*
X30830267Y36329520D01*
X30783083Y36333026D01*
X30773035Y36334180D01*
X30758142Y36336499D01*
X30741029Y36336499D01*
X30731692Y36336845D01*
X30718503Y36337825D01*
X30685075Y36340309D01*
X30676299Y36338436D01*
X30667342Y36337825D01*
X30667336Y36337914D01*
X30653927Y36336499D01*
X25230044Y36336499D01*
X25218932Y36337741D01*
X25218884Y36337144D01*
X25209935Y36337864D01*
X25201180Y36339845D01*
X25167270Y36337741D01*
X25151152Y36336741D01*
X25143349Y36336499D01*
X25125086Y36336499D01*
X25120656Y36335864D01*
X25120650Y36335864D01*
X25115563Y36335135D01*
X25113151Y36334790D01*
X25103094Y36333759D01*
X25055867Y36330829D01*
X25047421Y36327780D01*
X25044481Y36327171D01*
X25027602Y36322962D01*
X25024761Y36322131D01*
X25015877Y36320859D01*
X25007709Y36317145D01*
X25007705Y36317144D01*
X24972797Y36301272D01*
X24963434Y36297460D01*
X24918925Y36281392D01*
X24911678Y36276098D01*
X24909036Y36274693D01*
X24894036Y36265927D01*
X24891515Y36264315D01*
X24883340Y36260598D01*
X24876538Y36254737D01*
X24847496Y36229713D01*
X24839578Y36223426D01*
X24831344Y36217411D01*
X24831338Y36217406D01*
X24827404Y36214532D01*
X24815309Y36202437D01*
X24808463Y36196080D01*
X24773044Y36165561D01*
X24768161Y36158027D01*
X24762262Y36151265D01*
X24762195Y36151324D01*
X24753715Y36140843D01*
X24073968Y35461095D01*
X24065231Y35454114D01*
X24065619Y35453658D01*
X24058783Y35447840D01*
X24051191Y35443050D01*
X24045249Y35436322D01*
X24045248Y35436321D01*
X24018000Y35405468D01*
X24012653Y35399780D01*
X23999749Y35386876D01*
X23992511Y35377218D01*
X23986139Y35369391D01*
X23954814Y35333923D01*
X23950999Y35325797D01*
X23949351Y35323288D01*
X23940397Y35308386D01*
X23938967Y35305775D01*
X23933586Y35298595D01*
X23930437Y35290195D01*
X23930436Y35290193D01*
X23916972Y35254275D01*
X23913043Y35244953D01*
X23896753Y35210258D01*
X23896752Y35210253D01*
X23892939Y35202133D01*
X23891558Y35193267D01*
X23890691Y35190430D01*
X23886261Y35173541D01*
X23885630Y35170673D01*
X23882479Y35162266D01*
X23881814Y35153316D01*
X23878972Y35115068D01*
X23877820Y35105033D01*
X23875501Y35090141D01*
X23875501Y35073041D01*
X23875155Y35063704D01*
X23871690Y35017074D01*
X23873563Y35008298D01*
X23874174Y34999341D01*
X23874085Y34999335D01*
X23875501Y34985921D01*
X23875501Y34836941D01*
X23842617Y34752056D01*
X23837010Y34745905D01*
X23827690Y34738867D01*
X23767136Y34641069D01*
X23746000Y34528000D01*
X23746000Y33317000D01*
X23725998Y33248879D01*
X23672342Y33202386D01*
X23620000Y33191000D01*
X22883545Y33191000D01*
X22872433Y33192242D01*
X22872385Y33191645D01*
X22863436Y33192365D01*
X22854681Y33194346D01*
X22820771Y33192242D01*
X22804653Y33191242D01*
X22796850Y33191000D01*
X22778587Y33191000D01*
X22774157Y33190365D01*
X22774151Y33190365D01*
X22769064Y33189636D01*
X22766652Y33189291D01*
X22756595Y33188260D01*
X22709368Y33185330D01*
X22700922Y33182281D01*
X22697982Y33181672D01*
X22681103Y33177463D01*
X22678262Y33176632D01*
X22669378Y33175360D01*
X22661210Y33171646D01*
X22661206Y33171645D01*
X22626298Y33155773D01*
X22616935Y33151961D01*
X22572426Y33135893D01*
X22565179Y33130599D01*
X22562537Y33129194D01*
X22547537Y33120428D01*
X22545016Y33118816D01*
X22536841Y33115099D01*
X22530039Y33109238D01*
X22500997Y33084214D01*
X22493079Y33077927D01*
X22484845Y33071912D01*
X22484839Y33071907D01*
X22480905Y33069033D01*
X22468810Y33056938D01*
X22461964Y33050581D01*
X22426545Y33020062D01*
X22421662Y33012528D01*
X22415763Y33005766D01*
X22415695Y33005825D01*
X22407213Y32995341D01*
X21883381Y32471508D01*
X21359970Y31948097D01*
X21351231Y31941114D01*
X21351619Y31940658D01*
X21344783Y31934840D01*
X21337191Y31930050D01*
X21331249Y31923322D01*
X21331248Y31923321D01*
X21304000Y31892468D01*
X21298653Y31886780D01*
X21285749Y31873876D01*
X21278511Y31864218D01*
X21272139Y31856391D01*
X21240814Y31820923D01*
X21236999Y31812797D01*
X21235351Y31810288D01*
X21226397Y31795386D01*
X21224967Y31792775D01*
X21219586Y31785595D01*
X21216437Y31777195D01*
X21216436Y31777193D01*
X21202972Y31741275D01*
X21199043Y31731953D01*
X21182753Y31697258D01*
X21182752Y31697253D01*
X21178939Y31689133D01*
X21177558Y31680267D01*
X21176691Y31677430D01*
X21172261Y31660541D01*
X21171630Y31657673D01*
X21168479Y31649266D01*
X21166034Y31616356D01*
X21164972Y31602068D01*
X21163820Y31592033D01*
X21161501Y31577141D01*
X21161501Y31560041D01*
X21161155Y31550704D01*
X21157690Y31504074D01*
X21159563Y31495298D01*
X21160174Y31486341D01*
X21160085Y31486335D01*
X21161501Y31472921D01*
X21161500Y29654000D01*
X21141498Y29585879D01*
X21087842Y29539386D01*
X21035500Y29528000D01*
X20890000Y29528000D01*
X20750484Y29495186D01*
X20658690Y29425867D01*
X20598136Y29328069D01*
X20577000Y29215000D01*
X20063000Y29215000D01*
X20058147Y29235636D01*
X20033196Y29341718D01*
X20030186Y29354516D01*
X20012836Y29377492D01*
X19978086Y29423508D01*
X19960867Y29446310D01*
X19863069Y29506864D01*
X19750000Y29528000D01*
X18190000Y29528000D01*
X18050484Y29495186D01*
X17958690Y29425867D01*
X17954767Y29431062D01*
X17881010Y29398500D01*
X15874500Y29398500D01*
X15806379Y29418502D01*
X15759886Y29472158D01*
X15748500Y29524500D01*
X15748500Y30041000D01*
X15768502Y30109121D01*
X15822158Y30155614D01*
X15874500Y30167000D01*
X16002000Y30167000D01*
X16141516Y30199814D01*
X16166551Y30218719D01*
X16185578Y30233088D01*
X16233310Y30269133D01*
X16293864Y30366931D01*
X16315000Y30480000D01*
X16315000Y32004000D01*
X16282186Y32143516D01*
X16212867Y32235310D01*
X16115069Y32295864D01*
X16002000Y32317000D01*
X15874500Y32317000D01*
X15806379Y32337002D01*
X15759886Y32390658D01*
X15748500Y32443000D01*
X15748500Y32581000D01*
X15768502Y32649121D01*
X15822158Y32695614D01*
X15874500Y32707000D01*
X16002000Y32707000D01*
X16141516Y32739814D01*
X16233310Y32809133D01*
X16293864Y32906931D01*
X16315000Y33020000D01*
X16315000Y34544000D01*
X16282186Y34683516D01*
X16212867Y34775310D01*
X16115069Y34835864D01*
X16002000Y34857000D01*
X14478000Y34857000D01*
X14338484Y34824186D01*
X14246690Y34754867D01*
X14186136Y34657069D01*
X14165000Y34544000D01*
X14165000Y33020000D01*
X14166667Y33012913D01*
X14166667Y33012912D01*
X14168334Y33005825D01*
X14197814Y32880484D01*
X14267133Y32788690D01*
X14364931Y32728136D01*
X14478000Y32707000D01*
X14605500Y32707000D01*
X14673621Y32686998D01*
X14720114Y32633342D01*
X14731500Y32581001D01*
X14731501Y32443001D01*
X14711499Y32374880D01*
X14657844Y32328387D01*
X14605501Y32317000D01*
X14478000Y32317000D01*
X14338484Y32284186D01*
X14246690Y32214867D01*
X14186136Y32117069D01*
X14165000Y32004000D01*
X14165000Y30480000D01*
X14197814Y30340484D01*
X14205737Y30329992D01*
X14220628Y30310273D01*
X14267133Y30248690D01*
X14364931Y30188136D01*
X14478000Y30167000D01*
X14605501Y30167000D01*
X14673622Y30146998D01*
X14720115Y30093342D01*
X14731501Y30041001D01*
X14731500Y29623404D01*
X14731500Y29218817D01*
X14694595Y29129722D01*
X11881970Y26317097D01*
X11873231Y26310114D01*
X11873619Y26309658D01*
X11866783Y26303840D01*
X11859191Y26299050D01*
X11853249Y26292322D01*
X11853248Y26292321D01*
X11826000Y26261468D01*
X11820653Y26255780D01*
X11807749Y26242876D01*
X11800511Y26233218D01*
X11794139Y26225391D01*
X11762814Y26189923D01*
X11758999Y26181797D01*
X11757351Y26179288D01*
X11748397Y26164386D01*
X11746967Y26161775D01*
X11741586Y26154595D01*
X11738437Y26146195D01*
X11738436Y26146193D01*
X11724972Y26110275D01*
X11721043Y26100953D01*
X11704753Y26066258D01*
X11704752Y26066253D01*
X11700939Y26058133D01*
X11699558Y26049267D01*
X11698691Y26046430D01*
X11694261Y26029541D01*
X11693630Y26026673D01*
X11690479Y26018266D01*
X11687653Y25980229D01*
X11686972Y25971068D01*
X11685820Y25961033D01*
X11683501Y25946141D01*
X11683501Y25929041D01*
X11683155Y25919704D01*
X11679690Y25873074D01*
X562000Y25873074D01*
X562000Y39952000D01*
X582002Y40020121D01*
X635658Y40066614D01*
X688000Y40078000D01*
X50112001Y40078000D01*
X50180122Y40057998D01*
G37*
%TD.AperFunction*%
%TA.AperFunction,Conductor*%
G36*
X26200854Y25268935D02*
G01*
X26231429Y25246444D01*
X26886595Y24591278D01*
X26923500Y24502183D01*
X26923501Y22344719D01*
X26923501Y21029307D01*
X26903499Y20961186D01*
X26849843Y20914693D01*
X26779569Y20904589D01*
X26731173Y20922179D01*
X26719569Y20929364D01*
X26606500Y20950500D01*
X26204660Y20950500D01*
X26115565Y20987405D01*
X26018405Y21084565D01*
X25981500Y21173660D01*
X25981500Y21459580D01*
X26000373Y21525910D01*
X26003216Y21530502D01*
X26009364Y21540431D01*
X26030500Y21653500D01*
X26030500Y23050500D01*
X26024471Y23076136D01*
X26003906Y23163569D01*
X25997686Y23190016D01*
X25992504Y23196879D01*
X25981500Y23246214D01*
X25981500Y23491580D01*
X26000373Y23557910D01*
X26003216Y23562502D01*
X26009364Y23572431D01*
X26030500Y23685500D01*
X26030500Y25082500D01*
X26028833Y25089588D01*
X26028833Y25089591D01*
X26019681Y25128502D01*
X26023556Y25199393D01*
X26065142Y25256935D01*
X26131236Y25282859D01*
X26200854Y25268935D01*
G37*
%TD.AperFunction*%
%TD*%
M02*
