M48
; DRILL file {KiCad 6.0.10+dfsg-1~bpo11+1} date Tue Feb 14 07:58:38 2023
; FORMAT={-:-/ absolute / metric / decimal}
; #@! TF.CreationDate,2023-02-14T07:58:38+00:00
; #@! TF.GenerationSoftware,Kicad,Pcbnew,6.0.10+dfsg-1~bpo11+1
; #@! TF.FileFunction,Plated,1,2,PTH
FMAT,2
METRIC
; #@! TA.AperFunction,Plated,PTH,ViaDrill
T1C0.400
; #@! TA.AperFunction,Plated,PTH,ComponentDrill
T2C0.889
; #@! TA.AperFunction,Plated,PTH,ComponentDrill
T3C3.000
%
G90
G05
T1
X11.176Y26.924
X11.176Y15.748
X12.192Y27.94
X12.192Y15.24
X12.192Y14.224
X13.208Y28.956
X13.208Y24.384
X13.208Y23.368
X13.208Y21.844
X13.208Y20.828
X13.716Y25.908
X13.716Y15.24
X13.716Y14.224
X13.716Y13.208
X13.716Y12.192
X13.716Y10.668
X14.732Y26.924
X15.24Y10.668
X15.748Y27.94
X16.256Y25.908
X17.272Y27.94
X18.796Y19.304
X19.304Y16.256
X19.304Y14.732
X19.812Y19.304
X20.828Y34.036
X20.828Y32.512
X20.828Y30.988
X20.828Y19.304
X20.828Y16.256
X21.336Y14.732
X21.844Y19.304
X22.352Y34.036
X22.352Y16.256
X22.86Y30.988
X22.86Y19.304
X22.86Y14.732
X23.368Y29.972
X23.368Y28.448
X23.368Y27.432
X23.876Y16.256
X24.892Y16.256
X26.416Y24.384
X26.416Y22.86
X26.416Y21.844
X26.416Y16.764
X27.432Y28.956
X27.432Y15.24
X27.94Y25.908
X27.94Y16.764
X28.448Y24.892
X28.448Y23.368
X28.448Y21.844
X28.448Y20.32
X28.448Y15.24
X28.448Y10.16
X28.448Y8.636
X28.448Y7.112
X30.988Y34.036
X30.988Y33.02
X31.496Y24.892
X31.496Y23.876
X31.496Y22.86
X31.496Y21.844
X31.496Y20.828
X31.496Y19.812
X31.496Y18.796
X32.004Y17.272
X34.544Y16.764
X35.56Y16.764
X36.576Y16.764
X38.1Y16.764
T2
X12.7Y33.782
X12.7Y31.242
X15.24Y33.782
X15.24Y31.242
X17.78Y33.782
X17.78Y31.242
X18.796Y24.13
X18.796Y21.59
X21.336Y24.13
X21.336Y21.59
X35.306Y32.004
X35.306Y29.464
X35.306Y26.924
X35.306Y13.716
X35.306Y11.176
X35.306Y8.636
X37.846Y32.004
X37.846Y29.464
X37.846Y26.924
X37.846Y13.716
X37.846Y11.176
X37.846Y8.636
T3
X5.08Y35.56
X5.08Y5.08
X45.72Y35.56
X45.72Y5.08
T0
M30
