  0
SECTION
  2
HEADER
  9
$ANGBASE
  50
0.0
  9
$ANGDIR
  70
1
  9
$MEASUREMENT
  70
0
  0
ENDSEC
  0
SECTION
  2
TABLES
  0
TABLE
  2
LTYPE
  70
4
  0
LTYPE
  5
40F
  2
CONTINUOUS
  70
0
  3
Solid line
  72
65
  73
0
  40
0.0
  0
LTYPE
  5
410
  2
DASHDOT
 70
0
  3
Dash Dot ____ _ ____ _
 72
65
 73
4
 40
2.0
 49
1.25
 49
-0.25
 49
0.25
 49
-0.25
  0
LTYPE
  5
411
  2
DASHED
 70
0
  3
Dashed __ __ __ __ __
 72
65
 73
2
 40
0.75
 49
0.5
 49
-0.25
  0
LTYPE
  5
43B
  2
DOTTED
 70
0
  3
Dotted .  .  .  .
 72
65
 73
2
 40
0.2
 49
0.0
 49
-0.2
  0
ENDTAB
  0
TABLE
  2
STYLE
  70
4
  0
STYLE
  2
KICAD
  70
0
  40
0
  41
1
  42
1
  50
0
  71
0
  3
isocp.shx
  0
STYLE
  2
KICADB
  70
0
  40
0
  41
1
  42
1
  50
0
  71
0
  3
isocp.shx
  0
STYLE
  2
KICADI
  70
0
  40
0
  41
1
  42
1
  50
15
  71
0
  3
isocp.shx
  0
STYLE
  2
KICADBI
  70
0
  40
0
  41
1
  42
1
  50
15
  71
0
  3
isocp.shx
  0
ENDTAB
  0
TABLE
  2
LAYER
  70
1
  0
LAYER
  2
BLACK
  70
0
  62
7
  6
CONTINUOUS
  0
ENDTAB
  0
ENDSEC
  0
SECTION
  2
ENTITIES
0
LINE
8
BLACK
6
CONTINUOUS
10
1.99059
20
1.59374
11
1.99122
21
1.59374
0
LINE
8
BLACK
6
CONTINUOUS
10
1.99122
20
1.59374
11
1.99172
21
1.59338
0
LINE
8
BLACK
6
CONTINUOUS
10
1.99172
20
1.59338
11
1.99231
21
1.59319
0
LINE
8
BLACK
6
CONTINUOUS
10
1.99231
20
1.59319
11
1.99268
21
1.59268
0
LINE
8
BLACK
6
CONTINUOUS
10
1.99268
20
1.59268
11
1.99319
21
1.59231
0
LINE
8
BLACK
6
CONTINUOUS
10
1.99319
20
1.59231
11
1.99338
21
1.59172
0
LINE
8
BLACK
6
CONTINUOUS
10
1.99338
20
1.59172
11
1.99374
21
1.59122
0
LINE
8
BLACK
6
CONTINUOUS
10
1.99374
20
1.59122
11
1.99374
21
1.59059
0
LINE
8
BLACK
6
CONTINUOUS
10
1.99374
20
1.59059
11
1.99394
21
1.59
0
LINE
8
BLACK
6
CONTINUOUS
10
1.99394
20
1.59
11
1.99394
21
0.01
0
LINE
8
BLACK
6
CONTINUOUS
10
1.99394
20
0.01
11
1.99374
21
0.00940697
0
LINE
8
BLACK
6
CONTINUOUS
10
1.99374
20
0.00940697
11
1.99374
21
0.00878339
0
LINE
8
BLACK
6
CONTINUOUS
10
1.99374
20
0.00878339
11
1.99338
21
0.0082789
0
LINE
8
BLACK
6
CONTINUOUS
10
1.99338
20
0.0082789
11
1.99319
21
0.00768587
0
LINE
8
BLACK
6
CONTINUOUS
10
1.99319
20
0.00768587
11
1.99268
21
0.00731933
0
LINE
8
BLACK
6
CONTINUOUS
10
1.99268
20
0.00731933
11
1.99231
21
0.00681488
0
LINE
8
BLACK
6
CONTINUOUS
10
1.99231
20
0.00681488
11
1.99172
21
0.0066222
0
LINE
8
BLACK
6
CONTINUOUS
10
1.99172
20
0.0066222
11
1.99122
21
0.00625567
0
LINE
8
BLACK
6
CONTINUOUS
10
1.99122
20
0.00625567
11
1.99059
21
0.00625567
0
LINE
8
BLACK
6
CONTINUOUS
10
1.99059
20
0.00625567
11
1.99
21
0.00606299
0
LINE
8
BLACK
6
CONTINUOUS
10
1.99
20
0.00606299
11
0.01
21
0.00606299
0
LINE
8
BLACK
6
CONTINUOUS
10
0.01
20
0.00606299
11
0.00940697
21
0.00625567
0
LINE
8
BLACK
6
CONTINUOUS
10
0.00940697
20
0.00625567
11
0.00878339
21
0.00625567
0
LINE
8
BLACK
6
CONTINUOUS
10
0.00878339
20
0.00625567
11
0.0082789
21
0.0066222
0
LINE
8
BLACK
6
CONTINUOUS
10
0.0082789
20
0.0066222
11
0.00768587
21
0.00681488
0
LINE
8
BLACK
6
CONTINUOUS
10
0.00768587
20
0.00681488
11
0.00731933
21
0.00731933
0
LINE
8
BLACK
6
CONTINUOUS
10
0.00731933
20
0.00731933
11
0.00681488
21
0.00768587
0
LINE
8
BLACK
6
CONTINUOUS
10
0.00681488
20
0.00768587
11
0.0066222
21
0.0082789
0
LINE
8
BLACK
6
CONTINUOUS
10
0.0066222
20
0.0082789
11
0.00625567
21
0.00878339
0
LINE
8
BLACK
6
CONTINUOUS
10
0.00625567
20
0.00878339
11
0.00625567
21
0.00940697
0
LINE
8
BLACK
6
CONTINUOUS
10
0.00625567
20
0.00940697
11
0.00606299
21
0.01
0
LINE
8
BLACK
6
CONTINUOUS
10
0.00606299
20
0.01
11
0.00606299
21
1.59
0
LINE
8
BLACK
6
CONTINUOUS
10
0.00606299
20
1.59
11
0.00625567
21
1.59059
0
LINE
8
BLACK
6
CONTINUOUS
10
0.00625567
20
1.59059
11
0.00625567
21
1.59122
0
LINE
8
BLACK
6
CONTINUOUS
10
0.00625567
20
1.59122
11
0.0066222
21
1.59172
0
LINE
8
BLACK
6
CONTINUOUS
10
0.0066222
20
1.59172
11
0.00681488
21
1.59231
0
LINE
8
BLACK
6
CONTINUOUS
10
0.00681488
20
1.59231
11
0.00731933
21
1.59268
0
LINE
8
BLACK
6
CONTINUOUS
10
0.00731933
20
1.59268
11
0.00768587
21
1.59319
0
LINE
8
BLACK
6
CONTINUOUS
10
0.00768587
20
1.59319
11
0.0082789
21
1.59338
0
LINE
8
BLACK
6
CONTINUOUS
10
0.0082789
20
1.59338
11
0.00878339
21
1.59374
0
LINE
8
BLACK
6
CONTINUOUS
10
0.00878339
20
1.59374
11
0.00940697
21
1.59374
0
LINE
8
BLACK
6
CONTINUOUS
10
0.00940697
20
1.59374
11
0.01
21
1.59394
0
LINE
8
BLACK
6
CONTINUOUS
10
0.01
20
1.59394
11
1.99
21
1.59394
0
LINE
8
BLACK
6
CONTINUOUS
10
1.99
20
1.59394
11
1.99059
21
1.59374
0
LINE
8
BLACK
6
CONTINUOUS
10
0.013937
20
1.58606
11
0.013937
21
0.013937
0
LINE
8
BLACK
6
CONTINUOUS
10
0.013937
20
0.013937
11
1.98606
21
0.013937
0
LINE
8
BLACK
6
CONTINUOUS
10
1.98606
20
0.013937
11
1.98606
21
1.58606
0
LINE
8
BLACK
6
CONTINUOUS
10
1.98606
20
1.58606
11
0.013937
21
1.58606
  0
ENDSEC
  0
EOF
