  0
SECTION
  2
HEADER
  9
$ANGBASE
  50
0.0
  9
$ANGDIR
  70
1
  9
$MEASUREMENT
  70
0
  0
ENDSEC
  0
SECTION
  2
TABLES
  0
TABLE
  2
LTYPE
  70
4
  0
LTYPE
  5
40F
  2
CONTINUOUS
  70
0
  3
Solid line
  72
65
  73
0
  40
0.0
  0
LTYPE
  5
410
  2
DASHDOT
 70
0
  3
Dash Dot ____ _ ____ _
 72
65
 73
4
 40
2.0
 49
1.25
 49
-0.25
 49
0.25
 49
-0.25
  0
LTYPE
  5
411
  2
DASHED
 70
0
  3
Dashed __ __ __ __ __
 72
65
 73
2
 40
0.75
 49
0.5
 49
-0.25
  0
LTYPE
  5
43B
  2
DOTTED
 70
0
  3
Dotted .  .  .  .
 72
65
 73
2
 40
0.2
 49
0.0
 49
-0.2
  0
ENDTAB
  0
TABLE
  2
STYLE
  70
4
  0
STYLE
  2
KICAD
  70
0
  40
0
  41
1
  42
1
  50
0
  71
0
  3
isocp.shx
  0
STYLE
  2
KICADB
  70
0
  40
0
  41
1
  42
1
  50
0
  71
0
  3
isocp.shx
  0
STYLE
  2
KICADI
  70
0
  40
0
  41
1
  42
1
  50
15
  71
0
  3
isocp.shx
  0
STYLE
  2
KICADBI
  70
0
  40
0
  41
1
  42
1
  50
15
  71
0
  3
isocp.shx
  0
ENDTAB
  0
TABLE
  2
LAYER
  70
1
  0
LAYER
  2
BLACK
  70
0
  62
7
  6
CONTINUOUS
  0
ENDTAB
  0
ENDSEC
  0
SECTION
  2
ENTITIES
0
LINE
8
BLACK
6
CONTINUOUS
10
1.42913
20
0.174331
11
1.27953
21
0.174331
0
LINE
8
BLACK
6
CONTINUOUS
10
1.27953
20
0.174331
11
1.27953
21
0.213701
0
LINE
8
BLACK
6
CONTINUOUS
10
1.27953
20
0.213701
11
1.42913
21
0.213701
0
LINE
8
BLACK
6
CONTINUOUS
10
1.42913
20
0.213701
11
1.42913
21
0.174331
0
LINE
8
BLACK
6
CONTINUOUS
10
0.354331
20
0.304252
11
0.393701
21
0.304252
0
LINE
8
BLACK
6
CONTINUOUS
10
0.393701
20
0.304252
11
0.393701
21
0.213701
0
LINE
8
BLACK
6
CONTINUOUS
10
0.393701
20
0.213701
11
0.484252
21
0.213701
0
LINE
8
BLACK
6
CONTINUOUS
10
0.484252
20
0.213701
11
0.484252
21
0.174331
0
LINE
8
BLACK
6
CONTINUOUS
10
0.484252
20
0.174331
11
0.354331
21
0.174331
0
LINE
8
BLACK
6
CONTINUOUS
10
0.354331
20
0.174331
11
0.354331
21
0.304252
0
LINE
8
BLACK
6
CONTINUOUS
10
1.51575
20
0.174331
11
1.51575
21
0.213701
0
LINE
8
BLACK
6
CONTINUOUS
10
1.51575
20
0.213701
11
1.6063
21
0.213701
0
LINE
8
BLACK
6
CONTINUOUS
10
1.6063
20
0.213701
11
1.6063
21
0.304252
0
LINE
8
BLACK
6
CONTINUOUS
10
1.6063
20
0.304252
11
1.64567
21
0.304252
0
LINE
8
BLACK
6
CONTINUOUS
10
1.64567
20
0.304252
11
1.64567
21
0.174331
0
LINE
8
BLACK
6
CONTINUOUS
10
1.64567
20
0.174331
11
1.51575
21
0.174331
0
LINE
8
BLACK
6
CONTINUOUS
10
0.956693
20
0.174331
11
0.807087
21
0.174331
0
LINE
8
BLACK
6
CONTINUOUS
10
0.807087
20
0.174331
11
0.807087
21
0.213701
0
LINE
8
BLACK
6
CONTINUOUS
10
0.807087
20
0.213701
11
0.956693
21
0.213701
0
LINE
8
BLACK
6
CONTINUOUS
10
0.956693
20
0.213701
11
0.956693
21
0.174331
0
LINE
8
BLACK
6
CONTINUOUS
10
0.720472
20
0.174331
11
0.570866
21
0.174331
0
LINE
8
BLACK
6
CONTINUOUS
10
0.570866
20
0.174331
11
0.570866
21
0.213701
0
LINE
8
BLACK
6
CONTINUOUS
10
0.570866
20
0.213701
11
0.720472
21
0.213701
0
LINE
8
BLACK
6
CONTINUOUS
10
0.720472
20
0.213701
11
0.720472
21
0.174331
0
LINE
8
BLACK
6
CONTINUOUS
10
1.19291
20
0.174331
11
1.04331
21
0.174331
0
LINE
8
BLACK
6
CONTINUOUS
10
1.04331
20
0.174331
11
1.04331
21
0.213701
0
LINE
8
BLACK
6
CONTINUOUS
10
1.04331
20
0.213701
11
1.19291
21
0.213701
0
LINE
8
BLACK
6
CONTINUOUS
10
1.19291
20
0.213701
11
1.19291
21
0.174331
0
LINE
8
BLACK
6
CONTINUOUS
10
0.9102
20
0.2708
11
0.8098
21
0.2708
0
LINE
8
BLACK
6
CONTINUOUS
10
0.8098
20
0.2708
11
0.8098
21
0.3692
0
LINE
8
BLACK
6
CONTINUOUS
10
0.8098
20
0.3692
11
0.9102
21
0.3692
0
LINE
8
BLACK
6
CONTINUOUS
10
0.9102
20
0.3692
11
0.9102
21
0.2708
0
LINE
8
BLACK
6
CONTINUOUS
10
0.7114
20
0.2708
11
0.611
21
0.2708
0
LINE
8
BLACK
6
CONTINUOUS
10
0.611
20
0.2708
11
0.611
21
0.3692
0
LINE
8
BLACK
6
CONTINUOUS
10
0.611
20
0.3692
11
0.7114
21
0.3692
0
LINE
8
BLACK
6
CONTINUOUS
10
0.7114
20
0.3692
11
0.7114
21
0.2708
0
LINE
8
BLACK
6
CONTINUOUS
10
1.07543
20
0.272047
11
1.00457
21
0.272047
0
LINE
8
BLACK
6
CONTINUOUS
10
1.00457
20
0.272047
11
1.00457
21
0.370472
0
LINE
8
BLACK
6
CONTINUOUS
10
1.00457
20
0.370472
11
1.07543
21
0.370472
0
LINE
8
BLACK
6
CONTINUOUS
10
1.07543
20
0.370472
11
1.07543
21
0.272047
0
LINE
8
BLACK
6
CONTINUOUS
10
1.24063
20
0.380945
11
1.21307
21
0.380945
0
LINE
8
BLACK
6
CONTINUOUS
10
1.21307
20
0.380945
11
1.21307
21
0.499055
0
LINE
8
BLACK
6
CONTINUOUS
10
1.21307
20
0.499055
11
1.24063
21
0.499055
0
LINE
8
BLACK
6
CONTINUOUS
10
1.24063
20
0.499055
11
1.24063
21
0.380945
0
LINE
8
BLACK
6
CONTINUOUS
10
1.64567
20
0.390866
11
1.6063
21
0.390866
0
LINE
8
BLACK
6
CONTINUOUS
10
1.6063
20
0.390866
11
1.6063
21
0.540472
0
LINE
8
BLACK
6
CONTINUOUS
10
1.6063
20
0.540472
11
1.64567
21
0.540472
0
LINE
8
BLACK
6
CONTINUOUS
10
1.64567
20
0.540472
11
1.64567
21
0.390866
0
LINE
8
BLACK
6
CONTINUOUS
10
0.393701
20
0.390866
11
0.354331
21
0.390866
0
LINE
8
BLACK
6
CONTINUOUS
10
0.354331
20
0.390866
11
0.354331
21
0.540472
0
LINE
8
BLACK
6
CONTINUOUS
10
0.354331
20
0.540472
11
0.393701
21
0.540472
0
LINE
8
BLACK
6
CONTINUOUS
10
0.393701
20
0.540472
11
0.393701
21
0.390866
0
LINE
8
BLACK
6
CONTINUOUS
10
1.19929
20
0.410472
11
1.14811
21
0.410472
0
LINE
8
BLACK
6
CONTINUOUS
10
1.14811
20
0.410472
11
1.14811
21
0.469528
0
LINE
8
BLACK
6
CONTINUOUS
10
1.14811
20
0.469528
11
1.19929
21
0.469528
0
LINE
8
BLACK
6
CONTINUOUS
10
1.19929
20
0.469528
11
1.19929
21
0.410472
0
LINE
8
BLACK
6
CONTINUOUS
10
1.30559
20
0.410472
11
1.25441
21
0.410472
0
LINE
8
BLACK
6
CONTINUOUS
10
1.25441
20
0.410472
11
1.25441
21
0.469528
0
LINE
8
BLACK
6
CONTINUOUS
10
1.25441
20
0.469528
11
1.30559
21
0.469528
0
LINE
8
BLACK
6
CONTINUOUS
10
1.30559
20
0.469528
11
1.30559
21
0.410472
0
LINE
8
BLACK
6
CONTINUOUS
10
1.07543
20
0.429528
11
1.00457
21
0.429528
0
LINE
8
BLACK
6
CONTINUOUS
10
1.00457
20
0.429528
11
1.00457
21
0.527953
0
LINE
8
BLACK
6
CONTINUOUS
10
1.00457
20
0.527953
11
1.07543
21
0.527953
0
LINE
8
BLACK
6
CONTINUOUS
10
1.07543
20
0.527953
11
1.07543
21
0.429528
0
LINE
8
BLACK
6
CONTINUOUS
10
0.6425
20
0.4525
11
0.6075
21
0.4525
0
LINE
8
BLACK
6
CONTINUOUS
10
0.6075
20
0.4525
11
0.6075
21
0.5075
0
LINE
8
BLACK
6
CONTINUOUS
10
0.6075
20
0.5075
11
0.6425
21
0.5075
0
LINE
8
BLACK
6
CONTINUOUS
10
0.6425
20
0.5075
11
0.6425
21
0.4525
0
LINE
8
BLACK
6
CONTINUOUS
10
0.7175
20
0.4525
11
0.6825
21
0.4525
0
LINE
8
BLACK
6
CONTINUOUS
10
0.6825
20
0.4525
11
0.6825
21
0.5075
0
LINE
8
BLACK
6
CONTINUOUS
10
0.6825
20
0.5075
11
0.7175
21
0.5075
0
LINE
8
BLACK
6
CONTINUOUS
10
0.7175
20
0.5075
11
0.7175
21
0.4525
0
LINE
8
BLACK
6
CONTINUOUS
10
0.7975
20
0.4525
11
0.7625
21
0.4525
0
LINE
8
BLACK
6
CONTINUOUS
10
0.7625
20
0.4525
11
0.7625
21
0.5075
0
LINE
8
BLACK
6
CONTINUOUS
10
0.7625
20
0.5075
11
0.7975
21
0.5075
0
LINE
8
BLACK
6
CONTINUOUS
10
0.7975
20
0.5075
11
0.7975
21
0.4525
0
LINE
8
BLACK
6
CONTINUOUS
10
0.8725
20
0.4525
11
0.8375
21
0.4525
0
LINE
8
BLACK
6
CONTINUOUS
10
0.8375
20
0.4525
11
0.8375
21
0.5075
0
LINE
8
BLACK
6
CONTINUOUS
10
0.8375
20
0.5075
11
0.8725
21
0.5075
0
LINE
8
BLACK
6
CONTINUOUS
10
0.8725
20
0.5075
11
0.8725
21
0.4525
0
LINE
8
BLACK
6
CONTINUOUS
10
0.7125
20
0.5525
11
0.6775
21
0.5525
0
LINE
8
BLACK
6
CONTINUOUS
10
0.6775
20
0.5525
11
0.6775
21
0.6075
0
LINE
8
BLACK
6
CONTINUOUS
10
0.6775
20
0.6075
11
0.7125
21
0.6075
0
LINE
8
BLACK
6
CONTINUOUS
10
0.7125
20
0.6075
11
0.7125
21
0.5525
0
LINE
8
BLACK
6
CONTINUOUS
10
0.6375
20
0.5525
11
0.6025
21
0.5525
0
LINE
8
BLACK
6
CONTINUOUS
10
0.6025
20
0.5525
11
0.6025
21
0.6075
0
LINE
8
BLACK
6
CONTINUOUS
10
0.6025
20
0.6075
11
0.6375
21
0.6075
0
LINE
8
BLACK
6
CONTINUOUS
10
0.6375
20
0.6075
11
0.6375
21
0.5525
0
LINE
8
BLACK
6
CONTINUOUS
10
1.2725
20
0.5725
11
1.2375
21
0.5725
0
LINE
8
BLACK
6
CONTINUOUS
10
1.2375
20
0.5725
11
1.2375
21
0.6275
0
LINE
8
BLACK
6
CONTINUOUS
10
1.2375
20
0.6275
11
1.2725
21
0.6275
0
LINE
8
BLACK
6
CONTINUOUS
10
1.2725
20
0.6275
11
1.2725
21
0.5725
0
LINE
8
BLACK
6
CONTINUOUS
10
1.1975
20
0.5725
11
1.1625
21
0.5725
0
LINE
8
BLACK
6
CONTINUOUS
10
1.1625
20
0.5725
11
1.1625
21
0.6275
0
LINE
8
BLACK
6
CONTINUOUS
10
1.1625
20
0.6275
11
1.1975
21
0.6275
0
LINE
8
BLACK
6
CONTINUOUS
10
1.1975
20
0.6275
11
1.1975
21
0.5725
0
LINE
8
BLACK
6
CONTINUOUS
10
0.393701
20
0.627087
11
0.354331
21
0.627087
0
LINE
8
BLACK
6
CONTINUOUS
10
0.354331
20
0.627087
11
0.354331
21
0.776693
0
LINE
8
BLACK
6
CONTINUOUS
10
0.354331
20
0.776693
11
0.393701
21
0.776693
0
LINE
8
BLACK
6
CONTINUOUS
10
0.393701
20
0.776693
11
0.393701
21
0.627087
0
LINE
8
BLACK
6
CONTINUOUS
10
1.64567
20
0.627087
11
1.6063
21
0.627087
0
LINE
8
BLACK
6
CONTINUOUS
10
1.6063
20
0.627087
11
1.6063
21
0.776693
0
LINE
8
BLACK
6
CONTINUOUS
10
1.6063
20
0.776693
11
1.64567
21
0.776693
0
LINE
8
BLACK
6
CONTINUOUS
10
1.64567
20
0.776693
11
1.64567
21
0.627087
0
LINE
8
BLACK
6
CONTINUOUS
10
0.703858
20
0.669803
11
0.642441
21
0.669803
0
LINE
8
BLACK
6
CONTINUOUS
10
0.642441
20
0.669803
11
0.642441
21
0.695394
0
LINE
8
BLACK
6
CONTINUOUS
10
0.642441
20
0.695394
11
0.703858
21
0.695394
0
LINE
8
BLACK
6
CONTINUOUS
10
0.703858
20
0.695394
11
0.703858
21
0.669803
0
LINE
8
BLACK
6
CONTINUOUS
10
0.597559
20
0.669803
11
0.536142
21
0.669803
0
LINE
8
BLACK
6
CONTINUOUS
10
0.536142
20
0.669803
11
0.536142
21
0.695394
0
LINE
8
BLACK
6
CONTINUOUS
10
0.536142
20
0.695394
11
0.597559
21
0.695394
0
LINE
8
BLACK
6
CONTINUOUS
10
0.597559
20
0.695394
11
0.597559
21
0.669803
0
LINE
8
BLACK
6
CONTINUOUS
10
0.9175
20
0.6725
11
0.8825
21
0.6725
0
LINE
8
BLACK
6
CONTINUOUS
10
0.8825
20
0.6725
11
0.8825
21
0.7275
0
LINE
8
BLACK
6
CONTINUOUS
10
0.8825
20
0.7275
11
0.9175
21
0.7275
0
LINE
8
BLACK
6
CONTINUOUS
10
0.9175
20
0.7275
11
0.9175
21
0.6725
0
LINE
8
BLACK
6
CONTINUOUS
10
0.8425
20
0.6725
11
0.8075
21
0.6725
0
LINE
8
BLACK
6
CONTINUOUS
10
0.8075
20
0.6725
11
0.8075
21
0.7275
0
LINE
8
BLACK
6
CONTINUOUS
10
0.8075
20
0.7275
11
0.8425
21
0.7275
0
LINE
8
BLACK
6
CONTINUOUS
10
0.8425
20
0.7275
11
0.8425
21
0.6725
0
LINE
8
BLACK
6
CONTINUOUS
10
1.0475
20
0.7025
11
0.9925
21
0.7025
0
LINE
8
BLACK
6
CONTINUOUS
10
0.9925
20
0.7025
11
0.9925
21
0.7375
0
LINE
8
BLACK
6
CONTINUOUS
10
0.9925
20
0.7375
11
1.0475
21
0.7375
0
LINE
8
BLACK
6
CONTINUOUS
10
1.0475
20
0.7375
11
1.0475
21
0.7025
0
LINE
8
BLACK
6
CONTINUOUS
10
0.597559
20
0.707205
11
0.536142
21
0.707205
0
LINE
8
BLACK
6
CONTINUOUS
10
0.536142
20
0.707205
11
0.536142
21
0.732795
0
LINE
8
BLACK
6
CONTINUOUS
10
0.536142
20
0.732795
11
0.597559
21
0.732795
0
LINE
8
BLACK
6
CONTINUOUS
10
0.597559
20
0.732795
11
0.597559
21
0.707205
0
LINE
8
BLACK
6
CONTINUOUS
10
0.597559
20
0.744606
11
0.536142
21
0.744606
0
LINE
8
BLACK
6
CONTINUOUS
10
0.536142
20
0.744606
11
0.536142
21
0.770197
0
LINE
8
BLACK
6
CONTINUOUS
10
0.536142
20
0.770197
11
0.597559
21
0.770197
0
LINE
8
BLACK
6
CONTINUOUS
10
0.597559
20
0.770197
11
0.597559
21
0.744606
0
LINE
8
BLACK
6
CONTINUOUS
10
0.703858
20
0.744606
11
0.642441
21
0.744606
0
LINE
8
BLACK
6
CONTINUOUS
10
0.642441
20
0.744606
11
0.642441
21
0.770197
0
LINE
8
BLACK
6
CONTINUOUS
10
0.642441
20
0.770197
11
0.703858
21
0.770197
0
LINE
8
BLACK
6
CONTINUOUS
10
0.703858
20
0.770197
11
0.703858
21
0.744606
0
LINE
8
BLACK
6
CONTINUOUS
10
1.0475
20
0.7775
11
0.9925
21
0.7775
0
LINE
8
BLACK
6
CONTINUOUS
10
0.9925
20
0.7775
11
0.9925
21
0.8125
0
LINE
8
BLACK
6
CONTINUOUS
10
0.9925
20
0.8125
11
1.0475
21
0.8125
0
LINE
8
BLACK
6
CONTINUOUS
10
1.0475
20
0.8125
11
1.0475
21
0.7775
0
LINE
8
BLACK
6
CONTINUOUS
10
0.5975
20
0.8325
11
0.5625
21
0.8325
0
LINE
8
BLACK
6
CONTINUOUS
10
0.5625
20
0.8325
11
0.5625
21
0.8875
0
LINE
8
BLACK
6
CONTINUOUS
10
0.5625
20
0.8875
11
0.5975
21
0.8875
0
LINE
8
BLACK
6
CONTINUOUS
10
0.5975
20
0.8875
11
0.5975
21
0.8325
0
LINE
8
BLACK
6
CONTINUOUS
10
0.6725
20
0.8325
11
0.6375
21
0.8325
0
LINE
8
BLACK
6
CONTINUOUS
10
0.6375
20
0.8325
11
0.6375
21
0.8875
0
LINE
8
BLACK
6
CONTINUOUS
10
0.6375
20
0.8875
11
0.6725
21
0.8875
0
LINE
8
BLACK
6
CONTINUOUS
10
0.6725
20
0.8875
11
0.6725
21
0.8325
0
LINE
8
BLACK
6
CONTINUOUS
10
1.0125
20
0.8525
11
0.9775
21
0.8525
0
LINE
8
BLACK
6
CONTINUOUS
10
0.9775
20
0.8525
11
0.9775
21
0.9075
0
LINE
8
BLACK
6
CONTINUOUS
10
0.9775
20
0.9075
11
1.0125
21
0.9075
0
LINE
8
BLACK
6
CONTINUOUS
10
1.0125
20
0.9075
11
1.0125
21
0.8525
0
LINE
8
BLACK
6
CONTINUOUS
10
0.9375
20
0.8525
11
0.9025
21
0.8525
0
LINE
8
BLACK
6
CONTINUOUS
10
0.9025
20
0.8525
11
0.9025
21
0.9075
0
LINE
8
BLACK
6
CONTINUOUS
10
0.9025
20
0.9075
11
0.9375
21
0.9075
0
LINE
8
BLACK
6
CONTINUOUS
10
0.9375
20
0.9075
11
0.9375
21
0.8525
0
LINE
8
BLACK
6
CONTINUOUS
10
1.64567
20
0.863307
11
1.6063
21
0.863307
0
LINE
8
BLACK
6
CONTINUOUS
10
1.6063
20
0.863307
11
1.6063
21
1.01291
0
LINE
8
BLACK
6
CONTINUOUS
10
1.6063
20
1.01291
11
1.64567
21
1.01291
0
LINE
8
BLACK
6
CONTINUOUS
10
1.64567
20
1.01291
11
1.64567
21
0.863307
0
LINE
8
BLACK
6
CONTINUOUS
10
0.393701
20
0.863307
11
0.354331
21
0.863307
0
LINE
8
BLACK
6
CONTINUOUS
10
0.354331
20
0.863307
11
0.354331
21
1.01291
0
LINE
8
BLACK
6
CONTINUOUS
10
0.354331
20
1.01291
11
0.393701
21
1.01291
0
LINE
8
BLACK
6
CONTINUOUS
10
0.393701
20
1.01291
11
0.393701
21
0.863307
0
LINE
8
BLACK
6
CONTINUOUS
10
0.6725
20
0.9325
11
0.6375
21
0.9325
0
LINE
8
BLACK
6
CONTINUOUS
10
0.6375
20
0.9325
11
0.6375
21
0.9875
0
LINE
8
BLACK
6
CONTINUOUS
10
0.6375
20
0.9875
11
0.6725
21
0.9875
0
LINE
8
BLACK
6
CONTINUOUS
10
0.6725
20
0.9875
11
0.6725
21
0.9325
0
LINE
8
BLACK
6
CONTINUOUS
10
0.5975
20
0.9325
11
0.5625
21
0.9325
0
LINE
8
BLACK
6
CONTINUOUS
10
0.5625
20
0.9325
11
0.5625
21
0.9875
0
LINE
8
BLACK
6
CONTINUOUS
10
0.5625
20
0.9875
11
0.5975
21
0.9875
0
LINE
8
BLACK
6
CONTINUOUS
10
0.5975
20
0.9875
11
0.5975
21
0.9325
0
LINE
8
BLACK
6
CONTINUOUS
10
1.0125
20
0.9325
11
0.9775
21
0.9325
0
LINE
8
BLACK
6
CONTINUOUS
10
0.9775
20
0.9325
11
0.9775
21
0.9875
0
LINE
8
BLACK
6
CONTINUOUS
10
0.9775
20
0.9875
11
1.0125
21
0.9875
0
LINE
8
BLACK
6
CONTINUOUS
10
1.0125
20
0.9875
11
1.0125
21
0.9325
0
LINE
8
BLACK
6
CONTINUOUS
10
0.9375
20
0.9325
11
0.9025
21
0.9325
0
LINE
8
BLACK
6
CONTINUOUS
10
0.9025
20
0.9325
11
0.9025
21
0.9875
0
LINE
8
BLACK
6
CONTINUOUS
10
0.9025
20
0.9875
11
0.9375
21
0.9875
0
LINE
8
BLACK
6
CONTINUOUS
10
0.9375
20
0.9875
11
0.9375
21
0.9325
0
LINE
8
BLACK
6
CONTINUOUS
10
1.1875
20
1.0425
11
1.1325
21
1.0425
0
LINE
8
BLACK
6
CONTINUOUS
10
1.1325
20
1.0425
11
1.1325
21
1.0775
0
LINE
8
BLACK
6
CONTINUOUS
10
1.1325
20
1.0775
11
1.1875
21
1.0775
0
LINE
8
BLACK
6
CONTINUOUS
10
1.1875
20
1.0775
11
1.1875
21
1.0425
0
LINE
8
BLACK
6
CONTINUOUS
10
0.883858
20
1.0498
11
0.822441
21
1.0498
0
LINE
8
BLACK
6
CONTINUOUS
10
0.822441
20
1.0498
11
0.822441
21
1.07539
0
LINE
8
BLACK
6
CONTINUOUS
10
0.822441
20
1.07539
11
0.883858
21
1.07539
0
LINE
8
BLACK
6
CONTINUOUS
10
0.883858
20
1.07539
11
0.883858
21
1.0498
0
LINE
8
BLACK
6
CONTINUOUS
10
0.777559
20
1.0498
11
0.716142
21
1.0498
0
LINE
8
BLACK
6
CONTINUOUS
10
0.716142
20
1.0498
11
0.716142
21
1.07539
0
LINE
8
BLACK
6
CONTINUOUS
10
0.716142
20
1.07539
11
0.777559
21
1.07539
0
LINE
8
BLACK
6
CONTINUOUS
10
0.777559
20
1.07539
11
0.777559
21
1.0498
0
LINE
8
BLACK
6
CONTINUOUS
10
1.0775
20
1.0525
11
1.0425
21
1.0525
0
LINE
8
BLACK
6
CONTINUOUS
10
1.0425
20
1.0525
11
1.0425
21
1.1075
0
LINE
8
BLACK
6
CONTINUOUS
10
1.0425
20
1.1075
11
1.0775
21
1.1075
0
LINE
8
BLACK
6
CONTINUOUS
10
1.0775
20
1.1075
11
1.0775
21
1.0525
0
LINE
8
BLACK
6
CONTINUOUS
10
1.0025
20
1.0525
11
0.9675
21
1.0525
0
LINE
8
BLACK
6
CONTINUOUS
10
0.9675
20
1.0525
11
0.9675
21
1.1075
0
LINE
8
BLACK
6
CONTINUOUS
10
0.9675
20
1.1075
11
1.0025
21
1.1075
0
LINE
8
BLACK
6
CONTINUOUS
10
1.0025
20
1.1075
11
1.0025
21
1.0525
0
LINE
8
BLACK
6
CONTINUOUS
10
0.777559
20
1.0872
11
0.716142
21
1.0872
0
LINE
8
BLACK
6
CONTINUOUS
10
0.716142
20
1.0872
11
0.716142
21
1.1128
0
LINE
8
BLACK
6
CONTINUOUS
10
0.716142
20
1.1128
11
0.777559
21
1.1128
0
LINE
8
BLACK
6
CONTINUOUS
10
0.777559
20
1.1128
11
0.777559
21
1.0872
0
LINE
8
BLACK
6
CONTINUOUS
10
0.393701
20
1.09953
11
0.354331
21
1.09953
0
LINE
8
BLACK
6
CONTINUOUS
10
0.354331
20
1.09953
11
0.354331
21
1.24913
0
LINE
8
BLACK
6
CONTINUOUS
10
0.354331
20
1.24913
11
0.393701
21
1.24913
0
LINE
8
BLACK
6
CONTINUOUS
10
0.393701
20
1.24913
11
0.393701
21
1.09953
0
LINE
8
BLACK
6
CONTINUOUS
10
1.64567
20
1.09953
11
1.6063
21
1.09953
0
LINE
8
BLACK
6
CONTINUOUS
10
1.6063
20
1.09953
11
1.6063
21
1.24913
0
LINE
8
BLACK
6
CONTINUOUS
10
1.6063
20
1.24913
11
1.64567
21
1.24913
0
LINE
8
BLACK
6
CONTINUOUS
10
1.64567
20
1.24913
11
1.64567
21
1.09953
0
LINE
8
BLACK
6
CONTINUOUS
10
1.1875
20
1.1175
11
1.1325
21
1.1175
0
LINE
8
BLACK
6
CONTINUOUS
10
1.1325
20
1.1175
11
1.1325
21
1.1525
0
LINE
8
BLACK
6
CONTINUOUS
10
1.1325
20
1.1525
11
1.1875
21
1.1525
0
LINE
8
BLACK
6
CONTINUOUS
10
1.1875
20
1.1525
11
1.1875
21
1.1175
0
LINE
8
BLACK
6
CONTINUOUS
10
0.883858
20
1.12461
11
0.822441
21
1.12461
0
LINE
8
BLACK
6
CONTINUOUS
10
0.822441
20
1.12461
11
0.822441
21
1.1502
0
LINE
8
BLACK
6
CONTINUOUS
10
0.822441
20
1.1502
11
0.883858
21
1.1502
0
LINE
8
BLACK
6
CONTINUOUS
10
0.883858
20
1.1502
11
0.883858
21
1.12461
0
LINE
8
BLACK
6
CONTINUOUS
10
0.777559
20
1.12461
11
0.716142
21
1.12461
0
LINE
8
BLACK
6
CONTINUOUS
10
0.716142
20
1.12461
11
0.716142
21
1.1502
0
LINE
8
BLACK
6
CONTINUOUS
10
0.716142
20
1.1502
11
0.777559
21
1.1502
0
LINE
8
BLACK
6
CONTINUOUS
10
0.777559
20
1.1502
11
0.777559
21
1.12461
0
LINE
8
BLACK
6
CONTINUOUS
10
1.0476
20
1.14598
11
1.02201
21
1.14598
0
LINE
8
BLACK
6
CONTINUOUS
10
1.02201
20
1.14598
11
1.02201
21
1.22472
0
LINE
8
BLACK
6
CONTINUOUS
10
1.02201
20
1.22472
11
1.0476
21
1.22472
0
LINE
8
BLACK
6
CONTINUOUS
10
1.0476
20
1.22472
11
1.0476
21
1.14598
0
LINE
8
BLACK
6
CONTINUOUS
10
1.0102
20
1.14598
11
0.984606
21
1.14598
0
LINE
8
BLACK
6
CONTINUOUS
10
0.984606
20
1.14598
11
0.984606
21
1.22472
0
LINE
8
BLACK
6
CONTINUOUS
10
0.984606
20
1.22472
11
1.0102
21
1.22472
0
LINE
8
BLACK
6
CONTINUOUS
10
1.0102
20
1.22472
11
1.0102
21
1.14598
0
LINE
8
BLACK
6
CONTINUOUS
10
0.972795
20
1.14598
11
0.947205
21
1.14598
0
LINE
8
BLACK
6
CONTINUOUS
10
0.947205
20
1.14598
11
0.947205
21
1.22472
0
LINE
8
BLACK
6
CONTINUOUS
10
0.947205
20
1.22472
11
0.972795
21
1.22472
0
LINE
8
BLACK
6
CONTINUOUS
10
0.972795
20
1.22472
11
0.972795
21
1.14598
0
LINE
8
BLACK
6
CONTINUOUS
10
1.2875
20
1.1625
11
1.2325
21
1.1625
0
LINE
8
BLACK
6
CONTINUOUS
10
1.2325
20
1.1625
11
1.2325
21
1.1975
0
LINE
8
BLACK
6
CONTINUOUS
10
1.2325
20
1.1975
11
1.2875
21
1.1975
0
LINE
8
BLACK
6
CONTINUOUS
10
1.2875
20
1.1975
11
1.2875
21
1.1625
0
LINE
8
BLACK
6
CONTINUOUS
10
1.1975
20
1.1925
11
1.1625
21
1.1925
0
LINE
8
BLACK
6
CONTINUOUS
10
1.1625
20
1.1925
11
1.1625
21
1.2475
0
LINE
8
BLACK
6
CONTINUOUS
10
1.1625
20
1.2475
11
1.1975
21
1.2475
0
LINE
8
BLACK
6
CONTINUOUS
10
1.1975
20
1.2475
11
1.1975
21
1.1925
0
LINE
8
BLACK
6
CONTINUOUS
10
1.1225
20
1.1925
11
1.0875
21
1.1925
0
LINE
8
BLACK
6
CONTINUOUS
10
1.0875
20
1.1925
11
1.0875
21
1.2475
0
LINE
8
BLACK
6
CONTINUOUS
10
1.0875
20
1.2475
11
1.1225
21
1.2475
0
LINE
8
BLACK
6
CONTINUOUS
10
1.1225
20
1.2475
11
1.1225
21
1.1925
0
LINE
8
BLACK
6
CONTINUOUS
10
1.2875
20
1.2375
11
1.2325
21
1.2375
0
LINE
8
BLACK
6
CONTINUOUS
10
1.2325
20
1.2375
11
1.2325
21
1.2725
0
LINE
8
BLACK
6
CONTINUOUS
10
1.2325
20
1.2725
11
1.2875
21
1.2725
0
LINE
8
BLACK
6
CONTINUOUS
10
1.2875
20
1.2725
11
1.2875
21
1.2375
0
LINE
8
BLACK
6
CONTINUOUS
10
1.0476
20
1.28063
11
1.02201
21
1.28063
0
LINE
8
BLACK
6
CONTINUOUS
10
1.02201
20
1.28063
11
1.02201
21
1.35937
0
LINE
8
BLACK
6
CONTINUOUS
10
1.02201
20
1.35937
11
1.0476
21
1.35937
0
LINE
8
BLACK
6
CONTINUOUS
10
1.0476
20
1.35937
11
1.0476
21
1.28063
0
LINE
8
BLACK
6
CONTINUOUS
10
0.972795
20
1.28063
11
0.947205
21
1.28063
0
LINE
8
BLACK
6
CONTINUOUS
10
0.947205
20
1.28063
11
0.947205
21
1.35937
0
LINE
8
BLACK
6
CONTINUOUS
10
0.947205
20
1.35937
11
0.972795
21
1.35937
0
LINE
8
BLACK
6
CONTINUOUS
10
0.972795
20
1.35937
11
0.972795
21
1.28063
0
LINE
8
BLACK
6
CONTINUOUS
10
1.1975
20
1.2925
11
1.1625
21
1.2925
0
LINE
8
BLACK
6
CONTINUOUS
10
1.1625
20
1.2925
11
1.1625
21
1.3475
0
LINE
8
BLACK
6
CONTINUOUS
10
1.1625
20
1.3475
11
1.1975
21
1.3475
0
LINE
8
BLACK
6
CONTINUOUS
10
1.1975
20
1.3475
11
1.1975
21
1.2925
0
LINE
8
BLACK
6
CONTINUOUS
10
1.1225
20
1.2925
11
1.0875
21
1.2925
0
LINE
8
BLACK
6
CONTINUOUS
10
1.0875
20
1.2925
11
1.0875
21
1.3475
0
LINE
8
BLACK
6
CONTINUOUS
10
1.0875
20
1.3475
11
1.1225
21
1.3475
0
LINE
8
BLACK
6
CONTINUOUS
10
1.1225
20
1.3475
11
1.1225
21
1.2925
0
LINE
8
BLACK
6
CONTINUOUS
10
0.484252
20
1.46567
11
0.484252
21
1.4263
0
LINE
8
BLACK
6
CONTINUOUS
10
0.484252
20
1.4263
11
0.393701
21
1.4263
0
LINE
8
BLACK
6
CONTINUOUS
10
0.393701
20
1.4263
11
0.393701
21
1.33575
0
LINE
8
BLACK
6
CONTINUOUS
10
0.393701
20
1.33575
11
0.354331
21
1.33575
0
LINE
8
BLACK
6
CONTINUOUS
10
0.354331
20
1.33575
11
0.354331
21
1.46567
0
LINE
8
BLACK
6
CONTINUOUS
10
0.354331
20
1.46567
11
0.484252
21
1.46567
0
LINE
8
BLACK
6
CONTINUOUS
10
1.51575
20
1.46567
11
1.64567
21
1.46567
0
LINE
8
BLACK
6
CONTINUOUS
10
1.64567
20
1.46567
11
1.64567
21
1.33575
0
LINE
8
BLACK
6
CONTINUOUS
10
1.64567
20
1.33575
11
1.6063
21
1.33575
0
LINE
8
BLACK
6
CONTINUOUS
10
1.6063
20
1.33575
11
1.6063
21
1.4263
0
LINE
8
BLACK
6
CONTINUOUS
10
1.6063
20
1.4263
11
1.51575
21
1.4263
0
LINE
8
BLACK
6
CONTINUOUS
10
1.51575
20
1.4263
11
1.51575
21
1.46567
0
LINE
8
BLACK
6
CONTINUOUS
10
0.720472
20
1.4263
11
0.570866
21
1.4263
0
LINE
8
BLACK
6
CONTINUOUS
10
0.570866
20
1.4263
11
0.570866
21
1.46567
0
LINE
8
BLACK
6
CONTINUOUS
10
0.570866
20
1.46567
11
0.720472
21
1.46567
0
LINE
8
BLACK
6
CONTINUOUS
10
0.720472
20
1.46567
11
0.720472
21
1.4263
0
LINE
8
BLACK
6
CONTINUOUS
10
1.42913
20
1.4263
11
1.27953
21
1.4263
0
LINE
8
BLACK
6
CONTINUOUS
10
1.27953
20
1.4263
11
1.27953
21
1.46567
0
LINE
8
BLACK
6
CONTINUOUS
10
1.27953
20
1.46567
11
1.42913
21
1.46567
0
LINE
8
BLACK
6
CONTINUOUS
10
1.42913
20
1.46567
11
1.42913
21
1.4263
0
LINE
8
BLACK
6
CONTINUOUS
10
0.956693
20
1.4263
11
0.807087
21
1.4263
0
LINE
8
BLACK
6
CONTINUOUS
10
0.807087
20
1.4263
11
0.807087
21
1.46567
0
LINE
8
BLACK
6
CONTINUOUS
10
0.807087
20
1.46567
11
0.956693
21
1.46567
0
LINE
8
BLACK
6
CONTINUOUS
10
0.956693
20
1.46567
11
0.956693
21
1.4263
0
LINE
8
BLACK
6
CONTINUOUS
10
1.19291
20
1.4263
11
1.04331
21
1.4263
0
LINE
8
BLACK
6
CONTINUOUS
10
1.04331
20
1.4263
11
1.04331
21
1.46567
0
LINE
8
BLACK
6
CONTINUOUS
10
1.04331
20
1.46567
11
1.19291
21
1.46567
0
LINE
8
BLACK
6
CONTINUOUS
10
1.19291
20
1.46567
11
1.19291
21
1.4263
  0
ENDSEC
  0
EOF
