  0
SECTION
  2
HEADER
  9
$ANGBASE
  50
0.0
  9
$ANGDIR
  70
1
  9
$MEASUREMENT
  70
0
  0
ENDSEC
  0
SECTION
  2
TABLES
  0
TABLE
  2
LTYPE
  70
4
  0
LTYPE
  5
40F
  2
CONTINUOUS
  70
0
  3
Solid line
  72
65
  73
0
  40
0.0
  0
LTYPE
  5
410
  2
DASHDOT
 70
0
  3
Dash Dot ____ _ ____ _
 72
65
 73
4
 40
2.0
 49
1.25
 49
-0.25
 49
0.25
 49
-0.25
  0
LTYPE
  5
411
  2
DASHED
 70
0
  3
Dashed __ __ __ __ __
 72
65
 73
2
 40
0.75
 49
0.5
 49
-0.25
  0
LTYPE
  5
43B
  2
DOTTED
 70
0
  3
Dotted .  .  .  .
 72
65
 73
2
 40
0.2
 49
0.0
 49
-0.2
  0
ENDTAB
  0
TABLE
  2
STYLE
  70
4
  0
STYLE
  2
KICAD
  70
0
  40
0
  41
1
  42
1
  50
0
  71
0
  3
isocp.shx
  0
STYLE
  2
KICADB
  70
0
  40
0
  41
1
  42
1
  50
0
  71
0
  3
isocp.shx
  0
STYLE
  2
KICADI
  70
0
  40
0
  41
1
  42
1
  50
15
  71
0
  3
isocp.shx
  0
STYLE
  2
KICADBI
  70
0
  40
0
  41
1
  42
1
  50
15
  71
0
  3
isocp.shx
  0
ENDTAB
  0
TABLE
  2
LAYER
  70
1
  0
LAYER
  2
BLACK
  70
0
  62
7
  6
CONTINUOUS
  0
ENDTAB
  0
ENDSEC
  0
SECTION
  2
ENTITIES
0
LINE
8
BLACK
6
CONTINUOUS
10
0.976007
20
0.15047
11
0.976074
21
0.150489
0
LINE
8
BLACK
6
CONTINUOUS
10
0.976074
20
0.150489
11
0.976185
21
0.150438
0
LINE
8
BLACK
6
CONTINUOUS
10
0.976185
20
0.150438
11
0.976863
21
0.150319
0
LINE
8
BLACK
6
CONTINUOUS
10
0.976863
20
0.150319
11
0.977343
21
0.149916
0
LINE
8
BLACK
6
CONTINUOUS
10
0.977343
20
0.149916
11
0.977915
21
0.149658
0
LINE
8
BLACK
6
CONTINUOUS
10
0.977915
20
0.149658
11
0.978094
21
0.149286
0
LINE
8
BLACK
6
CONTINUOUS
10
0.978094
20
0.149286
11
0.97841
21
0.14902
0
LINE
8
BLACK
6
CONTINUOUS
10
0.97841
20
0.14902
11
0.978519
21
0.148403
0
LINE
8
BLACK
6
CONTINUOUS
10
0.978519
20
0.148403
11
0.978791
21
0.147838
0
LINE
8
BLACK
6
CONTINUOUS
10
0.978791
20
0.147838
11
0.980666
21
0.12909
0
LINE
8
BLACK
6
CONTINUOUS
10
0.980666
20
0.12909
11
0.980589
21
0.128068
0
LINE
8
BLACK
6
CONTINUOUS
10
0.980589
20
0.128068
11
0.980578
21
0.128051
0
LINE
8
BLACK
6
CONTINUOUS
10
0.980578
20
0.128051
11
0.98058
21
0.128032
0
LINE
8
BLACK
6
CONTINUOUS
10
0.98058
20
0.128032
11
0.980011
21
0.12722
0
LINE
8
BLACK
6
CONTINUOUS
10
0.980011
20
0.12722
11
0.979451
21
0.126399
0
LINE
8
BLACK
6
CONTINUOUS
10
0.979451
20
0.126399
11
0.979433
21
0.126394
0
LINE
8
BLACK
6
CONTINUOUS
10
0.979433
20
0.126394
11
0.979421
21
0.126378
0
LINE
8
BLACK
6
CONTINUOUS
10
0.979421
20
0.126378
11
0.978462
21
0.126121
0
LINE
8
BLACK
6
CONTINUOUS
10
0.978462
20
0.126121
11
0.977507
21
0.125852
0
LINE
8
BLACK
6
CONTINUOUS
10
0.977507
20
0.125852
11
0.977489
21
0.12586
0
LINE
8
BLACK
6
CONTINUOUS
10
0.977489
20
0.12586
11
0.97747
21
0.125855
0
LINE
8
BLACK
6
CONTINUOUS
10
0.97747
20
0.125855
11
0.976572
21
0.126274
0
LINE
8
BLACK
6
CONTINUOUS
10
0.976572
20
0.126274
11
0.975666
21
0.126683
0
LINE
8
BLACK
6
CONTINUOUS
10
0.975666
20
0.126683
11
0.975657
21
0.1267
0
LINE
8
BLACK
6
CONTINUOUS
10
0.975657
20
0.1267
11
0.97564
21
0.126708
0
LINE
8
BLACK
6
CONTINUOUS
10
0.97564
20
0.126708
11
0.974104
21
0.128244
0
LINE
8
BLACK
6
CONTINUOUS
10
0.974104
20
0.128244
11
0.971406
21
0.129593
0
LINE
8
BLACK
6
CONTINUOUS
10
0.971406
20
0.129593
11
0.963427
21
0.129593
0
LINE
8
BLACK
6
CONTINUOUS
10
0.963427
20
0.129593
11
0.960729
21
0.128244
0
LINE
8
BLACK
6
CONTINUOUS
10
0.960729
20
0.128244
11
0.959532
21
0.127047
0
LINE
8
BLACK
6
CONTINUOUS
10
0.959532
20
0.127047
11
0.958183
21
0.12435
0
LINE
8
BLACK
6
CONTINUOUS
10
0.958183
20
0.12435
11
0.958183
21
0.11637
0
LINE
8
BLACK
6
CONTINUOUS
10
0.958183
20
0.11637
11
0.959532
21
0.113673
0
LINE
8
BLACK
6
CONTINUOUS
10
0.959532
20
0.113673
11
0.960729
21
0.112475
0
LINE
8
BLACK
6
CONTINUOUS
10
0.960729
20
0.112475
11
0.963427
21
0.111127
0
LINE
8
BLACK
6
CONTINUOUS
10
0.963427
20
0.111127
11
0.971406
21
0.111127
0
LINE
8
BLACK
6
CONTINUOUS
10
0.971406
20
0.111127
11
0.974104
21
0.112475
0
LINE
8
BLACK
6
CONTINUOUS
10
0.974104
20
0.112475
11
0.97564
21
0.114011
0
LINE
8
BLACK
6
CONTINUOUS
10
0.97564
20
0.114011
11
0.97648
21
0.1146
0
LINE
8
BLACK
6
CONTINUOUS
10
0.97648
20
0.1146
11
0.978492
21
0.114776
0
LINE
8
BLACK
6
CONTINUOUS
10
0.978492
20
0.114776
11
0.980147
21
0.113617
0
LINE
8
BLACK
6
CONTINUOUS
10
0.980147
20
0.113617
11
0.980669
21
0.111666
0
LINE
8
BLACK
6
CONTINUOUS
10
0.980669
20
0.111666
11
0.979816
21
0.109836
0
LINE
8
BLACK
6
CONTINUOUS
10
0.979816
20
0.109836
11
0.977941
21
0.107961
0
LINE
8
BLACK
6
CONTINUOUS
10
0.977941
20
0.107961
11
0.977218
21
0.107455
0
LINE
8
BLACK
6
CONTINUOUS
10
0.977218
20
0.107455
11
0.977174
21
0.107408
0
LINE
8
BLACK
6
CONTINUOUS
10
0.977174
20
0.107408
11
0.973424
21
0.105533
0
LINE
8
BLACK
6
CONTINUOUS
10
0.973424
20
0.105533
11
0.972441
21
0.105241
0
LINE
8
BLACK
6
CONTINUOUS
10
0.972441
20
0.105241
11
0.972269
21
0.105282
0
LINE
8
BLACK
6
CONTINUOUS
10
0.972269
20
0.105282
11
0.972103
21
0.105221
0
LINE
8
BLACK
6
CONTINUOUS
10
0.972103
20
0.105221
11
0.96273
21
0.105221
0
LINE
8
BLACK
6
CONTINUOUS
10
0.96273
20
0.105221
11
0.96172
21
0.105399
0
LINE
8
BLACK
6
CONTINUOUS
10
0.96172
20
0.105399
11
0.961584
21
0.105513
0
LINE
8
BLACK
6
CONTINUOUS
10
0.961584
20
0.105513
11
0.961409
21
0.105533
0
LINE
8
BLACK
6
CONTINUOUS
10
0.961409
20
0.105533
11
0.95766
21
0.107408
0
LINE
8
BLACK
6
CONTINUOUS
10
0.95766
20
0.107408
11
0.956951
21
0.107934
0
LINE
8
BLACK
6
CONTINUOUS
10
0.956951
20
0.107934
11
0.956892
21
0.107961
0
LINE
8
BLACK
6
CONTINUOUS
10
0.956892
20
0.107961
11
0.955017
21
0.109836
0
LINE
8
BLACK
6
CONTINUOUS
10
0.955017
20
0.109836
11
0.954511
21
0.110559
0
LINE
8
BLACK
6
CONTINUOUS
10
0.954511
20
0.110559
11
0.954464
21
0.110603
0
LINE
8
BLACK
6
CONTINUOUS
10
0.954464
20
0.110603
11
0.95259
21
0.114353
0
LINE
8
BLACK
6
CONTINUOUS
10
0.95259
20
0.114353
11
0.952297
21
0.115335
0
LINE
8
BLACK
6
CONTINUOUS
10
0.952297
20
0.115335
11
0.952338
21
0.115507
0
LINE
8
BLACK
6
CONTINUOUS
10
0.952338
20
0.115507
11
0.952278
21
0.115673
0
LINE
8
BLACK
6
CONTINUOUS
10
0.952278
20
0.115673
11
0.952278
21
0.125047
0
LINE
8
BLACK
6
CONTINUOUS
10
0.952278
20
0.125047
11
0.952456
21
0.126057
0
LINE
8
BLACK
6
CONTINUOUS
10
0.952456
20
0.126057
11
0.952569
21
0.126192
0
LINE
8
BLACK
6
CONTINUOUS
10
0.952569
20
0.126192
11
0.95259
21
0.126367
0
LINE
8
BLACK
6
CONTINUOUS
10
0.95259
20
0.126367
11
0.954464
21
0.130117
0
LINE
8
BLACK
6
CONTINUOUS
10
0.954464
20
0.130117
11
0.95499
21
0.130826
0
LINE
8
BLACK
6
CONTINUOUS
10
0.95499
20
0.130826
11
0.955017
21
0.130884
0
LINE
8
BLACK
6
CONTINUOUS
10
0.955017
20
0.130884
11
0.956892
21
0.132759
0
LINE
8
BLACK
6
CONTINUOUS
10
0.956892
20
0.132759
11
0.957615
21
0.133265
0
LINE
8
BLACK
6
CONTINUOUS
10
0.957615
20
0.133265
11
0.95766
21
0.133312
0
LINE
8
BLACK
6
CONTINUOUS
10
0.95766
20
0.133312
11
0.961409
21
0.135187
0
LINE
8
BLACK
6
CONTINUOUS
10
0.961409
20
0.135187
11
0.962392
21
0.135479
0
LINE
8
BLACK
6
CONTINUOUS
10
0.962392
20
0.135479
11
0.962564
21
0.135438
0
LINE
8
BLACK
6
CONTINUOUS
10
0.962564
20
0.135438
11
0.96273
21
0.135499
0
LINE
8
BLACK
6
CONTINUOUS
10
0.96273
20
0.135499
11
0.972103
21
0.135499
0
LINE
8
BLACK
6
CONTINUOUS
10
0.972103
20
0.135499
11
0.973113
21
0.135321
0
LINE
8
BLACK
6
CONTINUOUS
10
0.973113
20
0.135321
11
0.973249
21
0.135207
0
LINE
8
BLACK
6
CONTINUOUS
10
0.973249
20
0.135207
11
0.973424
21
0.135187
0
LINE
8
BLACK
6
CONTINUOUS
10
0.973424
20
0.135187
11
0.974158
21
0.13482
0
LINE
8
BLACK
6
CONTINUOUS
10
0.974158
20
0.13482
11
0.973181
21
0.144591
0
LINE
8
BLACK
6
CONTINUOUS
10
0.973181
20
0.144591
11
0.957105
21
0.144591
0
LINE
8
BLACK
6
CONTINUOUS
10
0.957105
20
0.144591
11
0.956095
21
0.144769
0
LINE
8
BLACK
6
CONTINUOUS
10
0.956095
20
0.144769
11
0.954548
21
0.146068
0
LINE
8
BLACK
6
CONTINUOUS
10
0.954548
20
0.146068
11
0.954197
21
0.148057
0
LINE
8
BLACK
6
CONTINUOUS
10
0.954197
20
0.148057
11
0.955207
21
0.149806
0
LINE
8
BLACK
6
CONTINUOUS
10
0.955207
20
0.149806
11
0.957105
21
0.150497
0
LINE
8
BLACK
6
CONTINUOUS
10
0.957105
20
0.150497
11
0.975853
21
0.150497
0
LINE
8
BLACK
6
CONTINUOUS
10
0.975853
20
0.150497
11
0.976007
21
0.15047
0
LINE
8
BLACK
6
CONTINUOUS
10
1.02097
20
0.150384
11
1.02136
21
0.150452
0
LINE
8
BLACK
6
CONTINUOUS
10
1.02136
20
0.150452
11
1.02192
21
0.150129
0
LINE
8
BLACK
6
CONTINUOUS
10
1.02192
20
0.150129
11
1.02254
21
0.149962
0
LINE
8
BLACK
6
CONTINUOUS
10
1.02254
20
0.149962
11
1.02277
21
0.149639
0
LINE
8
BLACK
6
CONTINUOUS
10
1.02277
20
0.149639
11
1.02311
21
0.149442
0
LINE
8
BLACK
6
CONTINUOUS
10
1.02311
20
0.149442
11
1.02333
21
0.148836
0
LINE
8
BLACK
6
CONTINUOUS
10
1.02333
20
0.148836
11
1.0237
21
0.148307
0
LINE
8
BLACK
6
CONTINUOUS
10
1.0237
20
0.148307
11
1.02367
21
0.147915
0
LINE
8
BLACK
6
CONTINUOUS
10
1.02367
20
0.147915
11
1.0238
21
0.147544
0
LINE
8
BLACK
6
CONTINUOUS
10
1.0238
20
0.147544
11
1.0238
21
0.108174
0
LINE
8
BLACK
6
CONTINUOUS
10
1.0238
20
0.108174
11
1.02362
21
0.107164
0
LINE
8
BLACK
6
CONTINUOUS
10
1.02362
20
0.107164
11
1.02232
21
0.105617
0
LINE
8
BLACK
6
CONTINUOUS
10
1.02232
20
0.105617
11
1.02033
21
0.105266
0
LINE
8
BLACK
6
CONTINUOUS
10
1.02033
20
0.105266
11
1.01859
21
0.106276
0
LINE
8
BLACK
6
CONTINUOUS
10
1.01859
20
0.106276
11
1.01789
21
0.108174
0
LINE
8
BLACK
6
CONTINUOUS
10
1.01789
20
0.108174
11
1.01789
21
0.134234
0
LINE
8
BLACK
6
CONTINUOUS
10
1.01789
20
0.134234
11
1.0104
21
0.118174
0
LINE
8
BLACK
6
CONTINUOUS
10
1.0104
20
0.118174
11
1.01018
21
0.117856
0
LINE
8
BLACK
6
CONTINUOUS
10
1.01018
20
0.117856
11
1.01014
21
0.11773
0
LINE
8
BLACK
6
CONTINUOUS
10
1.01014
20
0.11773
11
1.01004
21
0.117654
0
LINE
8
BLACK
6
CONTINUOUS
10
1.01004
20
0.117654
11
1.00981
21
0.117334
0
LINE
8
BLACK
6
CONTINUOUS
10
1.00981
20
0.117334
11
1.00912
21
0.11701
0
LINE
8
BLACK
6
CONTINUOUS
10
1.00912
20
0.11701
11
1.00849
21
0.116571
0
LINE
8
BLACK
6
CONTINUOUS
10
1.00849
20
0.116571
11
1.00822
21
0.116594
0
LINE
8
BLACK
6
CONTINUOUS
10
1.00822
20
0.116594
11
1.00798
21
0.116481
0
LINE
8
BLACK
6
CONTINUOUS
10
1.00798
20
0.116481
11
1.00724
21
0.116679
0
LINE
8
BLACK
6
CONTINUOUS
10
1.00724
20
0.116679
11
1.00648
21
0.116746
0
LINE
8
BLACK
6
CONTINUOUS
10
1.00648
20
0.116746
11
1.00629
21
0.116935
0
LINE
8
BLACK
6
CONTINUOUS
10
1.00629
20
0.116935
11
1.00603
21
0.117004
0
LINE
8
BLACK
6
CONTINUOUS
10
1.00603
20
0.117004
11
1.00559
21
0.117632
0
LINE
8
BLACK
6
CONTINUOUS
10
1.00559
20
0.117632
11
1.00505
21
0.118174
0
LINE
8
BLACK
6
CONTINUOUS
10
1.00505
20
0.118174
11
0.997553
21
0.134234
0
LINE
8
BLACK
6
CONTINUOUS
10
0.997553
20
0.134234
11
0.997553
21
0.108174
0
LINE
8
BLACK
6
CONTINUOUS
10
0.997553
20
0.108174
11
0.997375
21
0.107164
0
LINE
8
BLACK
6
CONTINUOUS
10
0.997375
20
0.107164
11
0.996077
21
0.105617
0
LINE
8
BLACK
6
CONTINUOUS
10
0.996077
20
0.105617
11
0.994088
21
0.105266
0
LINE
8
BLACK
6
CONTINUOUS
10
0.994088
20
0.105266
11
0.992339
21
0.106276
0
LINE
8
BLACK
6
CONTINUOUS
10
0.992339
20
0.106276
11
0.991648
21
0.108174
0
LINE
8
BLACK
6
CONTINUOUS
10
0.991648
20
0.108174
11
0.991648
21
0.147544
0
LINE
8
BLACK
6
CONTINUOUS
10
0.991648
20
0.147544
11
0.991826
21
0.148554
0
LINE
8
BLACK
6
CONTINUOUS
10
0.991826
20
0.148554
11
0.992079
21
0.148856
0
LINE
8
BLACK
6
CONTINUOUS
10
0.992079
20
0.148856
11
0.992181
21
0.149237
0
LINE
8
BLACK
6
CONTINUOUS
10
0.992181
20
0.149237
11
0.99271
21
0.149607
0
LINE
8
BLACK
6
CONTINUOUS
10
0.99271
20
0.149607
11
0.993124
21
0.150101
0
LINE
8
BLACK
6
CONTINUOUS
10
0.993124
20
0.150101
11
0.993513
21
0.15017
0
LINE
8
BLACK
6
CONTINUOUS
10
0.993513
20
0.15017
11
0.993836
21
0.150396
0
LINE
8
BLACK
6
CONTINUOUS
10
0.993836
20
0.150396
11
0.994478
21
0.15034
0
LINE
8
BLACK
6
CONTINUOUS
10
0.994478
20
0.15034
11
0.995113
21
0.150452
0
LINE
8
BLACK
6
CONTINUOUS
10
0.995113
20
0.150452
11
0.995455
21
0.150255
0
LINE
8
BLACK
6
CONTINUOUS
10
0.995455
20
0.150255
11
0.995848
21
0.150221
0
LINE
8
BLACK
6
CONTINUOUS
10
0.995848
20
0.150221
11
0.996304
21
0.149765
0
LINE
8
BLACK
6
CONTINUOUS
10
0.996304
20
0.149765
11
0.996863
21
0.149442
0
LINE
8
BLACK
6
CONTINUOUS
10
0.996863
20
0.149442
11
0.996997
21
0.149071
0
LINE
8
BLACK
6
CONTINUOUS
10
0.996997
20
0.149071
11
0.997276
21
0.148793
0
LINE
8
BLACK
6
CONTINUOUS
10
0.997276
20
0.148793
11
1.00772
21
0.126405
0
LINE
8
BLACK
6
CONTINUOUS
10
1.00772
20
0.126405
11
1.01817
21
0.148793
0
LINE
8
BLACK
6
CONTINUOUS
10
1.01817
20
0.148793
11
1.01876
21
0.149633
0
LINE
8
BLACK
6
CONTINUOUS
10
1.01876
20
0.149633
11
1.01912
21
0.149799
0
LINE
8
BLACK
6
CONTINUOUS
10
1.01912
20
0.149799
11
1.01937
21
0.150101
0
LINE
8
BLACK
6
CONTINUOUS
10
1.01937
20
0.150101
11
1.02001
21
0.150213
0
LINE
8
BLACK
6
CONTINUOUS
10
1.02001
20
0.150213
11
1.02059
21
0.150486
0
LINE
8
BLACK
6
CONTINUOUS
10
1.02059
20
0.150486
11
1.02097
21
0.150384
0
LINE
8
BLACK
6
CONTINUOUS
10
0.796946
20
0.185844
11
0.797638
21
0.184173
0
LINE
8
BLACK
6
CONTINUOUS
10
0.797638
20
0.184173
11
0.796946
21
0.182503
0
LINE
8
BLACK
6
CONTINUOUS
10
0.796946
20
0.182503
11
0.795276
21
0.181811
0
LINE
8
BLACK
6
CONTINUOUS
10
0.795276
20
0.181811
11
0.732283
21
0.181811
0
LINE
8
BLACK
6
CONTINUOUS
10
0.732283
20
0.181811
11
0.730613
21
0.182503
0
LINE
8
BLACK
6
CONTINUOUS
10
0.730613
20
0.182503
11
0.729921
21
0.184173
0
LINE
8
BLACK
6
CONTINUOUS
10
0.729921
20
0.184173
11
0.730613
21
0.185844
0
LINE
8
BLACK
6
CONTINUOUS
10
0.730613
20
0.185844
11
0.732283
21
0.186535
0
LINE
8
BLACK
6
CONTINUOUS
10
0.732283
20
0.186535
11
0.795276
21
0.186535
0
LINE
8
BLACK
6
CONTINUOUS
10
0.795276
20
0.186535
11
0.796946
21
0.185844
0
LINE
8
BLACK
6
CONTINUOUS
10
1.26939
20
0.185844
11
1.27008
21
0.184173
0
LINE
8
BLACK
6
CONTINUOUS
10
1.27008
20
0.184173
11
1.26939
21
0.182503
0
LINE
8
BLACK
6
CONTINUOUS
10
1.26939
20
0.182503
11
1.26772
21
0.181811
0
LINE
8
BLACK
6
CONTINUOUS
10
1.26772
20
0.181811
11
1.20472
21
0.181811
0
LINE
8
BLACK
6
CONTINUOUS
10
1.20472
20
0.181811
11
1.20305
21
0.182503
0
LINE
8
BLACK
6
CONTINUOUS
10
1.20305
20
0.182503
11
1.20236
21
0.184173
0
LINE
8
BLACK
6
CONTINUOUS
10
1.20236
20
0.184173
11
1.20305
21
0.185844
0
LINE
8
BLACK
6
CONTINUOUS
10
1.20305
20
0.185844
11
1.20472
21
0.186535
0
LINE
8
BLACK
6
CONTINUOUS
10
1.20472
20
0.186535
11
1.26772
21
0.186535
0
LINE
8
BLACK
6
CONTINUOUS
10
1.26772
20
0.186535
11
1.26939
21
0.185844
0
LINE
8
BLACK
6
CONTINUOUS
10
1.50561
20
0.185844
11
1.5063
21
0.184173
0
LINE
8
BLACK
6
CONTINUOUS
10
1.5063
20
0.184173
11
1.50561
21
0.182503
0
LINE
8
BLACK
6
CONTINUOUS
10
1.50561
20
0.182503
11
1.50394
21
0.181811
0
LINE
8
BLACK
6
CONTINUOUS
10
1.50394
20
0.181811
11
1.44094
21
0.181811
0
LINE
8
BLACK
6
CONTINUOUS
10
1.44094
20
0.181811
11
1.43927
21
0.182503
0
LINE
8
BLACK
6
CONTINUOUS
10
1.43927
20
0.182503
11
1.43858
21
0.184173
0
LINE
8
BLACK
6
CONTINUOUS
10
1.43858
20
0.184173
11
1.43927
21
0.185844
0
LINE
8
BLACK
6
CONTINUOUS
10
1.43927
20
0.185844
11
1.44094
21
0.186535
0
LINE
8
BLACK
6
CONTINUOUS
10
1.44094
20
0.186535
11
1.50394
21
0.186535
0
LINE
8
BLACK
6
CONTINUOUS
10
1.50394
20
0.186535
11
1.50561
21
0.185844
0
LINE
8
BLACK
6
CONTINUOUS
10
0.560725
20
0.185844
11
0.561417
21
0.184173
0
LINE
8
BLACK
6
CONTINUOUS
10
0.561417
20
0.184173
11
0.560725
21
0.182503
0
LINE
8
BLACK
6
CONTINUOUS
10
0.560725
20
0.182503
11
0.559055
21
0.181811
0
LINE
8
BLACK
6
CONTINUOUS
10
0.559055
20
0.181811
11
0.496063
21
0.181811
0
LINE
8
BLACK
6
CONTINUOUS
10
0.496063
20
0.181811
11
0.494393
21
0.182503
0
LINE
8
BLACK
6
CONTINUOUS
10
0.494393
20
0.182503
11
0.493701
21
0.184173
0
LINE
8
BLACK
6
CONTINUOUS
10
0.493701
20
0.184173
11
0.494393
21
0.185844
0
LINE
8
BLACK
6
CONTINUOUS
10
0.494393
20
0.185844
11
0.496063
21
0.186535
0
LINE
8
BLACK
6
CONTINUOUS
10
0.496063
20
0.186535
11
0.559055
21
0.186535
0
LINE
8
BLACK
6
CONTINUOUS
10
0.559055
20
0.186535
11
0.560725
21
0.185844
0
LINE
8
BLACK
6
CONTINUOUS
10
1.03317
20
0.185844
11
1.03386
21
0.184173
0
LINE
8
BLACK
6
CONTINUOUS
10
1.03386
20
0.184173
11
1.03317
21
0.182503
0
LINE
8
BLACK
6
CONTINUOUS
10
1.03317
20
0.182503
11
1.0315
21
0.181811
0
LINE
8
BLACK
6
CONTINUOUS
10
1.0315
20
0.181811
11
0.968504
21
0.181811
0
LINE
8
BLACK
6
CONTINUOUS
10
0.968504
20
0.181811
11
0.966834
21
0.182503
0
LINE
8
BLACK
6
CONTINUOUS
10
0.966834
20
0.182503
11
0.966142
21
0.184173
0
LINE
8
BLACK
6
CONTINUOUS
10
0.966142
20
0.184173
11
0.966834
21
0.185844
0
LINE
8
BLACK
6
CONTINUOUS
10
0.966834
20
0.185844
11
0.968504
21
0.186535
0
LINE
8
BLACK
6
CONTINUOUS
10
0.968504
20
0.186535
11
1.0315
21
0.186535
0
LINE
8
BLACK
6
CONTINUOUS
10
1.0315
20
0.186535
11
1.03317
21
0.185844
0
LINE
8
BLACK
6
CONTINUOUS
10
0.87971
20
0.255875
11
0.881257
21
0.254576
0
LINE
8
BLACK
6
CONTINUOUS
10
0.881257
20
0.254576
11
0.881608
21
0.252587
0
LINE
8
BLACK
6
CONTINUOUS
10
0.881608
20
0.252587
11
0.880598
21
0.250838
0
LINE
8
BLACK
6
CONTINUOUS
10
0.880598
20
0.250838
11
0.8787
21
0.250147
0
LINE
8
BLACK
6
CONTINUOUS
10
0.8787
20
0.250147
11
0.6425
21
0.250147
0
LINE
8
BLACK
6
CONTINUOUS
10
0.6425
20
0.250147
11
0.64149
21
0.250325
0
LINE
8
BLACK
6
CONTINUOUS
10
0.64149
20
0.250325
11
0.639943
21
0.251624
0
LINE
8
BLACK
6
CONTINUOUS
10
0.639943
20
0.251624
11
0.639592
21
0.253613
0
LINE
8
BLACK
6
CONTINUOUS
10
0.639592
20
0.253613
11
0.640602
21
0.255362
0
LINE
8
BLACK
6
CONTINUOUS
10
0.640602
20
0.255362
11
0.6425
21
0.256053
0
LINE
8
BLACK
6
CONTINUOUS
10
0.6425
20
0.256053
11
0.8787
21
0.256053
0
LINE
8
BLACK
6
CONTINUOUS
10
0.8787
20
0.256053
11
0.87971
21
0.255875
0
LINE
8
BLACK
6
CONTINUOUS
10
0.932862
20
0.388898
11
0.933553
21
0.387
0
LINE
8
BLACK
6
CONTINUOUS
10
0.933553
20
0.387
11
0.933553
21
0.2532
0
LINE
8
BLACK
6
CONTINUOUS
10
0.933553
20
0.2532
11
0.933375
21
0.25219
0
LINE
8
BLACK
6
CONTINUOUS
10
0.933375
20
0.25219
11
0.932076
21
0.250643
0
LINE
8
BLACK
6
CONTINUOUS
10
0.932076
20
0.250643
11
0.930087
21
0.250292
0
LINE
8
BLACK
6
CONTINUOUS
10
0.930087
20
0.250292
11
0.930056
21
0.25031
0
LINE
8
BLACK
6
CONTINUOUS
10
0.930056
20
0.25031
11
0.929387
21
0.250192
0
LINE
8
BLACK
6
CONTINUOUS
10
0.929387
20
0.250192
11
0.927638
21
0.251202
0
LINE
8
BLACK
6
CONTINUOUS
10
0.927638
20
0.251202
11
0.926947
21
0.2531
0
LINE
8
BLACK
6
CONTINUOUS
10
0.926947
20
0.2531
11
0.926947
21
0.3869
0
LINE
8
BLACK
6
CONTINUOUS
10
0.926947
20
0.3869
11
0.927125
21
0.38791
0
LINE
8
BLACK
6
CONTINUOUS
10
0.927125
20
0.38791
11
0.928424
21
0.389457
0
LINE
8
BLACK
6
CONTINUOUS
10
0.928424
20
0.389457
11
0.930413
21
0.389808
0
LINE
8
BLACK
6
CONTINUOUS
10
0.930413
20
0.389808
11
0.930444
21
0.38979
0
LINE
8
BLACK
6
CONTINUOUS
10
0.930444
20
0.38979
11
0.931113
21
0.389908
0
LINE
8
BLACK
6
CONTINUOUS
10
0.931113
20
0.389908
11
0.932862
21
0.388898
0
LINE
8
BLACK
6
CONTINUOUS
10
0.488834
20
0.281441
11
0.486637
21
0.283637
0
LINE
8
BLACK
6
CONTINUOUS
10
0.486637
20
0.283637
11
0.485834
21
0.286637
0
LINE
8
BLACK
6
CONTINUOUS
10
0.485834
20
0.286637
11
0.486637
21
0.289637
0
LINE
8
BLACK
6
CONTINUOUS
10
0.486637
20
0.289637
11
0.488834
21
0.291833
0
LINE
8
BLACK
6
CONTINUOUS
10
0.488834
20
0.291833
11
0.491834
21
0.292637
0
LINE
8
BLACK
6
CONTINUOUS
10
0.491834
20
0.292637
11
0.502976
21
0.292637
0
LINE
8
BLACK
6
CONTINUOUS
10
0.502976
20
0.292637
11
0.502976
21
0.346637
0
LINE
8
BLACK
6
CONTINUOUS
10
0.502976
20
0.346637
11
0.50333
21
0.347956
0
LINE
8
BLACK
6
CONTINUOUS
10
0.50333
20
0.347956
11
0.503598
21
0.349296
0
LINE
8
BLACK
6
CONTINUOUS
10
0.503598
20
0.349296
11
0.503729
21
0.349445
0
LINE
8
BLACK
6
CONTINUOUS
10
0.503729
20
0.349445
11
0.50378
21
0.349637
0
LINE
8
BLACK
6
CONTINUOUS
10
0.50378
20
0.349637
11
0.504746
21
0.350603
0
LINE
8
BLACK
6
CONTINUOUS
10
0.504746
20
0.350603
11
0.505648
21
0.351629
0
LINE
8
BLACK
6
CONTINUOUS
10
0.505648
20
0.351629
11
0.505836
21
0.351693
0
LINE
8
BLACK
6
CONTINUOUS
10
0.505836
20
0.351693
11
0.505976
21
0.351833
0
LINE
8
BLACK
6
CONTINUOUS
10
0.505976
20
0.351833
11
0.507296
21
0.352186
0
LINE
8
BLACK
6
CONTINUOUS
10
0.507296
20
0.352186
11
0.50859
21
0.352624
0
LINE
8
BLACK
6
CONTINUOUS
10
0.50859
20
0.352624
11
0.508785
21
0.352585
0
LINE
8
BLACK
6
CONTINUOUS
10
0.508785
20
0.352585
11
0.508976
21
0.352637
0
LINE
8
BLACK
6
CONTINUOUS
10
0.508976
20
0.352637
11
0.510296
21
0.352283
0
LINE
8
BLACK
6
CONTINUOUS
10
0.510296
20
0.352283
11
0.511636
21
0.352015
0
LINE
8
BLACK
6
CONTINUOUS
10
0.511636
20
0.352015
11
0.511785
21
0.351884
0
LINE
8
BLACK
6
CONTINUOUS
10
0.511785
20
0.351884
11
0.511976
21
0.351833
0
LINE
8
BLACK
6
CONTINUOUS
10
0.511976
20
0.351833
11
0.512942
21
0.350867
0
LINE
8
BLACK
6
CONTINUOUS
10
0.512942
20
0.350867
11
0.513969
21
0.349965
0
LINE
8
BLACK
6
CONTINUOUS
10
0.513969
20
0.349965
11
0.519353
21
0.341888
0
LINE
8
BLACK
6
CONTINUOUS
10
0.519353
20
0.341888
11
0.523959
21
0.337282
0
LINE
8
BLACK
6
CONTINUOUS
10
0.523959
20
0.337282
11
0.528803
21
0.33486
0
LINE
8
BLACK
6
CONTINUOUS
10
0.528803
20
0.33486
11
0.531126
21
0.3328
0
LINE
8
BLACK
6
CONTINUOUS
10
0.531126
20
0.3328
11
0.532108
21
0.329853
0
LINE
8
BLACK
6
CONTINUOUS
10
0.532108
20
0.329853
11
0.531486
21
0.32681
0
LINE
8
BLACK
6
CONTINUOUS
10
0.531486
20
0.32681
11
0.529425
21
0.324487
0
LINE
8
BLACK
6
CONTINUOUS
10
0.529425
20
0.324487
11
0.526479
21
0.323505
0
LINE
8
BLACK
6
CONTINUOUS
10
0.526479
20
0.323505
11
0.523436
21
0.324127
0
LINE
8
BLACK
6
CONTINUOUS
10
0.523436
20
0.324127
11
0.517722
21
0.326984
0
LINE
8
BLACK
6
CONTINUOUS
10
0.517722
20
0.326984
11
0.516999
21
0.327625
0
LINE
8
BLACK
6
CONTINUOUS
10
0.516999
20
0.327625
11
0.516162
21
0.328108
0
LINE
8
BLACK
6
CONTINUOUS
10
0.516162
20
0.328108
11
0.514976
21
0.329294
0
LINE
8
BLACK
6
CONTINUOUS
10
0.514976
20
0.329294
11
0.514976
21
0.292637
0
LINE
8
BLACK
6
CONTINUOUS
10
0.514976
20
0.292637
11
0.526119
21
0.292637
0
LINE
8
BLACK
6
CONTINUOUS
10
0.526119
20
0.292637
11
0.529119
21
0.291833
0
LINE
8
BLACK
6
CONTINUOUS
10
0.529119
20
0.291833
11
0.531315
21
0.289637
0
LINE
8
BLACK
6
CONTINUOUS
10
0.531315
20
0.289637
11
0.532119
21
0.286637
0
LINE
8
BLACK
6
CONTINUOUS
10
0.532119
20
0.286637
11
0.531315
21
0.283637
0
LINE
8
BLACK
6
CONTINUOUS
10
0.531315
20
0.283637
11
0.529119
21
0.281441
0
LINE
8
BLACK
6
CONTINUOUS
10
0.529119
20
0.281441
11
0.526119
21
0.280637
0
LINE
8
BLACK
6
CONTINUOUS
10
0.526119
20
0.280637
11
0.491834
21
0.280637
0
LINE
8
BLACK
6
CONTINUOUS
10
0.491834
20
0.280637
11
0.488834
21
0.281441
0
LINE
8
BLACK
6
CONTINUOUS
10
0.567052
20
0.352387
11
0.568017
21
0.352329
0
LINE
8
BLACK
6
CONTINUOUS
10
0.568017
20
0.352329
11
0.576588
21
0.349472
0
LINE
8
BLACK
6
CONTINUOUS
10
0.576588
20
0.349472
11
0.577739
21
0.348712
0
LINE
8
BLACK
6
CONTINUOUS
10
0.577739
20
0.348712
11
0.578933
21
0.348022
0
LINE
8
BLACK
6
CONTINUOUS
10
0.578933
20
0.348022
11
0.584648
21
0.342308
0
LINE
8
BLACK
6
CONTINUOUS
10
0.584648
20
0.342308
11
0.585131
21
0.341471
0
LINE
8
BLACK
6
CONTINUOUS
10
0.585131
20
0.341471
11
0.585771
21
0.340749
0
LINE
8
BLACK
6
CONTINUOUS
10
0.585771
20
0.340749
11
0.588629
21
0.335034
0
LINE
8
BLACK
6
CONTINUOUS
10
0.588629
20
0.335034
11
0.588761
21
0.334385
0
LINE
8
BLACK
6
CONTINUOUS
10
0.588761
20
0.334385
11
0.589083
21
0.333806
0
LINE
8
BLACK
6
CONTINUOUS
10
0.589083
20
0.333806
11
0.59194
21
0.322378
0
LINE
8
BLACK
6
CONTINUOUS
10
0.59194
20
0.322378
11
0.591928
21
0.321637
0
LINE
8
BLACK
6
CONTINUOUS
10
0.591928
20
0.321637
11
0.592119
21
0.320922
0
LINE
8
BLACK
6
CONTINUOUS
10
0.592119
20
0.320922
11
0.592119
21
0.312351
0
LINE
8
BLACK
6
CONTINUOUS
10
0.592119
20
0.312351
11
0.591928
21
0.311636
0
LINE
8
BLACK
6
CONTINUOUS
10
0.591928
20
0.311636
11
0.59194
21
0.310896
0
LINE
8
BLACK
6
CONTINUOUS
10
0.59194
20
0.310896
11
0.589083
21
0.299467
0
LINE
8
BLACK
6
CONTINUOUS
10
0.589083
20
0.299467
11
0.588761
21
0.298888
0
LINE
8
BLACK
6
CONTINUOUS
10
0.588761
20
0.298888
11
0.588629
21
0.298239
0
LINE
8
BLACK
6
CONTINUOUS
10
0.588629
20
0.298239
11
0.585771
21
0.292525
0
LINE
8
BLACK
6
CONTINUOUS
10
0.585771
20
0.292525
11
0.585131
21
0.291802
0
LINE
8
BLACK
6
CONTINUOUS
10
0.585131
20
0.291802
11
0.584648
21
0.290965
0
LINE
8
BLACK
6
CONTINUOUS
10
0.584648
20
0.290965
11
0.578933
21
0.285251
0
LINE
8
BLACK
6
CONTINUOUS
10
0.578933
20
0.285251
11
0.577739
21
0.284562
0
LINE
8
BLACK
6
CONTINUOUS
10
0.577739
20
0.284562
11
0.576588
21
0.283802
0
LINE
8
BLACK
6
CONTINUOUS
10
0.576588
20
0.283802
11
0.568017
21
0.280945
0
LINE
8
BLACK
6
CONTINUOUS
10
0.568017
20
0.280945
11
0.567052
21
0.280887
0
LINE
8
BLACK
6
CONTINUOUS
10
0.567052
20
0.280887
11
0.566119
21
0.280637
0
LINE
8
BLACK
6
CONTINUOUS
10
0.566119
20
0.280637
11
0.560405
21
0.280637
0
LINE
8
BLACK
6
CONTINUOUS
10
0.560405
20
0.280637
11
0.559472
21
0.280887
0
LINE
8
BLACK
6
CONTINUOUS
10
0.559472
20
0.280887
11
0.558508
21
0.280945
0
LINE
8
BLACK
6
CONTINUOUS
10
0.558508
20
0.280945
11
0.549936
21
0.283802
0
LINE
8
BLACK
6
CONTINUOUS
10
0.549936
20
0.283802
11
0.548786
21
0.284561
0
LINE
8
BLACK
6
CONTINUOUS
10
0.548786
20
0.284561
11
0.547591
21
0.285251
0
LINE
8
BLACK
6
CONTINUOUS
10
0.547591
20
0.285251
11
0.544734
21
0.288108
0
LINE
8
BLACK
6
CONTINUOUS
10
0.544734
20
0.288108
11
0.543181
21
0.290798
0
LINE
8
BLACK
6
CONTINUOUS
10
0.543181
20
0.290798
11
0.543181
21
0.293904
0
LINE
8
BLACK
6
CONTINUOUS
10
0.543181
20
0.293904
11
0.544734
21
0.296594
0
LINE
8
BLACK
6
CONTINUOUS
10
0.544734
20
0.296594
11
0.547424
21
0.298146
0
LINE
8
BLACK
6
CONTINUOUS
10
0.547424
20
0.298146
11
0.550529
21
0.298146
0
LINE
8
BLACK
6
CONTINUOUS
10
0.550529
20
0.298146
11
0.553219
21
0.296594
0
LINE
8
BLACK
6
CONTINUOUS
10
0.553219
20
0.296594
11
0.555075
21
0.294738
0
LINE
8
BLACK
6
CONTINUOUS
10
0.555075
20
0.294738
11
0.561379
21
0.292637
0
LINE
8
BLACK
6
CONTINUOUS
10
0.561379
20
0.292637
11
0.565146
21
0.292637
0
LINE
8
BLACK
6
CONTINUOUS
10
0.565146
20
0.292637
11
0.57145
21
0.294738
0
LINE
8
BLACK
6
CONTINUOUS
10
0.57145
20
0.294738
11
0.575474
21
0.298762
0
LINE
8
BLACK
6
CONTINUOUS
10
0.575474
20
0.298762
11
0.577601
21
0.303017
0
LINE
8
BLACK
6
CONTINUOUS
10
0.577601
20
0.303017
11
0.580119
21
0.31309
0
LINE
8
BLACK
6
CONTINUOUS
10
0.580119
20
0.31309
11
0.580119
21
0.320184
0
LINE
8
BLACK
6
CONTINUOUS
10
0.580119
20
0.320184
11
0.577601
21
0.330257
0
LINE
8
BLACK
6
CONTINUOUS
10
0.577601
20
0.330257
11
0.575474
21
0.334511
0
LINE
8
BLACK
6
CONTINUOUS
10
0.575474
20
0.334511
11
0.57145
21
0.338535
0
LINE
8
BLACK
6
CONTINUOUS
10
0.57145
20
0.338535
11
0.565146
21
0.340637
0
LINE
8
BLACK
6
CONTINUOUS
10
0.565146
20
0.340637
11
0.561379
21
0.340637
0
LINE
8
BLACK
6
CONTINUOUS
10
0.561379
20
0.340637
11
0.555075
21
0.338535
0
LINE
8
BLACK
6
CONTINUOUS
10
0.555075
20
0.338535
11
0.553219
21
0.33668
0
LINE
8
BLACK
6
CONTINUOUS
10
0.553219
20
0.33668
11
0.550529
21
0.335127
0
LINE
8
BLACK
6
CONTINUOUS
10
0.550529
20
0.335127
11
0.547424
21
0.335127
0
LINE
8
BLACK
6
CONTINUOUS
10
0.547424
20
0.335127
11
0.544734
21
0.33668
0
LINE
8
BLACK
6
CONTINUOUS
10
0.544734
20
0.33668
11
0.543181
21
0.339369
0
LINE
8
BLACK
6
CONTINUOUS
10
0.543181
20
0.339369
11
0.543181
21
0.342475
0
LINE
8
BLACK
6
CONTINUOUS
10
0.543181
20
0.342475
11
0.544734
21
0.345165
0
LINE
8
BLACK
6
CONTINUOUS
10
0.544734
20
0.345165
11
0.547591
21
0.348022
0
LINE
8
BLACK
6
CONTINUOUS
10
0.547591
20
0.348022
11
0.548786
21
0.348712
0
LINE
8
BLACK
6
CONTINUOUS
10
0.548786
20
0.348712
11
0.549936
21
0.349472
0
LINE
8
BLACK
6
CONTINUOUS
10
0.549936
20
0.349472
11
0.558508
21
0.352329
0
LINE
8
BLACK
6
CONTINUOUS
10
0.558508
20
0.352329
11
0.559472
21
0.352387
0
LINE
8
BLACK
6
CONTINUOUS
10
0.559472
20
0.352387
11
0.560405
21
0.352637
0
LINE
8
BLACK
6
CONTINUOUS
10
0.560405
20
0.352637
11
0.566119
21
0.352637
0
LINE
8
BLACK
6
CONTINUOUS
10
0.566119
20
0.352637
11
0.567052
21
0.352387
0
LINE
8
BLACK
6
CONTINUOUS
10
0.365844
20
0.380725
11
0.366535
21
0.379055
0
LINE
8
BLACK
6
CONTINUOUS
10
0.366535
20
0.379055
11
0.366535
21
0.316063
0
LINE
8
BLACK
6
CONTINUOUS
10
0.366535
20
0.316063
11
0.365844
21
0.314393
0
LINE
8
BLACK
6
CONTINUOUS
10
0.365844
20
0.314393
11
0.364173
21
0.313701
0
LINE
8
BLACK
6
CONTINUOUS
10
0.364173
20
0.313701
11
0.362503
21
0.314393
0
LINE
8
BLACK
6
CONTINUOUS
10
0.362503
20
0.314393
11
0.361811
21
0.316063
0
LINE
8
BLACK
6
CONTINUOUS
10
0.361811
20
0.316063
11
0.361811
21
0.379055
0
LINE
8
BLACK
6
CONTINUOUS
10
0.361811
20
0.379055
11
0.362503
21
0.380725
0
LINE
8
BLACK
6
CONTINUOUS
10
0.362503
20
0.380725
11
0.364173
21
0.381417
0
LINE
8
BLACK
6
CONTINUOUS
10
0.364173
20
0.381417
11
0.365844
21
0.380725
0
LINE
8
BLACK
6
CONTINUOUS
10
1.6375
20
0.380725
11
1.63819
21
0.379055
0
LINE
8
BLACK
6
CONTINUOUS
10
1.63819
20
0.379055
11
1.63819
21
0.316063
0
LINE
8
BLACK
6
CONTINUOUS
10
1.63819
20
0.316063
11
1.6375
21
0.314393
0
LINE
8
BLACK
6
CONTINUOUS
10
1.6375
20
0.314393
11
1.63583
21
0.313701
0
LINE
8
BLACK
6
CONTINUOUS
10
1.63583
20
0.313701
11
1.63416
21
0.314393
0
LINE
8
BLACK
6
CONTINUOUS
10
1.63416
20
0.314393
11
1.63346
21
0.316063
0
LINE
8
BLACK
6
CONTINUOUS
10
1.63346
20
0.316063
11
1.63346
21
0.379055
0
LINE
8
BLACK
6
CONTINUOUS
10
1.63346
20
0.379055
11
1.63416
21
0.380725
0
LINE
8
BLACK
6
CONTINUOUS
10
1.63416
20
0.380725
11
1.63583
21
0.381417
0
LINE
8
BLACK
6
CONTINUOUS
10
1.63583
20
0.381417
11
1.6375
21
0.380725
0
LINE
8
BLACK
6
CONTINUOUS
10
1.10663
20
0.535529
11
1.10732
21
0.533858
0
LINE
8
BLACK
6
CONTINUOUS
10
1.10732
20
0.533858
11
1.10732
21
0.32126
0
LINE
8
BLACK
6
CONTINUOUS
10
1.10732
20
0.32126
11
1.10663
21
0.31959
0
LINE
8
BLACK
6
CONTINUOUS
10
1.10663
20
0.31959
11
1.10496
21
0.318898
0
LINE
8
BLACK
6
CONTINUOUS
10
1.10496
20
0.318898
11
1.10329
21
0.31959
0
LINE
8
BLACK
6
CONTINUOUS
10
1.10329
20
0.31959
11
1.1026
21
0.32126
0
LINE
8
BLACK
6
CONTINUOUS
10
1.1026
20
0.32126
11
1.1026
21
0.531496
0
LINE
8
BLACK
6
CONTINUOUS
10
1.1026
20
0.531496
11
0.977402
21
0.531496
0
LINE
8
BLACK
6
CONTINUOUS
10
0.977402
20
0.531496
11
0.977402
21
0.423453
0
LINE
8
BLACK
6
CONTINUOUS
10
0.977402
20
0.423453
11
0.9811
21
0.423453
0
LINE
8
BLACK
6
CONTINUOUS
10
0.9811
20
0.423453
11
0.98211
21
0.423275
0
LINE
8
BLACK
6
CONTINUOUS
10
0.98211
20
0.423275
11
0.983657
21
0.421976
0
LINE
8
BLACK
6
CONTINUOUS
10
0.983657
20
0.421976
11
0.984008
21
0.419987
0
LINE
8
BLACK
6
CONTINUOUS
10
0.984008
20
0.419987
11
0.982998
21
0.418238
0
LINE
8
BLACK
6
CONTINUOUS
10
0.982998
20
0.418238
11
0.9811
21
0.417547
0
LINE
8
BLACK
6
CONTINUOUS
10
0.9811
20
0.417547
11
0.977402
21
0.417547
0
LINE
8
BLACK
6
CONTINUOUS
10
0.977402
20
0.417547
11
0.977402
21
0.32126
0
LINE
8
BLACK
6
CONTINUOUS
10
0.977402
20
0.32126
11
0.97671
21
0.31959
0
LINE
8
BLACK
6
CONTINUOUS
10
0.97671
20
0.31959
11
0.975039
21
0.318898
0
LINE
8
BLACK
6
CONTINUOUS
10
0.975039
20
0.318898
11
0.973369
21
0.31959
0
LINE
8
BLACK
6
CONTINUOUS
10
0.973369
20
0.31959
11
0.972677
21
0.32126
0
LINE
8
BLACK
6
CONTINUOUS
10
0.972677
20
0.32126
11
0.972677
21
0.417547
0
LINE
8
BLACK
6
CONTINUOUS
10
0.972677
20
0.417547
11
0.960453
21
0.417547
0
LINE
8
BLACK
6
CONTINUOUS
10
0.960453
20
0.417547
11
0.960453
21
0.3969
0
LINE
8
BLACK
6
CONTINUOUS
10
0.960453
20
0.3969
11
0.960275
21
0.39589
0
LINE
8
BLACK
6
CONTINUOUS
10
0.960275
20
0.39589
11
0.958976
21
0.394343
0
LINE
8
BLACK
6
CONTINUOUS
10
0.958976
20
0.394343
11
0.956987
21
0.393992
0
LINE
8
BLACK
6
CONTINUOUS
10
0.956987
20
0.393992
11
0.955238
21
0.395002
0
LINE
8
BLACK
6
CONTINUOUS
10
0.955238
20
0.395002
11
0.954547
21
0.3969
0
LINE
8
BLACK
6
CONTINUOUS
10
0.954547
20
0.3969
11
0.954547
21
0.417547
0
LINE
8
BLACK
6
CONTINUOUS
10
0.954547
20
0.417547
11
0.9339
21
0.417547
0
LINE
8
BLACK
6
CONTINUOUS
10
0.9339
20
0.417547
11
0.93289
21
0.417725
0
LINE
8
BLACK
6
CONTINUOUS
10
0.93289
20
0.417725
11
0.931343
21
0.419024
0
LINE
8
BLACK
6
CONTINUOUS
10
0.931343
20
0.419024
11
0.930992
21
0.421013
0
LINE
8
BLACK
6
CONTINUOUS
10
0.930992
20
0.421013
11
0.932002
21
0.422762
0
LINE
8
BLACK
6
CONTINUOUS
10
0.932002
20
0.422762
11
0.9339
21
0.423453
0
LINE
8
BLACK
6
CONTINUOUS
10
0.9339
20
0.423453
11
0.954547
21
0.423453
0
LINE
8
BLACK
6
CONTINUOUS
10
0.954547
20
0.423453
11
0.954547
21
0.4402
0
LINE
8
BLACK
6
CONTINUOUS
10
0.954547
20
0.4402
11
0.954725
21
0.44121
0
LINE
8
BLACK
6
CONTINUOUS
10
0.954725
20
0.44121
11
0.956024
21
0.442757
0
LINE
8
BLACK
6
CONTINUOUS
10
0.956024
20
0.442757
11
0.958013
21
0.443108
0
LINE
8
BLACK
6
CONTINUOUS
10
0.958013
20
0.443108
11
0.959762
21
0.442098
0
LINE
8
BLACK
6
CONTINUOUS
10
0.959762
20
0.442098
11
0.960453
21
0.4402
0
LINE
8
BLACK
6
CONTINUOUS
10
0.960453
20
0.4402
11
0.960453
21
0.423453
0
LINE
8
BLACK
6
CONTINUOUS
10
0.960453
20
0.423453
11
0.972677
21
0.423453
0
LINE
8
BLACK
6
CONTINUOUS
10
0.972677
20
0.423453
11
0.972677
21
0.533858
0
LINE
8
BLACK
6
CONTINUOUS
10
0.972677
20
0.533858
11
0.973369
21
0.535529
0
LINE
8
BLACK
6
CONTINUOUS
10
0.973369
20
0.535529
11
0.975039
21
0.53622
0
LINE
8
BLACK
6
CONTINUOUS
10
0.975039
20
0.53622
11
1.10496
21
0.53622
0
LINE
8
BLACK
6
CONTINUOUS
10
1.10496
20
0.53622
11
1.10663
21
0.535529
0
LINE
8
BLACK
6
CONTINUOUS
10
1.23286
20
0.388901
11
1.233
21
0.388788
0
LINE
8
BLACK
6
CONTINUOUS
10
1.233
20
0.388788
11
1.23317
21
0.388768
0
LINE
8
BLACK
6
CONTINUOUS
10
1.23317
20
0.388768
11
1.23692
21
0.386893
0
LINE
8
BLACK
6
CONTINUOUS
10
1.23692
20
0.386893
11
1.23763
21
0.386367
0
LINE
8
BLACK
6
CONTINUOUS
10
1.23763
20
0.386367
11
1.23769
21
0.38634
0
LINE
8
BLACK
6
CONTINUOUS
10
1.23769
20
0.38634
11
1.23956
21
0.384465
0
LINE
8
BLACK
6
CONTINUOUS
10
1.23956
20
0.384465
11
1.24015
21
0.383625
0
LINE
8
BLACK
6
CONTINUOUS
10
1.24015
20
0.383625
11
1.24033
21
0.381613
0
LINE
8
BLACK
6
CONTINUOUS
10
1.24033
20
0.381613
11
1.23917
21
0.379958
0
LINE
8
BLACK
6
CONTINUOUS
10
1.23917
20
0.379958
11
1.23722
21
0.379436
0
LINE
8
BLACK
6
CONTINUOUS
10
1.23722
20
0.379436
11
1.23539
21
0.380289
0
LINE
8
BLACK
6
CONTINUOUS
10
1.23539
20
0.380289
11
1.23385
21
0.381825
0
LINE
8
BLACK
6
CONTINUOUS
10
1.23385
20
0.381825
11
1.23116
21
0.383174
0
LINE
8
BLACK
6
CONTINUOUS
10
1.23116
20
0.383174
11
1.22318
21
0.383174
0
LINE
8
BLACK
6
CONTINUOUS
10
1.22318
20
0.383174
11
1.22048
21
0.381825
0
LINE
8
BLACK
6
CONTINUOUS
10
1.22048
20
0.381825
11
1.21928
21
0.380628
0
LINE
8
BLACK
6
CONTINUOUS
10
1.21928
20
0.380628
11
1.21793
21
0.377931
0
LINE
8
BLACK
6
CONTINUOUS
10
1.21793
20
0.377931
11
1.21793
21
0.375357
0
LINE
8
BLACK
6
CONTINUOUS
10
1.21793
20
0.375357
11
1.21943
21
0.370849
0
LINE
8
BLACK
6
CONTINUOUS
10
1.21943
20
0.370849
11
1.24144
21
0.348845
0
LINE
8
BLACK
6
CONTINUOUS
10
1.24144
20
0.348845
11
1.24181
21
0.348317
0
LINE
8
BLACK
6
CONTINUOUS
10
1.24181
20
0.348317
11
1.24191
21
0.348233
0
LINE
8
BLACK
6
CONTINUOUS
10
1.24191
20
0.348233
11
1.24192
21
0.348155
0
LINE
8
BLACK
6
CONTINUOUS
10
1.24192
20
0.348155
11
1.24203
21
0.348005
0
LINE
8
BLACK
6
CONTINUOUS
10
1.24203
20
0.348005
11
1.2421
21
0.347119
0
LINE
8
BLACK
6
CONTINUOUS
10
1.2421
20
0.347119
11
1.24226
21
0.346244
0
LINE
8
BLACK
6
CONTINUOUS
10
1.24226
20
0.346244
11
1.24219
21
0.346127
0
LINE
8
BLACK
6
CONTINUOUS
10
1.24219
20
0.346127
11
1.2422
21
0.345992
0
LINE
8
BLACK
6
CONTINUOUS
10
1.2422
20
0.345992
11
1.24169
21
0.345265
0
LINE
8
BLACK
6
CONTINUOUS
10
1.24169
20
0.345265
11
1.24125
21
0.344495
0
LINE
8
BLACK
6
CONTINUOUS
10
1.24125
20
0.344495
11
1.24112
21
0.344449
0
LINE
8
BLACK
6
CONTINUOUS
10
1.24112
20
0.344449
11
1.24104
21
0.344338
0
LINE
8
BLACK
6
CONTINUOUS
10
1.24104
20
0.344338
11
1.24019
21
0.344108
0
LINE
8
BLACK
6
CONTINUOUS
10
1.24019
20
0.344108
11
1.23935
21
0.343804
0
LINE
8
BLACK
6
CONTINUOUS
10
1.23935
20
0.343804
11
1.21498
21
0.343804
0
LINE
8
BLACK
6
CONTINUOUS
10
1.21498
20
0.343804
11
1.21397
21
0.343982
0
LINE
8
BLACK
6
CONTINUOUS
10
1.21397
20
0.343982
11
1.21242
21
0.34528
0
LINE
8
BLACK
6
CONTINUOUS
10
1.21242
20
0.34528
11
1.21207
21
0.347269
0
LINE
8
BLACK
6
CONTINUOUS
10
1.21207
20
0.347269
11
1.21308
21
0.349019
0
LINE
8
BLACK
6
CONTINUOUS
10
1.21308
20
0.349019
11
1.21498
21
0.349709
0
LINE
8
BLACK
6
CONTINUOUS
10
1.21498
20
0.349709
11
1.23222
21
0.349709
0
LINE
8
BLACK
6
CONTINUOUS
10
1.23222
20
0.349709
11
1.21477
21
0.367166
0
LINE
8
BLACK
6
CONTINUOUS
10
1.21477
20
0.367166
11
1.21418
21
0.368006
0
LINE
8
BLACK
6
CONTINUOUS
10
1.21418
20
0.368006
11
1.21416
21
0.368182
0
LINE
8
BLACK
6
CONTINUOUS
10
1.21416
20
0.368182
11
1.21405
21
0.36832
0
LINE
8
BLACK
6
CONTINUOUS
10
1.21405
20
0.36832
11
1.21218
21
0.373944
0
LINE
8
BLACK
6
CONTINUOUS
10
1.21218
20
0.373944
11
1.21205
21
0.374818
0
LINE
8
BLACK
6
CONTINUOUS
10
1.21205
20
0.374818
11
1.21203
21
0.374878
0
LINE
8
BLACK
6
CONTINUOUS
10
1.21203
20
0.374878
11
1.21203
21
0.378628
0
LINE
8
BLACK
6
CONTINUOUS
10
1.21203
20
0.378628
11
1.2122
21
0.379638
0
LINE
8
BLACK
6
CONTINUOUS
10
1.2122
20
0.379638
11
1.21232
21
0.379773
0
LINE
8
BLACK
6
CONTINUOUS
10
1.21232
20
0.379773
11
1.21234
21
0.379948
0
LINE
8
BLACK
6
CONTINUOUS
10
1.21234
20
0.379948
11
1.21421
21
0.383698
0
LINE
8
BLACK
6
CONTINUOUS
10
1.21421
20
0.383698
11
1.21474
21
0.384407
0
LINE
8
BLACK
6
CONTINUOUS
10
1.21474
20
0.384407
11
1.21477
21
0.384465
0
LINE
8
BLACK
6
CONTINUOUS
10
1.21477
20
0.384465
11
1.21664
21
0.38634
0
LINE
8
BLACK
6
CONTINUOUS
10
1.21664
20
0.38634
11
1.21736
21
0.386846
0
LINE
8
BLACK
6
CONTINUOUS
10
1.21736
20
0.386846
11
1.21741
21
0.386893
0
LINE
8
BLACK
6
CONTINUOUS
10
1.21741
20
0.386893
11
1.22116
21
0.388768
0
LINE
8
BLACK
6
CONTINUOUS
10
1.22116
20
0.388768
11
1.22214
21
0.38906
0
LINE
8
BLACK
6
CONTINUOUS
10
1.22214
20
0.38906
11
1.22231
21
0.389019
0
LINE
8
BLACK
6
CONTINUOUS
10
1.22231
20
0.389019
11
1.22248
21
0.389079
0
LINE
8
BLACK
6
CONTINUOUS
10
1.22248
20
0.389079
11
1.23185
21
0.389079
0
LINE
8
BLACK
6
CONTINUOUS
10
1.23185
20
0.389079
11
1.23286
21
0.388901
0
LINE
8
BLACK
6
CONTINUOUS
10
1.18939
20
0.38895
11
1.18956
21
0.388961
0
LINE
8
BLACK
6
CONTINUOUS
10
1.18956
20
0.388961
11
1.19025
21
0.388453
0
LINE
8
BLACK
6
CONTINUOUS
10
1.19025
20
0.388453
11
1.19099
21
0.388025
0
LINE
8
BLACK
6
CONTINUOUS
10
1.19099
20
0.388025
11
1.19105
21
0.387865
0
LINE
8
BLACK
6
CONTINUOUS
10
1.19105
20
0.387865
11
1.19119
21
0.387765
0
LINE
8
BLACK
6
CONTINUOUS
10
1.19119
20
0.387765
11
1.19478
21
0.382384
0
LINE
8
BLACK
6
CONTINUOUS
10
1.19478
20
0.382384
11
1.19798
21
0.37918
0
LINE
8
BLACK
6
CONTINUOUS
10
1.19798
20
0.37918
11
1.2013
21
0.377519
0
LINE
8
BLACK
6
CONTINUOUS
10
1.2013
20
0.377519
11
1.20213
21
0.376908
0
LINE
8
BLACK
6
CONTINUOUS
10
1.20213
20
0.376908
11
1.20293
21
0.375055
0
LINE
8
BLACK
6
CONTINUOUS
10
1.20293
20
0.375055
11
1.20235
21
0.373119
0
LINE
8
BLACK
6
CONTINUOUS
10
1.20235
20
0.373119
11
1.20067
21
0.372006
0
LINE
8
BLACK
6
CONTINUOUS
10
1.20067
20
0.372006
11
1.19866
21
0.372237
0
LINE
8
BLACK
6
CONTINUOUS
10
1.19866
20
0.372237
11
1.19491
21
0.374112
0
LINE
8
BLACK
6
CONTINUOUS
10
1.19491
20
0.374112
11
1.1942
21
0.374638
0
LINE
8
BLACK
6
CONTINUOUS
10
1.1942
20
0.374638
11
1.19414
21
0.374665
0
LINE
8
BLACK
6
CONTINUOUS
10
1.19414
20
0.374665
11
1.19169
21
0.377123
0
LINE
8
BLACK
6
CONTINUOUS
10
1.19169
20
0.377123
11
1.19169
21
0.349709
0
LINE
8
BLACK
6
CONTINUOUS
10
1.19169
20
0.349709
11
1.19998
21
0.349709
0
LINE
8
BLACK
6
CONTINUOUS
10
1.19998
20
0.349709
11
1.20099
21
0.349531
0
LINE
8
BLACK
6
CONTINUOUS
10
1.20099
20
0.349531
11
1.20254
21
0.348233
0
LINE
8
BLACK
6
CONTINUOUS
10
1.20254
20
0.348233
11
1.20289
21
0.346244
0
LINE
8
BLACK
6
CONTINUOUS
10
1.20289
20
0.346244
11
1.20188
21
0.344495
0
LINE
8
BLACK
6
CONTINUOUS
10
1.20188
20
0.344495
11
1.19998
21
0.343804
0
LINE
8
BLACK
6
CONTINUOUS
10
1.19998
20
0.343804
11
1.17748
21
0.343804
0
LINE
8
BLACK
6
CONTINUOUS
10
1.17748
20
0.343804
11
1.17647
21
0.343982
0
LINE
8
BLACK
6
CONTINUOUS
10
1.17647
20
0.343982
11
1.17493
21
0.34528
0
LINE
8
BLACK
6
CONTINUOUS
10
1.17493
20
0.34528
11
1.17458
21
0.347269
0
LINE
8
BLACK
6
CONTINUOUS
10
1.17458
20
0.347269
11
1.17559
21
0.349019
0
LINE
8
BLACK
6
CONTINUOUS
10
1.17559
20
0.349019
11
1.17748
21
0.349709
0
LINE
8
BLACK
6
CONTINUOUS
10
1.17748
20
0.349709
11
1.18578
21
0.349709
0
LINE
8
BLACK
6
CONTINUOUS
10
1.18578
20
0.349709
11
1.18578
21
0.386127
0
LINE
8
BLACK
6
CONTINUOUS
10
1.18578
20
0.386127
11
1.18596
21
0.387137
0
LINE
8
BLACK
6
CONTINUOUS
10
1.18596
20
0.387137
11
1.18607
21
0.387267
0
LINE
8
BLACK
6
CONTINUOUS
10
1.18607
20
0.387267
11
1.18609
21
0.387435
0
LINE
8
BLACK
6
CONTINUOUS
10
1.18609
20
0.387435
11
1.18671
21
0.388027
0
LINE
8
BLACK
6
CONTINUOUS
10
1.18671
20
0.388027
11
1.18726
21
0.388684
0
LINE
8
BLACK
6
CONTINUOUS
10
1.18726
20
0.388684
11
1.18742
21
0.388713
0
LINE
8
BLACK
6
CONTINUOUS
10
1.18742
20
0.388713
11
1.18755
21
0.388831
0
LINE
8
BLACK
6
CONTINUOUS
10
1.18755
20
0.388831
11
1.1884
21
0.388886
0
LINE
8
BLACK
6
CONTINUOUS
10
1.1884
20
0.388886
11
1.18925
21
0.389035
0
LINE
8
BLACK
6
CONTINUOUS
10
1.18925
20
0.389035
11
1.18939
21
0.38895
0
LINE
8
BLACK
6
CONTINUOUS
10
1.26459
20
0.388926
11
1.26466
21
0.388928
0
LINE
8
BLACK
6
CONTINUOUS
10
1.26466
20
0.388928
11
1.27028
21
0.387053
0
LINE
8
BLACK
6
CONTINUOUS
10
1.27028
20
0.387053
11
1.27118
21
0.386565
0
LINE
8
BLACK
6
CONTINUOUS
10
1.27118
20
0.386565
11
1.27128
21
0.386414
0
LINE
8
BLACK
6
CONTINUOUS
10
1.27128
20
0.386414
11
1.27144
21
0.38634
0
LINE
8
BLACK
6
CONTINUOUS
10
1.27144
20
0.38634
11
1.27519
21
0.38259
0
LINE
8
BLACK
6
CONTINUOUS
10
1.27519
20
0.38259
11
1.27569
21
0.381867
0
LINE
8
BLACK
6
CONTINUOUS
10
1.27569
20
0.381867
11
1.27574
21
0.381823
0
LINE
8
BLACK
6
CONTINUOUS
10
1.27574
20
0.381823
11
1.27761
21
0.378073
0
LINE
8
BLACK
6
CONTINUOUS
10
1.27761
20
0.378073
11
1.27776
21
0.377585
0
LINE
8
BLACK
6
CONTINUOUS
10
1.27776
20
0.377585
11
1.27784
21
0.377469
0
LINE
8
BLACK
6
CONTINUOUS
10
1.27784
20
0.377469
11
1.27971
21
0.36997
0
LINE
8
BLACK
6
CONTINUOUS
10
1.27971
20
0.36997
11
1.27975
21
0.369382
0
LINE
8
BLACK
6
CONTINUOUS
10
1.27975
20
0.369382
11
1.2798
21
0.369254
0
LINE
8
BLACK
6
CONTINUOUS
10
1.2798
20
0.369254
11
1.2798
21
0.36363
0
LINE
8
BLACK
6
CONTINUOUS
10
1.2798
20
0.36363
11
1.2797
21
0.363049
0
LINE
8
BLACK
6
CONTINUOUS
10
1.2797
20
0.363049
11
1.27971
21
0.362913
0
LINE
8
BLACK
6
CONTINUOUS
10
1.27971
20
0.362913
11
1.27784
21
0.355414
0
LINE
8
BLACK
6
CONTINUOUS
10
1.27784
20
0.355414
11
1.27763
21
0.354949
0
LINE
8
BLACK
6
CONTINUOUS
10
1.27763
20
0.354949
11
1.27761
21
0.35481
0
LINE
8
BLACK
6
CONTINUOUS
10
1.27761
20
0.35481
11
1.27574
21
0.35106
0
LINE
8
BLACK
6
CONTINUOUS
10
1.27574
20
0.35106
11
1.27521
21
0.350351
0
LINE
8
BLACK
6
CONTINUOUS
10
1.27521
20
0.350351
11
1.27519
21
0.350293
0
LINE
8
BLACK
6
CONTINUOUS
10
1.27519
20
0.350293
11
1.27144
21
0.346544
0
LINE
8
BLACK
6
CONTINUOUS
10
1.27144
20
0.346544
11
1.2706
21
0.345955
0
LINE
8
BLACK
6
CONTINUOUS
10
1.2706
20
0.345955
11
1.27042
21
0.34594
0
LINE
8
BLACK
6
CONTINUOUS
10
1.27042
20
0.34594
11
1.27028
21
0.34583
0
LINE
8
BLACK
6
CONTINUOUS
10
1.27028
20
0.34583
11
1.26466
21
0.343955
0
LINE
8
BLACK
6
CONTINUOUS
10
1.26466
20
0.343955
11
1.26378
21
0.343826
0
LINE
8
BLACK
6
CONTINUOUS
10
1.26378
20
0.343826
11
1.26372
21
0.343804
0
LINE
8
BLACK
6
CONTINUOUS
10
1.26372
20
0.343804
11
1.25997
21
0.343804
0
LINE
8
BLACK
6
CONTINUOUS
10
1.25997
20
0.343804
11
1.2591
21
0.343957
0
LINE
8
BLACK
6
CONTINUOUS
10
1.2591
20
0.343957
11
1.25904
21
0.343955
0
LINE
8
BLACK
6
CONTINUOUS
10
1.25904
20
0.343955
11
1.25342
21
0.34583
0
LINE
8
BLACK
6
CONTINUOUS
10
1.25342
20
0.34583
11
1.25251
21
0.346319
0
LINE
8
BLACK
6
CONTINUOUS
10
1.25251
20
0.346319
11
1.25242
21
0.346469
0
LINE
8
BLACK
6
CONTINUOUS
10
1.25242
20
0.346469
11
1.25226
21
0.346544
0
LINE
8
BLACK
6
CONTINUOUS
10
1.25226
20
0.346544
11
1.25039
21
0.348418
0
LINE
8
BLACK
6
CONTINUOUS
10
1.25039
20
0.348418
11
1.2498
21
0.349258
0
LINE
8
BLACK
6
CONTINUOUS
10
1.2498
20
0.349258
11
1.24962
21
0.35127
0
LINE
8
BLACK
6
CONTINUOUS
10
1.24962
20
0.35127
11
1.25078
21
0.352925
0
LINE
8
BLACK
6
CONTINUOUS
10
1.25078
20
0.352925
11
1.25273
21
0.353448
0
LINE
8
BLACK
6
CONTINUOUS
10
1.25273
20
0.353448
11
1.25456
21
0.352594
0
LINE
8
BLACK
6
CONTINUOUS
10
1.25456
20
0.352594
11
1.25594
21
0.351212
0
LINE
8
BLACK
6
CONTINUOUS
10
1.25594
20
0.351212
11
1.26045
21
0.349709
0
LINE
8
BLACK
6
CONTINUOUS
10
1.26045
20
0.349709
11
1.26324
21
0.349709
0
LINE
8
BLACK
6
CONTINUOUS
10
1.26324
20
0.349709
11
1.26775
21
0.351212
0
LINE
8
BLACK
6
CONTINUOUS
10
1.26775
20
0.351212
11
1.27067
21
0.35413
0
LINE
8
BLACK
6
CONTINUOUS
10
1.27067
20
0.35413
11
1.27219
21
0.357161
0
LINE
8
BLACK
6
CONTINUOUS
10
1.27219
20
0.357161
11
1.27389
21
0.363993
0
LINE
8
BLACK
6
CONTINUOUS
10
1.27389
20
0.363993
11
1.27389
21
0.36889
0
LINE
8
BLACK
6
CONTINUOUS
10
1.27389
20
0.36889
11
1.27219
21
0.375722
0
LINE
8
BLACK
6
CONTINUOUS
10
1.27219
20
0.375722
11
1.27067
21
0.378753
0
LINE
8
BLACK
6
CONTINUOUS
10
1.27067
20
0.378753
11
1.26775
21
0.381671
0
LINE
8
BLACK
6
CONTINUOUS
10
1.26775
20
0.381671
11
1.26324
21
0.383174
0
LINE
8
BLACK
6
CONTINUOUS
10
1.26324
20
0.383174
11
1.26045
21
0.383174
0
LINE
8
BLACK
6
CONTINUOUS
10
1.26045
20
0.383174
11
1.25594
21
0.381671
0
LINE
8
BLACK
6
CONTINUOUS
10
1.25594
20
0.381671
11
1.25456
21
0.380289
0
LINE
8
BLACK
6
CONTINUOUS
10
1.25456
20
0.380289
11
1.25372
21
0.379701
0
LINE
8
BLACK
6
CONTINUOUS
10
1.25372
20
0.379701
11
1.25171
21
0.379525
0
LINE
8
BLACK
6
CONTINUOUS
10
1.25171
20
0.379525
11
1.25006
21
0.380684
0
LINE
8
BLACK
6
CONTINUOUS
10
1.25006
20
0.380684
11
1.24953
21
0.382634
0
LINE
8
BLACK
6
CONTINUOUS
10
1.24953
20
0.382634
11
1.25039
21
0.384465
0
LINE
8
BLACK
6
CONTINUOUS
10
1.25039
20
0.384465
11
1.25226
21
0.38634
0
LINE
8
BLACK
6
CONTINUOUS
10
1.25226
20
0.38634
11
1.2531
21
0.386928
0
LINE
8
BLACK
6
CONTINUOUS
10
1.2531
20
0.386928
11
1.25328
21
0.386943
0
LINE
8
BLACK
6
CONTINUOUS
10
1.25328
20
0.386943
11
1.25342
21
0.387053
0
LINE
8
BLACK
6
CONTINUOUS
10
1.25342
20
0.387053
11
1.25904
21
0.388928
0
LINE
8
BLACK
6
CONTINUOUS
10
1.25904
20
0.388928
11
1.25991
21
0.389057
0
LINE
8
BLACK
6
CONTINUOUS
10
1.25991
20
0.389057
11
1.25997
21
0.389079
0
LINE
8
BLACK
6
CONTINUOUS
10
1.25997
20
0.389079
11
1.26372
21
0.389079
0
LINE
8
BLACK
6
CONTINUOUS
10
1.26372
20
0.389079
11
1.26459
21
0.388926
0
LINE
8
BLACK
6
CONTINUOUS
10
0.88061
20
0.389775
11
0.882157
21
0.388476
0
LINE
8
BLACK
6
CONTINUOUS
10
0.882157
20
0.388476
11
0.882508
21
0.386487
0
LINE
8
BLACK
6
CONTINUOUS
10
0.882508
20
0.386487
11
0.881498
21
0.384738
0
LINE
8
BLACK
6
CONTINUOUS
10
0.881498
20
0.384738
11
0.8796
21
0.384047
0
LINE
8
BLACK
6
CONTINUOUS
10
0.8796
20
0.384047
11
0.6434
21
0.384047
0
LINE
8
BLACK
6
CONTINUOUS
10
0.6434
20
0.384047
11
0.64239
21
0.384225
0
LINE
8
BLACK
6
CONTINUOUS
10
0.64239
20
0.384225
11
0.640843
21
0.385524
0
LINE
8
BLACK
6
CONTINUOUS
10
0.640843
20
0.385524
11
0.640492
21
0.387513
0
LINE
8
BLACK
6
CONTINUOUS
10
0.640492
20
0.387513
11
0.641502
21
0.389262
0
LINE
8
BLACK
6
CONTINUOUS
10
0.641502
20
0.389262
11
0.6434
21
0.389953
0
LINE
8
BLACK
6
CONTINUOUS
10
0.6434
20
0.389953
11
0.8796
21
0.389953
0
LINE
8
BLACK
6
CONTINUOUS
10
0.8796
20
0.389953
11
0.88061
21
0.389775
0
LINE
8
BLACK
6
CONTINUOUS
10
1.14397
20
0.470384
11
1.14394
21
0.470513
0
LINE
8
BLACK
6
CONTINUOUS
10
1.14394
20
0.470513
11
1.14401
21
0.470626
0
LINE
8
BLACK
6
CONTINUOUS
10
1.14401
20
0.470626
11
1.14408
21
0.47101
0
LINE
8
BLACK
6
CONTINUOUS
10
1.14408
20
0.47101
11
1.14457
21
0.471598
0
LINE
8
BLACK
6
CONTINUOUS
10
1.14457
20
0.471598
11
1.14495
21
0.472262
0
LINE
8
BLACK
6
CONTINUOUS
10
1.14495
20
0.472262
11
1.1452
21
0.472353
0
LINE
8
BLACK
6
CONTINUOUS
10
1.1452
20
0.472353
11
1.14537
21
0.472557
0
LINE
8
BLACK
6
CONTINUOUS
10
1.14537
20
0.472557
11
1.14613
21
0.47269
0
LINE
8
BLACK
6
CONTINUOUS
10
1.14613
20
0.47269
11
1.14685
21
0.472953
0
LINE
8
BLACK
6
CONTINUOUS
10
1.14685
20
0.472953
11
1.30685
21
0.472953
0
LINE
8
BLACK
6
CONTINUOUS
10
1.30685
20
0.472953
11
1.30723
21
0.472885
0
LINE
8
BLACK
6
CONTINUOUS
10
1.30723
20
0.472885
11
1.30736
21
0.472908
0
LINE
8
BLACK
6
CONTINUOUS
10
1.30736
20
0.472908
11
1.30748
21
0.472842
0
LINE
8
BLACK
6
CONTINUOUS
10
1.30748
20
0.472842
11
1.30786
21
0.472775
0
LINE
8
BLACK
6
CONTINUOUS
10
1.30786
20
0.472775
11
1.30845
21
0.472282
0
LINE
8
BLACK
6
CONTINUOUS
10
1.30845
20
0.472282
11
1.30911
21
0.471898
0
LINE
8
BLACK
6
CONTINUOUS
10
1.30911
20
0.471898
11
1.3092
21
0.471648
0
LINE
8
BLACK
6
CONTINUOUS
10
1.3092
20
0.471648
11
1.30941
21
0.471476
0
LINE
8
BLACK
6
CONTINUOUS
10
1.30941
20
0.471476
11
1.30954
21
0.470721
0
LINE
8
BLACK
6
CONTINUOUS
10
1.30954
20
0.470721
11
1.3098
21
0.47
0
LINE
8
BLACK
6
CONTINUOUS
10
1.3098
20
0.47
11
1.3098
21
0.41
0
LINE
8
BLACK
6
CONTINUOUS
10
1.3098
20
0.41
11
1.30974
21
0.409616
0
LINE
8
BLACK
6
CONTINUOUS
10
1.30974
20
0.409616
11
1.30976
21
0.409487
0
LINE
8
BLACK
6
CONTINUOUS
10
1.30976
20
0.409487
11
1.30969
21
0.409374
0
LINE
8
BLACK
6
CONTINUOUS
10
1.30969
20
0.409374
11
1.30963
21
0.40899
0
LINE
8
BLACK
6
CONTINUOUS
10
1.30963
20
0.40899
11
1.30913
21
0.408402
0
LINE
8
BLACK
6
CONTINUOUS
10
1.30913
20
0.408402
11
1.30875
21
0.407738
0
LINE
8
BLACK
6
CONTINUOUS
10
1.30875
20
0.407738
11
1.3085
21
0.407647
0
LINE
8
BLACK
6
CONTINUOUS
10
1.3085
20
0.407647
11
1.30833
21
0.407443
0
LINE
8
BLACK
6
CONTINUOUS
10
1.30833
20
0.407443
11
1.30757
21
0.40731
0
LINE
8
BLACK
6
CONTINUOUS
10
1.30757
20
0.40731
11
1.30685
21
0.407047
0
LINE
8
BLACK
6
CONTINUOUS
10
1.30685
20
0.407047
11
1.14685
21
0.407047
0
LINE
8
BLACK
6
CONTINUOUS
10
1.14685
20
0.407047
11
1.14647
21
0.407115
0
LINE
8
BLACK
6
CONTINUOUS
10
1.14647
20
0.407115
11
1.14634
21
0.407092
0
LINE
8
BLACK
6
CONTINUOUS
10
1.14634
20
0.407092
11
1.14622
21
0.407158
0
LINE
8
BLACK
6
CONTINUOUS
10
1.14622
20
0.407158
11
1.14584
21
0.407225
0
LINE
8
BLACK
6
CONTINUOUS
10
1.14584
20
0.407225
11
1.14525
21
0.407718
0
LINE
8
BLACK
6
CONTINUOUS
10
1.14525
20
0.407718
11
1.14459
21
0.408102
0
LINE
8
BLACK
6
CONTINUOUS
10
1.14459
20
0.408102
11
1.1445
21
0.408352
0
LINE
8
BLACK
6
CONTINUOUS
10
1.1445
20
0.408352
11
1.14429
21
0.408524
0
LINE
8
BLACK
6
CONTINUOUS
10
1.14429
20
0.408524
11
1.14416
21
0.409279
0
LINE
8
BLACK
6
CONTINUOUS
10
1.14416
20
0.409279
11
1.1439
21
0.41
0
LINE
8
BLACK
6
CONTINUOUS
10
1.1439
20
0.41
11
1.1439
21
0.47
0
LINE
8
BLACK
6
CONTINUOUS
10
1.1439
20
0.47
11
1.14397
21
0.470384
0
LINE
8
BLACK
6
CONTINUOUS
10
1.1498
20
0.467047
11
1.1498
21
0.412953
0
LINE
8
BLACK
6
CONTINUOUS
10
1.1498
20
0.412953
11
1.3039
21
0.412953
0
LINE
8
BLACK
6
CONTINUOUS
10
1.3039
20
0.412953
11
1.3039
21
0.467047
0
LINE
8
BLACK
6
CONTINUOUS
10
1.3039
20
0.467047
11
1.1498
21
0.467047
0
LINE
8
BLACK
6
CONTINUOUS
10
0.722884
20
0.512885
11
0.723013
21
0.512908
0
LINE
8
BLACK
6
CONTINUOUS
10
0.723013
20
0.512908
11
0.723126
21
0.512842
0
LINE
8
BLACK
6
CONTINUOUS
10
0.723126
20
0.512842
11
0.72351
21
0.512775
0
LINE
8
BLACK
6
CONTINUOUS
10
0.72351
20
0.512775
11
0.724098
21
0.512282
0
LINE
8
BLACK
6
CONTINUOUS
10
0.724098
20
0.512282
11
0.724762
21
0.511898
0
LINE
8
BLACK
6
CONTINUOUS
10
0.724762
20
0.511898
11
0.724853
21
0.511648
0
LINE
8
BLACK
6
CONTINUOUS
10
0.724853
20
0.511648
11
0.725057
21
0.511476
0
LINE
8
BLACK
6
CONTINUOUS
10
0.725057
20
0.511476
11
0.72519
21
0.510721
0
LINE
8
BLACK
6
CONTINUOUS
10
0.72519
20
0.510721
11
0.725453
21
0.51
0
LINE
8
BLACK
6
CONTINUOUS
10
0.725453
20
0.51
11
0.725453
21
0.457618
0
LINE
8
BLACK
6
CONTINUOUS
10
0.725453
20
0.457618
11
0.725738
21
0.457755
0
LINE
8
BLACK
6
CONTINUOUS
10
0.725738
20
0.457755
11
0.729275
21
0.457752
0
LINE
8
BLACK
6
CONTINUOUS
10
0.729275
20
0.457752
11
0.732462
21
0.456215
0
LINE
8
BLACK
6
CONTINUOUS
10
0.732462
20
0.456215
11
0.734666
21
0.453449
0
LINE
8
BLACK
6
CONTINUOUS
10
0.734666
20
0.453449
11
0.735453
21
0.45
0
LINE
8
BLACK
6
CONTINUOUS
10
0.735453
20
0.45
11
0.735453
21
0.449972
0
LINE
8
BLACK
6
CONTINUOUS
10
0.735453
20
0.449972
11
0.734654
21
0.446526
0
LINE
8
BLACK
6
CONTINUOUS
10
0.734654
20
0.446526
11
0.73244
21
0.443767
0
LINE
8
BLACK
6
CONTINUOUS
10
0.73244
20
0.443767
11
0.729248
21
0.442242
0
LINE
8
BLACK
6
CONTINUOUS
10
0.729248
20
0.442242
11
0.725711
21
0.442251
0
LINE
8
BLACK
6
CONTINUOUS
10
0.725711
20
0.442251
11
0.722528
21
0.443793
0
LINE
8
BLACK
6
CONTINUOUS
10
0.722528
20
0.443793
11
0.720328
21
0.446564
0
LINE
8
BLACK
6
CONTINUOUS
10
0.720328
20
0.446564
11
0.720219
21
0.447047
0
LINE
8
BLACK
6
CONTINUOUS
10
0.720219
20
0.447047
11
0.6825
21
0.447047
0
LINE
8
BLACK
6
CONTINUOUS
10
0.6825
20
0.447047
11
0.68149
21
0.447225
0
LINE
8
BLACK
6
CONTINUOUS
10
0.68149
20
0.447225
11
0.679943
21
0.448524
0
LINE
8
BLACK
6
CONTINUOUS
10
0.679943
20
0.448524
11
0.679592
21
0.450513
0
LINE
8
BLACK
6
CONTINUOUS
10
0.679592
20
0.450513
11
0.680602
21
0.452262
0
LINE
8
BLACK
6
CONTINUOUS
10
0.680602
20
0.452262
11
0.6825
21
0.452953
0
LINE
8
BLACK
6
CONTINUOUS
10
0.6825
20
0.452953
11
0.719547
21
0.452953
0
LINE
8
BLACK
6
CONTINUOUS
10
0.719547
20
0.452953
11
0.719547
21
0.507047
0
LINE
8
BLACK
6
CONTINUOUS
10
0.719547
20
0.507047
11
0.6825
21
0.507047
0
LINE
8
BLACK
6
CONTINUOUS
10
0.6825
20
0.507047
11
0.68149
21
0.507225
0
LINE
8
BLACK
6
CONTINUOUS
10
0.68149
20
0.507225
11
0.679943
21
0.508524
0
LINE
8
BLACK
6
CONTINUOUS
10
0.679943
20
0.508524
11
0.679592
21
0.510513
0
LINE
8
BLACK
6
CONTINUOUS
10
0.679592
20
0.510513
11
0.680602
21
0.512262
0
LINE
8
BLACK
6
CONTINUOUS
10
0.680602
20
0.512262
11
0.6825
21
0.512953
0
LINE
8
BLACK
6
CONTINUOUS
10
0.6825
20
0.512953
11
0.7225
21
0.512953
0
LINE
8
BLACK
6
CONTINUOUS
10
0.7225
20
0.512953
11
0.722884
21
0.512885
0
LINE
8
BLACK
6
CONTINUOUS
10
0.725933
20
0.451567
11
0.725453
21
0.450407
0
LINE
8
BLACK
6
CONTINUOUS
10
0.725453
20
0.450407
11
0.725453
21
0.45
0
LINE
8
BLACK
6
CONTINUOUS
10
0.725453
20
0.45
11
0.725402
21
0.449714
0
LINE
8
BLACK
6
CONTINUOUS
10
0.725402
20
0.449714
11
0.725933
21
0.448433
0
LINE
8
BLACK
6
CONTINUOUS
10
0.725933
20
0.448433
11
0.7275
21
0.447784
0
LINE
8
BLACK
6
CONTINUOUS
10
0.7275
20
0.447784
11
0.729067
21
0.448433
0
LINE
8
BLACK
6
CONTINUOUS
10
0.729067
20
0.448433
11
0.729716
21
0.45
0
LINE
8
BLACK
6
CONTINUOUS
10
0.729716
20
0.45
11
0.729067
21
0.451567
0
LINE
8
BLACK
6
CONTINUOUS
10
0.729067
20
0.451567
11
0.7275
21
0.452216
0
LINE
8
BLACK
6
CONTINUOUS
10
0.7275
20
0.452216
11
0.725933
21
0.451567
0
LINE
8
BLACK
6
CONTINUOUS
10
0.64351
20
0.512775
11
0.645057
21
0.511476
0
LINE
8
BLACK
6
CONTINUOUS
10
0.645057
20
0.511476
11
0.645408
21
0.509487
0
LINE
8
BLACK
6
CONTINUOUS
10
0.645408
20
0.509487
11
0.644398
21
0.507738
0
LINE
8
BLACK
6
CONTINUOUS
10
0.644398
20
0.507738
11
0.6425
21
0.507047
0
LINE
8
BLACK
6
CONTINUOUS
10
0.6425
20
0.507047
11
0.605453
21
0.507047
0
LINE
8
BLACK
6
CONTINUOUS
10
0.605453
20
0.507047
11
0.605453
21
0.452953
0
LINE
8
BLACK
6
CONTINUOUS
10
0.605453
20
0.452953
11
0.6425
21
0.452953
0
LINE
8
BLACK
6
CONTINUOUS
10
0.6425
20
0.452953
11
0.64351
21
0.452775
0
LINE
8
BLACK
6
CONTINUOUS
10
0.64351
20
0.452775
11
0.645057
21
0.451476
0
LINE
8
BLACK
6
CONTINUOUS
10
0.645057
20
0.451476
11
0.645408
21
0.449487
0
LINE
8
BLACK
6
CONTINUOUS
10
0.645408
20
0.449487
11
0.644398
21
0.447738
0
LINE
8
BLACK
6
CONTINUOUS
10
0.644398
20
0.447738
11
0.6425
21
0.447047
0
LINE
8
BLACK
6
CONTINUOUS
10
0.6425
20
0.447047
11
0.6025
21
0.447047
0
LINE
8
BLACK
6
CONTINUOUS
10
0.6025
20
0.447047
11
0.602116
21
0.447115
0
LINE
8
BLACK
6
CONTINUOUS
10
0.602116
20
0.447115
11
0.601987
21
0.447092
0
LINE
8
BLACK
6
CONTINUOUS
10
0.601987
20
0.447092
11
0.601874
21
0.447158
0
LINE
8
BLACK
6
CONTINUOUS
10
0.601874
20
0.447158
11
0.60149
21
0.447225
0
LINE
8
BLACK
6
CONTINUOUS
10
0.60149
20
0.447225
11
0.600902
21
0.447718
0
LINE
8
BLACK
6
CONTINUOUS
10
0.600902
20
0.447718
11
0.600238
21
0.448102
0
LINE
8
BLACK
6
CONTINUOUS
10
0.600238
20
0.448102
11
0.600147
21
0.448352
0
LINE
8
BLACK
6
CONTINUOUS
10
0.600147
20
0.448352
11
0.599943
21
0.448524
0
LINE
8
BLACK
6
CONTINUOUS
10
0.599943
20
0.448524
11
0.59981
21
0.449279
0
LINE
8
BLACK
6
CONTINUOUS
10
0.59981
20
0.449279
11
0.599547
21
0.45
0
LINE
8
BLACK
6
CONTINUOUS
10
0.599547
20
0.45
11
0.599547
21
0.51
0
LINE
8
BLACK
6
CONTINUOUS
10
0.599547
20
0.51
11
0.599615
21
0.510384
0
LINE
8
BLACK
6
CONTINUOUS
10
0.599615
20
0.510384
11
0.599592
21
0.510513
0
LINE
8
BLACK
6
CONTINUOUS
10
0.599592
20
0.510513
11
0.599658
21
0.510626
0
LINE
8
BLACK
6
CONTINUOUS
10
0.599658
20
0.510626
11
0.599725
21
0.51101
0
LINE
8
BLACK
6
CONTINUOUS
10
0.599725
20
0.51101
11
0.600218
21
0.511598
0
LINE
8
BLACK
6
CONTINUOUS
10
0.600218
20
0.511598
11
0.600602
21
0.512262
0
LINE
8
BLACK
6
CONTINUOUS
10
0.600602
20
0.512262
11
0.600852
21
0.512353
0
LINE
8
BLACK
6
CONTINUOUS
10
0.600852
20
0.512353
11
0.601024
21
0.512557
0
LINE
8
BLACK
6
CONTINUOUS
10
0.601024
20
0.512557
11
0.601779
21
0.51269
0
LINE
8
BLACK
6
CONTINUOUS
10
0.601779
20
0.51269
11
0.6025
21
0.512953
0
LINE
8
BLACK
6
CONTINUOUS
10
0.6025
20
0.512953
11
0.6425
21
0.512953
0
LINE
8
BLACK
6
CONTINUOUS
10
0.6425
20
0.512953
11
0.64351
21
0.512775
0
LINE
8
BLACK
6
CONTINUOUS
10
0.877884
20
0.512885
11
0.878013
21
0.512908
0
LINE
8
BLACK
6
CONTINUOUS
10
0.878013
20
0.512908
11
0.878126
21
0.512842
0
LINE
8
BLACK
6
CONTINUOUS
10
0.878126
20
0.512842
11
0.87851
21
0.512775
0
LINE
8
BLACK
6
CONTINUOUS
10
0.87851
20
0.512775
11
0.879098
21
0.512282
0
LINE
8
BLACK
6
CONTINUOUS
10
0.879098
20
0.512282
11
0.879762
21
0.511898
0
LINE
8
BLACK
6
CONTINUOUS
10
0.879762
20
0.511898
11
0.879853
21
0.511648
0
LINE
8
BLACK
6
CONTINUOUS
10
0.879853
20
0.511648
11
0.880057
21
0.511476
0
LINE
8
BLACK
6
CONTINUOUS
10
0.880057
20
0.511476
11
0.88019
21
0.510721
0
LINE
8
BLACK
6
CONTINUOUS
10
0.88019
20
0.510721
11
0.880453
21
0.51
0
LINE
8
BLACK
6
CONTINUOUS
10
0.880453
20
0.51
11
0.880453
21
0.45
0
LINE
8
BLACK
6
CONTINUOUS
10
0.880453
20
0.45
11
0.880385
21
0.449616
0
LINE
8
BLACK
6
CONTINUOUS
10
0.880385
20
0.449616
11
0.880408
21
0.449487
0
LINE
8
BLACK
6
CONTINUOUS
10
0.880408
20
0.449487
11
0.880342
21
0.449374
0
LINE
8
BLACK
6
CONTINUOUS
10
0.880342
20
0.449374
11
0.880275
21
0.44899
0
LINE
8
BLACK
6
CONTINUOUS
10
0.880275
20
0.44899
11
0.879782
21
0.448402
0
LINE
8
BLACK
6
CONTINUOUS
10
0.879782
20
0.448402
11
0.879398
21
0.447738
0
LINE
8
BLACK
6
CONTINUOUS
10
0.879398
20
0.447738
11
0.879148
21
0.447647
0
LINE
8
BLACK
6
CONTINUOUS
10
0.879148
20
0.447647
11
0.878976
21
0.447443
0
LINE
8
BLACK
6
CONTINUOUS
10
0.878976
20
0.447443
11
0.878221
21
0.44731
0
LINE
8
BLACK
6
CONTINUOUS
10
0.878221
20
0.44731
11
0.8775
21
0.447047
0
LINE
8
BLACK
6
CONTINUOUS
10
0.8775
20
0.447047
11
0.8375
21
0.447047
0
LINE
8
BLACK
6
CONTINUOUS
10
0.8375
20
0.447047
11
0.83649
21
0.447225
0
LINE
8
BLACK
6
CONTINUOUS
10
0.83649
20
0.447225
11
0.834943
21
0.448524
0
LINE
8
BLACK
6
CONTINUOUS
10
0.834943
20
0.448524
11
0.834592
21
0.450513
0
LINE
8
BLACK
6
CONTINUOUS
10
0.834592
20
0.450513
11
0.835602
21
0.452262
0
LINE
8
BLACK
6
CONTINUOUS
10
0.835602
20
0.452262
11
0.8375
21
0.452953
0
LINE
8
BLACK
6
CONTINUOUS
10
0.8375
20
0.452953
11
0.874547
21
0.452953
0
LINE
8
BLACK
6
CONTINUOUS
10
0.874547
20
0.452953
11
0.874547
21
0.507047
0
LINE
8
BLACK
6
CONTINUOUS
10
0.874547
20
0.507047
11
0.8375
21
0.507047
0
LINE
8
BLACK
6
CONTINUOUS
10
0.8375
20
0.507047
11
0.83649
21
0.507225
0
LINE
8
BLACK
6
CONTINUOUS
10
0.83649
20
0.507225
11
0.834943
21
0.508524
0
LINE
8
BLACK
6
CONTINUOUS
10
0.834943
20
0.508524
11
0.834592
21
0.510513
0
LINE
8
BLACK
6
CONTINUOUS
10
0.834592
20
0.510513
11
0.835602
21
0.512262
0
LINE
8
BLACK
6
CONTINUOUS
10
0.835602
20
0.512262
11
0.8375
21
0.512953
0
LINE
8
BLACK
6
CONTINUOUS
10
0.8375
20
0.512953
11
0.8775
21
0.512953
0
LINE
8
BLACK
6
CONTINUOUS
10
0.8775
20
0.512953
11
0.877884
21
0.512885
0
LINE
8
BLACK
6
CONTINUOUS
10
1.15982
20
0.536086
11
1.16137
21
0.534788
0
LINE
8
BLACK
6
CONTINUOUS
10
1.16137
20
0.534788
11
1.16172
21
0.532798
0
LINE
8
BLACK
6
CONTINUOUS
10
1.16172
20
0.532798
11
1.16071
21
0.531049
0
LINE
8
BLACK
6
CONTINUOUS
10
1.16071
20
0.531049
11
1.15881
21
0.530358
0
LINE
8
BLACK
6
CONTINUOUS
10
1.15881
20
0.530358
11
1.14316
21
0.530358
0
LINE
8
BLACK
6
CONTINUOUS
10
1.14316
20
0.530358
11
1.14081
21
0.528006
0
LINE
8
BLACK
6
CONTINUOUS
10
1.14081
20
0.528006
11
1.16058
21
0.513176
0
LINE
8
BLACK
6
CONTINUOUS
10
1.16058
20
0.513176
11
1.16128
21
0.512428
0
LINE
8
BLACK
6
CONTINUOUS
10
1.16128
20
0.512428
11
1.16174
21
0.510461
0
LINE
8
BLACK
6
CONTINUOUS
10
1.16174
20
0.510461
11
1.16083
21
0.508659
0
LINE
8
BLACK
6
CONTINUOUS
10
1.16083
20
0.508659
11
1.15897
21
0.507866
0
LINE
8
BLACK
6
CONTINUOUS
10
1.15897
20
0.507866
11
1.15704
21
0.508452
0
LINE
8
BLACK
6
CONTINUOUS
10
1.15704
20
0.508452
11
1.13659
21
0.523788
0
LINE
8
BLACK
6
CONTINUOUS
10
1.13659
20
0.523788
11
1.12153
21
0.508726
0
LINE
8
BLACK
6
CONTINUOUS
10
1.12153
20
0.508726
11
1.12069
21
0.508138
0
LINE
8
BLACK
6
CONTINUOUS
10
1.12069
20
0.508138
11
1.11868
21
0.507962
0
LINE
8
BLACK
6
CONTINUOUS
10
1.11868
20
0.507962
11
1.11702
21
0.50912
0
LINE
8
BLACK
6
CONTINUOUS
10
1.11702
20
0.50912
11
1.1165
21
0.511071
0
LINE
8
BLACK
6
CONTINUOUS
10
1.1165
20
0.511071
11
1.11735
21
0.512902
0
LINE
8
BLACK
6
CONTINUOUS
10
1.11735
20
0.512902
11
1.13481
21
0.530358
0
LINE
8
BLACK
6
CONTINUOUS
10
1.13481
20
0.530358
11
1.11944
21
0.530358
0
LINE
8
BLACK
6
CONTINUOUS
10
1.11944
20
0.530358
11
1.11843
21
0.530536
0
LINE
8
BLACK
6
CONTINUOUS
10
1.11843
20
0.530536
11
1.11688
21
0.531835
0
LINE
8
BLACK
6
CONTINUOUS
10
1.11688
20
0.531835
11
1.11653
21
0.533824
0
LINE
8
BLACK
6
CONTINUOUS
10
1.11653
20
0.533824
11
1.11754
21
0.535573
0
LINE
8
BLACK
6
CONTINUOUS
10
1.11754
20
0.535573
11
1.11944
21
0.536264
0
LINE
8
BLACK
6
CONTINUOUS
10
1.11944
20
0.536264
11
1.15881
21
0.536264
0
LINE
8
BLACK
6
CONTINUOUS
10
1.15881
20
0.536264
11
1.15982
21
0.536086
0
LINE
8
BLACK
6
CONTINUOUS
10
0.717884
20
0.612885
11
0.718013
21
0.612908
0
LINE
8
BLACK
6
CONTINUOUS
10
0.718013
20
0.612908
11
0.718126
21
0.612842
0
LINE
8
BLACK
6
CONTINUOUS
10
0.718126
20
0.612842
11
0.71851
21
0.612775
0
LINE
8
BLACK
6
CONTINUOUS
10
0.71851
20
0.612775
11
0.719098
21
0.612282
0
LINE
8
BLACK
6
CONTINUOUS
10
0.719098
20
0.612282
11
0.719762
21
0.611898
0
LINE
8
BLACK
6
CONTINUOUS
10
0.719762
20
0.611898
11
0.719853
21
0.611648
0
LINE
8
BLACK
6
CONTINUOUS
10
0.719853
20
0.611648
11
0.720057
21
0.611476
0
LINE
8
BLACK
6
CONTINUOUS
10
0.720057
20
0.611476
11
0.72019
21
0.610721
0
LINE
8
BLACK
6
CONTINUOUS
10
0.72019
20
0.610721
11
0.720453
21
0.61
0
LINE
8
BLACK
6
CONTINUOUS
10
0.720453
20
0.61
11
0.720453
21
0.557618
0
LINE
8
BLACK
6
CONTINUOUS
10
0.720453
20
0.557618
11
0.720738
21
0.557755
0
LINE
8
BLACK
6
CONTINUOUS
10
0.720738
20
0.557755
11
0.724275
21
0.557752
0
LINE
8
BLACK
6
CONTINUOUS
10
0.724275
20
0.557752
11
0.727462
21
0.556215
0
LINE
8
BLACK
6
CONTINUOUS
10
0.727462
20
0.556215
11
0.729666
21
0.553449
0
LINE
8
BLACK
6
CONTINUOUS
10
0.729666
20
0.553449
11
0.730453
21
0.55
0
LINE
8
BLACK
6
CONTINUOUS
10
0.730453
20
0.55
11
0.730453
21
0.549972
0
LINE
8
BLACK
6
CONTINUOUS
10
0.730453
20
0.549972
11
0.729654
21
0.546526
0
LINE
8
BLACK
6
CONTINUOUS
10
0.729654
20
0.546526
11
0.72744
21
0.543767
0
LINE
8
BLACK
6
CONTINUOUS
10
0.72744
20
0.543767
11
0.724248
21
0.542242
0
LINE
8
BLACK
6
CONTINUOUS
10
0.724248
20
0.542242
11
0.720711
21
0.542251
0
LINE
8
BLACK
6
CONTINUOUS
10
0.720711
20
0.542251
11
0.717528
21
0.543793
0
LINE
8
BLACK
6
CONTINUOUS
10
0.717528
20
0.543793
11
0.715328
21
0.546564
0
LINE
8
BLACK
6
CONTINUOUS
10
0.715328
20
0.546564
11
0.715219
21
0.547047
0
LINE
8
BLACK
6
CONTINUOUS
10
0.715219
20
0.547047
11
0.6775
21
0.547047
0
LINE
8
BLACK
6
CONTINUOUS
10
0.6775
20
0.547047
11
0.67649
21
0.547225
0
LINE
8
BLACK
6
CONTINUOUS
10
0.67649
20
0.547225
11
0.674943
21
0.548524
0
LINE
8
BLACK
6
CONTINUOUS
10
0.674943
20
0.548524
11
0.674592
21
0.550513
0
LINE
8
BLACK
6
CONTINUOUS
10
0.674592
20
0.550513
11
0.675602
21
0.552262
0
LINE
8
BLACK
6
CONTINUOUS
10
0.675602
20
0.552262
11
0.6775
21
0.552953
0
LINE
8
BLACK
6
CONTINUOUS
10
0.6775
20
0.552953
11
0.714547
21
0.552953
0
LINE
8
BLACK
6
CONTINUOUS
10
0.714547
20
0.552953
11
0.714547
21
0.607047
0
LINE
8
BLACK
6
CONTINUOUS
10
0.714547
20
0.607047
11
0.6775
21
0.607047
0
LINE
8
BLACK
6
CONTINUOUS
10
0.6775
20
0.607047
11
0.67649
21
0.607225
0
LINE
8
BLACK
6
CONTINUOUS
10
0.67649
20
0.607225
11
0.674943
21
0.608524
0
LINE
8
BLACK
6
CONTINUOUS
10
0.674943
20
0.608524
11
0.674592
21
0.610513
0
LINE
8
BLACK
6
CONTINUOUS
10
0.674592
20
0.610513
11
0.675602
21
0.612262
0
LINE
8
BLACK
6
CONTINUOUS
10
0.675602
20
0.612262
11
0.6775
21
0.612953
0
LINE
8
BLACK
6
CONTINUOUS
10
0.6775
20
0.612953
11
0.7175
21
0.612953
0
LINE
8
BLACK
6
CONTINUOUS
10
0.7175
20
0.612953
11
0.717884
21
0.612885
0
LINE
8
BLACK
6
CONTINUOUS
10
0.720933
20
0.551567
11
0.720453
21
0.550407
0
LINE
8
BLACK
6
CONTINUOUS
10
0.720453
20
0.550407
11
0.720453
21
0.55
0
LINE
8
BLACK
6
CONTINUOUS
10
0.720453
20
0.55
11
0.720402
21
0.549714
0
LINE
8
BLACK
6
CONTINUOUS
10
0.720402
20
0.549714
11
0.720933
21
0.548433
0
LINE
8
BLACK
6
CONTINUOUS
10
0.720933
20
0.548433
11
0.7225
21
0.547784
0
LINE
8
BLACK
6
CONTINUOUS
10
0.7225
20
0.547784
11
0.724067
21
0.548433
0
LINE
8
BLACK
6
CONTINUOUS
10
0.724067
20
0.548433
11
0.724716
21
0.55
0
LINE
8
BLACK
6
CONTINUOUS
10
0.724716
20
0.55
11
0.724067
21
0.551567
0
LINE
8
BLACK
6
CONTINUOUS
10
0.724067
20
0.551567
11
0.7225
21
0.552216
0
LINE
8
BLACK
6
CONTINUOUS
10
0.7225
20
0.552216
11
0.720933
21
0.551567
0
LINE
8
BLACK
6
CONTINUOUS
10
1.03145
20
0.573935
11
1.03256
21
0.57225
0
LINE
8
BLACK
6
CONTINUOUS
10
1.03256
20
0.57225
11
1.03233
21
0.570243
0
LINE
8
BLACK
6
CONTINUOUS
10
1.03233
20
0.570243
11
1.03046
21
0.566494
0
LINE
8
BLACK
6
CONTINUOUS
10
1.03046
20
0.566494
11
1.02993
21
0.565784
0
LINE
8
BLACK
6
CONTINUOUS
10
1.02993
20
0.565784
11
1.0299
21
0.565726
0
LINE
8
BLACK
6
CONTINUOUS
10
1.0299
20
0.565726
11
1.02744
21
0.563268
0
LINE
8
BLACK
6
CONTINUOUS
10
1.02744
20
0.563268
11
1.05486
21
0.563268
0
LINE
8
BLACK
6
CONTINUOUS
10
1.05486
20
0.563268
11
1.05486
21
0.571564
0
LINE
8
BLACK
6
CONTINUOUS
10
1.05486
20
0.571564
11
1.05504
21
0.572573
0
LINE
8
BLACK
6
CONTINUOUS
10
1.05504
20
0.572573
11
1.05633
21
0.574121
0
LINE
8
BLACK
6
CONTINUOUS
10
1.05633
20
0.574121
11
1.05832
21
0.574471
0
LINE
8
BLACK
6
CONTINUOUS
10
1.05832
20
0.574471
11
1.06007
21
0.573462
0
LINE
8
BLACK
6
CONTINUOUS
10
1.06007
20
0.573462
11
1.06076
21
0.571564
0
LINE
8
BLACK
6
CONTINUOUS
10
1.06076
20
0.571564
11
1.06076
21
0.549066
0
LINE
8
BLACK
6
CONTINUOUS
10
1.06076
20
0.549066
11
1.06058
21
0.548056
0
LINE
8
BLACK
6
CONTINUOUS
10
1.06058
20
0.548056
11
1.05929
21
0.546509
0
LINE
8
BLACK
6
CONTINUOUS
10
1.05929
20
0.546509
11
1.0573
21
0.546158
0
LINE
8
BLACK
6
CONTINUOUS
10
1.0573
20
0.546158
11
1.05555
21
0.547168
0
LINE
8
BLACK
6
CONTINUOUS
10
1.05555
20
0.547168
11
1.05486
21
0.549066
0
LINE
8
BLACK
6
CONTINUOUS
10
1.05486
20
0.549066
11
1.05486
21
0.557362
0
LINE
8
BLACK
6
CONTINUOUS
10
1.05486
20
0.557362
11
1.01844
21
0.557362
0
LINE
8
BLACK
6
CONTINUOUS
10
1.01844
20
0.557362
11
1.01743
21
0.55754
0
LINE
8
BLACK
6
CONTINUOUS
10
1.01743
20
0.55754
11
1.0173
21
0.557649
0
LINE
8
BLACK
6
CONTINUOUS
10
1.0173
20
0.557649
11
1.01713
21
0.557668
0
LINE
8
BLACK
6
CONTINUOUS
10
1.01713
20
0.557668
11
1.01654
21
0.558288
0
LINE
8
BLACK
6
CONTINUOUS
10
1.01654
20
0.558288
11
1.01588
21
0.558839
0
LINE
8
BLACK
6
CONTINUOUS
10
1.01588
20
0.558839
11
1.01585
21
0.559006
0
LINE
8
BLACK
6
CONTINUOUS
10
1.01585
20
0.559006
11
1.01574
21
0.559129
0
LINE
8
BLACK
6
CONTINUOUS
10
1.01574
20
0.559129
11
1.01568
21
0.559984
0
LINE
8
BLACK
6
CONTINUOUS
10
1.01568
20
0.559984
11
1.01553
21
0.560828
0
LINE
8
BLACK
6
CONTINUOUS
10
1.01553
20
0.560828
11
1.01562
21
0.560975
0
LINE
8
BLACK
6
CONTINUOUS
10
1.01562
20
0.560975
11
1.01561
21
0.561144
0
LINE
8
BLACK
6
CONTINUOUS
10
1.01561
20
0.561144
11
1.01611
21
0.561835
0
LINE
8
BLACK
6
CONTINUOUS
10
1.01611
20
0.561835
11
1.01654
21
0.562577
0
LINE
8
BLACK
6
CONTINUOUS
10
1.01654
20
0.562577
11
1.0167
21
0.562635
0
LINE
8
BLACK
6
CONTINUOUS
10
1.0167
20
0.562635
11
1.0168
21
0.562772
0
LINE
8
BLACK
6
CONTINUOUS
10
1.0168
20
0.562772
11
1.02218
21
0.566359
0
LINE
8
BLACK
6
CONTINUOUS
10
1.02218
20
0.566359
11
1.02539
21
0.569563
0
LINE
8
BLACK
6
CONTINUOUS
10
1.02539
20
0.569563
11
1.02705
21
0.572884
0
LINE
8
BLACK
6
CONTINUOUS
10
1.02705
20
0.572884
11
1.02766
21
0.573708
0
LINE
8
BLACK
6
CONTINUOUS
10
1.02766
20
0.573708
11
1.02951
21
0.574511
0
LINE
8
BLACK
6
CONTINUOUS
10
1.02951
20
0.574511
11
1.03145
21
0.573935
0
LINE
8
BLACK
6
CONTINUOUS
10
0.63851
20
0.612775
11
0.640057
21
0.611476
0
LINE
8
BLACK
6
CONTINUOUS
10
0.640057
20
0.611476
11
0.640408
21
0.609487
0
LINE
8
BLACK
6
CONTINUOUS
10
0.640408
20
0.609487
11
0.639398
21
0.607738
0
LINE
8
BLACK
6
CONTINUOUS
10
0.639398
20
0.607738
11
0.6375
21
0.607047
0
LINE
8
BLACK
6
CONTINUOUS
10
0.6375
20
0.607047
11
0.600453
21
0.607047
0
LINE
8
BLACK
6
CONTINUOUS
10
0.600453
20
0.607047
11
0.600453
21
0.552953
0
LINE
8
BLACK
6
CONTINUOUS
10
0.600453
20
0.552953
11
0.6375
21
0.552953
0
LINE
8
BLACK
6
CONTINUOUS
10
0.6375
20
0.552953
11
0.63851
21
0.552775
0
LINE
8
BLACK
6
CONTINUOUS
10
0.63851
20
0.552775
11
0.640057
21
0.551476
0
LINE
8
BLACK
6
CONTINUOUS
10
0.640057
20
0.551476
11
0.640408
21
0.549487
0
LINE
8
BLACK
6
CONTINUOUS
10
0.640408
20
0.549487
11
0.639398
21
0.547738
0
LINE
8
BLACK
6
CONTINUOUS
10
0.639398
20
0.547738
11
0.6375
21
0.547047
0
LINE
8
BLACK
6
CONTINUOUS
10
0.6375
20
0.547047
11
0.5975
21
0.547047
0
LINE
8
BLACK
6
CONTINUOUS
10
0.5975
20
0.547047
11
0.597116
21
0.547115
0
LINE
8
BLACK
6
CONTINUOUS
10
0.597116
20
0.547115
11
0.596987
21
0.547092
0
LINE
8
BLACK
6
CONTINUOUS
10
0.596987
20
0.547092
11
0.596874
21
0.547158
0
LINE
8
BLACK
6
CONTINUOUS
10
0.596874
20
0.547158
11
0.59649
21
0.547225
0
LINE
8
BLACK
6
CONTINUOUS
10
0.59649
20
0.547225
11
0.595902
21
0.547718
0
LINE
8
BLACK
6
CONTINUOUS
10
0.595902
20
0.547718
11
0.595238
21
0.548102
0
LINE
8
BLACK
6
CONTINUOUS
10
0.595238
20
0.548102
11
0.595147
21
0.548352
0
LINE
8
BLACK
6
CONTINUOUS
10
0.595147
20
0.548352
11
0.594943
21
0.548524
0
LINE
8
BLACK
6
CONTINUOUS
10
0.594943
20
0.548524
11
0.59481
21
0.549279
0
LINE
8
BLACK
6
CONTINUOUS
10
0.59481
20
0.549279
11
0.594547
21
0.55
0
LINE
8
BLACK
6
CONTINUOUS
10
0.594547
20
0.55
11
0.594547
21
0.61
0
LINE
8
BLACK
6
CONTINUOUS
10
0.594547
20
0.61
11
0.594615
21
0.610384
0
LINE
8
BLACK
6
CONTINUOUS
10
0.594615
20
0.610384
11
0.594592
21
0.610513
0
LINE
8
BLACK
6
CONTINUOUS
10
0.594592
20
0.610513
11
0.594658
21
0.610626
0
LINE
8
BLACK
6
CONTINUOUS
10
0.594658
20
0.610626
11
0.594725
21
0.61101
0
LINE
8
BLACK
6
CONTINUOUS
10
0.594725
20
0.61101
11
0.595218
21
0.611598
0
LINE
8
BLACK
6
CONTINUOUS
10
0.595218
20
0.611598
11
0.595602
21
0.612262
0
LINE
8
BLACK
6
CONTINUOUS
10
0.595602
20
0.612262
11
0.595852
21
0.612353
0
LINE
8
BLACK
6
CONTINUOUS
10
0.595852
20
0.612353
11
0.596024
21
0.612557
0
LINE
8
BLACK
6
CONTINUOUS
10
0.596024
20
0.612557
11
0.596779
21
0.61269
0
LINE
8
BLACK
6
CONTINUOUS
10
0.596779
20
0.61269
11
0.5975
21
0.612953
0
LINE
8
BLACK
6
CONTINUOUS
10
0.5975
20
0.612953
11
0.6375
21
0.612953
0
LINE
8
BLACK
6
CONTINUOUS
10
0.6375
20
0.612953
11
0.63851
21
0.612775
0
LINE
8
BLACK
6
CONTINUOUS
10
1.6375
20
0.616946
11
1.63819
21
0.615276
0
LINE
8
BLACK
6
CONTINUOUS
10
1.63819
20
0.615276
11
1.63819
21
0.552283
0
LINE
8
BLACK
6
CONTINUOUS
10
1.63819
20
0.552283
11
1.6375
21
0.550613
0
LINE
8
BLACK
6
CONTINUOUS
10
1.6375
20
0.550613
11
1.63583
21
0.549921
0
LINE
8
BLACK
6
CONTINUOUS
10
1.63583
20
0.549921
11
1.63416
21
0.550613
0
LINE
8
BLACK
6
CONTINUOUS
10
1.63416
20
0.550613
11
1.63346
21
0.552283
0
LINE
8
BLACK
6
CONTINUOUS
10
1.63346
20
0.552283
11
1.63346
21
0.615276
0
LINE
8
BLACK
6
CONTINUOUS
10
1.63346
20
0.615276
11
1.63416
21
0.616946
0
LINE
8
BLACK
6
CONTINUOUS
10
1.63416
20
0.616946
11
1.63583
21
0.617638
0
LINE
8
BLACK
6
CONTINUOUS
10
1.63583
20
0.617638
11
1.6375
21
0.616946
0
LINE
8
BLACK
6
CONTINUOUS
10
0.365844
20
0.616946
11
0.366535
21
0.615276
0
LINE
8
BLACK
6
CONTINUOUS
10
0.366535
20
0.615276
11
0.366535
21
0.552283
0
LINE
8
BLACK
6
CONTINUOUS
10
0.366535
20
0.552283
11
0.365844
21
0.550613
0
LINE
8
BLACK
6
CONTINUOUS
10
0.365844
20
0.550613
11
0.364173
21
0.549921
0
LINE
8
BLACK
6
CONTINUOUS
10
0.364173
20
0.549921
11
0.362503
21
0.550613
0
LINE
8
BLACK
6
CONTINUOUS
10
0.362503
20
0.550613
11
0.361811
21
0.552283
0
LINE
8
BLACK
6
CONTINUOUS
10
0.361811
20
0.552283
11
0.361811
21
0.615276
0
LINE
8
BLACK
6
CONTINUOUS
10
0.361811
20
0.615276
11
0.362503
21
0.616946
0
LINE
8
BLACK
6
CONTINUOUS
10
0.362503
20
0.616946
11
0.364173
21
0.617638
0
LINE
8
BLACK
6
CONTINUOUS
10
0.364173
20
0.617638
11
0.365844
21
0.616946
0
LINE
8
BLACK
6
CONTINUOUS
10
1.27788
20
0.632885
11
1.27801
21
0.632908
0
LINE
8
BLACK
6
CONTINUOUS
10
1.27801
20
0.632908
11
1.27813
21
0.632842
0
LINE
8
BLACK
6
CONTINUOUS
10
1.27813
20
0.632842
11
1.27851
21
0.632775
0
LINE
8
BLACK
6
CONTINUOUS
10
1.27851
20
0.632775
11
1.2791
21
0.632282
0
LINE
8
BLACK
6
CONTINUOUS
10
1.2791
20
0.632282
11
1.27976
21
0.631898
0
LINE
8
BLACK
6
CONTINUOUS
10
1.27976
20
0.631898
11
1.27985
21
0.631648
0
LINE
8
BLACK
6
CONTINUOUS
10
1.27985
20
0.631648
11
1.28006
21
0.631476
0
LINE
8
BLACK
6
CONTINUOUS
10
1.28006
20
0.631476
11
1.28019
21
0.630721
0
LINE
8
BLACK
6
CONTINUOUS
10
1.28019
20
0.630721
11
1.28045
21
0.63
0
LINE
8
BLACK
6
CONTINUOUS
10
1.28045
20
0.63
11
1.28045
21
0.57
0
LINE
8
BLACK
6
CONTINUOUS
10
1.28045
20
0.57
11
1.28039
21
0.569616
0
LINE
8
BLACK
6
CONTINUOUS
10
1.28039
20
0.569616
11
1.28041
21
0.569487
0
LINE
8
BLACK
6
CONTINUOUS
10
1.28041
20
0.569487
11
1.28034
21
0.569374
0
LINE
8
BLACK
6
CONTINUOUS
10
1.28034
20
0.569374
11
1.28027
21
0.56899
0
LINE
8
BLACK
6
CONTINUOUS
10
1.28027
20
0.56899
11
1.27978
21
0.568402
0
LINE
8
BLACK
6
CONTINUOUS
10
1.27978
20
0.568402
11
1.2794
21
0.567738
0
LINE
8
BLACK
6
CONTINUOUS
10
1.2794
20
0.567738
11
1.27915
21
0.567647
0
LINE
8
BLACK
6
CONTINUOUS
10
1.27915
20
0.567647
11
1.27898
21
0.567443
0
LINE
8
BLACK
6
CONTINUOUS
10
1.27898
20
0.567443
11
1.27822
21
0.56731
0
LINE
8
BLACK
6
CONTINUOUS
10
1.27822
20
0.56731
11
1.2775
21
0.567047
0
LINE
8
BLACK
6
CONTINUOUS
10
1.2775
20
0.567047
11
1.2375
21
0.567047
0
LINE
8
BLACK
6
CONTINUOUS
10
1.2375
20
0.567047
11
1.23649
21
0.567225
0
LINE
8
BLACK
6
CONTINUOUS
10
1.23649
20
0.567225
11
1.23494
21
0.568524
0
LINE
8
BLACK
6
CONTINUOUS
10
1.23494
20
0.568524
11
1.23459
21
0.570513
0
LINE
8
BLACK
6
CONTINUOUS
10
1.23459
20
0.570513
11
1.2356
21
0.572262
0
LINE
8
BLACK
6
CONTINUOUS
10
1.2356
20
0.572262
11
1.2375
21
0.572953
0
LINE
8
BLACK
6
CONTINUOUS
10
1.2375
20
0.572953
11
1.27455
21
0.572953
0
LINE
8
BLACK
6
CONTINUOUS
10
1.27455
20
0.572953
11
1.27455
21
0.627047
0
LINE
8
BLACK
6
CONTINUOUS
10
1.27455
20
0.627047
11
1.2375
21
0.627047
0
LINE
8
BLACK
6
CONTINUOUS
10
1.2375
20
0.627047
11
1.23649
21
0.627225
0
LINE
8
BLACK
6
CONTINUOUS
10
1.23649
20
0.627225
11
1.23494
21
0.628524
0
LINE
8
BLACK
6
CONTINUOUS
10
1.23494
20
0.628524
11
1.23459
21
0.630513
0
LINE
8
BLACK
6
CONTINUOUS
10
1.23459
20
0.630513
11
1.2356
21
0.632262
0
LINE
8
BLACK
6
CONTINUOUS
10
1.2356
20
0.632262
11
1.2375
21
0.632953
0
LINE
8
BLACK
6
CONTINUOUS
10
1.2375
20
0.632953
11
1.2775
21
0.632953
0
LINE
8
BLACK
6
CONTINUOUS
10
1.2775
20
0.632953
11
1.27788
21
0.632885
0
LINE
8
BLACK
6
CONTINUOUS
10
1.05819
20
0.611944
11
1.05832
21
0.611967
0
LINE
8
BLACK
6
CONTINUOUS
10
1.05832
20
0.611967
11
1.05844
21
0.611901
0
LINE
8
BLACK
6
CONTINUOUS
10
1.05844
20
0.611901
11
1.05882
21
0.611834
0
LINE
8
BLACK
6
CONTINUOUS
10
1.05882
20
0.611834
11
1.05941
21
0.61134
0
LINE
8
BLACK
6
CONTINUOUS
10
1.05941
20
0.61134
11
1.06007
21
0.610957
0
LINE
8
BLACK
6
CONTINUOUS
10
1.06007
20
0.610957
11
1.06016
21
0.610706
0
LINE
8
BLACK
6
CONTINUOUS
10
1.06016
20
0.610706
11
1.06037
21
0.610535
0
LINE
8
BLACK
6
CONTINUOUS
10
1.06037
20
0.610535
11
1.0605
21
0.60978
0
LINE
8
BLACK
6
CONTINUOUS
10
1.0605
20
0.60978
11
1.06076
21
0.609059
0
LINE
8
BLACK
6
CONTINUOUS
10
1.06076
20
0.609059
11
1.06076
21
0.599685
0
LINE
8
BLACK
6
CONTINUOUS
10
1.06076
20
0.599685
11
1.06061
21
0.598816
0
LINE
8
BLACK
6
CONTINUOUS
10
1.06061
20
0.598816
11
1.06061
21
0.598751
0
LINE
8
BLACK
6
CONTINUOUS
10
1.06061
20
0.598751
11
1.05874
21
0.593127
0
LINE
8
BLACK
6
CONTINUOUS
10
1.05874
20
0.593127
11
1.05825
21
0.592225
0
LINE
8
BLACK
6
CONTINUOUS
10
1.05825
20
0.592225
11
1.0581
21
0.592133
0
LINE
8
BLACK
6
CONTINUOUS
10
1.0581
20
0.592133
11
1.05802
21
0.591973
0
LINE
8
BLACK
6
CONTINUOUS
10
1.05802
20
0.591973
11
1.05427
21
0.588223
0
LINE
8
BLACK
6
CONTINUOUS
10
1.05427
20
0.588223
11
1.05355
21
0.587717
0
LINE
8
BLACK
6
CONTINUOUS
10
1.05355
20
0.587717
11
1.05351
21
0.58767
0
LINE
8
BLACK
6
CONTINUOUS
10
1.05351
20
0.58767
11
1.04976
21
0.585795
0
LINE
8
BLACK
6
CONTINUOUS
10
1.04976
20
0.585795
11
1.04927
21
0.58565
0
LINE
8
BLACK
6
CONTINUOUS
10
1.04927
20
0.58565
11
1.04915
21
0.585572
0
LINE
8
BLACK
6
CONTINUOUS
10
1.04915
20
0.585572
11
1.04165
21
0.583697
0
LINE
8
BLACK
6
CONTINUOUS
10
1.04165
20
0.583697
11
1.04107
21
0.583656
0
LINE
8
BLACK
6
CONTINUOUS
10
1.04107
20
0.583656
11
1.04094
21
0.583609
0
LINE
8
BLACK
6
CONTINUOUS
10
1.04094
20
0.583609
11
1.03531
21
0.583609
0
LINE
8
BLACK
6
CONTINUOUS
10
1.03531
20
0.583609
11
1.03473
21
0.583711
0
LINE
8
BLACK
6
CONTINUOUS
10
1.03473
20
0.583711
11
1.0346
21
0.583697
0
LINE
8
BLACK
6
CONTINUOUS
10
1.0346
20
0.583697
11
1.0271
21
0.585572
0
LINE
8
BLACK
6
CONTINUOUS
10
1.0271
20
0.585572
11
1.02663
21
0.585779
0
LINE
8
BLACK
6
CONTINUOUS
10
1.02663
20
0.585779
11
1.02649
21
0.585795
0
LINE
8
BLACK
6
CONTINUOUS
10
1.02649
20
0.585795
11
1.02274
21
0.58767
0
LINE
8
BLACK
6
CONTINUOUS
10
1.02274
20
0.58767
11
1.02203
21
0.588196
0
LINE
8
BLACK
6
CONTINUOUS
10
1.02203
20
0.588196
11
1.02198
21
0.588223
0
LINE
8
BLACK
6
CONTINUOUS
10
1.02198
20
0.588223
11
1.01823
21
0.591973
0
LINE
8
BLACK
6
CONTINUOUS
10
1.01823
20
0.591973
11
1.01764
21
0.592813
0
LINE
8
BLACK
6
CONTINUOUS
10
1.01764
20
0.592813
11
1.01762
21
0.592989
0
LINE
8
BLACK
6
CONTINUOUS
10
1.01762
20
0.592989
11
1.01751
21
0.593127
0
LINE
8
BLACK
6
CONTINUOUS
10
1.01751
20
0.593127
11
1.01564
21
0.598751
0
LINE
8
BLACK
6
CONTINUOUS
10
1.01564
20
0.598751
11
1.01551
21
0.599624
0
LINE
8
BLACK
6
CONTINUOUS
10
1.01551
20
0.599624
11
1.01549
21
0.599685
0
LINE
8
BLACK
6
CONTINUOUS
10
1.01549
20
0.599685
11
1.01549
21
0.609059
0
LINE
8
BLACK
6
CONTINUOUS
10
1.01549
20
0.609059
11
1.01556
21
0.609442
0
LINE
8
BLACK
6
CONTINUOUS
10
1.01556
20
0.609442
11
1.01553
21
0.609572
0
LINE
8
BLACK
6
CONTINUOUS
10
1.01553
20
0.609572
11
1.0156
21
0.609685
0
LINE
8
BLACK
6
CONTINUOUS
10
1.0156
20
0.609685
11
1.01567
21
0.610069
0
LINE
8
BLACK
6
CONTINUOUS
10
1.01567
20
0.610069
11
1.01616
21
0.610656
0
LINE
8
BLACK
6
CONTINUOUS
10
1.01616
20
0.610656
11
1.01654
21
0.611321
0
LINE
8
BLACK
6
CONTINUOUS
10
1.01654
20
0.611321
11
1.01679
21
0.611412
0
LINE
8
BLACK
6
CONTINUOUS
10
1.01679
20
0.611412
11
1.01696
21
0.611616
0
LINE
8
BLACK
6
CONTINUOUS
10
1.01696
20
0.611616
11
1.01772
21
0.611749
0
LINE
8
BLACK
6
CONTINUOUS
10
1.01772
20
0.611749
11
1.01844
21
0.612012
0
LINE
8
BLACK
6
CONTINUOUS
10
1.01844
20
0.612012
11
1.05781
21
0.612012
0
LINE
8
BLACK
6
CONTINUOUS
10
1.05781
20
0.612012
11
1.05819
21
0.611944
0
LINE
8
BLACK
6
CONTINUOUS
10
1.02139
20
0.606106
11
1.02139
21
0.600164
0
LINE
8
BLACK
6
CONTINUOUS
10
1.02139
20
0.600164
11
1.0229
21
0.595656
0
LINE
8
BLACK
6
CONTINUOUS
10
1.0229
20
0.595656
11
1.02581
21
0.592738
0
LINE
8
BLACK
6
CONTINUOUS
10
1.02581
20
0.592738
11
1.02884
21
0.591222
0
LINE
8
BLACK
6
CONTINUOUS
10
1.02884
20
0.591222
11
1.03568
21
0.589514
0
LINE
8
BLACK
6
CONTINUOUS
10
1.03568
20
0.589514
11
1.04057
21
0.589514
0
LINE
8
BLACK
6
CONTINUOUS
10
1.04057
20
0.589514
11
1.04741
21
0.591222
0
LINE
8
BLACK
6
CONTINUOUS
10
1.04741
20
0.591222
11
1.05044
21
0.592738
0
LINE
8
BLACK
6
CONTINUOUS
10
1.05044
20
0.592738
11
1.05335
21
0.595656
0
LINE
8
BLACK
6
CONTINUOUS
10
1.05335
20
0.595656
11
1.05486
21
0.600164
0
LINE
8
BLACK
6
CONTINUOUS
10
1.05486
20
0.600164
11
1.05486
21
0.606106
0
LINE
8
BLACK
6
CONTINUOUS
10
1.05486
20
0.606106
11
1.02139
21
0.606106
0
LINE
8
BLACK
6
CONTINUOUS
10
0.657103
20
0.658284
11
0.657795
21
0.656614
0
LINE
8
BLACK
6
CONTINUOUS
10
0.657795
20
0.656614
11
0.657103
21
0.654944
0
LINE
8
BLACK
6
CONTINUOUS
10
0.657103
20
0.654944
11
0.655433
21
0.654252
0
LINE
8
BLACK
6
CONTINUOUS
10
0.655433
20
0.654252
11
0.558976
21
0.654252
0
LINE
8
BLACK
6
CONTINUOUS
10
0.558976
20
0.654252
11
0.557306
21
0.654944
0
LINE
8
BLACK
6
CONTINUOUS
10
0.557306
20
0.654944
11
0.556614
21
0.656614
0
LINE
8
BLACK
6
CONTINUOUS
10
0.556614
20
0.656614
11
0.557306
21
0.658284
0
LINE
8
BLACK
6
CONTINUOUS
10
0.557306
20
0.658284
11
0.558976
21
0.658976
0
LINE
8
BLACK
6
CONTINUOUS
10
0.558976
20
0.658976
11
0.655433
21
0.658976
0
LINE
8
BLACK
6
CONTINUOUS
10
0.655433
20
0.658976
11
0.657103
21
0.658284
0
LINE
8
BLACK
6
CONTINUOUS
10
0.922884
20
0.732885
11
0.923013
21
0.732908
0
LINE
8
BLACK
6
CONTINUOUS
10
0.923013
20
0.732908
11
0.923126
21
0.732842
0
LINE
8
BLACK
6
CONTINUOUS
10
0.923126
20
0.732842
11
0.92351
21
0.732775
0
LINE
8
BLACK
6
CONTINUOUS
10
0.92351
20
0.732775
11
0.924098
21
0.732282
0
LINE
8
BLACK
6
CONTINUOUS
10
0.924098
20
0.732282
11
0.924762
21
0.731898
0
LINE
8
BLACK
6
CONTINUOUS
10
0.924762
20
0.731898
11
0.924853
21
0.731648
0
LINE
8
BLACK
6
CONTINUOUS
10
0.924853
20
0.731648
11
0.925057
21
0.731476
0
LINE
8
BLACK
6
CONTINUOUS
10
0.925057
20
0.731476
11
0.92519
21
0.730721
0
LINE
8
BLACK
6
CONTINUOUS
10
0.92519
20
0.730721
11
0.925453
21
0.73
0
LINE
8
BLACK
6
CONTINUOUS
10
0.925453
20
0.73
11
0.925453
21
0.677618
0
LINE
8
BLACK
6
CONTINUOUS
10
0.925453
20
0.677618
11
0.925738
21
0.677755
0
LINE
8
BLACK
6
CONTINUOUS
10
0.925738
20
0.677755
11
0.929275
21
0.677752
0
LINE
8
BLACK
6
CONTINUOUS
10
0.929275
20
0.677752
11
0.932462
21
0.676215
0
LINE
8
BLACK
6
CONTINUOUS
10
0.932462
20
0.676215
11
0.934666
21
0.673449
0
LINE
8
BLACK
6
CONTINUOUS
10
0.934666
20
0.673449
11
0.935453
21
0.67
0
LINE
8
BLACK
6
CONTINUOUS
10
0.935453
20
0.67
11
0.935453
21
0.669972
0
LINE
8
BLACK
6
CONTINUOUS
10
0.935453
20
0.669972
11
0.934654
21
0.666526
0
LINE
8
BLACK
6
CONTINUOUS
10
0.934654
20
0.666526
11
0.93244
21
0.663767
0
LINE
8
BLACK
6
CONTINUOUS
10
0.93244
20
0.663767
11
0.929248
21
0.662242
0
LINE
8
BLACK
6
CONTINUOUS
10
0.929248
20
0.662242
11
0.925711
21
0.662251
0
LINE
8
BLACK
6
CONTINUOUS
10
0.925711
20
0.662251
11
0.922528
21
0.663793
0
LINE
8
BLACK
6
CONTINUOUS
10
0.922528
20
0.663793
11
0.920328
21
0.666564
0
LINE
8
BLACK
6
CONTINUOUS
10
0.920328
20
0.666564
11
0.920219
21
0.667047
0
LINE
8
BLACK
6
CONTINUOUS
10
0.920219
20
0.667047
11
0.8825
21
0.667047
0
LINE
8
BLACK
6
CONTINUOUS
10
0.8825
20
0.667047
11
0.88149
21
0.667225
0
LINE
8
BLACK
6
CONTINUOUS
10
0.88149
20
0.667225
11
0.879943
21
0.668524
0
LINE
8
BLACK
6
CONTINUOUS
10
0.879943
20
0.668524
11
0.879592
21
0.670513
0
LINE
8
BLACK
6
CONTINUOUS
10
0.879592
20
0.670513
11
0.880602
21
0.672262
0
LINE
8
BLACK
6
CONTINUOUS
10
0.880602
20
0.672262
11
0.8825
21
0.672953
0
LINE
8
BLACK
6
CONTINUOUS
10
0.8825
20
0.672953
11
0.919547
21
0.672953
0
LINE
8
BLACK
6
CONTINUOUS
10
0.919547
20
0.672953
11
0.919547
21
0.727047
0
LINE
8
BLACK
6
CONTINUOUS
10
0.919547
20
0.727047
11
0.8825
21
0.727047
0
LINE
8
BLACK
6
CONTINUOUS
10
0.8825
20
0.727047
11
0.88149
21
0.727225
0
LINE
8
BLACK
6
CONTINUOUS
10
0.88149
20
0.727225
11
0.879943
21
0.728524
0
LINE
8
BLACK
6
CONTINUOUS
10
0.879943
20
0.728524
11
0.879592
21
0.730513
0
LINE
8
BLACK
6
CONTINUOUS
10
0.879592
20
0.730513
11
0.880602
21
0.732262
0
LINE
8
BLACK
6
CONTINUOUS
10
0.880602
20
0.732262
11
0.8825
21
0.732953
0
LINE
8
BLACK
6
CONTINUOUS
10
0.8825
20
0.732953
11
0.9225
21
0.732953
0
LINE
8
BLACK
6
CONTINUOUS
10
0.9225
20
0.732953
11
0.922884
21
0.732885
0
LINE
8
BLACK
6
CONTINUOUS
10
0.925933
20
0.671567
11
0.925453
21
0.670407
0
LINE
8
BLACK
6
CONTINUOUS
10
0.925453
20
0.670407
11
0.925453
21
0.67
0
LINE
8
BLACK
6
CONTINUOUS
10
0.925453
20
0.67
11
0.925402
21
0.669714
0
LINE
8
BLACK
6
CONTINUOUS
10
0.925402
20
0.669714
11
0.925933
21
0.668433
0
LINE
8
BLACK
6
CONTINUOUS
10
0.925933
20
0.668433
11
0.9275
21
0.667784
0
LINE
8
BLACK
6
CONTINUOUS
10
0.9275
20
0.667784
11
0.929067
21
0.668433
0
LINE
8
BLACK
6
CONTINUOUS
10
0.929067
20
0.668433
11
0.929716
21
0.67
0
LINE
8
BLACK
6
CONTINUOUS
10
0.929716
20
0.67
11
0.929067
21
0.671567
0
LINE
8
BLACK
6
CONTINUOUS
10
0.929067
20
0.671567
11
0.9275
21
0.672216
0
LINE
8
BLACK
6
CONTINUOUS
10
0.9275
20
0.672216
11
0.925933
21
0.671567
0
LINE
8
BLACK
6
CONTINUOUS
10
0.84351
20
0.732775
11
0.845057
21
0.731476
0
LINE
8
BLACK
6
CONTINUOUS
10
0.845057
20
0.731476
11
0.845408
21
0.729487
0
LINE
8
BLACK
6
CONTINUOUS
10
0.845408
20
0.729487
11
0.844398
21
0.727738
0
LINE
8
BLACK
6
CONTINUOUS
10
0.844398
20
0.727738
11
0.8425
21
0.727047
0
LINE
8
BLACK
6
CONTINUOUS
10
0.8425
20
0.727047
11
0.805453
21
0.727047
0
LINE
8
BLACK
6
CONTINUOUS
10
0.805453
20
0.727047
11
0.805453
21
0.672953
0
LINE
8
BLACK
6
CONTINUOUS
10
0.805453
20
0.672953
11
0.8425
21
0.672953
0
LINE
8
BLACK
6
CONTINUOUS
10
0.8425
20
0.672953
11
0.84351
21
0.672775
0
LINE
8
BLACK
6
CONTINUOUS
10
0.84351
20
0.672775
11
0.845057
21
0.671476
0
LINE
8
BLACK
6
CONTINUOUS
10
0.845057
20
0.671476
11
0.845408
21
0.669487
0
LINE
8
BLACK
6
CONTINUOUS
10
0.845408
20
0.669487
11
0.844398
21
0.667738
0
LINE
8
BLACK
6
CONTINUOUS
10
0.844398
20
0.667738
11
0.8425
21
0.667047
0
LINE
8
BLACK
6
CONTINUOUS
10
0.8425
20
0.667047
11
0.8025
21
0.667047
0
LINE
8
BLACK
6
CONTINUOUS
10
0.8025
20
0.667047
11
0.802116
21
0.667115
0
LINE
8
BLACK
6
CONTINUOUS
10
0.802116
20
0.667115
11
0.801987
21
0.667092
0
LINE
8
BLACK
6
CONTINUOUS
10
0.801987
20
0.667092
11
0.801874
21
0.667158
0
LINE
8
BLACK
6
CONTINUOUS
10
0.801874
20
0.667158
11
0.80149
21
0.667225
0
LINE
8
BLACK
6
CONTINUOUS
10
0.80149
20
0.667225
11
0.800902
21
0.667718
0
LINE
8
BLACK
6
CONTINUOUS
10
0.800902
20
0.667718
11
0.800238
21
0.668102
0
LINE
8
BLACK
6
CONTINUOUS
10
0.800238
20
0.668102
11
0.800147
21
0.668352
0
LINE
8
BLACK
6
CONTINUOUS
10
0.800147
20
0.668352
11
0.799943
21
0.668524
0
LINE
8
BLACK
6
CONTINUOUS
10
0.799943
20
0.668524
11
0.79981
21
0.669279
0
LINE
8
BLACK
6
CONTINUOUS
10
0.79981
20
0.669279
11
0.799547
21
0.67
0
LINE
8
BLACK
6
CONTINUOUS
10
0.799547
20
0.67
11
0.799547
21
0.73
0
LINE
8
BLACK
6
CONTINUOUS
10
0.799547
20
0.73
11
0.799615
21
0.730384
0
LINE
8
BLACK
6
CONTINUOUS
10
0.799615
20
0.730384
11
0.799592
21
0.730513
0
LINE
8
BLACK
6
CONTINUOUS
10
0.799592
20
0.730513
11
0.799658
21
0.730626
0
LINE
8
BLACK
6
CONTINUOUS
10
0.799658
20
0.730626
11
0.799725
21
0.73101
0
LINE
8
BLACK
6
CONTINUOUS
10
0.799725
20
0.73101
11
0.800218
21
0.731598
0
LINE
8
BLACK
6
CONTINUOUS
10
0.800218
20
0.731598
11
0.800602
21
0.732262
0
LINE
8
BLACK
6
CONTINUOUS
10
0.800602
20
0.732262
11
0.800852
21
0.732353
0
LINE
8
BLACK
6
CONTINUOUS
10
0.800852
20
0.732353
11
0.801024
21
0.732557
0
LINE
8
BLACK
6
CONTINUOUS
10
0.801024
20
0.732557
11
0.801779
21
0.73269
0
LINE
8
BLACK
6
CONTINUOUS
10
0.801779
20
0.73269
11
0.8025
21
0.732953
0
LINE
8
BLACK
6
CONTINUOUS
10
0.8025
20
0.732953
11
0.8425
21
0.732953
0
LINE
8
BLACK
6
CONTINUOUS
10
0.8425
20
0.732953
11
0.84351
21
0.732775
0
LINE
8
BLACK
6
CONTINUOUS
10
1.05226
20
0.739398
11
1.05295
21
0.7375
0
LINE
8
BLACK
6
CONTINUOUS
10
1.05295
20
0.7375
11
1.05295
21
0.6975
0
LINE
8
BLACK
6
CONTINUOUS
10
1.05295
20
0.6975
11
1.05289
21
0.697116
0
LINE
8
BLACK
6
CONTINUOUS
10
1.05289
20
0.697116
11
1.05291
21
0.696987
0
LINE
8
BLACK
6
CONTINUOUS
10
1.05291
20
0.696987
11
1.05284
21
0.696874
0
LINE
8
BLACK
6
CONTINUOUS
10
1.05284
20
0.696874
11
1.05277
21
0.69649
0
LINE
8
BLACK
6
CONTINUOUS
10
1.05277
20
0.69649
11
1.05228
21
0.695902
0
LINE
8
BLACK
6
CONTINUOUS
10
1.05228
20
0.695902
11
1.0519
21
0.695238
0
LINE
8
BLACK
6
CONTINUOUS
10
1.0519
20
0.695238
11
1.05165
21
0.695147
0
LINE
8
BLACK
6
CONTINUOUS
10
1.05165
20
0.695147
11
1.05148
21
0.694943
0
LINE
8
BLACK
6
CONTINUOUS
10
1.05148
20
0.694943
11
1.05072
21
0.69481
0
LINE
8
BLACK
6
CONTINUOUS
10
1.05072
20
0.69481
11
1.05
21
0.694547
0
LINE
8
BLACK
6
CONTINUOUS
10
1.05
20
0.694547
11
0.99
21
0.694547
0
LINE
8
BLACK
6
CONTINUOUS
10
0.99
20
0.694547
11
0.989616
21
0.694615
0
LINE
8
BLACK
6
CONTINUOUS
10
0.989616
20
0.694615
11
0.989487
21
0.694592
0
LINE
8
BLACK
6
CONTINUOUS
10
0.989487
20
0.694592
11
0.989374
21
0.694658
0
LINE
8
BLACK
6
CONTINUOUS
10
0.989374
20
0.694658
11
0.98899
21
0.694725
0
LINE
8
BLACK
6
CONTINUOUS
10
0.98899
20
0.694725
11
0.988402
21
0.695218
0
LINE
8
BLACK
6
CONTINUOUS
10
0.988402
20
0.695218
11
0.987738
21
0.695602
0
LINE
8
BLACK
6
CONTINUOUS
10
0.987738
20
0.695602
11
0.987647
21
0.695852
0
LINE
8
BLACK
6
CONTINUOUS
10
0.987647
20
0.695852
11
0.987443
21
0.696024
0
LINE
8
BLACK
6
CONTINUOUS
10
0.987443
20
0.696024
11
0.98731
21
0.696779
0
LINE
8
BLACK
6
CONTINUOUS
10
0.98731
20
0.696779
11
0.987047
21
0.6975
0
LINE
8
BLACK
6
CONTINUOUS
10
0.987047
20
0.6975
11
0.987047
21
0.7375
0
LINE
8
BLACK
6
CONTINUOUS
10
0.987047
20
0.7375
11
0.987225
21
0.73851
0
LINE
8
BLACK
6
CONTINUOUS
10
0.987225
20
0.73851
11
0.988524
21
0.740057
0
LINE
8
BLACK
6
CONTINUOUS
10
0.988524
20
0.740057
11
0.990513
21
0.740408
0
LINE
8
BLACK
6
CONTINUOUS
10
0.990513
20
0.740408
11
0.992262
21
0.739398
0
LINE
8
BLACK
6
CONTINUOUS
10
0.992262
20
0.739398
11
0.992953
21
0.7375
0
LINE
8
BLACK
6
CONTINUOUS
10
0.992953
20
0.7375
11
0.992953
21
0.700453
0
LINE
8
BLACK
6
CONTINUOUS
10
0.992953
20
0.700453
11
1.04705
21
0.700453
0
LINE
8
BLACK
6
CONTINUOUS
10
1.04705
20
0.700453
11
1.04705
21
0.7375
0
LINE
8
BLACK
6
CONTINUOUS
10
1.04705
20
0.7375
11
1.04723
21
0.73851
0
LINE
8
BLACK
6
CONTINUOUS
10
1.04723
20
0.73851
11
1.04852
21
0.740057
0
LINE
8
BLACK
6
CONTINUOUS
10
1.04852
20
0.740057
11
1.05051
21
0.740408
0
LINE
8
BLACK
6
CONTINUOUS
10
1.05051
20
0.740408
11
1.05226
21
0.739398
0
LINE
8
BLACK
6
CONTINUOUS
10
0.468826
20
0.744564
11
0.468894
21
0.744583
0
LINE
8
BLACK
6
CONTINUOUS
10
0.468894
20
0.744583
11
0.469005
21
0.744533
0
LINE
8
BLACK
6
CONTINUOUS
10
0.469005
20
0.744533
11
0.469683
21
0.744413
0
LINE
8
BLACK
6
CONTINUOUS
10
0.469683
20
0.744413
11
0.470163
21
0.74401
0
LINE
8
BLACK
6
CONTINUOUS
10
0.470163
20
0.74401
11
0.470734
21
0.743752
0
LINE
8
BLACK
6
CONTINUOUS
10
0.470734
20
0.743752
11
0.470914
21
0.74338
0
LINE
8
BLACK
6
CONTINUOUS
10
0.470914
20
0.74338
11
0.47123
21
0.743115
0
LINE
8
BLACK
6
CONTINUOUS
10
0.47123
20
0.743115
11
0.471339
21
0.742497
0
LINE
8
BLACK
6
CONTINUOUS
10
0.471339
20
0.742497
11
0.471611
21
0.741932
0
LINE
8
BLACK
6
CONTINUOUS
10
0.471611
20
0.741932
11
0.473486
21
0.723185
0
LINE
8
BLACK
6
CONTINUOUS
10
0.473486
20
0.723185
11
0.473409
21
0.722162
0
LINE
8
BLACK
6
CONTINUOUS
10
0.473409
20
0.722162
11
0.473398
21
0.722146
0
LINE
8
BLACK
6
CONTINUOUS
10
0.473398
20
0.722146
11
0.4734
21
0.722127
0
LINE
8
BLACK
6
CONTINUOUS
10
0.4734
20
0.722127
11
0.472831
21
0.721315
0
LINE
8
BLACK
6
CONTINUOUS
10
0.472831
20
0.721315
11
0.472271
21
0.720493
0
LINE
8
BLACK
6
CONTINUOUS
10
0.472271
20
0.720493
11
0.472252
21
0.720488
0
LINE
8
BLACK
6
CONTINUOUS
10
0.472252
20
0.720488
11
0.472241
21
0.720472
0
LINE
8
BLACK
6
CONTINUOUS
10
0.472241
20
0.720472
11
0.471282
21
0.720215
0
LINE
8
BLACK
6
CONTINUOUS
10
0.471282
20
0.720215
11
0.470327
21
0.719946
0
LINE
8
BLACK
6
CONTINUOUS
10
0.470327
20
0.719946
11
0.470309
21
0.719954
0
LINE
8
BLACK
6
CONTINUOUS
10
0.470309
20
0.719954
11
0.47029
21
0.719949
0
LINE
8
BLACK
6
CONTINUOUS
10
0.47029
20
0.719949
11
0.469392
21
0.720368
0
LINE
8
BLACK
6
CONTINUOUS
10
0.469392
20
0.720368
11
0.468486
21
0.720777
0
LINE
8
BLACK
6
CONTINUOUS
10
0.468486
20
0.720777
11
0.468477
21
0.720795
0
LINE
8
BLACK
6
CONTINUOUS
10
0.468477
20
0.720795
11
0.468459
21
0.720803
0
LINE
8
BLACK
6
CONTINUOUS
10
0.468459
20
0.720803
11
0.466924
21
0.722339
0
LINE
8
BLACK
6
CONTINUOUS
10
0.466924
20
0.722339
11
0.464226
21
0.723688
0
LINE
8
BLACK
6
CONTINUOUS
10
0.464226
20
0.723688
11
0.456246
21
0.723688
0
LINE
8
BLACK
6
CONTINUOUS
10
0.456246
20
0.723688
11
0.453549
21
0.722339
0
LINE
8
BLACK
6
CONTINUOUS
10
0.453549
20
0.722339
11
0.452352
21
0.721142
0
LINE
8
BLACK
6
CONTINUOUS
10
0.452352
20
0.721142
11
0.451003
21
0.718444
0
LINE
8
BLACK
6
CONTINUOUS
10
0.451003
20
0.718444
11
0.451003
21
0.710465
0
LINE
8
BLACK
6
CONTINUOUS
10
0.451003
20
0.710465
11
0.452352
21
0.707767
0
LINE
8
BLACK
6
CONTINUOUS
10
0.452352
20
0.707767
11
0.453549
21
0.70657
0
LINE
8
BLACK
6
CONTINUOUS
10
0.453549
20
0.70657
11
0.456246
21
0.705221
0
LINE
8
BLACK
6
CONTINUOUS
10
0.456246
20
0.705221
11
0.464226
21
0.705221
0
LINE
8
BLACK
6
CONTINUOUS
10
0.464226
20
0.705221
11
0.466924
21
0.70657
0
LINE
8
BLACK
6
CONTINUOUS
10
0.466924
20
0.70657
11
0.468459
21
0.708106
0
LINE
8
BLACK
6
CONTINUOUS
10
0.468459
20
0.708106
11
0.4693
21
0.708694
0
LINE
8
BLACK
6
CONTINUOUS
10
0.4693
20
0.708694
11
0.471312
21
0.70887
0
LINE
8
BLACK
6
CONTINUOUS
10
0.471312
20
0.70887
11
0.472966
21
0.707712
0
LINE
8
BLACK
6
CONTINUOUS
10
0.472966
20
0.707712
11
0.473489
21
0.705761
0
LINE
8
BLACK
6
CONTINUOUS
10
0.473489
20
0.705761
11
0.472635
21
0.70393
0
LINE
8
BLACK
6
CONTINUOUS
10
0.472635
20
0.70393
11
0.470761
21
0.702055
0
LINE
8
BLACK
6
CONTINUOUS
10
0.470761
20
0.702055
11
0.470037
21
0.701549
0
LINE
8
BLACK
6
CONTINUOUS
10
0.470037
20
0.701549
11
0.469993
21
0.701502
0
LINE
8
BLACK
6
CONTINUOUS
10
0.469993
20
0.701502
11
0.466244
21
0.699627
0
LINE
8
BLACK
6
CONTINUOUS
10
0.466244
20
0.699627
11
0.465261
21
0.699335
0
LINE
8
BLACK
6
CONTINUOUS
10
0.465261
20
0.699335
11
0.465089
21
0.699376
0
LINE
8
BLACK
6
CONTINUOUS
10
0.465089
20
0.699376
11
0.464923
21
0.699316
0
LINE
8
BLACK
6
CONTINUOUS
10
0.464923
20
0.699316
11
0.455549
21
0.699316
0
LINE
8
BLACK
6
CONTINUOUS
10
0.455549
20
0.699316
11
0.454539
21
0.699494
0
LINE
8
BLACK
6
CONTINUOUS
10
0.454539
20
0.699494
11
0.454404
21
0.699607
0
LINE
8
BLACK
6
CONTINUOUS
10
0.454404
20
0.699607
11
0.454229
21
0.699627
0
LINE
8
BLACK
6
CONTINUOUS
10
0.454229
20
0.699627
11
0.450479
21
0.701502
0
LINE
8
BLACK
6
CONTINUOUS
10
0.450479
20
0.701502
11
0.44977
21
0.702028
0
LINE
8
BLACK
6
CONTINUOUS
10
0.44977
20
0.702028
11
0.449712
21
0.702055
0
LINE
8
BLACK
6
CONTINUOUS
10
0.449712
20
0.702055
11
0.447837
21
0.70393
0
LINE
8
BLACK
6
CONTINUOUS
10
0.447837
20
0.70393
11
0.447331
21
0.704653
0
LINE
8
BLACK
6
CONTINUOUS
10
0.447331
20
0.704653
11
0.447284
21
0.704697
0
LINE
8
BLACK
6
CONTINUOUS
10
0.447284
20
0.704697
11
0.445409
21
0.708447
0
LINE
8
BLACK
6
CONTINUOUS
10
0.445409
20
0.708447
11
0.445117
21
0.70943
0
LINE
8
BLACK
6
CONTINUOUS
10
0.445117
20
0.70943
11
0.445158
21
0.709602
0
LINE
8
BLACK
6
CONTINUOUS
10
0.445158
20
0.709602
11
0.445097
21
0.709768
0
LINE
8
BLACK
6
CONTINUOUS
10
0.445097
20
0.709768
11
0.445097
21
0.719141
0
LINE
8
BLACK
6
CONTINUOUS
10
0.445097
20
0.719141
11
0.445276
21
0.720151
0
LINE
8
BLACK
6
CONTINUOUS
10
0.445276
20
0.720151
11
0.445389
21
0.720286
0
LINE
8
BLACK
6
CONTINUOUS
10
0.445389
20
0.720286
11
0.445409
21
0.720462
0
LINE
8
BLACK
6
CONTINUOUS
10
0.445409
20
0.720462
11
0.447284
21
0.724211
0
LINE
8
BLACK
6
CONTINUOUS
10
0.447284
20
0.724211
11
0.44781
21
0.72492
0
LINE
8
BLACK
6
CONTINUOUS
10
0.44781
20
0.72492
11
0.447837
21
0.724979
0
LINE
8
BLACK
6
CONTINUOUS
10
0.447837
20
0.724979
11
0.449712
21
0.726854
0
LINE
8
BLACK
6
CONTINUOUS
10
0.449712
20
0.726854
11
0.450435
21
0.72736
0
LINE
8
BLACK
6
CONTINUOUS
10
0.450435
20
0.72736
11
0.450479
21
0.727407
0
LINE
8
BLACK
6
CONTINUOUS
10
0.450479
20
0.727407
11
0.454229
21
0.729281
0
LINE
8
BLACK
6
CONTINUOUS
10
0.454229
20
0.729281
11
0.455212
21
0.729574
0
LINE
8
BLACK
6
CONTINUOUS
10
0.455212
20
0.729574
11
0.455383
21
0.729533
0
LINE
8
BLACK
6
CONTINUOUS
10
0.455383
20
0.729533
11
0.455549
21
0.729593
0
LINE
8
BLACK
6
CONTINUOUS
10
0.455549
20
0.729593
11
0.464923
21
0.729593
0
LINE
8
BLACK
6
CONTINUOUS
10
0.464923
20
0.729593
11
0.465933
21
0.729415
0
LINE
8
BLACK
6
CONTINUOUS
10
0.465933
20
0.729415
11
0.466068
21
0.729302
0
LINE
8
BLACK
6
CONTINUOUS
10
0.466068
20
0.729302
11
0.466244
21
0.729281
0
LINE
8
BLACK
6
CONTINUOUS
10
0.466244
20
0.729281
11
0.466978
21
0.728914
0
LINE
8
BLACK
6
CONTINUOUS
10
0.466978
20
0.728914
11
0.466
21
0.738686
0
LINE
8
BLACK
6
CONTINUOUS
10
0.466
20
0.738686
11
0.449925
21
0.738686
0
LINE
8
BLACK
6
CONTINUOUS
10
0.449925
20
0.738686
11
0.448915
21
0.738864
0
LINE
8
BLACK
6
CONTINUOUS
10
0.448915
20
0.738864
11
0.447368
21
0.740162
0
LINE
8
BLACK
6
CONTINUOUS
10
0.447368
20
0.740162
11
0.447017
21
0.742151
0
LINE
8
BLACK
6
CONTINUOUS
10
0.447017
20
0.742151
11
0.448027
21
0.7439
0
LINE
8
BLACK
6
CONTINUOUS
10
0.448027
20
0.7439
11
0.449925
21
0.744591
0
LINE
8
BLACK
6
CONTINUOUS
10
0.449925
20
0.744591
11
0.468673
21
0.744591
0
LINE
8
BLACK
6
CONTINUOUS
10
0.468673
20
0.744591
11
0.468826
21
0.744564
0
LINE
8
BLACK
6
CONTINUOUS
10
0.512179
20
0.743537
11
0.51287
21
0.741639
0
LINE
8
BLACK
6
CONTINUOUS
10
0.51287
20
0.741639
11
0.51287
21
0.709768
0
LINE
8
BLACK
6
CONTINUOUS
10
0.51287
20
0.709768
11
0.512692
21
0.708758
0
LINE
8
BLACK
6
CONTINUOUS
10
0.512692
20
0.708758
11
0.512579
21
0.708622
0
LINE
8
BLACK
6
CONTINUOUS
10
0.512579
20
0.708622
11
0.512559
21
0.708447
0
LINE
8
BLACK
6
CONTINUOUS
10
0.512559
20
0.708447
11
0.510684
21
0.704697
0
LINE
8
BLACK
6
CONTINUOUS
10
0.510684
20
0.704697
11
0.510158
21
0.703988
0
LINE
8
BLACK
6
CONTINUOUS
10
0.510158
20
0.703988
11
0.510131
21
0.70393
0
LINE
8
BLACK
6
CONTINUOUS
10
0.510131
20
0.70393
11
0.508256
21
0.702055
0
LINE
8
BLACK
6
CONTINUOUS
10
0.508256
20
0.702055
11
0.507533
21
0.701549
0
LINE
8
BLACK
6
CONTINUOUS
10
0.507533
20
0.701549
11
0.507488
21
0.701502
0
LINE
8
BLACK
6
CONTINUOUS
10
0.507488
20
0.701502
11
0.503739
21
0.699627
0
LINE
8
BLACK
6
CONTINUOUS
10
0.503739
20
0.699627
11
0.502756
21
0.699335
0
LINE
8
BLACK
6
CONTINUOUS
10
0.502756
20
0.699335
11
0.502584
21
0.699376
0
LINE
8
BLACK
6
CONTINUOUS
10
0.502584
20
0.699376
11
0.502418
21
0.699316
0
LINE
8
BLACK
6
CONTINUOUS
10
0.502418
20
0.699316
11
0.494919
21
0.699316
0
LINE
8
BLACK
6
CONTINUOUS
10
0.494919
20
0.699316
11
0.493909
21
0.699494
0
LINE
8
BLACK
6
CONTINUOUS
10
0.493909
20
0.699494
11
0.493774
21
0.699607
0
LINE
8
BLACK
6
CONTINUOUS
10
0.493774
20
0.699607
11
0.493599
21
0.699627
0
LINE
8
BLACK
6
CONTINUOUS
10
0.493599
20
0.699627
11
0.489849
21
0.701502
0
LINE
8
BLACK
6
CONTINUOUS
10
0.489849
20
0.701502
11
0.48914
21
0.702028
0
LINE
8
BLACK
6
CONTINUOUS
10
0.48914
20
0.702028
11
0.489082
21
0.702055
0
LINE
8
BLACK
6
CONTINUOUS
10
0.489082
20
0.702055
11
0.487207
21
0.70393
0
LINE
8
BLACK
6
CONTINUOUS
10
0.487207
20
0.70393
11
0.486701
21
0.704653
0
LINE
8
BLACK
6
CONTINUOUS
10
0.486701
20
0.704653
11
0.486654
21
0.704697
0
LINE
8
BLACK
6
CONTINUOUS
10
0.486654
20
0.704697
11
0.484779
21
0.708447
0
LINE
8
BLACK
6
CONTINUOUS
10
0.484779
20
0.708447
11
0.484487
21
0.70943
0
LINE
8
BLACK
6
CONTINUOUS
10
0.484487
20
0.70943
11
0.484528
21
0.709602
0
LINE
8
BLACK
6
CONTINUOUS
10
0.484528
20
0.709602
11
0.484468
21
0.709768
0
LINE
8
BLACK
6
CONTINUOUS
10
0.484468
20
0.709768
11
0.484468
21
0.741639
0
LINE
8
BLACK
6
CONTINUOUS
10
0.484468
20
0.741639
11
0.484646
21
0.742648
0
LINE
8
BLACK
6
CONTINUOUS
10
0.484646
20
0.742648
11
0.485944
21
0.744196
0
LINE
8
BLACK
6
CONTINUOUS
10
0.485944
20
0.744196
11
0.487933
21
0.744546
0
LINE
8
BLACK
6
CONTINUOUS
10
0.487933
20
0.744546
11
0.489682
21
0.743537
0
LINE
8
BLACK
6
CONTINUOUS
10
0.489682
20
0.743537
11
0.490373
21
0.741639
0
LINE
8
BLACK
6
CONTINUOUS
10
0.490373
20
0.741639
11
0.490373
21
0.710465
0
LINE
8
BLACK
6
CONTINUOUS
10
0.490373
20
0.710465
11
0.491722
21
0.707767
0
LINE
8
BLACK
6
CONTINUOUS
10
0.491722
20
0.707767
11
0.492919
21
0.70657
0
LINE
8
BLACK
6
CONTINUOUS
10
0.492919
20
0.70657
11
0.495616
21
0.705221
0
LINE
8
BLACK
6
CONTINUOUS
10
0.495616
20
0.705221
11
0.501721
21
0.705221
0
LINE
8
BLACK
6
CONTINUOUS
10
0.501721
20
0.705221
11
0.504419
21
0.70657
0
LINE
8
BLACK
6
CONTINUOUS
10
0.504419
20
0.70657
11
0.505616
21
0.707767
0
LINE
8
BLACK
6
CONTINUOUS
10
0.505616
20
0.707767
11
0.506965
21
0.710465
0
LINE
8
BLACK
6
CONTINUOUS
10
0.506965
20
0.710465
11
0.506965
21
0.741639
0
LINE
8
BLACK
6
CONTINUOUS
10
0.506965
20
0.741639
11
0.507143
21
0.742648
0
LINE
8
BLACK
6
CONTINUOUS
10
0.507143
20
0.742648
11
0.508441
21
0.744196
0
LINE
8
BLACK
6
CONTINUOUS
10
0.508441
20
0.744196
11
0.51043
21
0.744546
0
LINE
8
BLACK
6
CONTINUOUS
10
0.51043
20
0.744546
11
0.512179
21
0.743537
0
LINE
8
BLACK
6
CONTINUOUS
10
0.657103
20
0.785056
11
0.657795
21
0.783386
0
LINE
8
BLACK
6
CONTINUOUS
10
0.657795
20
0.783386
11
0.657103
21
0.781716
0
LINE
8
BLACK
6
CONTINUOUS
10
0.657103
20
0.781716
11
0.655433
21
0.781024
0
LINE
8
BLACK
6
CONTINUOUS
10
0.655433
20
0.781024
11
0.584567
21
0.781024
0
LINE
8
BLACK
6
CONTINUOUS
10
0.584567
20
0.781024
11
0.582897
21
0.781716
0
LINE
8
BLACK
6
CONTINUOUS
10
0.582897
20
0.781716
11
0.582205
21
0.783386
0
LINE
8
BLACK
6
CONTINUOUS
10
0.582205
20
0.783386
11
0.582897
21
0.785056
0
LINE
8
BLACK
6
CONTINUOUS
10
0.582897
20
0.785056
11
0.584567
21
0.785748
0
LINE
8
BLACK
6
CONTINUOUS
10
0.584567
20
0.785748
11
0.655433
21
0.785748
0
LINE
8
BLACK
6
CONTINUOUS
10
0.655433
20
0.785748
11
0.657103
21
0.785056
0
LINE
8
BLACK
6
CONTINUOUS
10
1.6375
20
0.853166
11
1.63819
21
0.851496
0
LINE
8
BLACK
6
CONTINUOUS
10
1.63819
20
0.851496
11
1.63819
21
0.788504
0
LINE
8
BLACK
6
CONTINUOUS
10
1.63819
20
0.788504
11
1.6375
21
0.786834
0
LINE
8
BLACK
6
CONTINUOUS
10
1.6375
20
0.786834
11
1.63583
21
0.786142
0
LINE
8
BLACK
6
CONTINUOUS
10
1.63583
20
0.786142
11
1.63416
21
0.786834
0
LINE
8
BLACK
6
CONTINUOUS
10
1.63416
20
0.786834
11
1.63346
21
0.788504
0
LINE
8
BLACK
6
CONTINUOUS
10
1.63346
20
0.788504
11
1.63346
21
0.851496
0
LINE
8
BLACK
6
CONTINUOUS
10
1.63346
20
0.851496
11
1.63416
21
0.853166
0
LINE
8
BLACK
6
CONTINUOUS
10
1.63416
20
0.853166
11
1.63583
21
0.853858
0
LINE
8
BLACK
6
CONTINUOUS
10
1.63583
20
0.853858
11
1.6375
21
0.853166
0
LINE
8
BLACK
6
CONTINUOUS
10
0.365844
20
0.853166
11
0.366535
21
0.851496
0
LINE
8
BLACK
6
CONTINUOUS
10
0.366535
20
0.851496
11
0.366535
21
0.788504
0
LINE
8
BLACK
6
CONTINUOUS
10
0.366535
20
0.788504
11
0.365844
21
0.786834
0
LINE
8
BLACK
6
CONTINUOUS
10
0.365844
20
0.786834
11
0.364173
21
0.786142
0
LINE
8
BLACK
6
CONTINUOUS
10
0.364173
20
0.786142
11
0.362503
21
0.786834
0
LINE
8
BLACK
6
CONTINUOUS
10
0.362503
20
0.786834
11
0.361811
21
0.788504
0
LINE
8
BLACK
6
CONTINUOUS
10
0.361811
20
0.788504
11
0.361811
21
0.851496
0
LINE
8
BLACK
6
CONTINUOUS
10
0.361811
20
0.851496
11
0.362503
21
0.853166
0
LINE
8
BLACK
6
CONTINUOUS
10
0.362503
20
0.853166
11
0.364173
21
0.853858
0
LINE
8
BLACK
6
CONTINUOUS
10
0.364173
20
0.853858
11
0.365844
21
0.853166
0
LINE
8
BLACK
6
CONTINUOUS
10
0.677884
20
0.892885
11
0.678013
21
0.892908
0
LINE
8
BLACK
6
CONTINUOUS
10
0.678013
20
0.892908
11
0.678126
21
0.892842
0
LINE
8
BLACK
6
CONTINUOUS
10
0.678126
20
0.892842
11
0.67851
21
0.892775
0
LINE
8
BLACK
6
CONTINUOUS
10
0.67851
20
0.892775
11
0.679098
21
0.892282
0
LINE
8
BLACK
6
CONTINUOUS
10
0.679098
20
0.892282
11
0.679762
21
0.891898
0
LINE
8
BLACK
6
CONTINUOUS
10
0.679762
20
0.891898
11
0.679853
21
0.891648
0
LINE
8
BLACK
6
CONTINUOUS
10
0.679853
20
0.891648
11
0.680057
21
0.891476
0
LINE
8
BLACK
6
CONTINUOUS
10
0.680057
20
0.891476
11
0.68019
21
0.890721
0
LINE
8
BLACK
6
CONTINUOUS
10
0.68019
20
0.890721
11
0.680453
21
0.89
0
LINE
8
BLACK
6
CONTINUOUS
10
0.680453
20
0.89
11
0.680453
21
0.837618
0
LINE
8
BLACK
6
CONTINUOUS
10
0.680453
20
0.837618
11
0.680738
21
0.837755
0
LINE
8
BLACK
6
CONTINUOUS
10
0.680738
20
0.837755
11
0.684275
21
0.837752
0
LINE
8
BLACK
6
CONTINUOUS
10
0.684275
20
0.837752
11
0.687462
21
0.836215
0
LINE
8
BLACK
6
CONTINUOUS
10
0.687462
20
0.836215
11
0.689666
21
0.833449
0
LINE
8
BLACK
6
CONTINUOUS
10
0.689666
20
0.833449
11
0.690453
21
0.83
0
LINE
8
BLACK
6
CONTINUOUS
10
0.690453
20
0.83
11
0.690453
21
0.829972
0
LINE
8
BLACK
6
CONTINUOUS
10
0.690453
20
0.829972
11
0.689654
21
0.826526
0
LINE
8
BLACK
6
CONTINUOUS
10
0.689654
20
0.826526
11
0.68744
21
0.823767
0
LINE
8
BLACK
6
CONTINUOUS
10
0.68744
20
0.823767
11
0.684248
21
0.822242
0
LINE
8
BLACK
6
CONTINUOUS
10
0.684248
20
0.822242
11
0.680711
21
0.822251
0
LINE
8
BLACK
6
CONTINUOUS
10
0.680711
20
0.822251
11
0.677528
21
0.823793
0
LINE
8
BLACK
6
CONTINUOUS
10
0.677528
20
0.823793
11
0.675328
21
0.826564
0
LINE
8
BLACK
6
CONTINUOUS
10
0.675328
20
0.826564
11
0.675219
21
0.827047
0
LINE
8
BLACK
6
CONTINUOUS
10
0.675219
20
0.827047
11
0.6375
21
0.827047
0
LINE
8
BLACK
6
CONTINUOUS
10
0.6375
20
0.827047
11
0.63649
21
0.827225
0
LINE
8
BLACK
6
CONTINUOUS
10
0.63649
20
0.827225
11
0.634943
21
0.828524
0
LINE
8
BLACK
6
CONTINUOUS
10
0.634943
20
0.828524
11
0.634592
21
0.830513
0
LINE
8
BLACK
6
CONTINUOUS
10
0.634592
20
0.830513
11
0.635602
21
0.832262
0
LINE
8
BLACK
6
CONTINUOUS
10
0.635602
20
0.832262
11
0.6375
21
0.832953
0
LINE
8
BLACK
6
CONTINUOUS
10
0.6375
20
0.832953
11
0.674547
21
0.832953
0
LINE
8
BLACK
6
CONTINUOUS
10
0.674547
20
0.832953
11
0.674547
21
0.887047
0
LINE
8
BLACK
6
CONTINUOUS
10
0.674547
20
0.887047
11
0.6375
21
0.887047
0
LINE
8
BLACK
6
CONTINUOUS
10
0.6375
20
0.887047
11
0.63649
21
0.887225
0
LINE
8
BLACK
6
CONTINUOUS
10
0.63649
20
0.887225
11
0.634943
21
0.888524
0
LINE
8
BLACK
6
CONTINUOUS
10
0.634943
20
0.888524
11
0.634592
21
0.890513
0
LINE
8
BLACK
6
CONTINUOUS
10
0.634592
20
0.890513
11
0.635602
21
0.892262
0
LINE
8
BLACK
6
CONTINUOUS
10
0.635602
20
0.892262
11
0.6375
21
0.892953
0
LINE
8
BLACK
6
CONTINUOUS
10
0.6375
20
0.892953
11
0.6775
21
0.892953
0
LINE
8
BLACK
6
CONTINUOUS
10
0.6775
20
0.892953
11
0.677884
21
0.892885
0
LINE
8
BLACK
6
CONTINUOUS
10
0.680933
20
0.831567
11
0.680453
21
0.830407
0
LINE
8
BLACK
6
CONTINUOUS
10
0.680453
20
0.830407
11
0.680453
21
0.83
0
LINE
8
BLACK
6
CONTINUOUS
10
0.680453
20
0.83
11
0.680402
21
0.829714
0
LINE
8
BLACK
6
CONTINUOUS
10
0.680402
20
0.829714
11
0.680933
21
0.828433
0
LINE
8
BLACK
6
CONTINUOUS
10
0.680933
20
0.828433
11
0.6825
21
0.827784
0
LINE
8
BLACK
6
CONTINUOUS
10
0.6825
20
0.827784
11
0.684067
21
0.828433
0
LINE
8
BLACK
6
CONTINUOUS
10
0.684067
20
0.828433
11
0.684716
21
0.83
0
LINE
8
BLACK
6
CONTINUOUS
10
0.684716
20
0.83
11
0.684067
21
0.831567
0
LINE
8
BLACK
6
CONTINUOUS
10
0.684067
20
0.831567
11
0.6825
21
0.832216
0
LINE
8
BLACK
6
CONTINUOUS
10
0.6825
20
0.832216
11
0.680933
21
0.831567
0
LINE
8
BLACK
6
CONTINUOUS
10
0.59851
20
0.892775
11
0.600057
21
0.891476
0
LINE
8
BLACK
6
CONTINUOUS
10
0.600057
20
0.891476
11
0.600408
21
0.889487
0
LINE
8
BLACK
6
CONTINUOUS
10
0.600408
20
0.889487
11
0.599398
21
0.887738
0
LINE
8
BLACK
6
CONTINUOUS
10
0.599398
20
0.887738
11
0.5975
21
0.887047
0
LINE
8
BLACK
6
CONTINUOUS
10
0.5975
20
0.887047
11
0.560453
21
0.887047
0
LINE
8
BLACK
6
CONTINUOUS
10
0.560453
20
0.887047
11
0.560453
21
0.832953
0
LINE
8
BLACK
6
CONTINUOUS
10
0.560453
20
0.832953
11
0.5975
21
0.832953
0
LINE
8
BLACK
6
CONTINUOUS
10
0.5975
20
0.832953
11
0.59851
21
0.832775
0
LINE
8
BLACK
6
CONTINUOUS
10
0.59851
20
0.832775
11
0.600057
21
0.831476
0
LINE
8
BLACK
6
CONTINUOUS
10
0.600057
20
0.831476
11
0.600408
21
0.829487
0
LINE
8
BLACK
6
CONTINUOUS
10
0.600408
20
0.829487
11
0.599398
21
0.827738
0
LINE
8
BLACK
6
CONTINUOUS
10
0.599398
20
0.827738
11
0.5975
21
0.827047
0
LINE
8
BLACK
6
CONTINUOUS
10
0.5975
20
0.827047
11
0.5575
21
0.827047
0
LINE
8
BLACK
6
CONTINUOUS
10
0.5575
20
0.827047
11
0.557116
21
0.827115
0
LINE
8
BLACK
6
CONTINUOUS
10
0.557116
20
0.827115
11
0.556987
21
0.827092
0
LINE
8
BLACK
6
CONTINUOUS
10
0.556987
20
0.827092
11
0.556874
21
0.827158
0
LINE
8
BLACK
6
CONTINUOUS
10
0.556874
20
0.827158
11
0.55649
21
0.827225
0
LINE
8
BLACK
6
CONTINUOUS
10
0.55649
20
0.827225
11
0.555902
21
0.827718
0
LINE
8
BLACK
6
CONTINUOUS
10
0.555902
20
0.827718
11
0.555238
21
0.828102
0
LINE
8
BLACK
6
CONTINUOUS
10
0.555238
20
0.828102
11
0.555147
21
0.828352
0
LINE
8
BLACK
6
CONTINUOUS
10
0.555147
20
0.828352
11
0.554943
21
0.828524
0
LINE
8
BLACK
6
CONTINUOUS
10
0.554943
20
0.828524
11
0.55481
21
0.829279
0
LINE
8
BLACK
6
CONTINUOUS
10
0.55481
20
0.829279
11
0.554547
21
0.83
0
LINE
8
BLACK
6
CONTINUOUS
10
0.554547
20
0.83
11
0.554547
21
0.89
0
LINE
8
BLACK
6
CONTINUOUS
10
0.554547
20
0.89
11
0.554615
21
0.890384
0
LINE
8
BLACK
6
CONTINUOUS
10
0.554615
20
0.890384
11
0.554592
21
0.890513
0
LINE
8
BLACK
6
CONTINUOUS
10
0.554592
20
0.890513
11
0.554658
21
0.890626
0
LINE
8
BLACK
6
CONTINUOUS
10
0.554658
20
0.890626
11
0.554725
21
0.89101
0
LINE
8
BLACK
6
CONTINUOUS
10
0.554725
20
0.89101
11
0.555218
21
0.891598
0
LINE
8
BLACK
6
CONTINUOUS
10
0.555218
20
0.891598
11
0.555602
21
0.892262
0
LINE
8
BLACK
6
CONTINUOUS
10
0.555602
20
0.892262
11
0.555852
21
0.892353
0
LINE
8
BLACK
6
CONTINUOUS
10
0.555852
20
0.892353
11
0.556024
21
0.892557
0
LINE
8
BLACK
6
CONTINUOUS
10
0.556024
20
0.892557
11
0.556779
21
0.89269
0
LINE
8
BLACK
6
CONTINUOUS
10
0.556779
20
0.89269
11
0.5575
21
0.892953
0
LINE
8
BLACK
6
CONTINUOUS
10
0.5575
20
0.892953
11
0.5975
21
0.892953
0
LINE
8
BLACK
6
CONTINUOUS
10
0.5975
20
0.892953
11
0.59851
21
0.892775
0
LINE
8
BLACK
6
CONTINUOUS
10
1.01788
20
0.912885
11
1.01801
21
0.912908
0
LINE
8
BLACK
6
CONTINUOUS
10
1.01801
20
0.912908
11
1.01813
21
0.912842
0
LINE
8
BLACK
6
CONTINUOUS
10
1.01813
20
0.912842
11
1.01851
21
0.912775
0
LINE
8
BLACK
6
CONTINUOUS
10
1.01851
20
0.912775
11
1.0191
21
0.912282
0
LINE
8
BLACK
6
CONTINUOUS
10
1.0191
20
0.912282
11
1.01976
21
0.911898
0
LINE
8
BLACK
6
CONTINUOUS
10
1.01976
20
0.911898
11
1.01985
21
0.911648
0
LINE
8
BLACK
6
CONTINUOUS
10
1.01985
20
0.911648
11
1.02006
21
0.911476
0
LINE
8
BLACK
6
CONTINUOUS
10
1.02006
20
0.911476
11
1.02019
21
0.910721
0
LINE
8
BLACK
6
CONTINUOUS
10
1.02019
20
0.910721
11
1.02045
21
0.91
0
LINE
8
BLACK
6
CONTINUOUS
10
1.02045
20
0.91
11
1.02045
21
0.857618
0
LINE
8
BLACK
6
CONTINUOUS
10
1.02045
20
0.857618
11
1.02074
21
0.857755
0
LINE
8
BLACK
6
CONTINUOUS
10
1.02074
20
0.857755
11
1.02428
21
0.857752
0
LINE
8
BLACK
6
CONTINUOUS
10
1.02428
20
0.857752
11
1.02746
21
0.856215
0
LINE
8
BLACK
6
CONTINUOUS
10
1.02746
20
0.856215
11
1.02967
21
0.853449
0
LINE
8
BLACK
6
CONTINUOUS
10
1.02967
20
0.853449
11
1.03045
21
0.85
0
LINE
8
BLACK
6
CONTINUOUS
10
1.03045
20
0.85
11
1.03045
21
0.849972
0
LINE
8
BLACK
6
CONTINUOUS
10
1.03045
20
0.849972
11
1.02965
21
0.846526
0
LINE
8
BLACK
6
CONTINUOUS
10
1.02965
20
0.846526
11
1.02744
21
0.843767
0
LINE
8
BLACK
6
CONTINUOUS
10
1.02744
20
0.843767
11
1.02425
21
0.842242
0
LINE
8
BLACK
6
CONTINUOUS
10
1.02425
20
0.842242
11
1.02071
21
0.842251
0
LINE
8
BLACK
6
CONTINUOUS
10
1.02071
20
0.842251
11
1.01753
21
0.843793
0
LINE
8
BLACK
6
CONTINUOUS
10
1.01753
20
0.843793
11
1.01533
21
0.846564
0
LINE
8
BLACK
6
CONTINUOUS
10
1.01533
20
0.846564
11
1.01522
21
0.847047
0
LINE
8
BLACK
6
CONTINUOUS
10
1.01522
20
0.847047
11
0.9775
21
0.847047
0
LINE
8
BLACK
6
CONTINUOUS
10
0.9775
20
0.847047
11
0.97649
21
0.847225
0
LINE
8
BLACK
6
CONTINUOUS
10
0.97649
20
0.847225
11
0.974943
21
0.848524
0
LINE
8
BLACK
6
CONTINUOUS
10
0.974943
20
0.848524
11
0.974592
21
0.850513
0
LINE
8
BLACK
6
CONTINUOUS
10
0.974592
20
0.850513
11
0.975602
21
0.852262
0
LINE
8
BLACK
6
CONTINUOUS
10
0.975602
20
0.852262
11
0.9775
21
0.852953
0
LINE
8
BLACK
6
CONTINUOUS
10
0.9775
20
0.852953
11
1.01455
21
0.852953
0
LINE
8
BLACK
6
CONTINUOUS
10
1.01455
20
0.852953
11
1.01455
21
0.907047
0
LINE
8
BLACK
6
CONTINUOUS
10
1.01455
20
0.907047
11
0.9775
21
0.907047
0
LINE
8
BLACK
6
CONTINUOUS
10
0.9775
20
0.907047
11
0.97649
21
0.907225
0
LINE
8
BLACK
6
CONTINUOUS
10
0.97649
20
0.907225
11
0.974943
21
0.908524
0
LINE
8
BLACK
6
CONTINUOUS
10
0.974943
20
0.908524
11
0.974592
21
0.910513
0
LINE
8
BLACK
6
CONTINUOUS
10
0.974592
20
0.910513
11
0.975602
21
0.912262
0
LINE
8
BLACK
6
CONTINUOUS
10
0.975602
20
0.912262
11
0.9775
21
0.912953
0
LINE
8
BLACK
6
CONTINUOUS
10
0.9775
20
0.912953
11
1.0175
21
0.912953
0
LINE
8
BLACK
6
CONTINUOUS
10
1.0175
20
0.912953
11
1.01788
21
0.912885
0
LINE
8
BLACK
6
CONTINUOUS
10
1.02093
20
0.851567
11
1.02045
21
0.850407
0
LINE
8
BLACK
6
CONTINUOUS
10
1.02045
20
0.850407
11
1.02045
21
0.85
0
LINE
8
BLACK
6
CONTINUOUS
10
1.02045
20
0.85
11
1.0204
21
0.849714
0
LINE
8
BLACK
6
CONTINUOUS
10
1.0204
20
0.849714
11
1.02093
21
0.848433
0
LINE
8
BLACK
6
CONTINUOUS
10
1.02093
20
0.848433
11
1.0225
21
0.847784
0
LINE
8
BLACK
6
CONTINUOUS
10
1.0225
20
0.847784
11
1.02407
21
0.848433
0
LINE
8
BLACK
6
CONTINUOUS
10
1.02407
20
0.848433
11
1.02472
21
0.85
0
LINE
8
BLACK
6
CONTINUOUS
10
1.02472
20
0.85
11
1.02407
21
0.851567
0
LINE
8
BLACK
6
CONTINUOUS
10
1.02407
20
0.851567
11
1.0225
21
0.852216
0
LINE
8
BLACK
6
CONTINUOUS
10
1.0225
20
0.852216
11
1.02093
21
0.851567
0
LINE
8
BLACK
6
CONTINUOUS
10
0.93851
20
0.912775
11
0.940057
21
0.911476
0
LINE
8
BLACK
6
CONTINUOUS
10
0.940057
20
0.911476
11
0.940408
21
0.909487
0
LINE
8
BLACK
6
CONTINUOUS
10
0.940408
20
0.909487
11
0.939398
21
0.907738
0
LINE
8
BLACK
6
CONTINUOUS
10
0.939398
20
0.907738
11
0.9375
21
0.907047
0
LINE
8
BLACK
6
CONTINUOUS
10
0.9375
20
0.907047
11
0.900453
21
0.907047
0
LINE
8
BLACK
6
CONTINUOUS
10
0.900453
20
0.907047
11
0.900453
21
0.852953
0
LINE
8
BLACK
6
CONTINUOUS
10
0.900453
20
0.852953
11
0.9375
21
0.852953
0
LINE
8
BLACK
6
CONTINUOUS
10
0.9375
20
0.852953
11
0.93851
21
0.852775
0
LINE
8
BLACK
6
CONTINUOUS
10
0.93851
20
0.852775
11
0.940057
21
0.851476
0
LINE
8
BLACK
6
CONTINUOUS
10
0.940057
20
0.851476
11
0.940408
21
0.849487
0
LINE
8
BLACK
6
CONTINUOUS
10
0.940408
20
0.849487
11
0.939398
21
0.847738
0
LINE
8
BLACK
6
CONTINUOUS
10
0.939398
20
0.847738
11
0.9375
21
0.847047
0
LINE
8
BLACK
6
CONTINUOUS
10
0.9375
20
0.847047
11
0.8975
21
0.847047
0
LINE
8
BLACK
6
CONTINUOUS
10
0.8975
20
0.847047
11
0.897116
21
0.847115
0
LINE
8
BLACK
6
CONTINUOUS
10
0.897116
20
0.847115
11
0.896987
21
0.847092
0
LINE
8
BLACK
6
CONTINUOUS
10
0.896987
20
0.847092
11
0.896874
21
0.847158
0
LINE
8
BLACK
6
CONTINUOUS
10
0.896874
20
0.847158
11
0.89649
21
0.847225
0
LINE
8
BLACK
6
CONTINUOUS
10
0.89649
20
0.847225
11
0.895902
21
0.847718
0
LINE
8
BLACK
6
CONTINUOUS
10
0.895902
20
0.847718
11
0.895238
21
0.848102
0
LINE
8
BLACK
6
CONTINUOUS
10
0.895238
20
0.848102
11
0.895147
21
0.848352
0
LINE
8
BLACK
6
CONTINUOUS
10
0.895147
20
0.848352
11
0.894943
21
0.848524
0
LINE
8
BLACK
6
CONTINUOUS
10
0.894943
20
0.848524
11
0.89481
21
0.849279
0
LINE
8
BLACK
6
CONTINUOUS
10
0.89481
20
0.849279
11
0.894547
21
0.85
0
LINE
8
BLACK
6
CONTINUOUS
10
0.894547
20
0.85
11
0.894547
21
0.91
0
LINE
8
BLACK
6
CONTINUOUS
10
0.894547
20
0.91
11
0.894615
21
0.910384
0
LINE
8
BLACK
6
CONTINUOUS
10
0.894615
20
0.910384
11
0.894592
21
0.910513
0
LINE
8
BLACK
6
CONTINUOUS
10
0.894592
20
0.910513
11
0.894658
21
0.910626
0
LINE
8
BLACK
6
CONTINUOUS
10
0.894658
20
0.910626
11
0.894725
21
0.91101
0
LINE
8
BLACK
6
CONTINUOUS
10
0.894725
20
0.91101
11
0.895218
21
0.911598
0
LINE
8
BLACK
6
CONTINUOUS
10
0.895218
20
0.911598
11
0.895602
21
0.912262
0
LINE
8
BLACK
6
CONTINUOUS
10
0.895602
20
0.912262
11
0.895852
21
0.912353
0
LINE
8
BLACK
6
CONTINUOUS
10
0.895852
20
0.912353
11
0.896024
21
0.912557
0
LINE
8
BLACK
6
CONTINUOUS
10
0.896024
20
0.912557
11
0.896779
21
0.91269
0
LINE
8
BLACK
6
CONTINUOUS
10
0.896779
20
0.91269
11
0.8975
21
0.912953
0
LINE
8
BLACK
6
CONTINUOUS
10
0.8975
20
0.912953
11
0.9375
21
0.912953
0
LINE
8
BLACK
6
CONTINUOUS
10
0.9375
20
0.912953
11
0.93851
21
0.912775
0
LINE
8
BLACK
6
CONTINUOUS
10
1.01788
20
0.992885
11
1.01801
21
0.992908
0
LINE
8
BLACK
6
CONTINUOUS
10
1.01801
20
0.992908
11
1.01813
21
0.992842
0
LINE
8
BLACK
6
CONTINUOUS
10
1.01813
20
0.992842
11
1.01851
21
0.992775
0
LINE
8
BLACK
6
CONTINUOUS
10
1.01851
20
0.992775
11
1.0191
21
0.992282
0
LINE
8
BLACK
6
CONTINUOUS
10
1.0191
20
0.992282
11
1.01976
21
0.991898
0
LINE
8
BLACK
6
CONTINUOUS
10
1.01976
20
0.991898
11
1.01985
21
0.991648
0
LINE
8
BLACK
6
CONTINUOUS
10
1.01985
20
0.991648
11
1.02006
21
0.991476
0
LINE
8
BLACK
6
CONTINUOUS
10
1.02006
20
0.991476
11
1.02019
21
0.990721
0
LINE
8
BLACK
6
CONTINUOUS
10
1.02019
20
0.990721
11
1.02045
21
0.99
0
LINE
8
BLACK
6
CONTINUOUS
10
1.02045
20
0.99
11
1.02045
21
0.937618
0
LINE
8
BLACK
6
CONTINUOUS
10
1.02045
20
0.937618
11
1.02074
21
0.937755
0
LINE
8
BLACK
6
CONTINUOUS
10
1.02074
20
0.937755
11
1.02428
21
0.937752
0
LINE
8
BLACK
6
CONTINUOUS
10
1.02428
20
0.937752
11
1.02746
21
0.936215
0
LINE
8
BLACK
6
CONTINUOUS
10
1.02746
20
0.936215
11
1.02967
21
0.933449
0
LINE
8
BLACK
6
CONTINUOUS
10
1.02967
20
0.933449
11
1.03045
21
0.93
0
LINE
8
BLACK
6
CONTINUOUS
10
1.03045
20
0.93
11
1.03045
21
0.929972
0
LINE
8
BLACK
6
CONTINUOUS
10
1.03045
20
0.929972
11
1.02965
21
0.926526
0
LINE
8
BLACK
6
CONTINUOUS
10
1.02965
20
0.926526
11
1.02744
21
0.923767
0
LINE
8
BLACK
6
CONTINUOUS
10
1.02744
20
0.923767
11
1.02425
21
0.922242
0
LINE
8
BLACK
6
CONTINUOUS
10
1.02425
20
0.922242
11
1.02071
21
0.922251
0
LINE
8
BLACK
6
CONTINUOUS
10
1.02071
20
0.922251
11
1.01753
21
0.923793
0
LINE
8
BLACK
6
CONTINUOUS
10
1.01753
20
0.923793
11
1.01533
21
0.926564
0
LINE
8
BLACK
6
CONTINUOUS
10
1.01533
20
0.926564
11
1.01522
21
0.927047
0
LINE
8
BLACK
6
CONTINUOUS
10
1.01522
20
0.927047
11
0.9775
21
0.927047
0
LINE
8
BLACK
6
CONTINUOUS
10
0.9775
20
0.927047
11
0.97649
21
0.927225
0
LINE
8
BLACK
6
CONTINUOUS
10
0.97649
20
0.927225
11
0.974943
21
0.928524
0
LINE
8
BLACK
6
CONTINUOUS
10
0.974943
20
0.928524
11
0.974592
21
0.930513
0
LINE
8
BLACK
6
CONTINUOUS
10
0.974592
20
0.930513
11
0.975602
21
0.932262
0
LINE
8
BLACK
6
CONTINUOUS
10
0.975602
20
0.932262
11
0.9775
21
0.932953
0
LINE
8
BLACK
6
CONTINUOUS
10
0.9775
20
0.932953
11
1.01455
21
0.932953
0
LINE
8
BLACK
6
CONTINUOUS
10
1.01455
20
0.932953
11
1.01455
21
0.987047
0
LINE
8
BLACK
6
CONTINUOUS
10
1.01455
20
0.987047
11
0.9775
21
0.987047
0
LINE
8
BLACK
6
CONTINUOUS
10
0.9775
20
0.987047
11
0.97649
21
0.987225
0
LINE
8
BLACK
6
CONTINUOUS
10
0.97649
20
0.987225
11
0.974943
21
0.988524
0
LINE
8
BLACK
6
CONTINUOUS
10
0.974943
20
0.988524
11
0.974592
21
0.990513
0
LINE
8
BLACK
6
CONTINUOUS
10
0.974592
20
0.990513
11
0.975602
21
0.992262
0
LINE
8
BLACK
6
CONTINUOUS
10
0.975602
20
0.992262
11
0.9775
21
0.992953
0
LINE
8
BLACK
6
CONTINUOUS
10
0.9775
20
0.992953
11
1.0175
21
0.992953
0
LINE
8
BLACK
6
CONTINUOUS
10
1.0175
20
0.992953
11
1.01788
21
0.992885
0
LINE
8
BLACK
6
CONTINUOUS
10
1.02093
20
0.931567
11
1.02045
21
0.930407
0
LINE
8
BLACK
6
CONTINUOUS
10
1.02045
20
0.930407
11
1.02045
21
0.93
0
LINE
8
BLACK
6
CONTINUOUS
10
1.02045
20
0.93
11
1.0204
21
0.929714
0
LINE
8
BLACK
6
CONTINUOUS
10
1.0204
20
0.929714
11
1.02093
21
0.928433
0
LINE
8
BLACK
6
CONTINUOUS
10
1.02093
20
0.928433
11
1.0225
21
0.927784
0
LINE
8
BLACK
6
CONTINUOUS
10
1.0225
20
0.927784
11
1.02407
21
0.928433
0
LINE
8
BLACK
6
CONTINUOUS
10
1.02407
20
0.928433
11
1.02472
21
0.93
0
LINE
8
BLACK
6
CONTINUOUS
10
1.02472
20
0.93
11
1.02407
21
0.931567
0
LINE
8
BLACK
6
CONTINUOUS
10
1.02407
20
0.931567
11
1.0225
21
0.932216
0
LINE
8
BLACK
6
CONTINUOUS
10
1.0225
20
0.932216
11
1.02093
21
0.931567
0
LINE
8
BLACK
6
CONTINUOUS
10
0.677884
20
0.992885
11
0.678013
21
0.992908
0
LINE
8
BLACK
6
CONTINUOUS
10
0.678013
20
0.992908
11
0.678126
21
0.992842
0
LINE
8
BLACK
6
CONTINUOUS
10
0.678126
20
0.992842
11
0.67851
21
0.992775
0
LINE
8
BLACK
6
CONTINUOUS
10
0.67851
20
0.992775
11
0.679098
21
0.992282
0
LINE
8
BLACK
6
CONTINUOUS
10
0.679098
20
0.992282
11
0.679762
21
0.991898
0
LINE
8
BLACK
6
CONTINUOUS
10
0.679762
20
0.991898
11
0.679853
21
0.991648
0
LINE
8
BLACK
6
CONTINUOUS
10
0.679853
20
0.991648
11
0.680057
21
0.991476
0
LINE
8
BLACK
6
CONTINUOUS
10
0.680057
20
0.991476
11
0.68019
21
0.990721
0
LINE
8
BLACK
6
CONTINUOUS
10
0.68019
20
0.990721
11
0.680453
21
0.99
0
LINE
8
BLACK
6
CONTINUOUS
10
0.680453
20
0.99
11
0.680453
21
0.937618
0
LINE
8
BLACK
6
CONTINUOUS
10
0.680453
20
0.937618
11
0.680738
21
0.937755
0
LINE
8
BLACK
6
CONTINUOUS
10
0.680738
20
0.937755
11
0.684275
21
0.937752
0
LINE
8
BLACK
6
CONTINUOUS
10
0.684275
20
0.937752
11
0.687462
21
0.936215
0
LINE
8
BLACK
6
CONTINUOUS
10
0.687462
20
0.936215
11
0.689666
21
0.933449
0
LINE
8
BLACK
6
CONTINUOUS
10
0.689666
20
0.933449
11
0.690453
21
0.93
0
LINE
8
BLACK
6
CONTINUOUS
10
0.690453
20
0.93
11
0.690453
21
0.929972
0
LINE
8
BLACK
6
CONTINUOUS
10
0.690453
20
0.929972
11
0.689654
21
0.926526
0
LINE
8
BLACK
6
CONTINUOUS
10
0.689654
20
0.926526
11
0.68744
21
0.923767
0
LINE
8
BLACK
6
CONTINUOUS
10
0.68744
20
0.923767
11
0.684248
21
0.922242
0
LINE
8
BLACK
6
CONTINUOUS
10
0.684248
20
0.922242
11
0.680711
21
0.922251
0
LINE
8
BLACK
6
CONTINUOUS
10
0.680711
20
0.922251
11
0.677528
21
0.923793
0
LINE
8
BLACK
6
CONTINUOUS
10
0.677528
20
0.923793
11
0.675328
21
0.926564
0
LINE
8
BLACK
6
CONTINUOUS
10
0.675328
20
0.926564
11
0.675219
21
0.927047
0
LINE
8
BLACK
6
CONTINUOUS
10
0.675219
20
0.927047
11
0.6375
21
0.927047
0
LINE
8
BLACK
6
CONTINUOUS
10
0.6375
20
0.927047
11
0.63649
21
0.927225
0
LINE
8
BLACK
6
CONTINUOUS
10
0.63649
20
0.927225
11
0.634943
21
0.928524
0
LINE
8
BLACK
6
CONTINUOUS
10
0.634943
20
0.928524
11
0.634592
21
0.930513
0
LINE
8
BLACK
6
CONTINUOUS
10
0.634592
20
0.930513
11
0.635602
21
0.932262
0
LINE
8
BLACK
6
CONTINUOUS
10
0.635602
20
0.932262
11
0.6375
21
0.932953
0
LINE
8
BLACK
6
CONTINUOUS
10
0.6375
20
0.932953
11
0.674547
21
0.932953
0
LINE
8
BLACK
6
CONTINUOUS
10
0.674547
20
0.932953
11
0.674547
21
0.987047
0
LINE
8
BLACK
6
CONTINUOUS
10
0.674547
20
0.987047
11
0.6375
21
0.987047
0
LINE
8
BLACK
6
CONTINUOUS
10
0.6375
20
0.987047
11
0.63649
21
0.987225
0
LINE
8
BLACK
6
CONTINUOUS
10
0.63649
20
0.987225
11
0.634943
21
0.988524
0
LINE
8
BLACK
6
CONTINUOUS
10
0.634943
20
0.988524
11
0.634592
21
0.990513
0
LINE
8
BLACK
6
CONTINUOUS
10
0.634592
20
0.990513
11
0.635602
21
0.992262
0
LINE
8
BLACK
6
CONTINUOUS
10
0.635602
20
0.992262
11
0.6375
21
0.992953
0
LINE
8
BLACK
6
CONTINUOUS
10
0.6375
20
0.992953
11
0.6775
21
0.992953
0
LINE
8
BLACK
6
CONTINUOUS
10
0.6775
20
0.992953
11
0.677884
21
0.992885
0
LINE
8
BLACK
6
CONTINUOUS
10
0.680933
20
0.931567
11
0.680453
21
0.930407
0
LINE
8
BLACK
6
CONTINUOUS
10
0.680453
20
0.930407
11
0.680453
21
0.93
0
LINE
8
BLACK
6
CONTINUOUS
10
0.680453
20
0.93
11
0.680402
21
0.929714
0
LINE
8
BLACK
6
CONTINUOUS
10
0.680402
20
0.929714
11
0.680933
21
0.928433
0
LINE
8
BLACK
6
CONTINUOUS
10
0.680933
20
0.928433
11
0.6825
21
0.927784
0
LINE
8
BLACK
6
CONTINUOUS
10
0.6825
20
0.927784
11
0.684067
21
0.928433
0
LINE
8
BLACK
6
CONTINUOUS
10
0.684067
20
0.928433
11
0.684716
21
0.93
0
LINE
8
BLACK
6
CONTINUOUS
10
0.684716
20
0.93
11
0.684067
21
0.931567
0
LINE
8
BLACK
6
CONTINUOUS
10
0.684067
20
0.931567
11
0.6825
21
0.932216
0
LINE
8
BLACK
6
CONTINUOUS
10
0.6825
20
0.932216
11
0.680933
21
0.931567
0
LINE
8
BLACK
6
CONTINUOUS
10
0.59851
20
0.992775
11
0.600057
21
0.991476
0
LINE
8
BLACK
6
CONTINUOUS
10
0.600057
20
0.991476
11
0.600408
21
0.989487
0
LINE
8
BLACK
6
CONTINUOUS
10
0.600408
20
0.989487
11
0.599398
21
0.987738
0
LINE
8
BLACK
6
CONTINUOUS
10
0.599398
20
0.987738
11
0.5975
21
0.987047
0
LINE
8
BLACK
6
CONTINUOUS
10
0.5975
20
0.987047
11
0.560453
21
0.987047
0
LINE
8
BLACK
6
CONTINUOUS
10
0.560453
20
0.987047
11
0.560453
21
0.932953
0
LINE
8
BLACK
6
CONTINUOUS
10
0.560453
20
0.932953
11
0.5975
21
0.932953
0
LINE
8
BLACK
6
CONTINUOUS
10
0.5975
20
0.932953
11
0.59851
21
0.932775
0
LINE
8
BLACK
6
CONTINUOUS
10
0.59851
20
0.932775
11
0.600057
21
0.931476
0
LINE
8
BLACK
6
CONTINUOUS
10
0.600057
20
0.931476
11
0.600408
21
0.929487
0
LINE
8
BLACK
6
CONTINUOUS
10
0.600408
20
0.929487
11
0.599398
21
0.927738
0
LINE
8
BLACK
6
CONTINUOUS
10
0.599398
20
0.927738
11
0.5975
21
0.927047
0
LINE
8
BLACK
6
CONTINUOUS
10
0.5975
20
0.927047
11
0.5575
21
0.927047
0
LINE
8
BLACK
6
CONTINUOUS
10
0.5575
20
0.927047
11
0.557116
21
0.927115
0
LINE
8
BLACK
6
CONTINUOUS
10
0.557116
20
0.927115
11
0.556987
21
0.927092
0
LINE
8
BLACK
6
CONTINUOUS
10
0.556987
20
0.927092
11
0.556874
21
0.927158
0
LINE
8
BLACK
6
CONTINUOUS
10
0.556874
20
0.927158
11
0.55649
21
0.927225
0
LINE
8
BLACK
6
CONTINUOUS
10
0.55649
20
0.927225
11
0.555902
21
0.927718
0
LINE
8
BLACK
6
CONTINUOUS
10
0.555902
20
0.927718
11
0.555238
21
0.928102
0
LINE
8
BLACK
6
CONTINUOUS
10
0.555238
20
0.928102
11
0.555147
21
0.928352
0
LINE
8
BLACK
6
CONTINUOUS
10
0.555147
20
0.928352
11
0.554943
21
0.928524
0
LINE
8
BLACK
6
CONTINUOUS
10
0.554943
20
0.928524
11
0.55481
21
0.929279
0
LINE
8
BLACK
6
CONTINUOUS
10
0.55481
20
0.929279
11
0.554547
21
0.93
0
LINE
8
BLACK
6
CONTINUOUS
10
0.554547
20
0.93
11
0.554547
21
0.99
0
LINE
8
BLACK
6
CONTINUOUS
10
0.554547
20
0.99
11
0.554615
21
0.990384
0
LINE
8
BLACK
6
CONTINUOUS
10
0.554615
20
0.990384
11
0.554592
21
0.990513
0
LINE
8
BLACK
6
CONTINUOUS
10
0.554592
20
0.990513
11
0.554658
21
0.990626
0
LINE
8
BLACK
6
CONTINUOUS
10
0.554658
20
0.990626
11
0.554725
21
0.99101
0
LINE
8
BLACK
6
CONTINUOUS
10
0.554725
20
0.99101
11
0.555218
21
0.991598
0
LINE
8
BLACK
6
CONTINUOUS
10
0.555218
20
0.991598
11
0.555602
21
0.992262
0
LINE
8
BLACK
6
CONTINUOUS
10
0.555602
20
0.992262
11
0.555852
21
0.992353
0
LINE
8
BLACK
6
CONTINUOUS
10
0.555852
20
0.992353
11
0.556024
21
0.992557
0
LINE
8
BLACK
6
CONTINUOUS
10
0.556024
20
0.992557
11
0.556779
21
0.99269
0
LINE
8
BLACK
6
CONTINUOUS
10
0.556779
20
0.99269
11
0.5575
21
0.992953
0
LINE
8
BLACK
6
CONTINUOUS
10
0.5575
20
0.992953
11
0.5975
21
0.992953
0
LINE
8
BLACK
6
CONTINUOUS
10
0.5975
20
0.992953
11
0.59851
21
0.992775
0
LINE
8
BLACK
6
CONTINUOUS
10
0.93851
20
0.992775
11
0.940057
21
0.991476
0
LINE
8
BLACK
6
CONTINUOUS
10
0.940057
20
0.991476
11
0.940408
21
0.989487
0
LINE
8
BLACK
6
CONTINUOUS
10
0.940408
20
0.989487
11
0.939398
21
0.987738
0
LINE
8
BLACK
6
CONTINUOUS
10
0.939398
20
0.987738
11
0.9375
21
0.987047
0
LINE
8
BLACK
6
CONTINUOUS
10
0.9375
20
0.987047
11
0.900453
21
0.987047
0
LINE
8
BLACK
6
CONTINUOUS
10
0.900453
20
0.987047
11
0.900453
21
0.932953
0
LINE
8
BLACK
6
CONTINUOUS
10
0.900453
20
0.932953
11
0.9375
21
0.932953
0
LINE
8
BLACK
6
CONTINUOUS
10
0.9375
20
0.932953
11
0.93851
21
0.932775
0
LINE
8
BLACK
6
CONTINUOUS
10
0.93851
20
0.932775
11
0.940057
21
0.931476
0
LINE
8
BLACK
6
CONTINUOUS
10
0.940057
20
0.931476
11
0.940408
21
0.929487
0
LINE
8
BLACK
6
CONTINUOUS
10
0.940408
20
0.929487
11
0.939398
21
0.927738
0
LINE
8
BLACK
6
CONTINUOUS
10
0.939398
20
0.927738
11
0.9375
21
0.927047
0
LINE
8
BLACK
6
CONTINUOUS
10
0.9375
20
0.927047
11
0.8975
21
0.927047
0
LINE
8
BLACK
6
CONTINUOUS
10
0.8975
20
0.927047
11
0.897116
21
0.927115
0
LINE
8
BLACK
6
CONTINUOUS
10
0.897116
20
0.927115
11
0.896987
21
0.927092
0
LINE
8
BLACK
6
CONTINUOUS
10
0.896987
20
0.927092
11
0.896874
21
0.927158
0
LINE
8
BLACK
6
CONTINUOUS
10
0.896874
20
0.927158
11
0.89649
21
0.927225
0
LINE
8
BLACK
6
CONTINUOUS
10
0.89649
20
0.927225
11
0.895902
21
0.927718
0
LINE
8
BLACK
6
CONTINUOUS
10
0.895902
20
0.927718
11
0.895238
21
0.928102
0
LINE
8
BLACK
6
CONTINUOUS
10
0.895238
20
0.928102
11
0.895147
21
0.928352
0
LINE
8
BLACK
6
CONTINUOUS
10
0.895147
20
0.928352
11
0.894943
21
0.928524
0
LINE
8
BLACK
6
CONTINUOUS
10
0.894943
20
0.928524
11
0.89481
21
0.929279
0
LINE
8
BLACK
6
CONTINUOUS
10
0.89481
20
0.929279
11
0.894547
21
0.93
0
LINE
8
BLACK
6
CONTINUOUS
10
0.894547
20
0.93
11
0.894547
21
0.99
0
LINE
8
BLACK
6
CONTINUOUS
10
0.894547
20
0.99
11
0.894615
21
0.990384
0
LINE
8
BLACK
6
CONTINUOUS
10
0.894615
20
0.990384
11
0.894592
21
0.990513
0
LINE
8
BLACK
6
CONTINUOUS
10
0.894592
20
0.990513
11
0.894658
21
0.990626
0
LINE
8
BLACK
6
CONTINUOUS
10
0.894658
20
0.990626
11
0.894725
21
0.99101
0
LINE
8
BLACK
6
CONTINUOUS
10
0.894725
20
0.99101
11
0.895218
21
0.991598
0
LINE
8
BLACK
6
CONTINUOUS
10
0.895218
20
0.991598
11
0.895602
21
0.992262
0
LINE
8
BLACK
6
CONTINUOUS
10
0.895602
20
0.992262
11
0.895852
21
0.992353
0
LINE
8
BLACK
6
CONTINUOUS
10
0.895852
20
0.992353
11
0.896024
21
0.992557
0
LINE
8
BLACK
6
CONTINUOUS
10
0.896024
20
0.992557
11
0.896779
21
0.99269
0
LINE
8
BLACK
6
CONTINUOUS
10
0.896779
20
0.99269
11
0.8975
21
0.992953
0
LINE
8
BLACK
6
CONTINUOUS
10
0.8975
20
0.992953
11
0.9375
21
0.992953
0
LINE
8
BLACK
6
CONTINUOUS
10
0.9375
20
0.992953
11
0.93851
21
0.992775
0
LINE
8
BLACK
6
CONTINUOUS
10
0.365844
20
1.08939
11
0.366535
21
1.08772
0
LINE
8
BLACK
6
CONTINUOUS
10
0.366535
20
1.08772
11
0.366535
21
1.02472
0
LINE
8
BLACK
6
CONTINUOUS
10
0.366535
20
1.02472
11
0.365844
21
1.02305
0
LINE
8
BLACK
6
CONTINUOUS
10
0.365844
20
1.02305
11
0.364173
21
1.02236
0
LINE
8
BLACK
6
CONTINUOUS
10
0.364173
20
1.02236
11
0.362503
21
1.02305
0
LINE
8
BLACK
6
CONTINUOUS
10
0.362503
20
1.02305
11
0.361811
21
1.02472
0
LINE
8
BLACK
6
CONTINUOUS
10
0.361811
20
1.02472
11
0.361811
21
1.08772
0
LINE
8
BLACK
6
CONTINUOUS
10
0.361811
20
1.08772
11
0.362503
21
1.08939
0
LINE
8
BLACK
6
CONTINUOUS
10
0.362503
20
1.08939
11
0.364173
21
1.09008
0
LINE
8
BLACK
6
CONTINUOUS
10
0.364173
20
1.09008
11
0.365844
21
1.08939
0
LINE
8
BLACK
6
CONTINUOUS
10
1.6375
20
1.08939
11
1.63819
21
1.08772
0
LINE
8
BLACK
6
CONTINUOUS
10
1.63819
20
1.08772
11
1.63819
21
1.02472
0
LINE
8
BLACK
6
CONTINUOUS
10
1.63819
20
1.02472
11
1.6375
21
1.02305
0
LINE
8
BLACK
6
CONTINUOUS
10
1.6375
20
1.02305
11
1.63583
21
1.02236
0
LINE
8
BLACK
6
CONTINUOUS
10
1.63583
20
1.02236
11
1.63416
21
1.02305
0
LINE
8
BLACK
6
CONTINUOUS
10
1.63416
20
1.02305
11
1.63346
21
1.02472
0
LINE
8
BLACK
6
CONTINUOUS
10
1.63346
20
1.02472
11
1.63346
21
1.08772
0
LINE
8
BLACK
6
CONTINUOUS
10
1.63346
20
1.08772
11
1.63416
21
1.08939
0
LINE
8
BLACK
6
CONTINUOUS
10
1.63416
20
1.08939
11
1.63583
21
1.09008
0
LINE
8
BLACK
6
CONTINUOUS
10
1.63583
20
1.09008
11
1.6375
21
1.08939
0
LINE
8
BLACK
6
CONTINUOUS
10
0.837103
20
1.03828
11
0.837795
21
1.03661
0
LINE
8
BLACK
6
CONTINUOUS
10
0.837795
20
1.03661
11
0.837103
21
1.03494
0
LINE
8
BLACK
6
CONTINUOUS
10
0.837103
20
1.03494
11
0.835433
21
1.03425
0
LINE
8
BLACK
6
CONTINUOUS
10
0.835433
20
1.03425
11
0.738976
21
1.03425
0
LINE
8
BLACK
6
CONTINUOUS
10
0.738976
20
1.03425
11
0.737306
21
1.03494
0
LINE
8
BLACK
6
CONTINUOUS
10
0.737306
20
1.03494
11
0.736614
21
1.03661
0
LINE
8
BLACK
6
CONTINUOUS
10
0.736614
20
1.03661
11
0.737306
21
1.03828
0
LINE
8
BLACK
6
CONTINUOUS
10
0.737306
20
1.03828
11
0.738976
21
1.03898
0
LINE
8
BLACK
6
CONTINUOUS
10
0.738976
20
1.03898
11
0.835433
21
1.03898
0
LINE
8
BLACK
6
CONTINUOUS
10
0.835433
20
1.03898
11
0.837103
21
1.03828
0
LINE
8
BLACK
6
CONTINUOUS
10
1.19226
20
1.0794
11
1.19295
21
1.0775
0
LINE
8
BLACK
6
CONTINUOUS
10
1.19295
20
1.0775
11
1.19295
21
1.0375
0
LINE
8
BLACK
6
CONTINUOUS
10
1.19295
20
1.0375
11
1.19289
21
1.03712
0
LINE
8
BLACK
6
CONTINUOUS
10
1.19289
20
1.03712
11
1.19291
21
1.03699
0
LINE
8
BLACK
6
CONTINUOUS
10
1.19291
20
1.03699
11
1.19284
21
1.03687
0
LINE
8
BLACK
6
CONTINUOUS
10
1.19284
20
1.03687
11
1.19277
21
1.03649
0
LINE
8
BLACK
6
CONTINUOUS
10
1.19277
20
1.03649
11
1.19228
21
1.0359
0
LINE
8
BLACK
6
CONTINUOUS
10
1.19228
20
1.0359
11
1.1919
21
1.03524
0
LINE
8
BLACK
6
CONTINUOUS
10
1.1919
20
1.03524
11
1.19165
21
1.03515
0
LINE
8
BLACK
6
CONTINUOUS
10
1.19165
20
1.03515
11
1.19148
21
1.03494
0
LINE
8
BLACK
6
CONTINUOUS
10
1.19148
20
1.03494
11
1.19072
21
1.03481
0
LINE
8
BLACK
6
CONTINUOUS
10
1.19072
20
1.03481
11
1.19
21
1.03455
0
LINE
8
BLACK
6
CONTINUOUS
10
1.19
20
1.03455
11
1.13
21
1.03455
0
LINE
8
BLACK
6
CONTINUOUS
10
1.13
20
1.03455
11
1.12962
21
1.03461
0
LINE
8
BLACK
6
CONTINUOUS
10
1.12962
20
1.03461
11
1.12949
21
1.03459
0
LINE
8
BLACK
6
CONTINUOUS
10
1.12949
20
1.03459
11
1.12937
21
1.03466
0
LINE
8
BLACK
6
CONTINUOUS
10
1.12937
20
1.03466
11
1.12899
21
1.03473
0
LINE
8
BLACK
6
CONTINUOUS
10
1.12899
20
1.03473
11
1.1284
21
1.03522
0
LINE
8
BLACK
6
CONTINUOUS
10
1.1284
20
1.03522
11
1.12774
21
1.0356
0
LINE
8
BLACK
6
CONTINUOUS
10
1.12774
20
1.0356
11
1.12765
21
1.03585
0
LINE
8
BLACK
6
CONTINUOUS
10
1.12765
20
1.03585
11
1.12744
21
1.03602
0
LINE
8
BLACK
6
CONTINUOUS
10
1.12744
20
1.03602
11
1.12731
21
1.03678
0
LINE
8
BLACK
6
CONTINUOUS
10
1.12731
20
1.03678
11
1.12705
21
1.0375
0
LINE
8
BLACK
6
CONTINUOUS
10
1.12705
20
1.0375
11
1.12705
21
1.0775
0
LINE
8
BLACK
6
CONTINUOUS
10
1.12705
20
1.0775
11
1.12723
21
1.07851
0
LINE
8
BLACK
6
CONTINUOUS
10
1.12723
20
1.07851
11
1.12852
21
1.08006
0
LINE
8
BLACK
6
CONTINUOUS
10
1.12852
20
1.08006
11
1.13051
21
1.08041
0
LINE
8
BLACK
6
CONTINUOUS
10
1.13051
20
1.08041
11
1.13226
21
1.0794
0
LINE
8
BLACK
6
CONTINUOUS
10
1.13226
20
1.0794
11
1.13295
21
1.0775
0
LINE
8
BLACK
6
CONTINUOUS
10
1.13295
20
1.0775
11
1.13295
21
1.04045
0
LINE
8
BLACK
6
CONTINUOUS
10
1.13295
20
1.04045
11
1.18705
21
1.04045
0
LINE
8
BLACK
6
CONTINUOUS
10
1.18705
20
1.04045
11
1.18705
21
1.0775
0
LINE
8
BLACK
6
CONTINUOUS
10
1.18705
20
1.0775
11
1.18723
21
1.07851
0
LINE
8
BLACK
6
CONTINUOUS
10
1.18723
20
1.07851
11
1.18852
21
1.08006
0
LINE
8
BLACK
6
CONTINUOUS
10
1.18852
20
1.08006
11
1.19051
21
1.08041
0
LINE
8
BLACK
6
CONTINUOUS
10
1.19051
20
1.08041
11
1.19226
21
1.0794
0
LINE
8
BLACK
6
CONTINUOUS
10
1.08288
20
1.11289
11
1.08301
21
1.11291
0
LINE
8
BLACK
6
CONTINUOUS
10
1.08301
20
1.11291
11
1.08313
21
1.11284
0
LINE
8
BLACK
6
CONTINUOUS
10
1.08313
20
1.11284
11
1.08351
21
1.11277
0
LINE
8
BLACK
6
CONTINUOUS
10
1.08351
20
1.11277
11
1.0841
21
1.11228
0
LINE
8
BLACK
6
CONTINUOUS
10
1.0841
20
1.11228
11
1.08476
21
1.1119
0
LINE
8
BLACK
6
CONTINUOUS
10
1.08476
20
1.1119
11
1.08485
21
1.11165
0
LINE
8
BLACK
6
CONTINUOUS
10
1.08485
20
1.11165
11
1.08506
21
1.11148
0
LINE
8
BLACK
6
CONTINUOUS
10
1.08506
20
1.11148
11
1.08519
21
1.11072
0
LINE
8
BLACK
6
CONTINUOUS
10
1.08519
20
1.11072
11
1.08545
21
1.11
0
LINE
8
BLACK
6
CONTINUOUS
10
1.08545
20
1.11
11
1.08545
21
1.05
0
LINE
8
BLACK
6
CONTINUOUS
10
1.08545
20
1.05
11
1.08539
21
1.04962
0
LINE
8
BLACK
6
CONTINUOUS
10
1.08539
20
1.04962
11
1.08541
21
1.04949
0
LINE
8
BLACK
6
CONTINUOUS
10
1.08541
20
1.04949
11
1.08534
21
1.04937
0
LINE
8
BLACK
6
CONTINUOUS
10
1.08534
20
1.04937
11
1.08527
21
1.04899
0
LINE
8
BLACK
6
CONTINUOUS
10
1.08527
20
1.04899
11
1.08478
21
1.0484
0
LINE
8
BLACK
6
CONTINUOUS
10
1.08478
20
1.0484
11
1.0844
21
1.04774
0
LINE
8
BLACK
6
CONTINUOUS
10
1.0844
20
1.04774
11
1.08415
21
1.04765
0
LINE
8
BLACK
6
CONTINUOUS
10
1.08415
20
1.04765
11
1.08398
21
1.04744
0
LINE
8
BLACK
6
CONTINUOUS
10
1.08398
20
1.04744
11
1.08322
21
1.04731
0
LINE
8
BLACK
6
CONTINUOUS
10
1.08322
20
1.04731
11
1.0825
21
1.04705
0
LINE
8
BLACK
6
CONTINUOUS
10
1.0825
20
1.04705
11
1.0425
21
1.04705
0
LINE
8
BLACK
6
CONTINUOUS
10
1.0425
20
1.04705
11
1.04149
21
1.04723
0
LINE
8
BLACK
6
CONTINUOUS
10
1.04149
20
1.04723
11
1.03994
21
1.04852
0
LINE
8
BLACK
6
CONTINUOUS
10
1.03994
20
1.04852
11
1.03959
21
1.05051
0
LINE
8
BLACK
6
CONTINUOUS
10
1.03959
20
1.05051
11
1.0406
21
1.05226
0
LINE
8
BLACK
6
CONTINUOUS
10
1.0406
20
1.05226
11
1.0425
21
1.05295
0
LINE
8
BLACK
6
CONTINUOUS
10
1.0425
20
1.05295
11
1.07955
21
1.05295
0
LINE
8
BLACK
6
CONTINUOUS
10
1.07955
20
1.05295
11
1.07955
21
1.10705
0
LINE
8
BLACK
6
CONTINUOUS
10
1.07955
20
1.10705
11
1.0425
21
1.10705
0
LINE
8
BLACK
6
CONTINUOUS
10
1.0425
20
1.10705
11
1.04149
21
1.10723
0
LINE
8
BLACK
6
CONTINUOUS
10
1.04149
20
1.10723
11
1.03994
21
1.10852
0
LINE
8
BLACK
6
CONTINUOUS
10
1.03994
20
1.10852
11
1.03959
21
1.11051
0
LINE
8
BLACK
6
CONTINUOUS
10
1.03959
20
1.11051
11
1.0406
21
1.11226
0
LINE
8
BLACK
6
CONTINUOUS
10
1.0406
20
1.11226
11
1.0425
21
1.11295
0
LINE
8
BLACK
6
CONTINUOUS
10
1.0425
20
1.11295
11
1.0825
21
1.11295
0
LINE
8
BLACK
6
CONTINUOUS
10
1.0825
20
1.11295
11
1.08288
21
1.11289
0
LINE
8
BLACK
6
CONTINUOUS
10
0.837103
20
1.16506
11
0.837795
21
1.16339
0
LINE
8
BLACK
6
CONTINUOUS
10
0.837795
20
1.16339
11
0.837103
21
1.16172
0
LINE
8
BLACK
6
CONTINUOUS
10
0.837103
20
1.16172
11
0.835433
21
1.16102
0
LINE
8
BLACK
6
CONTINUOUS
10
0.835433
20
1.16102
11
0.764567
21
1.16102
0
LINE
8
BLACK
6
CONTINUOUS
10
0.764567
20
1.16102
11
0.762897
21
1.16172
0
LINE
8
BLACK
6
CONTINUOUS
10
0.762897
20
1.16172
11
0.762205
21
1.16339
0
LINE
8
BLACK
6
CONTINUOUS
10
0.762205
20
1.16339
11
0.762897
21
1.16506
0
LINE
8
BLACK
6
CONTINUOUS
10
0.762897
20
1.16506
11
0.764567
21
1.16575
0
LINE
8
BLACK
6
CONTINUOUS
10
0.764567
20
1.16575
11
0.835433
21
1.16575
0
LINE
8
BLACK
6
CONTINUOUS
10
0.835433
20
1.16575
11
0.837103
21
1.16506
0
LINE
8
BLACK
6
CONTINUOUS
10
0.833046
20
1.22385
11
0.833736
21
1.22195
0
LINE
8
BLACK
6
CONTINUOUS
10
0.833736
20
1.22195
11
0.833736
21
1.19008
0
LINE
8
BLACK
6
CONTINUOUS
10
0.833736
20
1.19008
11
0.833558
21
1.18907
0
LINE
8
BLACK
6
CONTINUOUS
10
0.833558
20
1.18907
11
0.833445
21
1.18894
0
LINE
8
BLACK
6
CONTINUOUS
10
0.833445
20
1.18894
11
0.833425
21
1.18876
0
LINE
8
BLACK
6
CONTINUOUS
10
0.833425
20
1.18876
11
0.83155
21
1.18501
0
LINE
8
BLACK
6
CONTINUOUS
10
0.83155
20
1.18501
11
0.831024
21
1.1843
0
LINE
8
BLACK
6
CONTINUOUS
10
0.831024
20
1.1843
11
0.830997
21
1.18425
0
LINE
8
BLACK
6
CONTINUOUS
10
0.830997
20
1.18425
11
0.829122
21
1.18237
0
LINE
8
BLACK
6
CONTINUOUS
10
0.829122
20
1.18237
11
0.828399
21
1.18186
0
LINE
8
BLACK
6
CONTINUOUS
10
0.828399
20
1.18186
11
0.828355
21
1.18182
0
LINE
8
BLACK
6
CONTINUOUS
10
0.828355
20
1.18182
11
0.824605
21
1.17994
0
LINE
8
BLACK
6
CONTINUOUS
10
0.824605
20
1.17994
11
0.823622
21
1.17965
0
LINE
8
BLACK
6
CONTINUOUS
10
0.823622
20
1.17965
11
0.82345
21
1.17969
0
LINE
8
BLACK
6
CONTINUOUS
10
0.82345
20
1.17969
11
0.823285
21
1.17963
0
LINE
8
BLACK
6
CONTINUOUS
10
0.823285
20
1.17963
11
0.815786
21
1.17963
0
LINE
8
BLACK
6
CONTINUOUS
10
0.815786
20
1.17963
11
0.814776
21
1.17981
0
LINE
8
BLACK
6
CONTINUOUS
10
0.814776
20
1.17981
11
0.81464
21
1.17992
0
LINE
8
BLACK
6
CONTINUOUS
10
0.81464
20
1.17992
11
0.814465
21
1.17994
0
LINE
8
BLACK
6
CONTINUOUS
10
0.814465
20
1.17994
11
0.810715
21
1.18182
0
LINE
8
BLACK
6
CONTINUOUS
10
0.810715
20
1.18182
11
0.810006
21
1.18234
0
LINE
8
BLACK
6
CONTINUOUS
10
0.810006
20
1.18234
11
0.809948
21
1.18237
0
LINE
8
BLACK
6
CONTINUOUS
10
0.809948
20
1.18237
11
0.808073
21
1.18425
0
LINE
8
BLACK
6
CONTINUOUS
10
0.808073
20
1.18425
11
0.807567
21
1.18497
0
LINE
8
BLACK
6
CONTINUOUS
10
0.807567
20
1.18497
11
0.80752
21
1.18501
0
LINE
8
BLACK
6
CONTINUOUS
10
0.80752
20
1.18501
11
0.805645
21
1.18876
0
LINE
8
BLACK
6
CONTINUOUS
10
0.805645
20
1.18876
11
0.805353
21
1.18974
0
LINE
8
BLACK
6
CONTINUOUS
10
0.805353
20
1.18974
11
0.805394
21
1.18992
0
LINE
8
BLACK
6
CONTINUOUS
10
0.805394
20
1.18992
11
0.805334
21
1.19008
0
LINE
8
BLACK
6
CONTINUOUS
10
0.805334
20
1.19008
11
0.805334
21
1.22195
0
LINE
8
BLACK
6
CONTINUOUS
10
0.805334
20
1.22195
11
0.805512
21
1.22296
0
LINE
8
BLACK
6
CONTINUOUS
10
0.805512
20
1.22296
11
0.80681
21
1.22451
0
LINE
8
BLACK
6
CONTINUOUS
10
0.80681
20
1.22451
11
0.808799
21
1.22486
0
LINE
8
BLACK
6
CONTINUOUS
10
0.808799
20
1.22486
11
0.810548
21
1.22385
0
LINE
8
BLACK
6
CONTINUOUS
10
0.810548
20
1.22385
11
0.811239
21
1.22195
0
LINE
8
BLACK
6
CONTINUOUS
10
0.811239
20
1.22195
11
0.811239
21
1.19078
0
LINE
8
BLACK
6
CONTINUOUS
10
0.811239
20
1.19078
11
0.812588
21
1.18808
0
LINE
8
BLACK
6
CONTINUOUS
10
0.812588
20
1.18808
11
0.813785
21
1.18688
0
LINE
8
BLACK
6
CONTINUOUS
10
0.813785
20
1.18688
11
0.816483
21
1.18554
0
LINE
8
BLACK
6
CONTINUOUS
10
0.816483
20
1.18554
11
0.822588
21
1.18554
0
LINE
8
BLACK
6
CONTINUOUS
10
0.822588
20
1.18554
11
0.825285
21
1.18688
0
LINE
8
BLACK
6
CONTINUOUS
10
0.825285
20
1.18688
11
0.826482
21
1.18808
0
LINE
8
BLACK
6
CONTINUOUS
10
0.826482
20
1.18808
11
0.827831
21
1.19078
0
LINE
8
BLACK
6
CONTINUOUS
10
0.827831
20
1.19078
11
0.827831
21
1.22195
0
LINE
8
BLACK
6
CONTINUOUS
10
0.827831
20
1.22195
11
0.828009
21
1.22296
0
LINE
8
BLACK
6
CONTINUOUS
10
0.828009
20
1.22296
11
0.829307
21
1.22451
0
LINE
8
BLACK
6
CONTINUOUS
10
0.829307
20
1.22451
11
0.831296
21
1.22486
0
LINE
8
BLACK
6
CONTINUOUS
10
0.831296
20
1.22486
11
0.833046
21
1.22385
0
LINE
8
BLACK
6
CONTINUOUS
10
0.780825
20
1.22478
11
0.780994
21
1.22479
0
LINE
8
BLACK
6
CONTINUOUS
10
0.780994
20
1.22479
11
0.781685
21
1.22428
0
LINE
8
BLACK
6
CONTINUOUS
10
0.781685
20
1.22428
11
0.782427
21
1.22385
0
LINE
8
BLACK
6
CONTINUOUS
10
0.782427
20
1.22385
11
0.782485
21
1.22369
0
LINE
8
BLACK
6
CONTINUOUS
10
0.782485
20
1.22369
11
0.782622
21
1.22359
0
LINE
8
BLACK
6
CONTINUOUS
10
0.782622
20
1.22359
11
0.786209
21
1.21821
0
LINE
8
BLACK
6
CONTINUOUS
10
0.786209
20
1.21821
11
0.789413
21
1.21501
0
LINE
8
BLACK
6
CONTINUOUS
10
0.789413
20
1.21501
11
0.792734
21
1.21335
0
LINE
8
BLACK
6
CONTINUOUS
10
0.792734
20
1.21335
11
0.793558
21
1.21273
0
LINE
8
BLACK
6
CONTINUOUS
10
0.793558
20
1.21273
11
0.794361
21
1.21088
0
LINE
8
BLACK
6
CONTINUOUS
10
0.794361
20
1.21088
11
0.793785
21
1.20895
0
LINE
8
BLACK
6
CONTINUOUS
10
0.793785
20
1.20895
11
0.7921
21
1.20783
0
LINE
8
BLACK
6
CONTINUOUS
10
0.7921
20
1.20783
11
0.790093
21
1.20806
0
LINE
8
BLACK
6
CONTINUOUS
10
0.790093
20
1.20806
11
0.786344
21
1.20994
0
LINE
8
BLACK
6
CONTINUOUS
10
0.786344
20
1.20994
11
0.785634
21
1.21046
0
LINE
8
BLACK
6
CONTINUOUS
10
0.785634
20
1.21046
11
0.785576
21
1.21049
0
LINE
8
BLACK
6
CONTINUOUS
10
0.785576
20
1.21049
11
0.783118
21
1.21295
0
LINE
8
BLACK
6
CONTINUOUS
10
0.783118
20
1.21295
11
0.783118
21
1.18554
0
LINE
8
BLACK
6
CONTINUOUS
10
0.783118
20
1.18554
11
0.791414
21
1.18554
0
LINE
8
BLACK
6
CONTINUOUS
10
0.791414
20
1.18554
11
0.792423
21
1.18536
0
LINE
8
BLACK
6
CONTINUOUS
10
0.792423
20
1.18536
11
0.793971
21
1.18406
0
LINE
8
BLACK
6
CONTINUOUS
10
0.793971
20
1.18406
11
0.794321
21
1.18207
0
LINE
8
BLACK
6
CONTINUOUS
10
0.794321
20
1.18207
11
0.793312
21
1.18032
0
LINE
8
BLACK
6
CONTINUOUS
10
0.793312
20
1.18032
11
0.791414
21
1.17963
0
LINE
8
BLACK
6
CONTINUOUS
10
0.791414
20
1.17963
11
0.768916
21
1.17963
0
LINE
8
BLACK
6
CONTINUOUS
10
0.768916
20
1.17963
11
0.767906
21
1.17981
0
LINE
8
BLACK
6
CONTINUOUS
10
0.767906
20
1.17981
11
0.766359
21
1.18111
0
LINE
8
BLACK
6
CONTINUOUS
10
0.766359
20
1.18111
11
0.766008
21
1.1831
0
LINE
8
BLACK
6
CONTINUOUS
10
0.766008
20
1.1831
11
0.767018
21
1.18485
0
LINE
8
BLACK
6
CONTINUOUS
10
0.767018
20
1.18485
11
0.768916
21
1.18554
0
LINE
8
BLACK
6
CONTINUOUS
10
0.768916
20
1.18554
11
0.777212
21
1.18554
0
LINE
8
BLACK
6
CONTINUOUS
10
0.777212
20
1.18554
11
0.777212
21
1.22195
0
LINE
8
BLACK
6
CONTINUOUS
10
0.777212
20
1.22195
11
0.77739
21
1.22296
0
LINE
8
BLACK
6
CONTINUOUS
10
0.77739
20
1.22296
11
0.777499
21
1.22309
0
LINE
8
BLACK
6
CONTINUOUS
10
0.777499
20
1.22309
11
0.777518
21
1.22326
0
LINE
8
BLACK
6
CONTINUOUS
10
0.777518
20
1.22326
11
0.778138
21
1.22385
0
LINE
8
BLACK
6
CONTINUOUS
10
0.778138
20
1.22385
11
0.778689
21
1.22451
0
LINE
8
BLACK
6
CONTINUOUS
10
0.778689
20
1.22451
11
0.778856
21
1.22454
0
LINE
8
BLACK
6
CONTINUOUS
10
0.778856
20
1.22454
11
0.778979
21
1.22466
0
LINE
8
BLACK
6
CONTINUOUS
10
0.778979
20
1.22466
11
0.779834
21
1.22471
0
LINE
8
BLACK
6
CONTINUOUS
10
0.779834
20
1.22471
11
0.780678
21
1.22486
0
LINE
8
BLACK
6
CONTINUOUS
10
0.780678
20
1.22486
11
0.780825
21
1.22478
0
LINE
8
BLACK
6
CONTINUOUS
10
1.20288
20
1.25289
11
1.20301
21
1.25291
0
LINE
8
BLACK
6
CONTINUOUS
10
1.20301
20
1.25291
11
1.20313
21
1.25284
0
LINE
8
BLACK
6
CONTINUOUS
10
1.20313
20
1.25284
11
1.20351
21
1.25277
0
LINE
8
BLACK
6
CONTINUOUS
10
1.20351
20
1.25277
11
1.2041
21
1.25228
0
LINE
8
BLACK
6
CONTINUOUS
10
1.2041
20
1.25228
11
1.20476
21
1.2519
0
LINE
8
BLACK
6
CONTINUOUS
10
1.20476
20
1.2519
11
1.20485
21
1.25165
0
LINE
8
BLACK
6
CONTINUOUS
10
1.20485
20
1.25165
11
1.20506
21
1.25148
0
LINE
8
BLACK
6
CONTINUOUS
10
1.20506
20
1.25148
11
1.20519
21
1.25072
0
LINE
8
BLACK
6
CONTINUOUS
10
1.20519
20
1.25072
11
1.20545
21
1.25
0
LINE
8
BLACK
6
CONTINUOUS
10
1.20545
20
1.25
11
1.20545
21
1.19
0
LINE
8
BLACK
6
CONTINUOUS
10
1.20545
20
1.19
11
1.20539
21
1.18962
0
LINE
8
BLACK
6
CONTINUOUS
10
1.20539
20
1.18962
11
1.20541
21
1.18949
0
LINE
8
BLACK
6
CONTINUOUS
10
1.20541
20
1.18949
11
1.20534
21
1.18937
0
LINE
8
BLACK
6
CONTINUOUS
10
1.20534
20
1.18937
11
1.20527
21
1.18899
0
LINE
8
BLACK
6
CONTINUOUS
10
1.20527
20
1.18899
11
1.20478
21
1.1884
0
LINE
8
BLACK
6
CONTINUOUS
10
1.20478
20
1.1884
11
1.2044
21
1.18774
0
LINE
8
BLACK
6
CONTINUOUS
10
1.2044
20
1.18774
11
1.20415
21
1.18765
0
LINE
8
BLACK
6
CONTINUOUS
10
1.20415
20
1.18765
11
1.20398
21
1.18744
0
LINE
8
BLACK
6
CONTINUOUS
10
1.20398
20
1.18744
11
1.20322
21
1.18731
0
LINE
8
BLACK
6
CONTINUOUS
10
1.20322
20
1.18731
11
1.2025
21
1.18705
0
LINE
8
BLACK
6
CONTINUOUS
10
1.2025
20
1.18705
11
1.1625
21
1.18705
0
LINE
8
BLACK
6
CONTINUOUS
10
1.1625
20
1.18705
11
1.16149
21
1.18723
0
LINE
8
BLACK
6
CONTINUOUS
10
1.16149
20
1.18723
11
1.15994
21
1.18852
0
LINE
8
BLACK
6
CONTINUOUS
10
1.15994
20
1.18852
11
1.15959
21
1.19051
0
LINE
8
BLACK
6
CONTINUOUS
10
1.15959
20
1.19051
11
1.1606
21
1.19226
0
LINE
8
BLACK
6
CONTINUOUS
10
1.1606
20
1.19226
11
1.1625
21
1.19295
0
LINE
8
BLACK
6
CONTINUOUS
10
1.1625
20
1.19295
11
1.19955
21
1.19295
0
LINE
8
BLACK
6
CONTINUOUS
10
1.19955
20
1.19295
11
1.19955
21
1.24705
0
LINE
8
BLACK
6
CONTINUOUS
10
1.19955
20
1.24705
11
1.1625
21
1.24705
0
LINE
8
BLACK
6
CONTINUOUS
10
1.1625
20
1.24705
11
1.16149
21
1.24723
0
LINE
8
BLACK
6
CONTINUOUS
10
1.16149
20
1.24723
11
1.15994
21
1.24852
0
LINE
8
BLACK
6
CONTINUOUS
10
1.15994
20
1.24852
11
1.15959
21
1.25051
0
LINE
8
BLACK
6
CONTINUOUS
10
1.15959
20
1.25051
11
1.1606
21
1.25226
0
LINE
8
BLACK
6
CONTINUOUS
10
1.1606
20
1.25226
11
1.1625
21
1.25295
0
LINE
8
BLACK
6
CONTINUOUS
10
1.1625
20
1.25295
11
1.2025
21
1.25295
0
LINE
8
BLACK
6
CONTINUOUS
10
1.2025
20
1.25295
11
1.20288
21
1.25289
0
LINE
8
BLACK
6
CONTINUOUS
10
1.05852
20
1.28899
11
1.05921
21
1.28732
0
LINE
8
BLACK
6
CONTINUOUS
10
1.05921
20
1.28732
11
1.05921
21
1.19165
0
LINE
8
BLACK
6
CONTINUOUS
10
1.05921
20
1.19165
11
1.05852
21
1.18998
0
LINE
8
BLACK
6
CONTINUOUS
10
1.05852
20
1.18998
11
1.05685
21
1.18929
0
LINE
8
BLACK
6
CONTINUOUS
10
1.05685
20
1.18929
11
1.05518
21
1.18998
0
LINE
8
BLACK
6
CONTINUOUS
10
1.05518
20
1.18998
11
1.05449
21
1.19165
0
LINE
8
BLACK
6
CONTINUOUS
10
1.05449
20
1.19165
11
1.05449
21
1.28732
0
LINE
8
BLACK
6
CONTINUOUS
10
1.05449
20
1.28732
11
1.05518
21
1.28899
0
LINE
8
BLACK
6
CONTINUOUS
10
1.05518
20
1.28899
11
1.05685
21
1.28969
0
LINE
8
BLACK
6
CONTINUOUS
10
1.05685
20
1.28969
11
1.05852
21
1.28899
0
LINE
8
BLACK
6
CONTINUOUS
10
0.937655
20
1.28899
11
0.938346
21
1.28732
0
LINE
8
BLACK
6
CONTINUOUS
10
0.938346
20
1.28732
11
0.938346
21
1.21803
0
LINE
8
BLACK
6
CONTINUOUS
10
0.938346
20
1.21803
11
0.937655
21
1.21636
0
LINE
8
BLACK
6
CONTINUOUS
10
0.937655
20
1.21636
11
0.935984
21
1.21567
0
LINE
8
BLACK
6
CONTINUOUS
10
0.935984
20
1.21567
11
0.934314
21
1.21636
0
LINE
8
BLACK
6
CONTINUOUS
10
0.934314
20
1.21636
11
0.933622
21
1.21803
0
LINE
8
BLACK
6
CONTINUOUS
10
0.933622
20
1.21803
11
0.933622
21
1.28732
0
LINE
8
BLACK
6
CONTINUOUS
10
0.933622
20
1.28732
11
0.934314
21
1.28899
0
LINE
8
BLACK
6
CONTINUOUS
10
0.934314
20
1.28899
11
0.935984
21
1.28969
0
LINE
8
BLACK
6
CONTINUOUS
10
0.935984
20
1.28969
11
0.937655
21
1.28899
0
LINE
8
BLACK
6
CONTINUOUS
10
1.29038
20
1.28039
11
1.29051
21
1.28041
0
LINE
8
BLACK
6
CONTINUOUS
10
1.29051
20
1.28041
11
1.29063
21
1.28034
0
LINE
8
BLACK
6
CONTINUOUS
10
1.29063
20
1.28034
11
1.29101
21
1.28027
0
LINE
8
BLACK
6
CONTINUOUS
10
1.29101
20
1.28027
11
1.2916
21
1.27978
0
LINE
8
BLACK
6
CONTINUOUS
10
1.2916
20
1.27978
11
1.29226
21
1.2794
0
LINE
8
BLACK
6
CONTINUOUS
10
1.29226
20
1.2794
11
1.29235
21
1.27915
0
LINE
8
BLACK
6
CONTINUOUS
10
1.29235
20
1.27915
11
1.29256
21
1.27898
0
LINE
8
BLACK
6
CONTINUOUS
10
1.29256
20
1.27898
11
1.29269
21
1.27822
0
LINE
8
BLACK
6
CONTINUOUS
10
1.29269
20
1.27822
11
1.29295
21
1.2775
0
LINE
8
BLACK
6
CONTINUOUS
10
1.29295
20
1.2775
11
1.29295
21
1.2375
0
LINE
8
BLACK
6
CONTINUOUS
10
1.29295
20
1.2375
11
1.29277
21
1.23649
0
LINE
8
BLACK
6
CONTINUOUS
10
1.29277
20
1.23649
11
1.29148
21
1.23494
0
LINE
8
BLACK
6
CONTINUOUS
10
1.29148
20
1.23494
11
1.28949
21
1.23459
0
LINE
8
BLACK
6
CONTINUOUS
10
1.28949
20
1.23459
11
1.28774
21
1.2356
0
LINE
8
BLACK
6
CONTINUOUS
10
1.28774
20
1.2356
11
1.28705
21
1.2375
0
LINE
8
BLACK
6
CONTINUOUS
10
1.28705
20
1.2375
11
1.28705
21
1.27455
0
LINE
8
BLACK
6
CONTINUOUS
10
1.28705
20
1.27455
11
1.23295
21
1.27455
0
LINE
8
BLACK
6
CONTINUOUS
10
1.23295
20
1.27455
11
1.23295
21
1.2375
0
LINE
8
BLACK
6
CONTINUOUS
10
1.23295
20
1.2375
11
1.23277
21
1.23649
0
LINE
8
BLACK
6
CONTINUOUS
10
1.23277
20
1.23649
11
1.23148
21
1.23494
0
LINE
8
BLACK
6
CONTINUOUS
10
1.23148
20
1.23494
11
1.22949
21
1.23459
0
LINE
8
BLACK
6
CONTINUOUS
10
1.22949
20
1.23459
11
1.22774
21
1.2356
0
LINE
8
BLACK
6
CONTINUOUS
10
1.22774
20
1.2356
11
1.22705
21
1.2375
0
LINE
8
BLACK
6
CONTINUOUS
10
1.22705
20
1.2375
11
1.22705
21
1.2775
0
LINE
8
BLACK
6
CONTINUOUS
10
1.22705
20
1.2775
11
1.22711
21
1.27788
0
LINE
8
BLACK
6
CONTINUOUS
10
1.22711
20
1.27788
11
1.22709
21
1.27801
0
LINE
8
BLACK
6
CONTINUOUS
10
1.22709
20
1.27801
11
1.22716
21
1.27813
0
LINE
8
BLACK
6
CONTINUOUS
10
1.22716
20
1.27813
11
1.22723
21
1.27851
0
LINE
8
BLACK
6
CONTINUOUS
10
1.22723
20
1.27851
11
1.22772
21
1.2791
0
LINE
8
BLACK
6
CONTINUOUS
10
1.22772
20
1.2791
11
1.2281
21
1.27976
0
LINE
8
BLACK
6
CONTINUOUS
10
1.2281
20
1.27976
11
1.22835
21
1.27985
0
LINE
8
BLACK
6
CONTINUOUS
10
1.22835
20
1.27985
11
1.22852
21
1.28006
0
LINE
8
BLACK
6
CONTINUOUS
10
1.22852
20
1.28006
11
1.22928
21
1.28019
0
LINE
8
BLACK
6
CONTINUOUS
10
1.22928
20
1.28019
11
1.23
21
1.28045
0
LINE
8
BLACK
6
CONTINUOUS
10
1.23
20
1.28045
11
1.29
21
1.28045
0
LINE
8
BLACK
6
CONTINUOUS
10
1.29
20
1.28045
11
1.29038
21
1.28039
0
LINE
8
BLACK
6
CONTINUOUS
10
0.922377
20
1.27172
11
0.922511
21
1.27173
0
LINE
8
BLACK
6
CONTINUOUS
10
0.922511
20
1.27173
11
0.923239
21
1.27122
0
LINE
8
BLACK
6
CONTINUOUS
10
0.923239
20
1.27122
11
0.924009
21
1.27078
0
LINE
8
BLACK
6
CONTINUOUS
10
0.924009
20
1.27078
11
0.924055
21
1.27065
0
LINE
8
BLACK
6
CONTINUOUS
10
0.924055
20
1.27065
11
0.924166
21
1.27057
0
LINE
8
BLACK
6
CONTINUOUS
10
0.924166
20
1.27057
11
0.924396
21
1.26971
0
LINE
8
BLACK
6
CONTINUOUS
10
0.924396
20
1.26971
11
0.9247
21
1.26888
0
LINE
8
BLACK
6
CONTINUOUS
10
0.9247
20
1.26888
11
0.9247
21
1.24451
0
LINE
8
BLACK
6
CONTINUOUS
10
0.9247
20
1.24451
11
0.924522
21
1.2435
0
LINE
8
BLACK
6
CONTINUOUS
10
0.924522
20
1.2435
11
0.923224
21
1.24195
0
LINE
8
BLACK
6
CONTINUOUS
10
0.923224
20
1.24195
11
0.921234
21
1.2416
0
LINE
8
BLACK
6
CONTINUOUS
10
0.921234
20
1.2416
11
0.919485
21
1.24261
0
LINE
8
BLACK
6
CONTINUOUS
10
0.919485
20
1.24261
11
0.918794
21
1.24451
0
LINE
8
BLACK
6
CONTINUOUS
10
0.918794
20
1.24451
11
0.918794
21
1.26175
0
LINE
8
BLACK
6
CONTINUOUS
10
0.918794
20
1.26175
11
0.901338
21
1.24429
0
LINE
8
BLACK
6
CONTINUOUS
10
0.901338
20
1.24429
11
0.900498
21
1.24371
0
LINE
8
BLACK
6
CONTINUOUS
10
0.900498
20
1.24371
11
0.900322
21
1.24369
0
LINE
8
BLACK
6
CONTINUOUS
10
0.900322
20
1.24369
11
0.900184
21
1.24358
0
LINE
8
BLACK
6
CONTINUOUS
10
0.900184
20
1.24358
11
0.89456
21
1.24171
0
LINE
8
BLACK
6
CONTINUOUS
10
0.89456
20
1.24171
11
0.893686
21
1.24158
0
LINE
8
BLACK
6
CONTINUOUS
10
0.893686
20
1.24158
11
0.893626
21
1.24155
0
LINE
8
BLACK
6
CONTINUOUS
10
0.893626
20
1.24155
11
0.889876
21
1.24155
0
LINE
8
BLACK
6
CONTINUOUS
10
0.889876
20
1.24155
11
0.888866
21
1.24173
0
LINE
8
BLACK
6
CONTINUOUS
10
0.888866
20
1.24173
11
0.888731
21
1.24185
0
LINE
8
BLACK
6
CONTINUOUS
10
0.888731
20
1.24185
11
0.888556
21
1.24187
0
LINE
8
BLACK
6
CONTINUOUS
10
0.888556
20
1.24187
11
0.884806
21
1.24374
0
LINE
8
BLACK
6
CONTINUOUS
10
0.884806
20
1.24374
11
0.884097
21
1.24427
0
LINE
8
BLACK
6
CONTINUOUS
10
0.884097
20
1.24427
11
0.884039
21
1.24429
0
LINE
8
BLACK
6
CONTINUOUS
10
0.884039
20
1.24429
11
0.882164
21
1.24617
0
LINE
8
BLACK
6
CONTINUOUS
10
0.882164
20
1.24617
11
0.881658
21
1.24689
0
LINE
8
BLACK
6
CONTINUOUS
10
0.881658
20
1.24689
11
0.881611
21
1.24694
0
LINE
8
BLACK
6
CONTINUOUS
10
0.881611
20
1.24694
11
0.879736
21
1.25069
0
LINE
8
BLACK
6
CONTINUOUS
10
0.879736
20
1.25069
11
0.879444
21
1.25167
0
LINE
8
BLACK
6
CONTINUOUS
10
0.879444
20
1.25167
11
0.879485
21
1.25184
0
LINE
8
BLACK
6
CONTINUOUS
10
0.879485
20
1.25184
11
0.879424
21
1.25201
0
LINE
8
BLACK
6
CONTINUOUS
10
0.879424
20
1.25201
11
0.879424
21
1.26138
0
LINE
8
BLACK
6
CONTINUOUS
10
0.879424
20
1.26138
11
0.879602
21
1.26239
0
LINE
8
BLACK
6
CONTINUOUS
10
0.879602
20
1.26239
11
0.879716
21
1.26252
0
LINE
8
BLACK
6
CONTINUOUS
10
0.879716
20
1.26252
11
0.879736
21
1.2627
0
LINE
8
BLACK
6
CONTINUOUS
10
0.879736
20
1.2627
11
0.881611
21
1.26645
0
LINE
8
BLACK
6
CONTINUOUS
10
0.881611
20
1.26645
11
0.882137
21
1.26716
0
LINE
8
BLACK
6
CONTINUOUS
10
0.882137
20
1.26716
11
0.882164
21
1.26722
0
LINE
8
BLACK
6
CONTINUOUS
10
0.882164
20
1.26722
11
0.884039
21
1.26909
0
LINE
8
BLACK
6
CONTINUOUS
10
0.884039
20
1.26909
11
0.884879
21
1.26968
0
LINE
8
BLACK
6
CONTINUOUS
10
0.884879
20
1.26968
11
0.886891
21
1.26986
0
LINE
8
BLACK
6
CONTINUOUS
10
0.886891
20
1.26986
11
0.888546
21
1.2687
0
LINE
8
BLACK
6
CONTINUOUS
10
0.888546
20
1.2687
11
0.889068
21
1.26675
0
LINE
8
BLACK
6
CONTINUOUS
10
0.889068
20
1.26675
11
0.888215
21
1.26492
0
LINE
8
BLACK
6
CONTINUOUS
10
0.888215
20
1.26492
11
0.886679
21
1.26338
0
LINE
8
BLACK
6
CONTINUOUS
10
0.886679
20
1.26338
11
0.88533
21
1.26068
0
LINE
8
BLACK
6
CONTINUOUS
10
0.88533
20
1.26068
11
0.88533
21
1.2527
0
LINE
8
BLACK
6
CONTINUOUS
10
0.88533
20
1.2527
11
0.886679
21
1.25001
0
LINE
8
BLACK
6
CONTINUOUS
10
0.886679
20
1.25001
11
0.887876
21
1.24881
0
LINE
8
BLACK
6
CONTINUOUS
10
0.887876
20
1.24881
11
0.890573
21
1.24746
0
LINE
8
BLACK
6
CONTINUOUS
10
0.890573
20
1.24746
11
0.893147
21
1.24746
0
LINE
8
BLACK
6
CONTINUOUS
10
0.893147
20
1.24746
11
0.897655
21
1.24896
0
LINE
8
BLACK
6
CONTINUOUS
10
0.897655
20
1.24896
11
0.919659
21
1.27097
0
LINE
8
BLACK
6
CONTINUOUS
10
0.919659
20
1.27097
11
0.920187
21
1.27134
0
LINE
8
BLACK
6
CONTINUOUS
10
0.920187
20
1.27134
11
0.920271
21
1.27144
0
LINE
8
BLACK
6
CONTINUOUS
10
0.920271
20
1.27144
11
0.920349
21
1.27145
0
LINE
8
BLACK
6
CONTINUOUS
10
0.920349
20
1.27145
11
0.920499
21
1.27155
0
LINE
8
BLACK
6
CONTINUOUS
10
0.920499
20
1.27155
11
0.921385
21
1.27163
0
LINE
8
BLACK
6
CONTINUOUS
10
0.921385
20
1.27163
11
0.92226
21
1.27179
0
LINE
8
BLACK
6
CONTINUOUS
10
0.92226
20
1.27179
11
0.922377
21
1.27172
0
LINE
8
BLACK
6
CONTINUOUS
10
1.6375
20
1.32561
11
1.63819
21
1.32394
0
LINE
8
BLACK
6
CONTINUOUS
10
1.63819
20
1.32394
11
1.63819
21
1.26094
0
LINE
8
BLACK
6
CONTINUOUS
10
1.63819
20
1.26094
11
1.6375
21
1.25927
0
LINE
8
BLACK
6
CONTINUOUS
10
1.6375
20
1.25927
11
1.63583
21
1.25858
0
LINE
8
BLACK
6
CONTINUOUS
10
1.63583
20
1.25858
11
1.63416
21
1.25927
0
LINE
8
BLACK
6
CONTINUOUS
10
1.63416
20
1.25927
11
1.63346
21
1.26094
0
LINE
8
BLACK
6
CONTINUOUS
10
1.63346
20
1.26094
11
1.63346
21
1.32394
0
LINE
8
BLACK
6
CONTINUOUS
10
1.63346
20
1.32394
11
1.63416
21
1.32561
0
LINE
8
BLACK
6
CONTINUOUS
10
1.63416
20
1.32561
11
1.63583
21
1.3263
0
LINE
8
BLACK
6
CONTINUOUS
10
1.63583
20
1.3263
11
1.6375
21
1.32561
0
LINE
8
BLACK
6
CONTINUOUS
10
0.365844
20
1.32561
11
0.366535
21
1.32394
0
LINE
8
BLACK
6
CONTINUOUS
10
0.366535
20
1.32394
11
0.366535
21
1.26094
0
LINE
8
BLACK
6
CONTINUOUS
10
0.366535
20
1.26094
11
0.365844
21
1.25927
0
LINE
8
BLACK
6
CONTINUOUS
10
0.365844
20
1.25927
11
0.364173
21
1.25858
0
LINE
8
BLACK
6
CONTINUOUS
10
0.364173
20
1.25858
11
0.362503
21
1.25927
0
LINE
8
BLACK
6
CONTINUOUS
10
0.362503
20
1.25927
11
0.361811
21
1.26094
0
LINE
8
BLACK
6
CONTINUOUS
10
0.361811
20
1.26094
11
0.361811
21
1.32394
0
LINE
8
BLACK
6
CONTINUOUS
10
0.361811
20
1.32394
11
0.362503
21
1.32561
0
LINE
8
BLACK
6
CONTINUOUS
10
0.362503
20
1.32561
11
0.364173
21
1.3263
0
LINE
8
BLACK
6
CONTINUOUS
10
0.364173
20
1.3263
11
0.365844
21
1.32561
0
LINE
8
BLACK
6
CONTINUOUS
10
0.915258
20
1.30915
11
0.915393
21
1.30904
0
LINE
8
BLACK
6
CONTINUOUS
10
0.915393
20
1.30904
11
0.915569
21
1.30902
0
LINE
8
BLACK
6
CONTINUOUS
10
0.915569
20
1.30902
11
0.919318
21
1.30714
0
LINE
8
BLACK
6
CONTINUOUS
10
0.919318
20
1.30714
11
0.920027
21
1.30661
0
LINE
8
BLACK
6
CONTINUOUS
10
0.920027
20
1.30661
11
0.920086
21
1.30659
0
LINE
8
BLACK
6
CONTINUOUS
10
0.920086
20
1.30659
11
0.92196
21
1.30471
0
LINE
8
BLACK
6
CONTINUOUS
10
0.92196
20
1.30471
11
0.922467
21
1.30399
0
LINE
8
BLACK
6
CONTINUOUS
10
0.922467
20
1.30399
11
0.922514
21
1.30395
0
LINE
8
BLACK
6
CONTINUOUS
10
0.922514
20
1.30395
11
0.924388
21
1.3002
0
LINE
8
BLACK
6
CONTINUOUS
10
0.924388
20
1.3002
11
0.924681
21
1.29921
0
LINE
8
BLACK
6
CONTINUOUS
10
0.924681
20
1.29921
11
0.92464
21
1.29904
0
LINE
8
BLACK
6
CONTINUOUS
10
0.92464
20
1.29904
11
0.9247
21
1.29888
0
LINE
8
BLACK
6
CONTINUOUS
10
0.9247
20
1.29888
11
0.9247
21
1.29138
0
LINE
8
BLACK
6
CONTINUOUS
10
0.9247
20
1.29138
11
0.924522
21
1.29037
0
LINE
8
BLACK
6
CONTINUOUS
10
0.924522
20
1.29037
11
0.924408
21
1.29023
0
LINE
8
BLACK
6
CONTINUOUS
10
0.924408
20
1.29023
11
0.924388
21
1.29006
0
LINE
8
BLACK
6
CONTINUOUS
10
0.924388
20
1.29006
11
0.922514
21
1.28631
0
LINE
8
BLACK
6
CONTINUOUS
10
0.922514
20
1.28631
11
0.921988
21
1.2856
0
LINE
8
BLACK
6
CONTINUOUS
10
0.921988
20
1.2856
11
0.92196
21
1.28554
0
LINE
8
BLACK
6
CONTINUOUS
10
0.92196
20
1.28554
11
0.920086
21
1.28366
0
LINE
8
BLACK
6
CONTINUOUS
10
0.920086
20
1.28366
11
0.919363
21
1.28316
0
LINE
8
BLACK
6
CONTINUOUS
10
0.919363
20
1.28316
11
0.919318
21
1.28311
0
LINE
8
BLACK
6
CONTINUOUS
10
0.919318
20
1.28311
11
0.915569
21
1.28124
0
LINE
8
BLACK
6
CONTINUOUS
10
0.915569
20
1.28124
11
0.914586
21
1.28094
0
LINE
8
BLACK
6
CONTINUOUS
10
0.914586
20
1.28094
11
0.914414
21
1.28098
0
LINE
8
BLACK
6
CONTINUOUS
10
0.914414
20
1.28098
11
0.914248
21
1.28092
0
LINE
8
BLACK
6
CONTINUOUS
10
0.914248
20
1.28092
11
0.882377
21
1.28092
0
LINE
8
BLACK
6
CONTINUOUS
10
0.882377
20
1.28092
11
0.881367
21
1.2811
0
LINE
8
BLACK
6
CONTINUOUS
10
0.881367
20
1.2811
11
0.87982
21
1.2824
0
LINE
8
BLACK
6
CONTINUOUS
10
0.87982
20
1.2824
11
0.879469
21
1.28439
0
LINE
8
BLACK
6
CONTINUOUS
10
0.879469
20
1.28439
11
0.880479
21
1.28614
0
LINE
8
BLACK
6
CONTINUOUS
10
0.880479
20
1.28614
11
0.882377
21
1.28683
0
LINE
8
BLACK
6
CONTINUOUS
10
0.882377
20
1.28683
11
0.913551
21
1.28683
0
LINE
8
BLACK
6
CONTINUOUS
10
0.913551
20
1.28683
11
0.916249
21
1.28818
0
LINE
8
BLACK
6
CONTINUOUS
10
0.916249
20
1.28818
11
0.917446
21
1.28938
0
LINE
8
BLACK
6
CONTINUOUS
10
0.917446
20
1.28938
11
0.918794
21
1.29207
0
LINE
8
BLACK
6
CONTINUOUS
10
0.918794
20
1.29207
11
0.918794
21
1.29818
0
LINE
8
BLACK
6
CONTINUOUS
10
0.918794
20
1.29818
11
0.917446
21
1.30088
0
LINE
8
BLACK
6
CONTINUOUS
10
0.917446
20
1.30088
11
0.916249
21
1.30207
0
LINE
8
BLACK
6
CONTINUOUS
10
0.916249
20
1.30207
11
0.913551
21
1.30342
0
LINE
8
BLACK
6
CONTINUOUS
10
0.913551
20
1.30342
11
0.882377
21
1.30342
0
LINE
8
BLACK
6
CONTINUOUS
10
0.882377
20
1.30342
11
0.881367
21
1.3036
0
LINE
8
BLACK
6
CONTINUOUS
10
0.881367
20
1.3036
11
0.87982
21
1.3049
0
LINE
8
BLACK
6
CONTINUOUS
10
0.87982
20
1.3049
11
0.879469
21
1.30689
0
LINE
8
BLACK
6
CONTINUOUS
10
0.879469
20
1.30689
11
0.880479
21
1.30864
0
LINE
8
BLACK
6
CONTINUOUS
10
0.880479
20
1.30864
11
0.882377
21
1.30933
0
LINE
8
BLACK
6
CONTINUOUS
10
0.882377
20
1.30933
11
0.914248
21
1.30933
0
LINE
8
BLACK
6
CONTINUOUS
10
0.914248
20
1.30933
11
0.915258
21
1.30915
0
LINE
8
BLACK
6
CONTINUOUS
10
1.20288
20
1.35289
11
1.20301
21
1.35291
0
LINE
8
BLACK
6
CONTINUOUS
10
1.20301
20
1.35291
11
1.20313
21
1.35284
0
LINE
8
BLACK
6
CONTINUOUS
10
1.20313
20
1.35284
11
1.20351
21
1.35277
0
LINE
8
BLACK
6
CONTINUOUS
10
1.20351
20
1.35277
11
1.2041
21
1.35228
0
LINE
8
BLACK
6
CONTINUOUS
10
1.2041
20
1.35228
11
1.20476
21
1.3519
0
LINE
8
BLACK
6
CONTINUOUS
10
1.20476
20
1.3519
11
1.20485
21
1.35165
0
LINE
8
BLACK
6
CONTINUOUS
10
1.20485
20
1.35165
11
1.20506
21
1.35148
0
LINE
8
BLACK
6
CONTINUOUS
10
1.20506
20
1.35148
11
1.20519
21
1.35072
0
LINE
8
BLACK
6
CONTINUOUS
10
1.20519
20
1.35072
11
1.20545
21
1.35
0
LINE
8
BLACK
6
CONTINUOUS
10
1.20545
20
1.35
11
1.20545
21
1.29
0
LINE
8
BLACK
6
CONTINUOUS
10
1.20545
20
1.29
11
1.20539
21
1.28962
0
LINE
8
BLACK
6
CONTINUOUS
10
1.20539
20
1.28962
11
1.20541
21
1.28949
0
LINE
8
BLACK
6
CONTINUOUS
10
1.20541
20
1.28949
11
1.20534
21
1.28937
0
LINE
8
BLACK
6
CONTINUOUS
10
1.20534
20
1.28937
11
1.20527
21
1.28899
0
LINE
8
BLACK
6
CONTINUOUS
10
1.20527
20
1.28899
11
1.20478
21
1.2884
0
LINE
8
BLACK
6
CONTINUOUS
10
1.20478
20
1.2884
11
1.2044
21
1.28774
0
LINE
8
BLACK
6
CONTINUOUS
10
1.2044
20
1.28774
11
1.20415
21
1.28765
0
LINE
8
BLACK
6
CONTINUOUS
10
1.20415
20
1.28765
11
1.20398
21
1.28744
0
LINE
8
BLACK
6
CONTINUOUS
10
1.20398
20
1.28744
11
1.20322
21
1.28731
0
LINE
8
BLACK
6
CONTINUOUS
10
1.20322
20
1.28731
11
1.2025
21
1.28705
0
LINE
8
BLACK
6
CONTINUOUS
10
1.2025
20
1.28705
11
1.1625
21
1.28705
0
LINE
8
BLACK
6
CONTINUOUS
10
1.1625
20
1.28705
11
1.16149
21
1.28723
0
LINE
8
BLACK
6
CONTINUOUS
10
1.16149
20
1.28723
11
1.15994
21
1.28852
0
LINE
8
BLACK
6
CONTINUOUS
10
1.15994
20
1.28852
11
1.15959
21
1.29051
0
LINE
8
BLACK
6
CONTINUOUS
10
1.15959
20
1.29051
11
1.1606
21
1.29226
0
LINE
8
BLACK
6
CONTINUOUS
10
1.1606
20
1.29226
11
1.1625
21
1.29295
0
LINE
8
BLACK
6
CONTINUOUS
10
1.1625
20
1.29295
11
1.19955
21
1.29295
0
LINE
8
BLACK
6
CONTINUOUS
10
1.19955
20
1.29295
11
1.19955
21
1.34705
0
LINE
8
BLACK
6
CONTINUOUS
10
1.19955
20
1.34705
11
1.1625
21
1.34705
0
LINE
8
BLACK
6
CONTINUOUS
10
1.1625
20
1.34705
11
1.16149
21
1.34723
0
LINE
8
BLACK
6
CONTINUOUS
10
1.16149
20
1.34723
11
1.15994
21
1.34852
0
LINE
8
BLACK
6
CONTINUOUS
10
1.15994
20
1.34852
11
1.15959
21
1.35051
0
LINE
8
BLACK
6
CONTINUOUS
10
1.15959
20
1.35051
11
1.1606
21
1.35226
0
LINE
8
BLACK
6
CONTINUOUS
10
1.1606
20
1.35226
11
1.1625
21
1.35295
0
LINE
8
BLACK
6
CONTINUOUS
10
1.1625
20
1.35295
11
1.2025
21
1.35295
0
LINE
8
BLACK
6
CONTINUOUS
10
1.2025
20
1.35295
11
1.20288
21
1.35289
0
LINE
8
BLACK
6
CONTINUOUS
10
0.796946
20
1.4575
11
0.797638
21
1.45583
0
LINE
8
BLACK
6
CONTINUOUS
10
0.797638
20
1.45583
11
0.796946
21
1.45416
0
LINE
8
BLACK
6
CONTINUOUS
10
0.796946
20
1.45416
11
0.795276
21
1.45346
0
LINE
8
BLACK
6
CONTINUOUS
10
0.795276
20
1.45346
11
0.732283
21
1.45346
0
LINE
8
BLACK
6
CONTINUOUS
10
0.732283
20
1.45346
11
0.730613
21
1.45416
0
LINE
8
BLACK
6
CONTINUOUS
10
0.730613
20
1.45416
11
0.729921
21
1.45583
0
LINE
8
BLACK
6
CONTINUOUS
10
0.729921
20
1.45583
11
0.730613
21
1.4575
0
LINE
8
BLACK
6
CONTINUOUS
10
0.730613
20
1.4575
11
0.732283
21
1.45819
0
LINE
8
BLACK
6
CONTINUOUS
10
0.732283
20
1.45819
11
0.795276
21
1.45819
0
LINE
8
BLACK
6
CONTINUOUS
10
0.795276
20
1.45819
11
0.796946
21
1.4575
0
LINE
8
BLACK
6
CONTINUOUS
10
1.50561
20
1.4575
11
1.5063
21
1.45583
0
LINE
8
BLACK
6
CONTINUOUS
10
1.5063
20
1.45583
11
1.50561
21
1.45416
0
LINE
8
BLACK
6
CONTINUOUS
10
1.50561
20
1.45416
11
1.50394
21
1.45346
0
LINE
8
BLACK
6
CONTINUOUS
10
1.50394
20
1.45346
11
1.44094
21
1.45346
0
LINE
8
BLACK
6
CONTINUOUS
10
1.44094
20
1.45346
11
1.43927
21
1.45416
0
LINE
8
BLACK
6
CONTINUOUS
10
1.43927
20
1.45416
11
1.43858
21
1.45583
0
LINE
8
BLACK
6
CONTINUOUS
10
1.43858
20
1.45583
11
1.43927
21
1.4575
0
LINE
8
BLACK
6
CONTINUOUS
10
1.43927
20
1.4575
11
1.44094
21
1.45819
0
LINE
8
BLACK
6
CONTINUOUS
10
1.44094
20
1.45819
11
1.50394
21
1.45819
0
LINE
8
BLACK
6
CONTINUOUS
10
1.50394
20
1.45819
11
1.50561
21
1.4575
0
LINE
8
BLACK
6
CONTINUOUS
10
1.26939
20
1.4575
11
1.27008
21
1.45583
0
LINE
8
BLACK
6
CONTINUOUS
10
1.27008
20
1.45583
11
1.26939
21
1.45416
0
LINE
8
BLACK
6
CONTINUOUS
10
1.26939
20
1.45416
11
1.26772
21
1.45346
0
LINE
8
BLACK
6
CONTINUOUS
10
1.26772
20
1.45346
11
1.20472
21
1.45346
0
LINE
8
BLACK
6
CONTINUOUS
10
1.20472
20
1.45346
11
1.20305
21
1.45416
0
LINE
8
BLACK
6
CONTINUOUS
10
1.20305
20
1.45416
11
1.20236
21
1.45583
0
LINE
8
BLACK
6
CONTINUOUS
10
1.20236
20
1.45583
11
1.20305
21
1.4575
0
LINE
8
BLACK
6
CONTINUOUS
10
1.20305
20
1.4575
11
1.20472
21
1.45819
0
LINE
8
BLACK
6
CONTINUOUS
10
1.20472
20
1.45819
11
1.26772
21
1.45819
0
LINE
8
BLACK
6
CONTINUOUS
10
1.26772
20
1.45819
11
1.26939
21
1.4575
0
LINE
8
BLACK
6
CONTINUOUS
10
1.03317
20
1.4575
11
1.03386
21
1.45583
0
LINE
8
BLACK
6
CONTINUOUS
10
1.03386
20
1.45583
11
1.03317
21
1.45416
0
LINE
8
BLACK
6
CONTINUOUS
10
1.03317
20
1.45416
11
1.0315
21
1.45346
0
LINE
8
BLACK
6
CONTINUOUS
10
1.0315
20
1.45346
11
0.968504
21
1.45346
0
LINE
8
BLACK
6
CONTINUOUS
10
0.968504
20
1.45346
11
0.966834
21
1.45416
0
LINE
8
BLACK
6
CONTINUOUS
10
0.966834
20
1.45416
11
0.966142
21
1.45583
0
LINE
8
BLACK
6
CONTINUOUS
10
0.966142
20
1.45583
11
0.966834
21
1.4575
0
LINE
8
BLACK
6
CONTINUOUS
10
0.966834
20
1.4575
11
0.968504
21
1.45819
0
LINE
8
BLACK
6
CONTINUOUS
10
0.968504
20
1.45819
11
1.0315
21
1.45819
0
LINE
8
BLACK
6
CONTINUOUS
10
1.0315
20
1.45819
11
1.03317
21
1.4575
0
LINE
8
BLACK
6
CONTINUOUS
10
0.560725
20
1.4575
11
0.561417
21
1.45583
0
LINE
8
BLACK
6
CONTINUOUS
10
0.561417
20
1.45583
11
0.560725
21
1.45416
0
LINE
8
BLACK
6
CONTINUOUS
10
0.560725
20
1.45416
11
0.559055
21
1.45346
0
LINE
8
BLACK
6
CONTINUOUS
10
0.559055
20
1.45346
11
0.496063
21
1.45346
0
LINE
8
BLACK
6
CONTINUOUS
10
0.496063
20
1.45346
11
0.494393
21
1.45416
0
LINE
8
BLACK
6
CONTINUOUS
10
0.494393
20
1.45416
11
0.493701
21
1.45583
0
LINE
8
BLACK
6
CONTINUOUS
10
0.493701
20
1.45583
11
0.494393
21
1.4575
0
LINE
8
BLACK
6
CONTINUOUS
10
0.494393
20
1.4575
11
0.496063
21
1.45819
0
LINE
8
BLACK
6
CONTINUOUS
10
0.496063
20
1.45819
11
0.559055
21
1.45819
0
LINE
8
BLACK
6
CONTINUOUS
10
0.559055
20
1.45819
11
0.560725
21
1.4575
0
LINE
8
BLACK
6
CONTINUOUS
10
0.74534
20
0.513461
11
0.747549
21
0.516224
0
LINE
8
BLACK
6
CONTINUOUS
10
0.747549
20
0.516224
11
0.750738
21
0.517755
0
LINE
8
BLACK
6
CONTINUOUS
10
0.750738
20
0.517755
11
0.754275
21
0.517752
0
LINE
8
BLACK
6
CONTINUOUS
10
0.754275
20
0.517752
11
0.757462
21
0.516215
0
LINE
8
BLACK
6
CONTINUOUS
10
0.757462
20
0.516215
11
0.759666
21
0.513449
0
LINE
8
BLACK
6
CONTINUOUS
10
0.759666
20
0.513449
11
0.759779
21
0.512953
0
LINE
8
BLACK
6
CONTINUOUS
10
0.759779
20
0.512953
11
0.7975
21
0.512953
0
LINE
8
BLACK
6
CONTINUOUS
10
0.7975
20
0.512953
11
0.79851
21
0.512775
0
LINE
8
BLACK
6
CONTINUOUS
10
0.79851
20
0.512775
11
0.800057
21
0.511476
0
LINE
8
BLACK
6
CONTINUOUS
10
0.800057
20
0.511476
11
0.800408
21
0.509487
0
LINE
8
BLACK
6
CONTINUOUS
10
0.800408
20
0.509487
11
0.799398
21
0.507738
0
LINE
8
BLACK
6
CONTINUOUS
10
0.799398
20
0.507738
11
0.7975
21
0.507047
0
LINE
8
BLACK
6
CONTINUOUS
10
0.7975
20
0.507047
11
0.760453
21
0.507047
0
LINE
8
BLACK
6
CONTINUOUS
10
0.760453
20
0.507047
11
0.760453
21
0.452953
0
LINE
8
BLACK
6
CONTINUOUS
10
0.760453
20
0.452953
11
0.7975
21
0.452953
0
LINE
8
BLACK
6
CONTINUOUS
10
0.7975
20
0.452953
11
0.79851
21
0.452775
0
LINE
8
BLACK
6
CONTINUOUS
10
0.79851
20
0.452775
11
0.800057
21
0.451476
0
LINE
8
BLACK
6
CONTINUOUS
10
0.800057
20
0.451476
11
0.800408
21
0.449487
0
LINE
8
BLACK
6
CONTINUOUS
10
0.800408
20
0.449487
11
0.799398
21
0.447738
0
LINE
8
BLACK
6
CONTINUOUS
10
0.799398
20
0.447738
11
0.7975
21
0.447047
0
LINE
8
BLACK
6
CONTINUOUS
10
0.7975
20
0.447047
11
0.7575
21
0.447047
0
LINE
8
BLACK
6
CONTINUOUS
10
0.7575
20
0.447047
11
0.757116
21
0.447115
0
LINE
8
BLACK
6
CONTINUOUS
10
0.757116
20
0.447115
11
0.756987
21
0.447092
0
LINE
8
BLACK
6
CONTINUOUS
10
0.756987
20
0.447092
11
0.756874
21
0.447158
0
LINE
8
BLACK
6
CONTINUOUS
10
0.756874
20
0.447158
11
0.75649
21
0.447225
0
LINE
8
BLACK
6
CONTINUOUS
10
0.75649
20
0.447225
11
0.755902
21
0.447718
0
LINE
8
BLACK
6
CONTINUOUS
10
0.755902
20
0.447718
11
0.755238
21
0.448102
0
LINE
8
BLACK
6
CONTINUOUS
10
0.755238
20
0.448102
11
0.755147
21
0.448352
0
LINE
8
BLACK
6
CONTINUOUS
10
0.755147
20
0.448352
11
0.754943
21
0.448524
0
LINE
8
BLACK
6
CONTINUOUS
10
0.754943
20
0.448524
11
0.75481
21
0.449279
0
LINE
8
BLACK
6
CONTINUOUS
10
0.75481
20
0.449279
11
0.754547
21
0.45
0
LINE
8
BLACK
6
CONTINUOUS
10
0.754547
20
0.45
11
0.754547
21
0.502385
0
LINE
8
BLACK
6
CONTINUOUS
10
0.754547
20
0.502385
11
0.754248
21
0.502242
0
LINE
8
BLACK
6
CONTINUOUS
10
0.754248
20
0.502242
11
0.750711
21
0.502251
0
LINE
8
BLACK
6
CONTINUOUS
10
0.750711
20
0.502251
11
0.747528
21
0.503793
0
LINE
8
BLACK
6
CONTINUOUS
10
0.747528
20
0.503793
11
0.745328
21
0.506564
0
LINE
8
BLACK
6
CONTINUOUS
10
0.745328
20
0.506564
11
0.74455
21
0.51
0
LINE
8
BLACK
6
CONTINUOUS
10
0.74455
20
0.51
11
0.744547
21
0.510014
0
LINE
8
BLACK
6
CONTINUOUS
10
0.744547
20
0.510014
11
0.74534
21
0.513461
0
LINE
8
BLACK
6
CONTINUOUS
10
0.7525
20
0.507784
11
0.754067
21
0.508433
0
LINE
8
BLACK
6
CONTINUOUS
10
0.754067
20
0.508433
11
0.754547
21
0.509593
0
LINE
8
BLACK
6
CONTINUOUS
10
0.754547
20
0.509593
11
0.754547
21
0.51
0
LINE
8
BLACK
6
CONTINUOUS
10
0.754547
20
0.51
11
0.754598
21
0.510286
0
LINE
8
BLACK
6
CONTINUOUS
10
0.754598
20
0.510286
11
0.754067
21
0.511567
0
LINE
8
BLACK
6
CONTINUOUS
10
0.754067
20
0.511567
11
0.7525
21
0.512216
0
LINE
8
BLACK
6
CONTINUOUS
10
0.7525
20
0.512216
11
0.750933
21
0.511567
0
LINE
8
BLACK
6
CONTINUOUS
10
0.750933
20
0.511567
11
0.750284
21
0.51
0
LINE
8
BLACK
6
CONTINUOUS
10
0.750284
20
0.51
11
0.750933
21
0.508433
0
LINE
8
BLACK
6
CONTINUOUS
10
0.750933
20
0.508433
11
0.7525
21
0.507784
0
LINE
8
BLACK
6
CONTINUOUS
10
1.14534
20
0.633461
11
1.14755
21
0.636224
0
LINE
8
BLACK
6
CONTINUOUS
10
1.14755
20
0.636224
11
1.15074
21
0.637755
0
LINE
8
BLACK
6
CONTINUOUS
10
1.15074
20
0.637755
11
1.15428
21
0.637752
0
LINE
8
BLACK
6
CONTINUOUS
10
1.15428
20
0.637752
11
1.15746
21
0.636215
0
LINE
8
BLACK
6
CONTINUOUS
10
1.15746
20
0.636215
11
1.15967
21
0.633449
0
LINE
8
BLACK
6
CONTINUOUS
10
1.15967
20
0.633449
11
1.15978
21
0.632953
0
LINE
8
BLACK
6
CONTINUOUS
10
1.15978
20
0.632953
11
1.1975
21
0.632953
0
LINE
8
BLACK
6
CONTINUOUS
10
1.1975
20
0.632953
11
1.19851
21
0.632775
0
LINE
8
BLACK
6
CONTINUOUS
10
1.19851
20
0.632775
11
1.20006
21
0.631476
0
LINE
8
BLACK
6
CONTINUOUS
10
1.20006
20
0.631476
11
1.20041
21
0.629487
0
LINE
8
BLACK
6
CONTINUOUS
10
1.20041
20
0.629487
11
1.1994
21
0.627738
0
LINE
8
BLACK
6
CONTINUOUS
10
1.1994
20
0.627738
11
1.1975
21
0.627047
0
LINE
8
BLACK
6
CONTINUOUS
10
1.1975
20
0.627047
11
1.16045
21
0.627047
0
LINE
8
BLACK
6
CONTINUOUS
10
1.16045
20
0.627047
11
1.16045
21
0.572953
0
LINE
8
BLACK
6
CONTINUOUS
10
1.16045
20
0.572953
11
1.1975
21
0.572953
0
LINE
8
BLACK
6
CONTINUOUS
10
1.1975
20
0.572953
11
1.19851
21
0.572775
0
LINE
8
BLACK
6
CONTINUOUS
10
1.19851
20
0.572775
11
1.20006
21
0.571476
0
LINE
8
BLACK
6
CONTINUOUS
10
1.20006
20
0.571476
11
1.20041
21
0.569487
0
LINE
8
BLACK
6
CONTINUOUS
10
1.20041
20
0.569487
11
1.1994
21
0.567738
0
LINE
8
BLACK
6
CONTINUOUS
10
1.1994
20
0.567738
11
1.1975
21
0.567047
0
LINE
8
BLACK
6
CONTINUOUS
10
1.1975
20
0.567047
11
1.1575
21
0.567047
0
LINE
8
BLACK
6
CONTINUOUS
10
1.1575
20
0.567047
11
1.15712
21
0.567115
0
LINE
8
BLACK
6
CONTINUOUS
10
1.15712
20
0.567115
11
1.15699
21
0.567092
0
LINE
8
BLACK
6
CONTINUOUS
10
1.15699
20
0.567092
11
1.15687
21
0.567158
0
LINE
8
BLACK
6
CONTINUOUS
10
1.15687
20
0.567158
11
1.15649
21
0.567225
0
LINE
8
BLACK
6
CONTINUOUS
10
1.15649
20
0.567225
11
1.1559
21
0.567718
0
LINE
8
BLACK
6
CONTINUOUS
10
1.1559
20
0.567718
11
1.15524
21
0.568102
0
LINE
8
BLACK
6
CONTINUOUS
10
1.15524
20
0.568102
11
1.15515
21
0.568352
0
LINE
8
BLACK
6
CONTINUOUS
10
1.15515
20
0.568352
11
1.15494
21
0.568524
0
LINE
8
BLACK
6
CONTINUOUS
10
1.15494
20
0.568524
11
1.15481
21
0.569279
0
LINE
8
BLACK
6
CONTINUOUS
10
1.15481
20
0.569279
11
1.15455
21
0.57
0
LINE
8
BLACK
6
CONTINUOUS
10
1.15455
20
0.57
11
1.15455
21
0.622385
0
LINE
8
BLACK
6
CONTINUOUS
10
1.15455
20
0.622385
11
1.15425
21
0.622242
0
LINE
8
BLACK
6
CONTINUOUS
10
1.15425
20
0.622242
11
1.15071
21
0.622251
0
LINE
8
BLACK
6
CONTINUOUS
10
1.15071
20
0.622251
11
1.14753
21
0.623793
0
LINE
8
BLACK
6
CONTINUOUS
10
1.14753
20
0.623793
11
1.14533
21
0.626564
0
LINE
8
BLACK
6
CONTINUOUS
10
1.14533
20
0.626564
11
1.14455
21
0.63
0
LINE
8
BLACK
6
CONTINUOUS
10
1.14455
20
0.63
11
1.14455
21
0.630014
0
LINE
8
BLACK
6
CONTINUOUS
10
1.14455
20
0.630014
11
1.14534
21
0.633461
0
LINE
8
BLACK
6
CONTINUOUS
10
1.1525
20
0.627784
11
1.15407
21
0.628433
0
LINE
8
BLACK
6
CONTINUOUS
10
1.15407
20
0.628433
11
1.15455
21
0.629593
0
LINE
8
BLACK
6
CONTINUOUS
10
1.15455
20
0.629593
11
1.15455
21
0.63
0
LINE
8
BLACK
6
CONTINUOUS
10
1.15455
20
0.63
11
1.1546
21
0.630286
0
LINE
8
BLACK
6
CONTINUOUS
10
1.1546
20
0.630286
11
1.15407
21
0.631567
0
LINE
8
BLACK
6
CONTINUOUS
10
1.15407
20
0.631567
11
1.1525
21
0.632216
0
LINE
8
BLACK
6
CONTINUOUS
10
1.1525
20
0.632216
11
1.15093
21
0.631567
0
LINE
8
BLACK
6
CONTINUOUS
10
1.15093
20
0.631567
11
1.15028
21
0.63
0
LINE
8
BLACK
6
CONTINUOUS
10
1.15028
20
0.63
11
1.15093
21
0.628433
0
LINE
8
BLACK
6
CONTINUOUS
10
1.15093
20
0.628433
11
1.1525
21
0.627784
0
LINE
8
BLACK
6
CONTINUOUS
10
1.04284
20
0.825961
11
1.04505
21
0.828724
0
LINE
8
BLACK
6
CONTINUOUS
10
1.04505
20
0.828724
11
1.04824
21
0.830255
0
LINE
8
BLACK
6
CONTINUOUS
10
1.04824
20
0.830255
11
1.05178
21
0.830252
0
LINE
8
BLACK
6
CONTINUOUS
10
1.05178
20
0.830252
11
1.05496
21
0.828715
0
LINE
8
BLACK
6
CONTINUOUS
10
1.05496
20
0.828715
11
1.05717
21
0.825949
0
LINE
8
BLACK
6
CONTINUOUS
10
1.05717
20
0.825949
11
1.05795
21
0.8225
0
LINE
8
BLACK
6
CONTINUOUS
10
1.05795
20
0.8225
11
1.05795
21
0.822472
0
LINE
8
BLACK
6
CONTINUOUS
10
1.05795
20
0.822472
11
1.05715
21
0.819026
0
LINE
8
BLACK
6
CONTINUOUS
10
1.05715
20
0.819026
11
1.05494
21
0.816267
0
LINE
8
BLACK
6
CONTINUOUS
10
1.05494
20
0.816267
11
1.05295
21
0.815318
0
LINE
8
BLACK
6
CONTINUOUS
10
1.05295
20
0.815318
11
1.05295
21
0.7775
0
LINE
8
BLACK
6
CONTINUOUS
10
1.05295
20
0.7775
11
1.05277
21
0.77649
0
LINE
8
BLACK
6
CONTINUOUS
10
1.05277
20
0.77649
11
1.05148
21
0.774943
0
LINE
8
BLACK
6
CONTINUOUS
10
1.05148
20
0.774943
11
1.04949
21
0.774592
0
LINE
8
BLACK
6
CONTINUOUS
10
1.04949
20
0.774592
11
1.04774
21
0.775602
0
LINE
8
BLACK
6
CONTINUOUS
10
1.04774
20
0.775602
11
1.04705
21
0.7775
0
LINE
8
BLACK
6
CONTINUOUS
10
1.04705
20
0.7775
11
1.04705
21
0.814547
0
LINE
8
BLACK
6
CONTINUOUS
10
1.04705
20
0.814547
11
0.992953
21
0.814547
0
LINE
8
BLACK
6
CONTINUOUS
10
0.992953
20
0.814547
11
0.992953
21
0.7775
0
LINE
8
BLACK
6
CONTINUOUS
10
0.992953
20
0.7775
11
0.992775
21
0.77649
0
LINE
8
BLACK
6
CONTINUOUS
10
0.992775
20
0.77649
11
0.991476
21
0.774943
0
LINE
8
BLACK
6
CONTINUOUS
10
0.991476
20
0.774943
11
0.989487
21
0.774592
0
LINE
8
BLACK
6
CONTINUOUS
10
0.989487
20
0.774592
11
0.987738
21
0.775602
0
LINE
8
BLACK
6
CONTINUOUS
10
0.987738
20
0.775602
11
0.987047
21
0.7775
0
LINE
8
BLACK
6
CONTINUOUS
10
0.987047
20
0.7775
11
0.987047
21
0.8175
0
LINE
8
BLACK
6
CONTINUOUS
10
0.987047
20
0.8175
11
0.987115
21
0.817884
0
LINE
8
BLACK
6
CONTINUOUS
10
0.987115
20
0.817884
11
0.987092
21
0.818013
0
LINE
8
BLACK
6
CONTINUOUS
10
0.987092
20
0.818013
11
0.987158
21
0.818126
0
LINE
8
BLACK
6
CONTINUOUS
10
0.987158
20
0.818126
11
0.987225
21
0.81851
0
LINE
8
BLACK
6
CONTINUOUS
10
0.987225
20
0.81851
11
0.987718
21
0.819098
0
LINE
8
BLACK
6
CONTINUOUS
10
0.987718
20
0.819098
11
0.988102
21
0.819762
0
LINE
8
BLACK
6
CONTINUOUS
10
0.988102
20
0.819762
11
0.988352
21
0.819853
0
LINE
8
BLACK
6
CONTINUOUS
10
0.988352
20
0.819853
11
0.988524
21
0.820057
0
LINE
8
BLACK
6
CONTINUOUS
10
0.988524
20
0.820057
11
0.989279
21
0.82019
0
LINE
8
BLACK
6
CONTINUOUS
10
0.989279
20
0.82019
11
0.99
21
0.820453
0
LINE
8
BLACK
6
CONTINUOUS
10
0.99
20
0.820453
11
1.04251
21
0.820453
0
LINE
8
BLACK
6
CONTINUOUS
10
1.04251
20
0.820453
11
1.04205
21
0.8225
0
LINE
8
BLACK
6
CONTINUOUS
10
1.04205
20
0.8225
11
1.04205
21
0.822514
0
LINE
8
BLACK
6
CONTINUOUS
10
1.04205
20
0.822514
11
1.04284
21
0.825961
0
LINE
8
BLACK
6
CONTINUOUS
10
1.04959
20
0.820453
11
1.05
21
0.820453
0
LINE
8
BLACK
6
CONTINUOUS
10
1.05
20
0.820453
11
1.05029
21
0.820402
0
LINE
8
BLACK
6
CONTINUOUS
10
1.05029
20
0.820402
11
1.05157
21
0.820933
0
LINE
8
BLACK
6
CONTINUOUS
10
1.05157
20
0.820933
11
1.05222
21
0.8225
0
LINE
8
BLACK
6
CONTINUOUS
10
1.05222
20
0.8225
11
1.05157
21
0.824067
0
LINE
8
BLACK
6
CONTINUOUS
10
1.05157
20
0.824067
11
1.05
21
0.824716
0
LINE
8
BLACK
6
CONTINUOUS
10
1.05
20
0.824716
11
1.04843
21
0.824067
0
LINE
8
BLACK
6
CONTINUOUS
10
1.04843
20
0.824067
11
1.04778
21
0.8225
0
LINE
8
BLACK
6
CONTINUOUS
10
1.04778
20
0.8225
11
1.04843
21
0.820933
0
LINE
8
BLACK
6
CONTINUOUS
10
1.04843
20
0.820933
11
1.04959
21
0.820453
0
LINE
8
BLACK
6
CONTINUOUS
10
0.95034
20
1.11346
11
0.952549
21
1.11622
0
LINE
8
BLACK
6
CONTINUOUS
10
0.952549
20
1.11622
11
0.955738
21
1.11776
0
LINE
8
BLACK
6
CONTINUOUS
10
0.955738
20
1.11776
11
0.959275
21
1.11775
0
LINE
8
BLACK
6
CONTINUOUS
10
0.959275
20
1.11775
11
0.962462
21
1.11622
0
LINE
8
BLACK
6
CONTINUOUS
10
0.962462
20
1.11622
11
0.964666
21
1.11345
0
LINE
8
BLACK
6
CONTINUOUS
10
0.964666
20
1.11345
11
0.964779
21
1.11295
0
LINE
8
BLACK
6
CONTINUOUS
10
0.964779
20
1.11295
11
1.0025
21
1.11295
0
LINE
8
BLACK
6
CONTINUOUS
10
1.0025
20
1.11295
11
1.00351
21
1.11277
0
LINE
8
BLACK
6
CONTINUOUS
10
1.00351
20
1.11277
11
1.00506
21
1.11148
0
LINE
8
BLACK
6
CONTINUOUS
10
1.00506
20
1.11148
11
1.00541
21
1.10949
0
LINE
8
BLACK
6
CONTINUOUS
10
1.00541
20
1.10949
11
1.0044
21
1.10774
0
LINE
8
BLACK
6
CONTINUOUS
10
1.0044
20
1.10774
11
1.0025
21
1.10705
0
LINE
8
BLACK
6
CONTINUOUS
10
1.0025
20
1.10705
11
0.965453
21
1.10705
0
LINE
8
BLACK
6
CONTINUOUS
10
0.965453
20
1.10705
11
0.965453
21
1.05295
0
LINE
8
BLACK
6
CONTINUOUS
10
0.965453
20
1.05295
11
1.0025
21
1.05295
0
LINE
8
BLACK
6
CONTINUOUS
10
1.0025
20
1.05295
11
1.00351
21
1.05277
0
LINE
8
BLACK
6
CONTINUOUS
10
1.00351
20
1.05277
11
1.00506
21
1.05148
0
LINE
8
BLACK
6
CONTINUOUS
10
1.00506
20
1.05148
11
1.00541
21
1.04949
0
LINE
8
BLACK
6
CONTINUOUS
10
1.00541
20
1.04949
11
1.0044
21
1.04774
0
LINE
8
BLACK
6
CONTINUOUS
10
1.0044
20
1.04774
11
1.0025
21
1.04705
0
LINE
8
BLACK
6
CONTINUOUS
10
1.0025
20
1.04705
11
0.9625
21
1.04705
0
LINE
8
BLACK
6
CONTINUOUS
10
0.9625
20
1.04705
11
0.962116
21
1.04711
0
LINE
8
BLACK
6
CONTINUOUS
10
0.962116
20
1.04711
11
0.961987
21
1.04709
0
LINE
8
BLACK
6
CONTINUOUS
10
0.961987
20
1.04709
11
0.961874
21
1.04716
0
LINE
8
BLACK
6
CONTINUOUS
10
0.961874
20
1.04716
11
0.96149
21
1.04723
0
LINE
8
BLACK
6
CONTINUOUS
10
0.96149
20
1.04723
11
0.960902
21
1.04772
0
LINE
8
BLACK
6
CONTINUOUS
10
0.960902
20
1.04772
11
0.960238
21
1.0481
0
LINE
8
BLACK
6
CONTINUOUS
10
0.960238
20
1.0481
11
0.960147
21
1.04835
0
LINE
8
BLACK
6
CONTINUOUS
10
0.960147
20
1.04835
11
0.959943
21
1.04852
0
LINE
8
BLACK
6
CONTINUOUS
10
0.959943
20
1.04852
11
0.95981
21
1.04928
0
LINE
8
BLACK
6
CONTINUOUS
10
0.95981
20
1.04928
11
0.959547
21
1.05
0
LINE
8
BLACK
6
CONTINUOUS
10
0.959547
20
1.05
11
0.959547
21
1.10238
0
LINE
8
BLACK
6
CONTINUOUS
10
0.959547
20
1.10238
11
0.959248
21
1.10224
0
LINE
8
BLACK
6
CONTINUOUS
10
0.959248
20
1.10224
11
0.955711
21
1.10225
0
LINE
8
BLACK
6
CONTINUOUS
10
0.955711
20
1.10225
11
0.952528
21
1.10379
0
LINE
8
BLACK
6
CONTINUOUS
10
0.952528
20
1.10379
11
0.950328
21
1.10656
0
LINE
8
BLACK
6
CONTINUOUS
10
0.950328
20
1.10656
11
0.94955
21
1.11
0
LINE
8
BLACK
6
CONTINUOUS
10
0.94955
20
1.11
11
0.949547
21
1.11001
0
LINE
8
BLACK
6
CONTINUOUS
10
0.949547
20
1.11001
11
0.95034
21
1.11346
0
LINE
8
BLACK
6
CONTINUOUS
10
0.9575
20
1.10778
11
0.959067
21
1.10843
0
LINE
8
BLACK
6
CONTINUOUS
10
0.959067
20
1.10843
11
0.959547
21
1.10959
0
LINE
8
BLACK
6
CONTINUOUS
10
0.959547
20
1.10959
11
0.959547
21
1.11
0
LINE
8
BLACK
6
CONTINUOUS
10
0.959547
20
1.11
11
0.959598
21
1.11029
0
LINE
8
BLACK
6
CONTINUOUS
10
0.959598
20
1.11029
11
0.959067
21
1.11157
0
LINE
8
BLACK
6
CONTINUOUS
10
0.959067
20
1.11157
11
0.9575
21
1.11222
0
LINE
8
BLACK
6
CONTINUOUS
10
0.9575
20
1.11222
11
0.955933
21
1.11157
0
LINE
8
BLACK
6
CONTINUOUS
10
0.955933
20
1.11157
11
0.955284
21
1.11
0
LINE
8
BLACK
6
CONTINUOUS
10
0.955284
20
1.11
11
0.955933
21
1.10843
0
LINE
8
BLACK
6
CONTINUOUS
10
0.955933
20
1.10843
11
0.9575
21
1.10778
0
LINE
8
BLACK
6
CONTINUOUS
10
1.22284
20
1.15596
11
1.22505
21
1.15872
0
LINE
8
BLACK
6
CONTINUOUS
10
1.22505
20
1.15872
11
1.22705
21
1.15968
0
LINE
8
BLACK
6
CONTINUOUS
10
1.22705
20
1.15968
11
1.22705
21
1.1975
0
LINE
8
BLACK
6
CONTINUOUS
10
1.22705
20
1.1975
11
1.22723
21
1.19851
0
LINE
8
BLACK
6
CONTINUOUS
10
1.22723
20
1.19851
11
1.22852
21
1.20006
0
LINE
8
BLACK
6
CONTINUOUS
10
1.22852
20
1.20006
11
1.23051
21
1.20041
0
LINE
8
BLACK
6
CONTINUOUS
10
1.23051
20
1.20041
11
1.23226
21
1.1994
0
LINE
8
BLACK
6
CONTINUOUS
10
1.23226
20
1.1994
11
1.23295
21
1.1975
0
LINE
8
BLACK
6
CONTINUOUS
10
1.23295
20
1.1975
11
1.23295
21
1.16045
0
LINE
8
BLACK
6
CONTINUOUS
10
1.23295
20
1.16045
11
1.28705
21
1.16045
0
LINE
8
BLACK
6
CONTINUOUS
10
1.28705
20
1.16045
11
1.28705
21
1.1975
0
LINE
8
BLACK
6
CONTINUOUS
10
1.28705
20
1.1975
11
1.28723
21
1.19851
0
LINE
8
BLACK
6
CONTINUOUS
10
1.28723
20
1.19851
11
1.28852
21
1.20006
0
LINE
8
BLACK
6
CONTINUOUS
10
1.28852
20
1.20006
11
1.29051
21
1.20041
0
LINE
8
BLACK
6
CONTINUOUS
10
1.29051
20
1.20041
11
1.29226
21
1.1994
0
LINE
8
BLACK
6
CONTINUOUS
10
1.29226
20
1.1994
11
1.29295
21
1.1975
0
LINE
8
BLACK
6
CONTINUOUS
10
1.29295
20
1.1975
11
1.29295
21
1.1575
0
LINE
8
BLACK
6
CONTINUOUS
10
1.29295
20
1.1575
11
1.29289
21
1.15712
0
LINE
8
BLACK
6
CONTINUOUS
10
1.29289
20
1.15712
11
1.29291
21
1.15699
0
LINE
8
BLACK
6
CONTINUOUS
10
1.29291
20
1.15699
11
1.29284
21
1.15687
0
LINE
8
BLACK
6
CONTINUOUS
10
1.29284
20
1.15687
11
1.29277
21
1.15649
0
LINE
8
BLACK
6
CONTINUOUS
10
1.29277
20
1.15649
11
1.29228
21
1.1559
0
LINE
8
BLACK
6
CONTINUOUS
10
1.29228
20
1.1559
11
1.2919
21
1.15524
0
LINE
8
BLACK
6
CONTINUOUS
10
1.2919
20
1.15524
11
1.29165
21
1.15515
0
LINE
8
BLACK
6
CONTINUOUS
10
1.29165
20
1.15515
11
1.29148
21
1.15494
0
LINE
8
BLACK
6
CONTINUOUS
10
1.29148
20
1.15494
11
1.29072
21
1.15481
0
LINE
8
BLACK
6
CONTINUOUS
10
1.29072
20
1.15481
11
1.29
21
1.15455
0
LINE
8
BLACK
6
CONTINUOUS
10
1.29
20
1.15455
11
1.23749
21
1.15455
0
LINE
8
BLACK
6
CONTINUOUS
10
1.23749
20
1.15455
11
1.23795
21
1.1525
0
LINE
8
BLACK
6
CONTINUOUS
10
1.23795
20
1.1525
11
1.23795
21
1.15247
0
LINE
8
BLACK
6
CONTINUOUS
10
1.23795
20
1.15247
11
1.23715
21
1.14903
0
LINE
8
BLACK
6
CONTINUOUS
10
1.23715
20
1.14903
11
1.23494
21
1.14627
0
LINE
8
BLACK
6
CONTINUOUS
10
1.23494
20
1.14627
11
1.23175
21
1.14474
0
LINE
8
BLACK
6
CONTINUOUS
10
1.23175
20
1.14474
11
1.22821
21
1.14475
0
LINE
8
BLACK
6
CONTINUOUS
10
1.22821
20
1.14475
11
1.22503
21
1.14629
0
LINE
8
BLACK
6
CONTINUOUS
10
1.22503
20
1.14629
11
1.22283
21
1.14906
0
LINE
8
BLACK
6
CONTINUOUS
10
1.22283
20
1.14906
11
1.22205
21
1.1525
0
LINE
8
BLACK
6
CONTINUOUS
10
1.22205
20
1.1525
11
1.22205
21
1.15251
0
LINE
8
BLACK
6
CONTINUOUS
10
1.22205
20
1.15251
11
1.22284
21
1.15596
0
LINE
8
BLACK
6
CONTINUOUS
10
1.23
20
1.15028
11
1.23157
21
1.15093
0
LINE
8
BLACK
6
CONTINUOUS
10
1.23157
20
1.15093
11
1.23222
21
1.1525
0
LINE
8
BLACK
6
CONTINUOUS
10
1.23222
20
1.1525
11
1.23157
21
1.15407
0
LINE
8
BLACK
6
CONTINUOUS
10
1.23157
20
1.15407
11
1.23041
21
1.15455
0
LINE
8
BLACK
6
CONTINUOUS
10
1.23041
20
1.15455
11
1.23
21
1.15455
0
LINE
8
BLACK
6
CONTINUOUS
10
1.23
20
1.15455
11
1.22971
21
1.1546
0
LINE
8
BLACK
6
CONTINUOUS
10
1.22971
20
1.1546
11
1.22843
21
1.15407
0
LINE
8
BLACK
6
CONTINUOUS
10
1.22843
20
1.15407
11
1.22778
21
1.1525
0
LINE
8
BLACK
6
CONTINUOUS
10
1.22778
20
1.1525
11
1.22843
21
1.15093
0
LINE
8
BLACK
6
CONTINUOUS
10
1.22843
20
1.15093
11
1.23
21
1.15028
0
LINE
8
BLACK
6
CONTINUOUS
10
1.18284
20
1.16596
11
1.18505
21
1.16872
0
LINE
8
BLACK
6
CONTINUOUS
10
1.18505
20
1.16872
11
1.18824
21
1.17026
0
LINE
8
BLACK
6
CONTINUOUS
10
1.18824
20
1.17026
11
1.19178
21
1.17025
0
LINE
8
BLACK
6
CONTINUOUS
10
1.19178
20
1.17025
11
1.19496
21
1.16872
0
LINE
8
BLACK
6
CONTINUOUS
10
1.19496
20
1.16872
11
1.19717
21
1.16595
0
LINE
8
BLACK
6
CONTINUOUS
10
1.19717
20
1.16595
11
1.19795
21
1.1625
0
LINE
8
BLACK
6
CONTINUOUS
10
1.19795
20
1.1625
11
1.19795
21
1.16247
0
LINE
8
BLACK
6
CONTINUOUS
10
1.19795
20
1.16247
11
1.19715
21
1.15903
0
LINE
8
BLACK
6
CONTINUOUS
10
1.19715
20
1.15903
11
1.19494
21
1.15627
0
LINE
8
BLACK
6
CONTINUOUS
10
1.19494
20
1.15627
11
1.19295
21
1.15532
0
LINE
8
BLACK
6
CONTINUOUS
10
1.19295
20
1.15532
11
1.19295
21
1.1175
0
LINE
8
BLACK
6
CONTINUOUS
10
1.19295
20
1.1175
11
1.19277
21
1.11649
0
LINE
8
BLACK
6
CONTINUOUS
10
1.19277
20
1.11649
11
1.19148
21
1.11494
0
LINE
8
BLACK
6
CONTINUOUS
10
1.19148
20
1.11494
11
1.18949
21
1.11459
0
LINE
8
BLACK
6
CONTINUOUS
10
1.18949
20
1.11459
11
1.18774
21
1.1156
0
LINE
8
BLACK
6
CONTINUOUS
10
1.18774
20
1.1156
11
1.18705
21
1.1175
0
LINE
8
BLACK
6
CONTINUOUS
10
1.18705
20
1.1175
11
1.18705
21
1.15455
0
LINE
8
BLACK
6
CONTINUOUS
10
1.18705
20
1.15455
11
1.13295
21
1.15455
0
LINE
8
BLACK
6
CONTINUOUS
10
1.13295
20
1.15455
11
1.13295
21
1.1175
0
LINE
8
BLACK
6
CONTINUOUS
10
1.13295
20
1.1175
11
1.13277
21
1.11649
0
LINE
8
BLACK
6
CONTINUOUS
10
1.13277
20
1.11649
11
1.13148
21
1.11494
0
LINE
8
BLACK
6
CONTINUOUS
10
1.13148
20
1.11494
11
1.12949
21
1.11459
0
LINE
8
BLACK
6
CONTINUOUS
10
1.12949
20
1.11459
11
1.12774
21
1.1156
0
LINE
8
BLACK
6
CONTINUOUS
10
1.12774
20
1.1156
11
1.12705
21
1.1175
0
LINE
8
BLACK
6
CONTINUOUS
10
1.12705
20
1.1175
11
1.12705
21
1.1575
0
LINE
8
BLACK
6
CONTINUOUS
10
1.12705
20
1.1575
11
1.12711
21
1.15788
0
LINE
8
BLACK
6
CONTINUOUS
10
1.12711
20
1.15788
11
1.12709
21
1.15801
0
LINE
8
BLACK
6
CONTINUOUS
10
1.12709
20
1.15801
11
1.12716
21
1.15813
0
LINE
8
BLACK
6
CONTINUOUS
10
1.12716
20
1.15813
11
1.12723
21
1.15851
0
LINE
8
BLACK
6
CONTINUOUS
10
1.12723
20
1.15851
11
1.12772
21
1.1591
0
LINE
8
BLACK
6
CONTINUOUS
10
1.12772
20
1.1591
11
1.1281
21
1.15976
0
LINE
8
BLACK
6
CONTINUOUS
10
1.1281
20
1.15976
11
1.12835
21
1.15985
0
LINE
8
BLACK
6
CONTINUOUS
10
1.12835
20
1.15985
11
1.12852
21
1.16006
0
LINE
8
BLACK
6
CONTINUOUS
10
1.12852
20
1.16006
11
1.12928
21
1.16019
0
LINE
8
BLACK
6
CONTINUOUS
10
1.12928
20
1.16019
11
1.13
21
1.16045
0
LINE
8
BLACK
6
CONTINUOUS
10
1.13
20
1.16045
11
1.18251
21
1.16045
0
LINE
8
BLACK
6
CONTINUOUS
10
1.18251
20
1.16045
11
1.18205
21
1.1625
0
LINE
8
BLACK
6
CONTINUOUS
10
1.18205
20
1.1625
11
1.18205
21
1.16251
0
LINE
8
BLACK
6
CONTINUOUS
10
1.18205
20
1.16251
11
1.18284
21
1.16596
0
LINE
8
BLACK
6
CONTINUOUS
10
1.18959
20
1.16045
11
1.19
21
1.16045
0
LINE
8
BLACK
6
CONTINUOUS
10
1.19
20
1.16045
11
1.19029
21
1.1604
0
LINE
8
BLACK
6
CONTINUOUS
10
1.19029
20
1.1604
11
1.19157
21
1.16093
0
LINE
8
BLACK
6
CONTINUOUS
10
1.19157
20
1.16093
11
1.19222
21
1.1625
0
LINE
8
BLACK
6
CONTINUOUS
10
1.19222
20
1.1625
11
1.19157
21
1.16407
0
LINE
8
BLACK
6
CONTINUOUS
10
1.19157
20
1.16407
11
1.19
21
1.16472
0
LINE
8
BLACK
6
CONTINUOUS
10
1.19
20
1.16472
11
1.18843
21
1.16407
0
LINE
8
BLACK
6
CONTINUOUS
10
1.18843
20
1.16407
11
1.18778
21
1.1625
0
LINE
8
BLACK
6
CONTINUOUS
10
1.18778
20
1.1625
11
1.18843
21
1.16093
0
LINE
8
BLACK
6
CONTINUOUS
10
1.18843
20
1.16093
11
1.18959
21
1.16045
0
LINE
8
BLACK
6
CONTINUOUS
10
1.07034
20
1.25346
11
1.07255
21
1.25622
0
LINE
8
BLACK
6
CONTINUOUS
10
1.07255
20
1.25622
11
1.07574
21
1.25776
0
LINE
8
BLACK
6
CONTINUOUS
10
1.07574
20
1.25776
11
1.07928
21
1.25775
0
LINE
8
BLACK
6
CONTINUOUS
10
1.07928
20
1.25775
11
1.08246
21
1.25622
0
LINE
8
BLACK
6
CONTINUOUS
10
1.08246
20
1.25622
11
1.08467
21
1.25345
0
LINE
8
BLACK
6
CONTINUOUS
10
1.08467
20
1.25345
11
1.08478
21
1.25295
0
LINE
8
BLACK
6
CONTINUOUS
10
1.08478
20
1.25295
11
1.1225
21
1.25295
0
LINE
8
BLACK
6
CONTINUOUS
10
1.1225
20
1.25295
11
1.12351
21
1.25277
0
LINE
8
BLACK
6
CONTINUOUS
10
1.12351
20
1.25277
11
1.12506
21
1.25148
0
LINE
8
BLACK
6
CONTINUOUS
10
1.12506
20
1.25148
11
1.12541
21
1.24949
0
LINE
8
BLACK
6
CONTINUOUS
10
1.12541
20
1.24949
11
1.1244
21
1.24774
0
LINE
8
BLACK
6
CONTINUOUS
10
1.1244
20
1.24774
11
1.1225
21
1.24705
0
LINE
8
BLACK
6
CONTINUOUS
10
1.1225
20
1.24705
11
1.08545
21
1.24705
0
LINE
8
BLACK
6
CONTINUOUS
10
1.08545
20
1.24705
11
1.08545
21
1.19295
0
LINE
8
BLACK
6
CONTINUOUS
10
1.08545
20
1.19295
11
1.1225
21
1.19295
0
LINE
8
BLACK
6
CONTINUOUS
10
1.1225
20
1.19295
11
1.12351
21
1.19277
0
LINE
8
BLACK
6
CONTINUOUS
10
1.12351
20
1.19277
11
1.12506
21
1.19148
0
LINE
8
BLACK
6
CONTINUOUS
10
1.12506
20
1.19148
11
1.12541
21
1.18949
0
LINE
8
BLACK
6
CONTINUOUS
10
1.12541
20
1.18949
11
1.1244
21
1.18774
0
LINE
8
BLACK
6
CONTINUOUS
10
1.1244
20
1.18774
11
1.1225
21
1.18705
0
LINE
8
BLACK
6
CONTINUOUS
10
1.1225
20
1.18705
11
1.0825
21
1.18705
0
LINE
8
BLACK
6
CONTINUOUS
10
1.0825
20
1.18705
11
1.08212
21
1.18711
0
LINE
8
BLACK
6
CONTINUOUS
10
1.08212
20
1.18711
11
1.08199
21
1.18709
0
LINE
8
BLACK
6
CONTINUOUS
10
1.08199
20
1.18709
11
1.08187
21
1.18716
0
LINE
8
BLACK
6
CONTINUOUS
10
1.08187
20
1.18716
11
1.08149
21
1.18723
0
LINE
8
BLACK
6
CONTINUOUS
10
1.08149
20
1.18723
11
1.0809
21
1.18772
0
LINE
8
BLACK
6
CONTINUOUS
10
1.0809
20
1.18772
11
1.08024
21
1.1881
0
LINE
8
BLACK
6
CONTINUOUS
10
1.08024
20
1.1881
11
1.08015
21
1.18835
0
LINE
8
BLACK
6
CONTINUOUS
10
1.08015
20
1.18835
11
1.07994
21
1.18852
0
LINE
8
BLACK
6
CONTINUOUS
10
1.07994
20
1.18852
11
1.07981
21
1.18928
0
LINE
8
BLACK
6
CONTINUOUS
10
1.07981
20
1.18928
11
1.07955
21
1.19
0
LINE
8
BLACK
6
CONTINUOUS
10
1.07955
20
1.19
11
1.07955
21
1.24238
0
LINE
8
BLACK
6
CONTINUOUS
10
1.07955
20
1.24238
11
1.07925
21
1.24224
0
LINE
8
BLACK
6
CONTINUOUS
10
1.07925
20
1.24224
11
1.07571
21
1.24225
0
LINE
8
BLACK
6
CONTINUOUS
10
1.07571
20
1.24225
11
1.07253
21
1.24379
0
LINE
8
BLACK
6
CONTINUOUS
10
1.07253
20
1.24379
11
1.07033
21
1.24656
0
LINE
8
BLACK
6
CONTINUOUS
10
1.07033
20
1.24656
11
1.06955
21
1.25
0
LINE
8
BLACK
6
CONTINUOUS
10
1.06955
20
1.25
11
1.06955
21
1.25001
0
LINE
8
BLACK
6
CONTINUOUS
10
1.06955
20
1.25001
11
1.07034
21
1.25346
0
LINE
8
BLACK
6
CONTINUOUS
10
1.0775
20
1.24778
11
1.07907
21
1.24843
0
LINE
8
BLACK
6
CONTINUOUS
10
1.07907
20
1.24843
11
1.07955
21
1.24959
0
LINE
8
BLACK
6
CONTINUOUS
10
1.07955
20
1.24959
11
1.07955
21
1.25
0
LINE
8
BLACK
6
CONTINUOUS
10
1.07955
20
1.25
11
1.0796
21
1.25029
0
LINE
8
BLACK
6
CONTINUOUS
10
1.0796
20
1.25029
11
1.07907
21
1.25157
0
LINE
8
BLACK
6
CONTINUOUS
10
1.07907
20
1.25157
11
1.0775
21
1.25222
0
LINE
8
BLACK
6
CONTINUOUS
10
1.0775
20
1.25222
11
1.07593
21
1.25157
0
LINE
8
BLACK
6
CONTINUOUS
10
1.07593
20
1.25157
11
1.07528
21
1.25
0
LINE
8
BLACK
6
CONTINUOUS
10
1.07528
20
1.25
11
1.07593
21
1.24843
0
LINE
8
BLACK
6
CONTINUOUS
10
1.07593
20
1.24843
11
1.0775
21
1.24778
0
LINE
8
BLACK
6
CONTINUOUS
10
1.07034
20
1.35346
11
1.07255
21
1.35622
0
LINE
8
BLACK
6
CONTINUOUS
10
1.07255
20
1.35622
11
1.07574
21
1.35776
0
LINE
8
BLACK
6
CONTINUOUS
10
1.07574
20
1.35776
11
1.07928
21
1.35775
0
LINE
8
BLACK
6
CONTINUOUS
10
1.07928
20
1.35775
11
1.08246
21
1.35622
0
LINE
8
BLACK
6
CONTINUOUS
10
1.08246
20
1.35622
11
1.08467
21
1.35345
0
LINE
8
BLACK
6
CONTINUOUS
10
1.08467
20
1.35345
11
1.08478
21
1.35295
0
LINE
8
BLACK
6
CONTINUOUS
10
1.08478
20
1.35295
11
1.1225
21
1.35295
0
LINE
8
BLACK
6
CONTINUOUS
10
1.1225
20
1.35295
11
1.12351
21
1.35277
0
LINE
8
BLACK
6
CONTINUOUS
10
1.12351
20
1.35277
11
1.12506
21
1.35148
0
LINE
8
BLACK
6
CONTINUOUS
10
1.12506
20
1.35148
11
1.12541
21
1.34949
0
LINE
8
BLACK
6
CONTINUOUS
10
1.12541
20
1.34949
11
1.1244
21
1.34774
0
LINE
8
BLACK
6
CONTINUOUS
10
1.1244
20
1.34774
11
1.1225
21
1.34705
0
LINE
8
BLACK
6
CONTINUOUS
10
1.1225
20
1.34705
11
1.08545
21
1.34705
0
LINE
8
BLACK
6
CONTINUOUS
10
1.08545
20
1.34705
11
1.08545
21
1.29295
0
LINE
8
BLACK
6
CONTINUOUS
10
1.08545
20
1.29295
11
1.1225
21
1.29295
0
LINE
8
BLACK
6
CONTINUOUS
10
1.1225
20
1.29295
11
1.12351
21
1.29277
0
LINE
8
BLACK
6
CONTINUOUS
10
1.12351
20
1.29277
11
1.12506
21
1.29148
0
LINE
8
BLACK
6
CONTINUOUS
10
1.12506
20
1.29148
11
1.12541
21
1.28949
0
LINE
8
BLACK
6
CONTINUOUS
10
1.12541
20
1.28949
11
1.1244
21
1.28774
0
LINE
8
BLACK
6
CONTINUOUS
10
1.1244
20
1.28774
11
1.1225
21
1.28705
0
LINE
8
BLACK
6
CONTINUOUS
10
1.1225
20
1.28705
11
1.0825
21
1.28705
0
LINE
8
BLACK
6
CONTINUOUS
10
1.0825
20
1.28705
11
1.08212
21
1.28711
0
LINE
8
BLACK
6
CONTINUOUS
10
1.08212
20
1.28711
11
1.08199
21
1.28709
0
LINE
8
BLACK
6
CONTINUOUS
10
1.08199
20
1.28709
11
1.08187
21
1.28716
0
LINE
8
BLACK
6
CONTINUOUS
10
1.08187
20
1.28716
11
1.08149
21
1.28723
0
LINE
8
BLACK
6
CONTINUOUS
10
1.08149
20
1.28723
11
1.0809
21
1.28772
0
LINE
8
BLACK
6
CONTINUOUS
10
1.0809
20
1.28772
11
1.08024
21
1.2881
0
LINE
8
BLACK
6
CONTINUOUS
10
1.08024
20
1.2881
11
1.08015
21
1.28835
0
LINE
8
BLACK
6
CONTINUOUS
10
1.08015
20
1.28835
11
1.07994
21
1.28852
0
LINE
8
BLACK
6
CONTINUOUS
10
1.07994
20
1.28852
11
1.07981
21
1.28928
0
LINE
8
BLACK
6
CONTINUOUS
10
1.07981
20
1.28928
11
1.07955
21
1.29
0
LINE
8
BLACK
6
CONTINUOUS
10
1.07955
20
1.29
11
1.07955
21
1.34238
0
LINE
8
BLACK
6
CONTINUOUS
10
1.07955
20
1.34238
11
1.07925
21
1.34224
0
LINE
8
BLACK
6
CONTINUOUS
10
1.07925
20
1.34224
11
1.07571
21
1.34225
0
LINE
8
BLACK
6
CONTINUOUS
10
1.07571
20
1.34225
11
1.07253
21
1.34379
0
LINE
8
BLACK
6
CONTINUOUS
10
1.07253
20
1.34379
11
1.07033
21
1.34656
0
LINE
8
BLACK
6
CONTINUOUS
10
1.07033
20
1.34656
11
1.06955
21
1.35
0
LINE
8
BLACK
6
CONTINUOUS
10
1.06955
20
1.35
11
1.06955
21
1.35001
0
LINE
8
BLACK
6
CONTINUOUS
10
1.06955
20
1.35001
11
1.07034
21
1.35346
0
LINE
8
BLACK
6
CONTINUOUS
10
1.0775
20
1.34778
11
1.07907
21
1.34843
0
LINE
8
BLACK
6
CONTINUOUS
10
1.07907
20
1.34843
11
1.07955
21
1.34959
0
LINE
8
BLACK
6
CONTINUOUS
10
1.07955
20
1.34959
11
1.07955
21
1.35
0
LINE
8
BLACK
6
CONTINUOUS
10
1.07955
20
1.35
11
1.0796
21
1.35029
0
LINE
8
BLACK
6
CONTINUOUS
10
1.0796
20
1.35029
11
1.07907
21
1.35157
0
LINE
8
BLACK
6
CONTINUOUS
10
1.07907
20
1.35157
11
1.0775
21
1.35222
0
LINE
8
BLACK
6
CONTINUOUS
10
1.0775
20
1.35222
11
1.07593
21
1.35157
0
LINE
8
BLACK
6
CONTINUOUS
10
1.07593
20
1.35157
11
1.07528
21
1.35
0
LINE
8
BLACK
6
CONTINUOUS
10
1.07528
20
1.35
11
1.07593
21
1.34843
0
LINE
8
BLACK
6
CONTINUOUS
10
1.07593
20
1.34843
11
1.0775
21
1.34778
  0
ENDSEC
  0
EOF
