  0
SECTION
  2
HEADER
  9
$ANGBASE
  50
0.0
  9
$ANGDIR
  70
1
  9
$MEASUREMENT
  70
0
  0
ENDSEC
  0
SECTION
  2
TABLES
  0
TABLE
  2
LTYPE
  70
4
  0
LTYPE
  5
40F
  2
CONTINUOUS
  70
0
  3
Solid line
  72
65
  73
0
  40
0.0
  0
LTYPE
  5
410
  2
DASHDOT
 70
0
  3
Dash Dot ____ _ ____ _
 72
65
 73
4
 40
2.0
 49
1.25
 49
-0.25
 49
0.25
 49
-0.25
  0
LTYPE
  5
411
  2
DASHED
 70
0
  3
Dashed __ __ __ __ __
 72
65
 73
2
 40
0.75
 49
0.5
 49
-0.25
  0
LTYPE
  5
43B
  2
DOTTED
 70
0
  3
Dotted .  .  .  .
 72
65
 73
2
 40
0.2
 49
0.0
 49
-0.2
  0
ENDTAB
  0
TABLE
  2
STYLE
  70
4
  0
STYLE
  2
KICAD
  70
0
  40
0
  41
1
  42
1
  50
0
  71
0
  3
isocp.shx
  0
STYLE
  2
KICADB
  70
0
  40
0
  41
1
  42
1
  50
0
  71
0
  3
isocp.shx
  0
STYLE
  2
KICADI
  70
0
  40
0
  41
1
  42
1
  50
15
  71
0
  3
isocp.shx
  0
STYLE
  2
KICADBI
  70
0
  40
0
  41
1
  42
1
  50
15
  71
0
  3
isocp.shx
  0
ENDTAB
  0
TABLE
  2
LAYER
  70
1
  0
LAYER
  2
BLACK
  70
0
  62
7
  6
CONTINUOUS
  0
ENDTAB
  0
ENDSEC
  0
SECTION
  2
ENTITIES
0
LINE
8
BLACK
6
CONTINUOUS
10
0.0229135
20
1.5756
11
0.0250259
21
1.57743
0
LINE
8
BLACK
6
CONTINUOUS
10
0.0250259
20
1.57743
11
0.0270866
21
1.57787
0
LINE
8
BLACK
6
CONTINUOUS
10
0.0270866
20
1.57787
11
1.97291
21
1.57787
0
LINE
8
BLACK
6
CONTINUOUS
10
1.97291
20
1.57787
11
1.9756
21
1.57709
0
LINE
8
BLACK
6
CONTINUOUS
10
1.9756
20
1.57709
11
1.97743
21
1.57497
0
LINE
8
BLACK
6
CONTINUOUS
10
1.97743
20
1.57497
11
1.97787
21
1.57291
0
LINE
8
BLACK
6
CONTINUOUS
10
1.97787
20
1.57291
11
1.97787
21
0.0270866
0
LINE
8
BLACK
6
CONTINUOUS
10
1.97787
20
0.0270866
11
1.97709
21
0.0244047
0
LINE
8
BLACK
6
CONTINUOUS
10
1.97709
20
0.0244047
11
1.97497
21
0.0225743
0
LINE
8
BLACK
6
CONTINUOUS
10
1.97497
20
0.0225743
11
1.97291
21
0.022126
0
LINE
8
BLACK
6
CONTINUOUS
10
1.97291
20
0.022126
11
0.0270866
21
0.022126
0
LINE
8
BLACK
6
CONTINUOUS
10
0.0270866
20
0.022126
11
0.0244047
21
0.0229135
0
LINE
8
BLACK
6
CONTINUOUS
10
0.0244047
20
0.0229135
11
0.0225743
21
0.0250259
0
LINE
8
BLACK
6
CONTINUOUS
10
0.0225743
20
0.0250259
11
0.022126
21
0.0270866
0
LINE
8
BLACK
6
CONTINUOUS
10
0.022126
20
0.0270866
11
0.022126
21
1.57291
0
LINE
8
BLACK
6
CONTINUOUS
10
0.022126
20
1.57291
11
0.0229135
21
1.5756
0
LINE
8
BLACK
6
CONTINUOUS
10
0.698969
20
0.814507
11
0.701698
21
0.810893
0
LINE
8
BLACK
6
CONTINUOUS
10
0.701698
20
0.810893
11
0.705548
21
0.808509
0
LINE
8
BLACK
6
CONTINUOUS
10
0.705548
20
0.808509
11
0.71
21
0.807677
0
LINE
8
BLACK
6
CONTINUOUS
10
0.71
20
0.807677
11
0.77
21
0.807677
0
LINE
8
BLACK
6
CONTINUOUS
10
0.77
20
0.807677
11
0.775493
21
0.808969
0
LINE
8
BLACK
6
CONTINUOUS
10
0.775493
20
0.808969
11
0.779107
21
0.811698
0
LINE
8
BLACK
6
CONTINUOUS
10
0.779107
20
0.811698
11
0.781491
21
0.815548
0
LINE
8
BLACK
6
CONTINUOUS
10
0.781491
20
0.815548
11
0.782323
21
0.82
0
LINE
8
BLACK
6
CONTINUOUS
10
0.782323
20
0.82
11
0.782323
21
0.88
0
LINE
8
BLACK
6
CONTINUOUS
10
0.782323
20
0.88
11
0.781031
21
0.885493
0
LINE
8
BLACK
6
CONTINUOUS
10
0.781031
20
0.885493
11
0.778302
21
0.889107
0
LINE
8
BLACK
6
CONTINUOUS
10
0.778302
20
0.889107
11
0.774452
21
0.891491
0
LINE
8
BLACK
6
CONTINUOUS
10
0.774452
20
0.891491
11
0.77
21
0.892323
0
LINE
8
BLACK
6
CONTINUOUS
10
0.77
20
0.892323
11
0.71
21
0.892323
0
LINE
8
BLACK
6
CONTINUOUS
10
0.71
20
0.892323
11
0.704507
21
0.891031
0
LINE
8
BLACK
6
CONTINUOUS
10
0.704507
20
0.891031
11
0.700893
21
0.888302
0
LINE
8
BLACK
6
CONTINUOUS
10
0.700893
20
0.888302
11
0.698509
21
0.884452
0
LINE
8
BLACK
6
CONTINUOUS
10
0.698509
20
0.884452
11
0.697677
21
0.88
0
LINE
8
BLACK
6
CONTINUOUS
10
0.697677
20
0.88
11
0.697677
21
0.82
0
LINE
8
BLACK
6
CONTINUOUS
10
0.697677
20
0.82
11
0.698969
21
0.814507
0
LINE
8
BLACK
6
CONTINUOUS
10
1.44897
20
0.404507
11
1.4517
21
0.400893
0
LINE
8
BLACK
6
CONTINUOUS
10
1.4517
20
0.400893
11
1.45555
21
0.398509
0
LINE
8
BLACK
6
CONTINUOUS
10
1.45555
20
0.398509
11
1.46
21
0.397677
0
LINE
8
BLACK
6
CONTINUOUS
10
1.46
20
0.397677
11
1.52
21
0.397677
0
LINE
8
BLACK
6
CONTINUOUS
10
1.52
20
0.397677
11
1.52549
21
0.398969
0
LINE
8
BLACK
6
CONTINUOUS
10
1.52549
20
0.398969
11
1.52911
21
0.401698
0
LINE
8
BLACK
6
CONTINUOUS
10
1.52911
20
0.401698
11
1.53149
21
0.405548
0
LINE
8
BLACK
6
CONTINUOUS
10
1.53149
20
0.405548
11
1.53232
21
0.41
0
LINE
8
BLACK
6
CONTINUOUS
10
1.53232
20
0.41
11
1.53232
21
0.47
0
LINE
8
BLACK
6
CONTINUOUS
10
1.53232
20
0.47
11
1.53103
21
0.475493
0
LINE
8
BLACK
6
CONTINUOUS
10
1.53103
20
0.475493
11
1.5283
21
0.479107
0
LINE
8
BLACK
6
CONTINUOUS
10
1.5283
20
0.479107
11
1.52445
21
0.481491
0
LINE
8
BLACK
6
CONTINUOUS
10
1.52445
20
0.481491
11
1.52
21
0.482323
0
LINE
8
BLACK
6
CONTINUOUS
10
1.52
20
0.482323
11
1.46
21
0.482323
0
LINE
8
BLACK
6
CONTINUOUS
10
1.46
20
0.482323
11
1.45451
21
0.481031
0
LINE
8
BLACK
6
CONTINUOUS
10
1.45451
20
0.481031
11
1.45089
21
0.478302
0
LINE
8
BLACK
6
CONTINUOUS
10
1.45089
20
0.478302
11
1.44851
21
0.474452
0
LINE
8
BLACK
6
CONTINUOUS
10
1.44851
20
0.474452
11
1.44768
21
0.47
0
LINE
8
BLACK
6
CONTINUOUS
10
1.44768
20
0.47
11
1.44768
21
0.41
0
LINE
8
BLACK
6
CONTINUOUS
10
1.44768
20
0.41
11
1.44897
21
0.404507
0
LINE
8
BLACK
6
CONTINUOUS
10
1.44897
20
1.12451
11
1.4517
21
1.12089
0
LINE
8
BLACK
6
CONTINUOUS
10
1.4517
20
1.12089
11
1.45555
21
1.11851
0
LINE
8
BLACK
6
CONTINUOUS
10
1.45555
20
1.11851
11
1.46
21
1.11768
0
LINE
8
BLACK
6
CONTINUOUS
10
1.46
20
1.11768
11
1.52
21
1.11768
0
LINE
8
BLACK
6
CONTINUOUS
10
1.52
20
1.11768
11
1.52549
21
1.11897
0
LINE
8
BLACK
6
CONTINUOUS
10
1.52549
20
1.11897
11
1.52911
21
1.1217
0
LINE
8
BLACK
6
CONTINUOUS
10
1.52911
20
1.1217
11
1.53149
21
1.12555
0
LINE
8
BLACK
6
CONTINUOUS
10
1.53149
20
1.12555
11
1.53232
21
1.13
0
LINE
8
BLACK
6
CONTINUOUS
10
1.53232
20
1.13
11
1.53232
21
1.19
0
LINE
8
BLACK
6
CONTINUOUS
10
1.53232
20
1.19
11
1.53103
21
1.19549
0
LINE
8
BLACK
6
CONTINUOUS
10
1.53103
20
1.19549
11
1.53065
21
1.196
0
LINE
8
BLACK
6
CONTINUOUS
10
1.53065
20
1.196
11
1.5292
21
1.19791
0
LINE
8
BLACK
6
CONTINUOUS
10
1.5292
20
1.19791
11
1.5283
21
1.19911
0
LINE
8
BLACK
6
CONTINUOUS
10
1.5283
20
1.19911
11
1.52445
21
1.20149
0
LINE
8
BLACK
6
CONTINUOUS
10
1.52445
20
1.20149
11
1.52
21
1.20232
0
LINE
8
BLACK
6
CONTINUOUS
10
1.52
20
1.20232
11
1.46
21
1.20232
0
LINE
8
BLACK
6
CONTINUOUS
10
1.46
20
1.20232
11
1.45451
21
1.20103
0
LINE
8
BLACK
6
CONTINUOUS
10
1.45451
20
1.20103
11
1.45409
21
1.20072
0
LINE
8
BLACK
6
CONTINUOUS
10
1.45409
20
1.20072
11
1.45345
21
1.20023
0
LINE
8
BLACK
6
CONTINUOUS
10
1.45345
20
1.20023
11
1.45089
21
1.1983
0
LINE
8
BLACK
6
CONTINUOUS
10
1.45089
20
1.1983
11
1.44851
21
1.19445
0
LINE
8
BLACK
6
CONTINUOUS
10
1.44851
20
1.19445
11
1.44768
21
1.19
0
LINE
8
BLACK
6
CONTINUOUS
10
1.44768
20
1.19
11
1.44768
21
1.13
0
LINE
8
BLACK
6
CONTINUOUS
10
1.44768
20
1.13
11
1.44897
21
1.12451
0
LINE
8
BLACK
6
CONTINUOUS
10
0.558969
20
1.29451
11
0.561698
21
1.29089
0
LINE
8
BLACK
6
CONTINUOUS
10
0.561698
20
1.29089
11
0.565548
21
1.28851
0
LINE
8
BLACK
6
CONTINUOUS
10
0.565548
20
1.28851
11
0.57
21
1.28768
0
LINE
8
BLACK
6
CONTINUOUS
10
0.57
20
1.28768
11
0.63
21
1.28768
0
LINE
8
BLACK
6
CONTINUOUS
10
0.63
20
1.28768
11
0.635493
21
1.28897
0
LINE
8
BLACK
6
CONTINUOUS
10
0.635493
20
1.28897
11
0.639107
21
1.2917
0
LINE
8
BLACK
6
CONTINUOUS
10
0.639107
20
1.2917
11
0.641491
21
1.29555
0
LINE
8
BLACK
6
CONTINUOUS
10
0.641491
20
1.29555
11
0.642323
21
1.3
0
LINE
8
BLACK
6
CONTINUOUS
10
0.642323
20
1.3
11
0.642323
21
1.36
0
LINE
8
BLACK
6
CONTINUOUS
10
0.642323
20
1.36
11
0.641031
21
1.36549
0
LINE
8
BLACK
6
CONTINUOUS
10
0.641031
20
1.36549
11
0.638302
21
1.36911
0
LINE
8
BLACK
6
CONTINUOUS
10
0.638302
20
1.36911
11
0.634452
21
1.37149
0
LINE
8
BLACK
6
CONTINUOUS
10
0.634452
20
1.37149
11
0.63
21
1.37232
0
LINE
8
BLACK
6
CONTINUOUS
10
0.63
20
1.37232
11
0.57
21
1.37232
0
LINE
8
BLACK
6
CONTINUOUS
10
0.57
20
1.37232
11
0.564507
21
1.37103
0
LINE
8
BLACK
6
CONTINUOUS
10
0.564507
20
1.37103
11
0.560893
21
1.3683
0
LINE
8
BLACK
6
CONTINUOUS
10
0.560893
20
1.3683
11
0.558509
21
1.36445
0
LINE
8
BLACK
6
CONTINUOUS
10
0.558509
20
1.36445
11
0.557677
21
1.36
0
LINE
8
BLACK
6
CONTINUOUS
10
0.557677
20
1.36
11
0.557677
21
1.3
0
LINE
8
BLACK
6
CONTINUOUS
10
0.557677
20
1.3
11
0.558969
21
1.29451
0
LINE
8
BLACK
6
CONTINUOUS
10
1.34897
20
0.404507
11
1.3517
21
0.400893
0
LINE
8
BLACK
6
CONTINUOUS
10
1.3517
20
0.400893
11
1.35555
21
0.398509
0
LINE
8
BLACK
6
CONTINUOUS
10
1.35555
20
0.398509
11
1.36
21
0.397677
0
LINE
8
BLACK
6
CONTINUOUS
10
1.36
20
0.397677
11
1.42
21
0.397677
0
LINE
8
BLACK
6
CONTINUOUS
10
1.42
20
0.397677
11
1.42549
21
0.398969
0
LINE
8
BLACK
6
CONTINUOUS
10
1.42549
20
0.398969
11
1.42911
21
0.401698
0
LINE
8
BLACK
6
CONTINUOUS
10
1.42911
20
0.401698
11
1.43149
21
0.405548
0
LINE
8
BLACK
6
CONTINUOUS
10
1.43149
20
0.405548
11
1.43232
21
0.41
0
LINE
8
BLACK
6
CONTINUOUS
10
1.43232
20
0.41
11
1.43232
21
0.47
0
LINE
8
BLACK
6
CONTINUOUS
10
1.43232
20
0.47
11
1.43103
21
0.475493
0
LINE
8
BLACK
6
CONTINUOUS
10
1.43103
20
0.475493
11
1.4283
21
0.479107
0
LINE
8
BLACK
6
CONTINUOUS
10
1.4283
20
0.479107
11
1.42445
21
0.481491
0
LINE
8
BLACK
6
CONTINUOUS
10
1.42445
20
0.481491
11
1.42
21
0.482323
0
LINE
8
BLACK
6
CONTINUOUS
10
1.42
20
0.482323
11
1.36
21
0.482323
0
LINE
8
BLACK
6
CONTINUOUS
10
1.36
20
0.482323
11
1.35451
21
0.481031
0
LINE
8
BLACK
6
CONTINUOUS
10
1.35451
20
0.481031
11
1.35089
21
0.478302
0
LINE
8
BLACK
6
CONTINUOUS
10
1.35089
20
0.478302
11
1.34851
21
0.474452
0
LINE
8
BLACK
6
CONTINUOUS
10
1.34851
20
0.474452
11
1.34768
21
0.47
0
LINE
8
BLACK
6
CONTINUOUS
10
1.34768
20
0.47
11
1.34768
21
0.41
0
LINE
8
BLACK
6
CONTINUOUS
10
1.34768
20
0.41
11
1.34897
21
0.404507
0
LINE
8
BLACK
6
CONTINUOUS
10
0.698969
20
0.914507
11
0.701698
21
0.910893
0
LINE
8
BLACK
6
CONTINUOUS
10
0.701698
20
0.910893
11
0.705548
21
0.908509
0
LINE
8
BLACK
6
CONTINUOUS
10
0.705548
20
0.908509
11
0.71
21
0.907677
0
LINE
8
BLACK
6
CONTINUOUS
10
0.71
20
0.907677
11
0.77
21
0.907677
0
LINE
8
BLACK
6
CONTINUOUS
10
0.77
20
0.907677
11
0.775493
21
0.908969
0
LINE
8
BLACK
6
CONTINUOUS
10
0.775493
20
0.908969
11
0.779107
21
0.911698
0
LINE
8
BLACK
6
CONTINUOUS
10
0.779107
20
0.911698
11
0.781491
21
0.915548
0
LINE
8
BLACK
6
CONTINUOUS
10
0.781491
20
0.915548
11
0.782323
21
0.92
0
LINE
8
BLACK
6
CONTINUOUS
10
0.782323
20
0.92
11
0.782323
21
0.98
0
LINE
8
BLACK
6
CONTINUOUS
10
0.782323
20
0.98
11
0.781031
21
0.985493
0
LINE
8
BLACK
6
CONTINUOUS
10
0.781031
20
0.985493
11
0.778302
21
0.989107
0
LINE
8
BLACK
6
CONTINUOUS
10
0.778302
20
0.989107
11
0.774452
21
0.991491
0
LINE
8
BLACK
6
CONTINUOUS
10
0.774452
20
0.991491
11
0.77
21
0.992323
0
LINE
8
BLACK
6
CONTINUOUS
10
0.77
20
0.992323
11
0.71
21
0.992323
0
LINE
8
BLACK
6
CONTINUOUS
10
0.71
20
0.992323
11
0.704507
21
0.991031
0
LINE
8
BLACK
6
CONTINUOUS
10
0.704507
20
0.991031
11
0.700893
21
0.988302
0
LINE
8
BLACK
6
CONTINUOUS
10
0.700893
20
0.988302
11
0.698509
21
0.984452
0
LINE
8
BLACK
6
CONTINUOUS
10
0.698509
20
0.984452
11
0.697677
21
0.98
0
LINE
8
BLACK
6
CONTINUOUS
10
0.697677
20
0.98
11
0.697677
21
0.92
0
LINE
8
BLACK
6
CONTINUOUS
10
0.697677
20
0.92
11
0.698969
21
0.914507
0
LINE
8
BLACK
6
CONTINUOUS
10
0.639107
20
1.1917
11
0.641491
21
1.19555
0
LINE
8
BLACK
6
CONTINUOUS
10
0.641491
20
1.19555
11
0.642323
21
1.2
0
LINE
8
BLACK
6
CONTINUOUS
10
0.642323
20
1.2
11
0.642323
21
1.26
0
LINE
8
BLACK
6
CONTINUOUS
10
0.642323
20
1.26
11
0.641031
21
1.26549
0
LINE
8
BLACK
6
CONTINUOUS
10
0.641031
20
1.26549
11
0.638302
21
1.26911
0
LINE
8
BLACK
6
CONTINUOUS
10
0.638302
20
1.26911
11
0.634452
21
1.27149
0
LINE
8
BLACK
6
CONTINUOUS
10
0.634452
20
1.27149
11
0.63
21
1.27232
0
LINE
8
BLACK
6
CONTINUOUS
10
0.63
20
1.27232
11
0.57
21
1.27232
0
LINE
8
BLACK
6
CONTINUOUS
10
0.57
20
1.27232
11
0.564507
21
1.27103
0
LINE
8
BLACK
6
CONTINUOUS
10
0.564507
20
1.27103
11
0.560893
21
1.2683
0
LINE
8
BLACK
6
CONTINUOUS
10
0.560893
20
1.2683
11
0.558509
21
1.26445
0
LINE
8
BLACK
6
CONTINUOUS
10
0.558509
20
1.26445
11
0.557677
21
1.26
0
LINE
8
BLACK
6
CONTINUOUS
10
0.557677
20
1.26
11
0.557677
21
1.2
0
LINE
8
BLACK
6
CONTINUOUS
10
0.557677
20
1.2
11
0.558969
21
1.19451
0
LINE
8
BLACK
6
CONTINUOUS
10
0.558969
20
1.19451
11
0.559281
21
1.19409
0
LINE
8
BLACK
6
CONTINUOUS
10
0.559281
20
1.19409
11
0.559867
21
1.19332
0
LINE
8
BLACK
6
CONTINUOUS
10
0.559867
20
1.19332
11
0.561698
21
1.19089
0
LINE
8
BLACK
6
CONTINUOUS
10
0.561698
20
1.19089
11
0.565548
21
1.18851
0
LINE
8
BLACK
6
CONTINUOUS
10
0.565548
20
1.18851
11
0.57
21
1.18768
0
LINE
8
BLACK
6
CONTINUOUS
10
0.57
20
1.18768
11
0.63
21
1.18768
0
LINE
8
BLACK
6
CONTINUOUS
10
0.63
20
1.18768
11
0.635493
21
1.18897
0
LINE
8
BLACK
6
CONTINUOUS
10
0.635493
20
1.18897
11
0.636478
21
1.18971
0
LINE
8
BLACK
6
CONTINUOUS
10
0.636478
20
1.18971
11
0.636858
21
1.19
0
LINE
8
BLACK
6
CONTINUOUS
10
0.636858
20
1.19
11
0.637227
21
1.19028
0
LINE
8
BLACK
6
CONTINUOUS
10
0.637227
20
1.19028
11
0.639107
21
1.1917
0
LINE
8
BLACK
6
CONTINUOUS
10
1.34897
20
1.12451
11
1.3517
21
1.12089
0
LINE
8
BLACK
6
CONTINUOUS
10
1.3517
20
1.12089
11
1.35555
21
1.11851
0
LINE
8
BLACK
6
CONTINUOUS
10
1.35555
20
1.11851
11
1.36
21
1.11768
0
LINE
8
BLACK
6
CONTINUOUS
10
1.36
20
1.11768
11
1.42
21
1.11768
0
LINE
8
BLACK
6
CONTINUOUS
10
1.42
20
1.11768
11
1.42549
21
1.11897
0
LINE
8
BLACK
6
CONTINUOUS
10
1.42549
20
1.11897
11
1.42911
21
1.1217
0
LINE
8
BLACK
6
CONTINUOUS
10
1.42911
20
1.1217
11
1.43149
21
1.12555
0
LINE
8
BLACK
6
CONTINUOUS
10
1.43149
20
1.12555
11
1.43232
21
1.13
0
LINE
8
BLACK
6
CONTINUOUS
10
1.43232
20
1.13
11
1.43232
21
1.19
0
LINE
8
BLACK
6
CONTINUOUS
10
1.43232
20
1.19
11
1.43103
21
1.19549
0
LINE
8
BLACK
6
CONTINUOUS
10
1.43103
20
1.19549
11
1.43065
21
1.196
0
LINE
8
BLACK
6
CONTINUOUS
10
1.43065
20
1.196
11
1.4292
21
1.19791
0
LINE
8
BLACK
6
CONTINUOUS
10
1.4292
20
1.19791
11
1.4283
21
1.19911
0
LINE
8
BLACK
6
CONTINUOUS
10
1.4283
20
1.19911
11
1.42445
21
1.20149
0
LINE
8
BLACK
6
CONTINUOUS
10
1.42445
20
1.20149
11
1.42
21
1.20232
0
LINE
8
BLACK
6
CONTINUOUS
10
1.42
20
1.20232
11
1.36
21
1.20232
0
LINE
8
BLACK
6
CONTINUOUS
10
1.36
20
1.20232
11
1.35451
21
1.20103
0
LINE
8
BLACK
6
CONTINUOUS
10
1.35451
20
1.20103
11
1.35409
21
1.20072
0
LINE
8
BLACK
6
CONTINUOUS
10
1.35409
20
1.20072
11
1.35345
21
1.20023
0
LINE
8
BLACK
6
CONTINUOUS
10
1.35345
20
1.20023
11
1.35089
21
1.1983
0
LINE
8
BLACK
6
CONTINUOUS
10
1.35089
20
1.1983
11
1.34851
21
1.19445
0
LINE
8
BLACK
6
CONTINUOUS
10
1.34851
20
1.19445
11
1.34768
21
1.19
0
LINE
8
BLACK
6
CONTINUOUS
10
1.34768
20
1.19
11
1.34768
21
1.13
0
LINE
8
BLACK
6
CONTINUOUS
10
1.34768
20
1.13
11
1.34897
21
1.12451
0
LINE
8
BLACK
6
CONTINUOUS
10
0.77
20
0.82
11
0.71
21
0.82
0
LINE
8
BLACK
6
CONTINUOUS
10
0.71
20
0.82
11
0.71
21
0.88
0
LINE
8
BLACK
6
CONTINUOUS
10
0.71
20
0.88
11
0.77
21
0.88
0
LINE
8
BLACK
6
CONTINUOUS
10
0.77
20
0.88
11
0.77
21
0.82
0
LINE
8
BLACK
6
CONTINUOUS
10
0.77
20
0.92
11
0.71
21
0.92
0
LINE
8
BLACK
6
CONTINUOUS
10
0.71
20
0.92
11
0.71
21
0.98
0
LINE
8
BLACK
6
CONTINUOUS
10
0.71
20
0.98
11
0.77
21
0.98
0
LINE
8
BLACK
6
CONTINUOUS
10
0.77
20
0.98
11
0.77
21
0.92
0
LINE
8
BLACK
6
CONTINUOUS
10
0.63
20
1.2
11
0.57
21
1.2
0
LINE
8
BLACK
6
CONTINUOUS
10
0.57
20
1.2
11
0.57
21
1.26
0
LINE
8
BLACK
6
CONTINUOUS
10
0.57
20
1.26
11
0.63
21
1.26
0
LINE
8
BLACK
6
CONTINUOUS
10
0.63
20
1.26
11
0.63
21
1.2
0
LINE
8
BLACK
6
CONTINUOUS
10
1.52
20
0.41
11
1.46
21
0.41
0
LINE
8
BLACK
6
CONTINUOUS
10
1.46
20
0.41
11
1.46
21
0.47
0
LINE
8
BLACK
6
CONTINUOUS
10
1.46
20
0.47
11
1.52
21
0.47
0
LINE
8
BLACK
6
CONTINUOUS
10
1.52
20
0.47
11
1.52
21
0.41
0
LINE
8
BLACK
6
CONTINUOUS
10
1.52
20
1.13
11
1.46
21
1.13
0
LINE
8
BLACK
6
CONTINUOUS
10
1.46
20
1.13
11
1.46
21
1.19
0
LINE
8
BLACK
6
CONTINUOUS
10
1.46
20
1.19
11
1.52
21
1.19
0
LINE
8
BLACK
6
CONTINUOUS
10
1.52
20
1.19
11
1.52
21
1.13
0
LINE
8
BLACK
6
CONTINUOUS
10
0.63
20
1.3
11
0.57
21
1.3
0
LINE
8
BLACK
6
CONTINUOUS
10
0.57
20
1.3
11
0.57
21
1.36
0
LINE
8
BLACK
6
CONTINUOUS
10
0.57
20
1.36
11
0.63
21
1.36
0
LINE
8
BLACK
6
CONTINUOUS
10
0.63
20
1.36
11
0.63
21
1.3
0
LINE
8
BLACK
6
CONTINUOUS
10
1.42
20
0.41
11
1.36
21
0.41
0
LINE
8
BLACK
6
CONTINUOUS
10
1.36
20
0.41
11
1.36
21
0.47
0
LINE
8
BLACK
6
CONTINUOUS
10
1.36
20
0.47
11
1.42
21
0.47
0
LINE
8
BLACK
6
CONTINUOUS
10
1.42
20
0.47
11
1.42
21
0.41
0
LINE
8
BLACK
6
CONTINUOUS
10
1.42
20
1.13
11
1.36
21
1.13
0
LINE
8
BLACK
6
CONTINUOUS
10
1.36
20
1.13
11
1.36
21
1.19
0
LINE
8
BLACK
6
CONTINUOUS
10
1.36
20
1.19
11
1.42
21
1.19
0
LINE
8
BLACK
6
CONTINUOUS
10
1.42
20
1.19
11
1.42
21
1.13
0
CIRCLE
8
BLACK
10
0.82
20
0.76
40
0.00787402
0
CIRCLE
8
BLACK
10
0.86
20
0.76
40
0.00787402
0
CIRCLE
8
BLACK
10
0.9
20
0.76
40
0.00787402
0
CIRCLE
8
BLACK
10
0.64
20
1.02
40
0.00787402
0
CIRCLE
8
BLACK
10
1.1
20
1.02
40
0.00787402
0
CIRCLE
8
BLACK
10
1.22
20
1.34
40
0.00787402
0
CIRCLE
8
BLACK
10
1.24
20
0.98
40
0.00787402
0
CIRCLE
8
BLACK
10
1.44
20
0.66
40
0.00787402
0
CIRCLE
8
BLACK
10
1.22
20
1.3
40
0.00787402
0
CIRCLE
8
BLACK
10
0.48
20
0.56
40
0.00787402
0
CIRCLE
8
BLACK
10
1.4
20
0.66
40
0.00787402
0
CIRCLE
8
BLACK
10
0.52
20
0.82
40
0.00787402
0
CIRCLE
8
BLACK
10
0.78
20
0.76
40
0.00787402
0
CIRCLE
8
BLACK
10
1.04
20
0.66
40
0.00787402
0
CIRCLE
8
BLACK
10
1.12
20
0.34
40
0.00787402
0
CIRCLE
8
BLACK
10
0.92
20
1.12
40
0.00787402
0
CIRCLE
8
BLACK
10
0.84
20
0.58
40
0.00787402
0
CIRCLE
8
BLACK
10
0.6
20
0.42
40
0.00787402
0
CIRCLE
8
BLACK
10
0.52
20
0.92
40
0.00787402
0
CIRCLE
8
BLACK
10
1.12
20
0.6
40
0.00787402
0
CIRCLE
8
BLACK
10
0.76
20
0.58
40
0.00787402
0
CIRCLE
8
BLACK
10
0.44
20
1.06
40
0.00787402
0
CIRCLE
8
BLACK
10
0.52
20
1.14
40
0.00787402
0
CIRCLE
8
BLACK
10
1.12
20
0.4
40
0.00787402
0
CIRCLE
8
BLACK
10
1.24
20
0.86
40
0.00787402
0
CIRCLE
8
BLACK
10
0.88
20
1.34
40
0.00787402
0
CIRCLE
8
BLACK
10
0.44
20
0.62
40
0.00787402
0
CIRCLE
8
BLACK
10
1.08
20
0.6
40
0.00787402
0
CIRCLE
8
BLACK
10
0.82
20
0.64
40
0.00787402
0
CIRCLE
8
BLACK
10
0.52
20
0.96
40
0.00787402
0
CIRCLE
8
BLACK
10
0.94
20
0.64
40
0.00787402
0
CIRCLE
8
BLACK
10
1.12
20
0.28
40
0.00787402
0
CIRCLE
8
BLACK
10
1.1
20
0.66
40
0.00787402
0
CIRCLE
8
BLACK
10
0.54
20
0.6
40
0.00787402
0
CIRCLE
8
BLACK
10
0.48
20
0.6
40
0.00787402
0
CIRCLE
8
BLACK
10
0.54
20
0.42
40
0.00787402
0
CIRCLE
8
BLACK
10
1.08
20
1.14
40
0.00787402
0
CIRCLE
8
BLACK
10
0.54
20
0.52
40
0.00787402
0
CIRCLE
8
BLACK
10
1.12
20
0.98
40
0.00787402
0
CIRCLE
8
BLACK
10
0.52
20
0.86
40
0.00787402
0
CIRCLE
8
BLACK
10
1.24
20
0.82
40
0.00787402
0
CIRCLE
8
BLACK
10
1.5
20
0.66
40
0.00787402
0
CIRCLE
8
BLACK
10
1.04
20
0.96
40
0.00787402
0
CIRCLE
8
BLACK
10
0.98
20
0.64
40
0.00787402
0
CIRCLE
8
BLACK
10
1.04
20
0.86
40
0.00787402
0
CIRCLE
8
BLACK
10
1.26
20
0.68
40
0.00787402
0
CIRCLE
8
BLACK
10
1.24
20
0.78
40
0.00787402
0
CIRCLE
8
BLACK
10
1.24
20
0.74
40
0.00787402
0
CIRCLE
8
BLACK
10
0.9
20
0.58
40
0.00787402
0
CIRCLE
8
BLACK
10
0.82
20
1.22
40
0.00787402
0
CIRCLE
8
BLACK
10
0.76
20
0.64
40
0.00787402
0
CIRCLE
8
BLACK
10
1.12
20
0.86
40
0.00787402
0
CIRCLE
8
BLACK
10
0.62
20
1.1
40
0.00787402
0
CIRCLE
8
BLACK
10
0.92
20
1.08
40
0.00787402
0
CIRCLE
8
BLACK
10
0.54
20
0.48
40
0.00787402
0
CIRCLE
8
BLACK
10
0.68
20
1.1
40
0.00787402
0
CIRCLE
8
BLACK
10
0.82
20
1.34
40
0.00787402
0
CIRCLE
8
BLACK
10
1.12
20
0.8
40
0.00787402
0
CIRCLE
8
BLACK
10
1.12
20
0.92
40
0.00787402
0
CIRCLE
8
BLACK
10
1.36
20
0.66
40
0.00787402
0
CIRCLE
8
BLACK
10
0.88
20
0.64
40
0.00787402
0
CIRCLE
8
BLACK
10
0.48
20
1.1
40
0.00787402
0
CIRCLE
8
BLACK
10
0.54
20
1.02
40
0.00787402
0
CIRCLE
8
BLACK
10
1.04
20
0.9
40
0.00787402
0
CIRCLE
8
BLACK
10
0.82
20
1.28
40
0.00787402
0
CIRCLE
8
BLACK
10
0.74
20
0.76
40
0.00787402
0
CIRCLE
8
BLACK
10
0.58
20
1.06
40
0.00787402
0
CIRCLE
8
BLACK
10
0.92
20
1.18
40
0.00787402
0
CIRCLE
8
BLACK
10
0.9
20
1.22
40
0.00787402
0
CIRCLE
8
BLACK
10
1.24
20
0.9
40
0.00787402
0
CIRCLE
8
BLACK
10
1.24
20
0.94
40
0.00787402
0
CIRCLE
8
BLACK
10
0.54
20
0.56
40
0.00787402
  0
ENDSEC
  0
EOF
