<?xml version='1.0' encoding='ASCII' standalone='yes'?>
<svg xmlns:svg="http://www.w3.org/2000/svg" xmlns="http://www.w3.org/2000/svg" xmlns:xlink="http://www.w3.org/1999/xlink" version="1.1" width="29.700220cm" height="21.000720cm" viewBox="0 0 2970022 2100072">
<title>SVG Picture created as PCRD06A-B_Fab.svg date 2023/02/14 07:59:23 </title>
  <desc>Picture generated by PCBNEW </desc>
<g style="fill:#000084; fill-opacity:1.000000;stroke:#000084; stroke-opacity:1.000000; stroke-linecap:round; stroke-linejoin:round;" transform="translate(0 0) scale(1 1)">
</g>
<g style="fill:#000084; fill-opacity:0.0;  stroke:#000084; stroke-width:0.000000; stroke-opacity:1;  stroke-linecap:round; stroke-linejoin:round;">
</g>
<g style="fill:#000084; fill-opacity:0.01;  stroke:#000084; stroke-width:4803.191489; stroke-opacity:1;  stroke-linecap:round; stroke-linejoin:round;">
<text x="1102431.219635" y="1047075.910957" transform="scale(-1 1) translate(-2204862.439270 0)" textLength="42962.705227" font-size="29340.410873" lengthAdjust="spacingAndGlyphs" text-anchor="middle" opacity="0.01" style="font-family:monospace">C2</text>
<g class="stroked-text"><desc>C2</desc>
<path d="M1106098 1043932 L1107146 1044980 L1110290 1046028 L1112385 1046028 L1115529 1044980 L1117625 1042884 L1118673 1040788 L1119721 1036597 L1119721 1033453 L1118673 1029262 L1117625 1027166 L1115529 1025070 L1112385 1024022 L1110290 1024022 L1107146 1025070 L1106098 1026118 "/>
<path d="M1097715 1026118 L1096667 1025070 L1094572 1024022 L1089332 1024022 L1087237 1025070 L1086189 1026118 L1085141 1028214 L1085141 1030309 L1086189 1033453 L1098763 1046028 L1085141 1046028 "/>
</g><text x="1096846.113252" y="1077793.996063" transform="scale(-1 1) translate(-2193692.226504 0)" textLength="95399.465991" font-size="29340.410873" lengthAdjust="spacingAndGlyphs" text-anchor="middle" opacity="0.01" style="font-family:monospace">220pF</text>
<g class="stroked-text"><desc>220pF</desc>
<path d="M1143476 1056836 L1142428 1055788 L1140332 1054740 L1135093 1054740 L1132997 1055788 L1131949 1056836 L1130901 1058932 L1130901 1061028 L1131949 1064171 L1144524 1076746 L1130901 1076746 "/>
<path d="M1122518 1056836 L1121471 1055788 L1119375 1054740 L1114135 1054740 L1112040 1055788 L1110992 1056836 L1109944 1058932 L1109944 1061028 L1110992 1064171 L1123566 1076746 L1109944 1076746 "/>
<path d="M1096322 1054740 L1094226 1054740 L1092130 1055788 L1091082 1056836 L1090034 1058932 L1088987 1063123 L1088987 1068363 L1090034 1072554 L1091082 1074650 L1092130 1075698 L1094226 1076746 L1096322 1076746 L1098417 1075698 L1099465 1074650 L1100513 1072554 L1101561 1068363 L1101561 1063123 L1100513 1058932 L1099465 1056836 L1098417 1055788 L1096322 1054740 "/>
<path d="M1079556 1062075 L1079556 1084081 "/>
<path d="M1079556 1063123 L1077460 1062075 L1073268 1062075 L1071173 1063123 L1070125 1064171 L1069077 1066267 L1069077 1072554 L1070125 1074650 L1071173 1075698 L1073268 1076746 L1077460 1076746 L1079556 1075698 "/>
<path d="M1052311 1065219 L1059646 1065219 "/>
<path d="M1059646 1076746 L1059646 1054740 L1049167 1054740 "/>
</g></g>
<g style="fill:#000084; fill-opacity:0.01;  stroke:#000084; stroke-width:3298.291171; stroke-opacity:1;  stroke-linecap:round; stroke-linejoin:round;">
<text x="1526789.361702" y="622401.572709" transform="scale(-1 1) translate(-3053578.723404 0)" textLength="37733.066678" font-size="29318.114425" lengthAdjust="spacingAndGlyphs" text-anchor="middle" opacity="0.01" style="font-family:monospace">U2</text>
<g class="stroked-text"><desc>U2</desc>
<path d="M1543542 599365 L1543542 617166 L1542495 619260 L1541448 620307 L1539354 621354 L1535165 621354 L1533071 620307 L1532024 619260 L1530977 617166 L1530977 599365 "/>
<path d="M1521553 601460 L1520506 600412 L1518412 599365 L1513177 599365 L1511083 600412 L1510036 601460 L1508989 603554 L1508989 605648 L1510036 608789 L1522601 621354 L1508989 621354 "/>
</g></g>
<g style="fill:#000084; fill-opacity:0.01;  stroke:#000084; stroke-width:13193.164684; stroke-opacity:1;  stroke-linecap:round; stroke-linejoin:round;">
<text x="1257808.879209" y="1686738.144999" transform="scale(-1 1) translate(-2515617.758418 0)" textLength="126563.304155" font-size="89361.702128" lengthAdjust="spacingAndGlyphs" text-anchor="middle" opacity="0.01" style="font-family:monospace">C1</text>
<g class="stroked-text"><desc>C1</desc>
<path d="M1268979 1677163 L1272170 1680355 L1281745 1683546 L1288128 1683546 L1297702 1680355 L1304085 1673972 L1307276 1667589 L1310468 1654823 L1310468 1645248 L1307276 1632482 L1304085 1626099 L1297702 1619716 L1288128 1616525 L1281745 1616525 L1272170 1619716 L1268979 1622908 "/>
<path d="M1205149 1683546 L1243447 1683546 "/>
<path d="M1224298 1683546 L1224298 1616525 L1230681 1626099 L1237064 1632482 L1243447 1635674 "/>
</g></g>
<g style="fill:#000084; fill-opacity:0.01;  stroke:#000084; stroke-width:6596.582342; stroke-opacity:1;  stroke-linecap:round; stroke-linejoin:round;">
<text x="1428544.262020" y="1555070.361451" transform="scale(-1 1) translate(-2857088.524041 0)" textLength="64520.864048" font-size="87954.431228" lengthAdjust="spacingAndGlyphs" text-anchor="middle" opacity="0.01" style="font-family:monospace">+</text>
<g class="stroked-text"><desc>+</desc>
<path d="M1453674 1526799 L1403414 1526799 "/>
<path d="M1428544 1551929 L1428544 1501669 "/>
</g></g>
<g style="fill:#000084; fill-opacity:0.01;  stroke:#000084; stroke-width:4803.191489; stroke-opacity:1;  stroke-linecap:round; stroke-linejoin:round;">
<text x="1772643.985592" y="1365426.974786" transform="scale(-1 1) translate(-3545287.971184 0)" textLength="34387.192159" font-size="29340.410873" lengthAdjust="spacingAndGlyphs" text-anchor="middle" opacity="0.01" style="font-family:monospace">C4</text>
<g class="stroked-text"><desc>C4</desc>
<path d="M1776311 1362283 L1777359 1363331 L1780503 1364379 L1782598 1364379 L1785742 1363331 L1787838 1361235 L1788886 1359139 L1789933 1354948 L1789933 1351804 L1788886 1347613 L1787838 1345517 L1785742 1343421 L1782598 1342373 L1780503 1342373 L1777359 1343421 L1776311 1344469 "/>
<path d="M1757449 1349708 L1757449 1364379 "/>
<path d="M1762689 1341325 L1767928 1357044 L1754306 1357044 "/>
</g><text x="1778229.091975" y="1334708.889680" transform="scale(-1 1) translate(-3556458.183950 0)" textLength="74442.035936" font-size="29340.410873" lengthAdjust="spacingAndGlyphs" text-anchor="middle" opacity="0.01" style="font-family:monospace">10uF</text>
<g class="stroked-text"><desc>10uF</desc>
<path d="M1801806 1333661 L1814380 1333661 "/>
<path d="M1808093 1333661 L1808093 1311655 L1810189 1314799 L1812284 1316895 L1814380 1317942 "/>
<path d="M1788183 1311655 L1786088 1311655 L1783992 1312703 L1782944 1313751 L1781896 1315847 L1780848 1320038 L1780848 1325278 L1781896 1329469 L1782944 1331565 L1783992 1332613 L1786088 1333661 L1788183 1333661 L1790279 1332613 L1791327 1331565 L1792375 1329469 L1793423 1325278 L1793423 1320038 L1792375 1315847 L1791327 1313751 L1790279 1312703 L1788183 1311655 "/>
<path d="M1761987 1318990 L1761987 1333661 "/>
<path d="M1771417 1318990 L1771417 1330517 L1770370 1332613 L1768274 1333661 L1765130 1333661 L1763034 1332613 L1761987 1331565 "/>
<path d="M1744173 1322134 L1751508 1322134 "/>
<path d="M1751508 1333661 L1751508 1311655 L1741029 1311655 "/>
</g><text x="1688867.389848" y="672873.783297" transform="scale(-1 1) translate(-3377734.779695 0)" textLength="36718.600268" font-size="29340.410873" lengthAdjust="spacingAndGlyphs" text-anchor="middle" opacity="0.01" style="font-family:monospace">C7</text>
<g class="stroked-text"><desc>C7</desc>
<path d="M1692534 669730 L1693582 670778 L1696726 671825 L1698822 671825 L1701965 670778 L1704061 668682 L1705109 666586 L1706157 662395 L1706157 659251 L1705109 655059 L1704061 652964 L1701965 650868 L1698822 649820 L1696726 649820 L1693582 650868 L1692534 651916 "/>
<path d="M1685199 649820 L1670529 649820 L1679960 671825 "/>
</g><text x="1694452.496231" y="642155.698191" transform="scale(-1 1) translate(-3388904.992461 0)" textLength="74442.035936" font-size="29340.410873" lengthAdjust="spacingAndGlyphs" text-anchor="middle" opacity="0.01" style="font-family:monospace">10uF</text>
<g class="stroked-text"><desc>10uF</desc>
<path d="M1718029 641107 L1730604 641107 "/>
<path d="M1724316 641107 L1724316 619102 L1726412 622246 L1728508 624341 L1730604 625389 "/>
<path d="M1704407 619102 L1702311 619102 L1700215 620150 L1699167 621198 L1698120 623294 L1697072 627485 L1697072 632724 L1698120 636916 L1699167 639012 L1700215 640059 L1702311 641107 L1704407 641107 L1706503 640059 L1707550 639012 L1708598 636916 L1709646 632724 L1709646 627485 L1708598 623294 L1707550 621198 L1706503 620150 L1704407 619102 "/>
<path d="M1678210 626437 L1678210 641107 "/>
<path d="M1687641 626437 L1687641 637964 L1686593 640059 L1684497 641107 L1681354 641107 L1679258 640059 L1678210 639012 "/>
<path d="M1660396 629581 L1667731 629581 "/>
<path d="M1667731 641107 L1667731 619102 L1657253 619102 "/>
</g><text x="1482218.453677" y="1024735.485425" transform="scale(-1 1) translate(-2964436.907355 0)" textLength="36718.600268" font-size="29340.410873" lengthAdjust="spacingAndGlyphs" text-anchor="middle" opacity="0.01" style="font-family:monospace">C8</text>
<g class="stroked-text"><desc>C8</desc>
<path d="M1485885 1021591 L1486933 1022639 L1490077 1023687 L1492173 1023687 L1495316 1022639 L1497412 1020544 L1498460 1018448 L1499508 1014256 L1499508 1011113 L1498460 1006921 L1497412 1004825 L1495316 1002730 L1492173 1001682 L1490077 1001682 L1486933 1002730 L1485885 1003778 "/>
<path d="M1473311 1011113 L1475407 1010065 L1476455 1009017 L1477502 1006921 L1477502 1005873 L1476455 1003778 L1475407 1002730 L1473311 1001682 L1469120 1001682 L1467024 1002730 L1465976 1003778 L1464928 1005873 L1464928 1006921 L1465976 1009017 L1467024 1010065 L1469120 1011113 L1473311 1011113 L1475407 1012161 L1476455 1013208 L1477502 1015304 L1477502 1019496 L1476455 1021591 L1475407 1022639 L1473311 1023687 L1469120 1023687 L1467024 1022639 L1465976 1021591 L1464928 1019496 L1464928 1015304 L1465976 1013208 L1467024 1012161 L1469120 1011113 "/>
</g><text x="1476633.347294" y="1055453.570531" transform="scale(-1 1) translate(-2953266.694589 0)" textLength="74442.035936" font-size="29340.410873" lengthAdjust="spacingAndGlyphs" text-anchor="middle" opacity="0.01" style="font-family:monospace">10uF</text>
<g class="stroked-text"><desc>10uF</desc>
<path d="M1500210 1054405 L1512784 1054405 "/>
<path d="M1506497 1054405 L1506497 1032400 L1508593 1035544 L1510689 1037639 L1512784 1038687 "/>
<path d="M1486588 1032400 L1484492 1032400 L1482396 1033448 L1481348 1034496 L1480300 1036591 L1479253 1040783 L1479253 1046022 L1480300 1050214 L1481348 1052309 L1482396 1053357 L1484492 1054405 L1486588 1054405 L1488683 1053357 L1489731 1052309 L1490779 1050214 L1491827 1046022 L1491827 1040783 L1490779 1036591 L1489731 1034496 L1488683 1033448 L1486588 1032400 "/>
<path d="M1460391 1039735 L1460391 1054405 "/>
<path d="M1469822 1039735 L1469822 1051262 L1468774 1053357 L1466678 1054405 L1463534 1054405 L1461439 1053357 L1460391 1052309 "/>
<path d="M1442577 1042879 L1449912 1042879 "/>
<path d="M1449912 1054405 L1449912 1032400 L1439433 1032400 "/>
</g><text x="1152697.177082" y="1471543.996063" transform="scale(-1 1) translate(-2305394.354163 0)" textLength="36718.600268" font-size="29340.410873" lengthAdjust="spacingAndGlyphs" text-anchor="middle" opacity="0.01" style="font-family:monospace">C9</text>
<g class="stroked-text"><desc>C9</desc>
<path d="M1156364 1468400 L1157412 1469448 L1160556 1470496 L1162651 1470496 L1165795 1469448 L1167891 1467352 L1168939 1465256 L1169987 1461065 L1169987 1457921 L1168939 1453730 L1167891 1451634 L1165795 1449538 L1162651 1448490 L1160556 1448490 L1157412 1449538 L1156364 1450586 "/>
<path d="M1145885 1470496 L1141694 1470496 L1139598 1469448 L1138550 1468400 L1136455 1465256 L1135407 1461065 L1135407 1452682 L1136455 1450586 L1137503 1449538 L1139598 1448490 L1143790 1448490 L1145885 1449538 L1146933 1450586 L1147981 1452682 L1147981 1457921 L1146933 1460017 L1145885 1461065 L1143790 1462113 L1139598 1462113 L1137503 1461065 L1136455 1460017 L1135407 1457921 "/>
</g><text x="1147112.070699" y="1502262.081169" transform="scale(-1 1) translate(-2294224.141397 0)" textLength="74442.035936" font-size="29340.410873" lengthAdjust="spacingAndGlyphs" text-anchor="middle" opacity="0.01" style="font-family:monospace">10uF</text>
<g class="stroked-text"><desc>10uF</desc>
<path d="M1170689 1501214 L1183263 1501214 "/>
<path d="M1176976 1501214 L1176976 1479208 L1179072 1482352 L1181167 1484448 L1183263 1485496 "/>
<path d="M1157066 1479208 L1154971 1479208 L1152875 1480256 L1151827 1481304 L1150779 1483400 L1149731 1487591 L1149731 1492831 L1150779 1497022 L1151827 1499118 L1152875 1500166 L1154971 1501214 L1157066 1501214 L1159162 1500166 L1160210 1499118 L1161258 1497022 L1162306 1492831 L1162306 1487591 L1161258 1483400 L1160210 1481304 L1159162 1480256 L1157066 1479208 "/>
<path d="M1130870 1486544 L1130870 1501214 "/>
<path d="M1140300 1486544 L1140300 1498070 L1139252 1500166 L1137157 1501214 L1134013 1501214 L1131917 1500166 L1130870 1499118 "/>
<path d="M1113056 1489687 L1120391 1489687 "/>
<path d="M1120391 1501214 L1120391 1479208 L1109912 1479208 "/>
</g><text x="1688867.389848" y="561171.655637" transform="scale(-1 1) translate(-3377734.779695 0)" textLength="57676.074301" font-size="29340.410873" lengthAdjust="spacingAndGlyphs" text-anchor="middle" opacity="0.01" style="font-family:monospace">C12</text>
<g class="stroked-text"><desc>C12</desc>
<path d="M1703013 558028 L1704061 559075 L1707205 560123 L1709300 560123 L1712444 559075 L1714540 556980 L1715588 554884 L1716635 550692 L1716635 547549 L1715588 543357 L1714540 541262 L1712444 539166 L1709300 538118 L1707205 538118 L1704061 539166 L1703013 540214 "/>
<path d="M1682056 560123 L1694630 560123 "/>
<path d="M1688343 560123 L1688343 538118 L1690439 541262 L1692534 543357 L1694630 544405 "/>
<path d="M1673673 540214 L1672625 539166 L1670529 538118 L1665290 538118 L1663194 539166 L1662146 540214 L1661098 542309 L1661098 544405 L1662146 547549 L1674721 560123 L1661098 560123 "/>
</g><text x="1694452.496231" y="530453.570531" transform="scale(-1 1) translate(-3388904.992461 0)" textLength="95399.465991" font-size="29340.410873" lengthAdjust="spacingAndGlyphs" text-anchor="middle" opacity="0.01" style="font-family:monospace">100nF</text>
<g class="stroked-text"><desc>100nF</desc>
<path d="M1728508 529405 L1741082 529405 "/>
<path d="M1734795 529405 L1734795 507400 L1736891 510544 L1738987 512639 L1741082 513687 "/>
<path d="M1714885 507400 L1712790 507400 L1710694 508448 L1709646 509496 L1708598 511591 L1707550 515783 L1707550 521022 L1708598 525214 L1709646 527309 L1710694 528357 L1712790 529405 L1714885 529405 L1716981 528357 L1718029 527309 L1719077 525214 L1720125 521022 L1720125 515783 L1719077 511591 L1718029 509496 L1716981 508448 L1714885 507400 "/>
<path d="M1693928 507400 L1691832 507400 L1689737 508448 L1688689 509496 L1687641 511591 L1686593 515783 L1686593 521022 L1687641 525214 L1688689 527309 L1689737 528357 L1691832 529405 L1693928 529405 L1696024 528357 L1697072 527309 L1698120 525214 L1699167 521022 L1699167 515783 L1698120 511591 L1697072 509496 L1696024 508448 L1693928 507400 "/>
<path d="M1677162 514735 L1677162 529405 "/>
<path d="M1677162 516831 L1676114 515783 L1674018 514735 L1670875 514735 L1668779 515783 L1667731 517879 L1667731 529405 "/>
<path d="M1649917 517879 L1657253 517879 "/>
<path d="M1657253 529405 L1657253 507400 L1646774 507400 "/>
</g><text x="1482218.453677" y="935373.783297" transform="scale(-1 1) translate(-2964436.907355 0)" textLength="57676.074301" font-size="29340.410873" lengthAdjust="spacingAndGlyphs" text-anchor="middle" opacity="0.01" style="font-family:monospace">C13</text>
<g class="stroked-text"><desc>C13</desc>
<path d="M1496364 932230 L1497412 933278 L1500556 934325 L1502651 934325 L1505795 933278 L1507891 931182 L1508939 929086 L1509987 924895 L1509987 921751 L1508939 917559 L1507891 915464 L1505795 913368 L1502651 912320 L1500556 912320 L1497412 913368 L1496364 914416 "/>
<path d="M1475407 934325 L1487981 934325 "/>
<path d="M1481694 934325 L1481694 912320 L1483790 915464 L1485885 917559 L1487981 918607 "/>
<path d="M1468072 912320 L1454449 912320 L1461784 920703 L1458641 920703 L1456545 921751 L1455497 922799 L1454449 924895 L1454449 930134 L1455497 932230 L1456545 933278 L1458641 934325 L1464928 934325 L1467024 933278 L1468072 932230 "/>
</g><text x="1476633.347294" y="966091.868403" transform="scale(-1 1) translate(-2953266.694589 0)" textLength="95399.465991" font-size="29340.410873" lengthAdjust="spacingAndGlyphs" text-anchor="middle" opacity="0.01" style="font-family:monospace">100nF</text>
<g class="stroked-text"><desc>100nF</desc>
<path d="M1510689 965044 L1523263 965044 "/>
<path d="M1516976 965044 L1516976 943038 L1519072 946182 L1521167 948278 L1523263 949325 "/>
<path d="M1497066 943038 L1494971 943038 L1492875 944086 L1491827 945134 L1490779 947230 L1489731 951421 L1489731 956661 L1490779 960852 L1491827 962948 L1492875 963996 L1494971 965044 L1497066 965044 L1499162 963996 L1500210 962948 L1501258 960852 L1502306 956661 L1502306 951421 L1501258 947230 L1500210 945134 L1499162 944086 L1497066 943038 "/>
<path d="M1476109 943038 L1474013 943038 L1471917 944086 L1470870 945134 L1469822 947230 L1468774 951421 L1468774 956661 L1469822 960852 L1470870 962948 L1471917 963996 L1474013 965044 L1476109 965044 L1478205 963996 L1479253 962948 L1480300 960852 L1481348 956661 L1481348 951421 L1480300 947230 L1479253 945134 L1478205 944086 L1476109 943038 "/>
<path d="M1459343 950373 L1459343 965044 "/>
<path d="M1459343 952469 L1458295 951421 L1456199 950373 L1453056 950373 L1450960 951421 L1449912 953517 L1449912 965044 "/>
<path d="M1432098 953517 L1439433 953517 "/>
<path d="M1439433 965044 L1439433 943038 L1428955 943038 "/>
</g><text x="1147112.070699" y="1359841.868403" transform="scale(-1 1) translate(-2294224.141397 0)" textLength="57676.074301" font-size="29340.410873" lengthAdjust="spacingAndGlyphs" text-anchor="middle" opacity="0.01" style="font-family:monospace">C14</text>
<g class="stroked-text"><desc>C14</desc>
<path d="M1161258 1356698 L1162306 1357746 L1165449 1358794 L1167545 1358794 L1170689 1357746 L1172784 1355650 L1173832 1353554 L1174880 1349363 L1174880 1346219 L1173832 1342028 L1172784 1339932 L1170689 1337836 L1167545 1336788 L1165449 1336788 L1162306 1337836 L1161258 1338884 "/>
<path d="M1140300 1358794 L1152875 1358794 "/>
<path d="M1146588 1358794 L1146588 1336788 L1148683 1339932 L1150779 1342028 L1152875 1343075 "/>
<path d="M1121439 1344123 L1121439 1358794 "/>
<path d="M1126678 1335740 L1131917 1351458 L1118295 1351458 "/>
</g><text x="1141526.964316" y="1390559.953510" transform="scale(-1 1) translate(-2283053.928631 0)" textLength="95399.465991" font-size="29340.410873" lengthAdjust="spacingAndGlyphs" text-anchor="middle" opacity="0.01" style="font-family:monospace">100nF</text>
<g class="stroked-text"><desc>100nF</desc>
<path d="M1175582 1389512 L1188157 1389512 "/>
<path d="M1181870 1389512 L1181870 1367506 L1183965 1370650 L1186061 1372746 L1188157 1373794 "/>
<path d="M1161960 1367506 L1159864 1367506 L1157768 1368554 L1156721 1369602 L1155673 1371698 L1154625 1375889 L1154625 1381129 L1155673 1385320 L1156721 1387416 L1157768 1388464 L1159864 1389512 L1161960 1389512 L1164056 1388464 L1165104 1387416 L1166151 1385320 L1167199 1381129 L1167199 1375889 L1166151 1371698 L1165104 1369602 L1164056 1368554 L1161960 1367506 "/>
<path d="M1141003 1367506 L1138907 1367506 L1136811 1368554 L1135763 1369602 L1134715 1371698 L1133667 1375889 L1133667 1381129 L1134715 1385320 L1135763 1387416 L1136811 1388464 L1138907 1389512 L1141003 1389512 L1143098 1388464 L1144146 1387416 L1145194 1385320 L1146242 1381129 L1146242 1375889 L1145194 1371698 L1144146 1369602 L1143098 1368554 L1141003 1367506 "/>
<path d="M1124237 1374841 L1124237 1389512 "/>
<path d="M1124237 1376937 L1123189 1375889 L1121093 1374841 L1117949 1374841 L1115854 1375889 L1114806 1377985 L1114806 1389512 "/>
<path d="M1096992 1377985 L1104327 1377985 "/>
<path d="M1104327 1389512 L1104327 1367506 L1093848 1367506 "/>
</g><text x="1554824.836656" y="829256.762020" transform="scale(-1 1) translate(-3109649.673312 0)" textLength="57676.074301" font-size="29340.410873" lengthAdjust="spacingAndGlyphs" text-anchor="middle" opacity="0.01" style="font-family:monospace">C19</text>
<g class="stroked-text"><desc>C19</desc>
<path d="M1568971 826113 L1570018 827161 L1573162 828208 L1575258 828208 L1578401 827161 L1580497 825065 L1581545 822969 L1582593 818778 L1582593 815634 L1581545 811442 L1580497 809347 L1578401 807251 L1575258 806203 L1573162 806203 L1570018 807251 L1568971 808299 "/>
<path d="M1548013 828208 L1560588 828208 "/>
<path d="M1554300 828208 L1554300 806203 L1556396 809347 L1558492 811442 L1560588 812490 "/>
<path d="M1537534 828208 L1533343 828208 L1531247 827161 L1530199 826113 L1528104 822969 L1527056 818778 L1527056 810395 L1528104 808299 L1529151 807251 L1531247 806203 L1535439 806203 L1537534 807251 L1538582 808299 L1539630 810395 L1539630 815634 L1538582 817730 L1537534 818778 L1535439 819825 L1531247 819825 L1529151 818778 L1528104 817730 L1527056 815634 "/>
</g></g>
<g style="fill:#000084; fill-opacity:0.0;  stroke:#000084; stroke-width:6596.582342; stroke-opacity:1;  stroke-linecap:round; stroke-linejoin:round;">
<g transform="rotate(-90.000000 1574372.708996 1407482.825850)">
<text x="1574372.708996" y="1429471.433657" transform="scale(-1 1) translate(-3148745.417993 0)" textLength="79616.131262" font-size="58636.272826" lengthAdjust="spacingAndGlyphs" text-anchor="middle" opacity="0.01" style="font-family:monospace">D1</text>
</g>
<g class="stroked-text"><desc>D1</desc>
<path d="M1594267 1375023 L1550289 1375023 L1550289 1385494 L1552384 1391776 L1556572 1395965 L1560760 1398059 L1569137 1400153 L1575419 1400153 L1583796 1398059 L1587984 1395965 L1592172 1391776 L1594267 1385494 L1594267 1375023 "/>
<path d="M1594267 1442036 L1594267 1416906 "/>
<path d="M1594267 1429471 L1550289 1429471 L1556572 1425283 L1560760 1421094 L1562854 1416906 "/>
</g></g>
<g style="fill:#000084; fill-opacity:0.01;  stroke:#000084; stroke-width:4803.191489; stroke-opacity:1;  stroke-linecap:round; stroke-linejoin:round;">
<g transform="rotate(-90.000000 1834080.155805 650700.910957)">
<text x="1834080.155805" y="661703.570531" transform="scale(-1 1) translate(-3668160.311610 0)" textLength="34387.192159" font-size="29340.410873" lengthAdjust="spacingAndGlyphs" text-anchor="middle" opacity="0.01" style="font-family:monospace">R1</text>
</g>
<g class="stroked-text"><desc>R1</desc>
<path d="M1844034 647033 L1833556 639698 "/>
<path d="M1844034 634458 L1822029 634458 L1822029 642841 L1823077 644937 L1824125 645985 L1826221 647033 L1829364 647033 L1831460 645985 L1832508 644937 L1833556 642841 L1833556 634458 "/>
<path d="M1844034 667990 L1844034 655416 "/>
<path d="M1844034 661703 L1822029 661703 L1825173 659607 L1827268 657512 L1828316 655416 "/>
</g><g transform="rotate(-90.000000 1803362.070699 645115.804574)">
<text x="1803362.070699" y="656118.464148" transform="scale(-1 1) translate(-3606724.141397 0)" textLength="57676.074301" font-size="29340.410873" lengthAdjust="spacingAndGlyphs" text-anchor="middle" opacity="0.01" style="font-family:monospace">10R</text>
</g>
<g class="stroked-text"><desc>10R</desc>
<path d="M1813316 629921 L1813316 617347 "/>
<path d="M1813316 623634 L1791311 623634 L1794455 621538 L1796550 619442 L1797598 617347 "/>
<path d="M1791311 643544 L1791311 645639 L1792359 647735 L1793407 648783 L1795502 649831 L1799694 650879 L1804933 650879 L1809125 649831 L1811221 648783 L1812268 647735 L1813316 645639 L1813316 643544 L1812268 641448 L1811221 640400 L1809125 639352 L1804933 638304 L1799694 638304 L1795502 639352 L1793407 640400 L1792359 641448 L1791311 643544 "/>
<path d="M1813316 672884 L1802838 665549 "/>
<path d="M1813316 660309 L1791311 660309 L1791311 668692 L1792359 670788 L1793407 671836 L1795502 672884 L1798646 672884 L1800742 671836 L1801790 670788 L1802838 668692 L1802838 660309 "/>
</g><g transform="rotate(-90.000000 1694452.496231 784743.464148)">
<text x="1694452.496231" y="795746.123723" transform="scale(-1 1) translate(-3388904.992461 0)" textLength="36718.600268" font-size="29340.410873" lengthAdjust="spacingAndGlyphs" text-anchor="middle" opacity="0.01" style="font-family:monospace">R3</text>
</g>
<g class="stroked-text"><desc>R3</desc>
<path d="M1704407 781075 L1693928 773740 "/>
<path d="M1704407 768501 L1682401 768501 L1682401 776884 L1683449 778980 L1684497 780028 L1686593 781075 L1689737 781075 L1691832 780028 L1692880 778980 L1693928 776884 L1693928 768501 "/>
<path d="M1682401 788411 L1682401 802033 L1690784 794698 L1690784 797841 L1691832 799937 L1692880 800985 L1694976 802033 L1700215 802033 L1702311 800985 L1703359 799937 L1704407 797841 L1704407 791554 L1703359 789458 L1702311 788411 "/>
</g><g transform="rotate(-90.000000 1725170.581337 790328.570531)">
<text x="1725170.581337" y="801331.230106" transform="scale(-1 1) translate(-3450341.162674 0)" textLength="56628.185207" font-size="29340.410873" lengthAdjust="spacingAndGlyphs" text-anchor="middle" opacity="0.01" style="font-family:monospace">100</text>
</g>
<g class="stroked-text"><desc>100</desc>
<path d="M1735125 775658 L1735125 763083 "/>
<path d="M1735125 769371 L1713120 769371 L1716263 767275 L1718359 765179 L1719407 763083 "/>
<path d="M1713120 789280 L1713120 791376 L1714167 793472 L1715215 794520 L1717311 795567 L1721503 796615 L1726742 796615 L1730933 795567 L1733029 794520 L1734077 793472 L1735125 791376 L1735125 789280 L1734077 787184 L1733029 786137 L1730933 785089 L1726742 784041 L1721503 784041 L1717311 785089 L1715215 786137 L1714167 787184 L1713120 789280 "/>
<path d="M1713120 810238 L1713120 812333 L1714167 814429 L1715215 815477 L1717311 816525 L1721503 817573 L1726742 817573 L1730933 816525 L1733029 815477 L1734077 814429 L1735125 812333 L1735125 810238 L1734077 808142 L1733029 807094 L1730933 806046 L1726742 804998 L1721503 804998 L1717311 806046 L1715215 807094 L1714167 808142 L1713120 810238 "/>
</g><g transform="rotate(-90.000000 1538069.517507 1164530.698191)">
<text x="1538069.517507" y="1175533.357765" transform="scale(-1 1) translate(-3076139.035014 0)" textLength="36718.600268" font-size="29340.410873" lengthAdjust="spacingAndGlyphs" text-anchor="middle" opacity="0.01" style="font-family:monospace">R4</text>
</g>
<g class="stroked-text"><desc>R4</desc>
<path d="M1548024 1160863 L1537545 1153528 "/>
<path d="M1548024 1148288 L1526018 1148288 L1526018 1156671 L1527066 1158767 L1528114 1159815 L1530210 1160863 L1533354 1160863 L1535449 1159815 L1536497 1158767 L1537545 1156671 L1537545 1148288 "/>
<path d="M1533354 1179724 L1548024 1179724 "/>
<path d="M1524971 1174485 L1540689 1169246 L1540689 1182868 "/>
</g><g transform="rotate(-90.000000 1568787.602614 1170115.804574)">
<text x="1568787.602614" y="1181118.464148" transform="scale(-1 1) translate(-3137575.205227 0)" textLength="56628.185207" font-size="29340.410873" lengthAdjust="spacingAndGlyphs" text-anchor="middle" opacity="0.01" style="font-family:monospace">100</text>
</g>
<g class="stroked-text"><desc>100</desc>
<path d="M1578742 1155445 L1578742 1142871 "/>
<path d="M1578742 1149158 L1556737 1149158 L1559880 1147062 L1561976 1144966 L1563024 1142871 "/>
<path d="M1556737 1169067 L1556737 1171163 L1557784 1173259 L1558832 1174307 L1560928 1175355 L1565120 1176403 L1570359 1176403 L1574550 1175355 L1576646 1174307 L1577694 1173259 L1578742 1171163 L1578742 1169067 L1577694 1166972 L1576646 1165924 L1574550 1164876 L1570359 1163828 L1565120 1163828 L1560928 1164876 L1558832 1165924 L1557784 1166972 L1556737 1169067 "/>
<path d="M1556737 1190025 L1556737 1192121 L1557784 1194216 L1558832 1195264 L1560928 1196312 L1565120 1197360 L1570359 1197360 L1574550 1196312 L1576646 1195264 L1577694 1194216 L1578742 1192121 L1578742 1190025 L1577694 1187929 L1576646 1186881 L1574550 1185833 L1570359 1184786 L1565120 1184786 L1560928 1185833 L1558832 1186881 L1557784 1187929 L1556737 1190025 "/>
</g><text x="1325835.474954" y="1499469.527978" transform="scale(-1 1) translate(-2651670.949908 0)" textLength="36718.600268" font-size="29340.410873" lengthAdjust="spacingAndGlyphs" text-anchor="middle" opacity="0.01" style="font-family:monospace">R5</text>
<g class="stroked-text"><desc>R5</desc>
<path d="M1329502 1498421 L1336838 1487942 "/>
<path d="M1342077 1498421 L1342077 1476416 L1333694 1476416 L1331598 1477464 L1330550 1478512 L1329502 1480607 L1329502 1483751 L1330550 1485847 L1331598 1486895 L1333694 1487942 L1342077 1487942 "/>
<path d="M1309593 1476416 L1320072 1476416 L1321120 1486895 L1320072 1485847 L1317976 1484799 L1312737 1484799 L1310641 1485847 L1309593 1486895 L1308545 1488990 L1308545 1494230 L1309593 1496325 L1310641 1497373 L1312737 1498421 L1317976 1498421 L1320072 1497373 L1321120 1496325 "/>
</g><text x="1331420.581337" y="1468751.442872" transform="scale(-1 1) translate(-2662841.162674 0)" textLength="56628.185207" font-size="29340.410873" lengthAdjust="spacingAndGlyphs" text-anchor="middle" opacity="0.01" style="font-family:monospace">100</text>
<g class="stroked-text"><desc>100</desc>
<path d="M1346090 1467703 L1358665 1467703 "/>
<path d="M1352378 1467703 L1352378 1445698 L1354473 1448841 L1356569 1450937 L1358665 1451985 "/>
<path d="M1332468 1445698 L1330372 1445698 L1328276 1446746 L1327229 1447794 L1326181 1449889 L1325133 1454081 L1325133 1459320 L1326181 1463512 L1327229 1465607 L1328276 1466655 L1330372 1467703 L1332468 1467703 L1334564 1466655 L1335612 1465607 L1336659 1463512 L1337707 1459320 L1337707 1454081 L1336659 1449889 L1335612 1447794 L1334564 1446746 L1332468 1445698 "/>
<path d="M1311510 1445698 L1309415 1445698 L1307319 1446746 L1306271 1447794 L1305223 1449889 L1304175 1454081 L1304175 1459320 L1305223 1463512 L1306271 1465607 L1307319 1466655 L1309415 1467703 L1311510 1467703 L1313606 1466655 L1314654 1465607 L1315702 1463512 L1316750 1459320 L1316750 1454081 L1315702 1449889 L1314654 1447794 L1313606 1446746 L1311510 1445698 "/>
</g><text x="1102431.219635" y="935373.783297" transform="scale(-1 1) translate(-2204862.439270 0)" textLength="57676.074301" font-size="29340.410873" lengthAdjust="spacingAndGlyphs" text-anchor="middle" opacity="0.01" style="font-family:monospace">R12</text>
<g class="stroked-text"><desc>R12</desc>
<path d="M1116577 934325 L1123912 923847 "/>
<path d="M1129151 934325 L1129151 912320 L1120768 912320 L1118673 913368 L1117625 914416 L1116577 916512 L1116577 919655 L1117625 921751 L1118673 922799 L1120768 923847 L1129151 923847 "/>
<path d="M1095620 934325 L1108194 934325 "/>
<path d="M1101907 934325 L1101907 912320 L1104003 915464 L1106098 917559 L1108194 918607 "/>
<path d="M1087237 914416 L1086189 913368 L1084093 912320 L1078854 912320 L1076758 913368 L1075710 914416 L1074662 916512 L1074662 918607 L1075710 921751 L1088284 934325 L1074662 934325 "/>
</g><text x="1096846.113252" y="966091.868403" transform="scale(-1 1) translate(-2193692.226504 0)" textLength="32527.131848" font-size="29340.410873" lengthAdjust="spacingAndGlyphs" text-anchor="middle" opacity="0.01" style="font-family:monospace">1k</text>
<g class="stroked-text"><desc>1k</desc>
<path d="M1099465 965044 L1112040 965044 "/>
<path d="M1105752 965044 L1105752 943038 L1107848 946182 L1109944 948278 L1112040 949325 "/>
<path d="M1090034 965044 L1090034 943038 "/>
<path d="M1087939 956661 L1081651 965044 "/>
<path d="M1081651 950373 L1090034 958756 "/>
</g><text x="1376101.432401" y="1225799.315212" transform="scale(-1 1) translate(-2752202.864801 0)" textLength="57676.074301" font-size="29340.410873" lengthAdjust="spacingAndGlyphs" text-anchor="middle" opacity="0.01" style="font-family:monospace">R13</text>
<g class="stroked-text"><desc>R13</desc>
<path d="M1390247 1224751 L1397582 1214272 "/>
<path d="M1402822 1224751 L1402822 1202746 L1394439 1202746 L1392343 1203793 L1391295 1204841 L1390247 1206937 L1390247 1210081 L1391295 1212176 L1392343 1213224 L1394439 1214272 L1402822 1214272 "/>
<path d="M1369290 1224751 L1381864 1224751 "/>
<path d="M1375577 1224751 L1375577 1202746 L1377673 1205889 L1379768 1207985 L1381864 1209033 "/>
<path d="M1361955 1202746 L1348332 1202746 L1355667 1211129 L1352524 1211129 L1350428 1212176 L1349380 1213224 L1348332 1215320 L1348332 1220559 L1349380 1222655 L1350428 1223703 L1352524 1224751 L1358811 1224751 L1360907 1223703 L1361955 1222655 "/>
</g><text x="1370516.326018" y="1256517.400318" transform="scale(-1 1) translate(-2741032.652036 0)" textLength="78633.504356" font-size="29340.410873" lengthAdjust="spacingAndGlyphs" text-anchor="middle" opacity="0.01" style="font-family:monospace">100R</text>
<g class="stroked-text"><desc>100R</desc>
<path d="M1396189 1255469 L1408763 1255469 "/>
<path d="M1402476 1255469 L1402476 1233464 L1404572 1236607 L1406667 1238703 L1408763 1239751 "/>
<path d="M1382566 1233464 L1380471 1233464 L1378375 1234512 L1377327 1235559 L1376279 1237655 L1375231 1241847 L1375231 1247086 L1376279 1251278 L1377327 1253373 L1378375 1254421 L1380471 1255469 L1382566 1255469 L1384662 1254421 L1385710 1253373 L1386758 1251278 L1387806 1247086 L1387806 1241847 L1386758 1237655 L1385710 1235559 L1384662 1234512 L1382566 1233464 "/>
<path d="M1361609 1233464 L1359513 1233464 L1357417 1234512 L1356370 1235559 L1355322 1237655 L1354274 1241847 L1354274 1247086 L1355322 1251278 L1356370 1253373 L1357417 1254421 L1359513 1255469 L1361609 1255469 L1363705 1254421 L1364753 1253373 L1365800 1251278 L1366848 1247086 L1366848 1241847 L1365800 1237655 L1364753 1235559 L1363705 1234512 L1361609 1233464 "/>
<path d="M1332268 1255469 L1339604 1244990 "/>
<path d="M1344843 1255469 L1344843 1233464 L1336460 1233464 L1334364 1234512 L1333316 1235559 L1332268 1237655 L1332268 1240799 L1333316 1242895 L1334364 1243942 L1336460 1244990 L1344843 1244990 "/>
</g></g>
<g style="fill:#000084; fill-opacity:0.01;  stroke:#000084; stroke-width:6596.582342; stroke-opacity:1;  stroke-linecap:round; stroke-linejoin:round;">
<text x="1798726.872173" y="1540056.540040" transform="scale(-1 1) translate(-3597453.744346 0)" textLength="121499.195845" font-size="58636.272826" lengthAdjust="spacingAndGlyphs" text-anchor="middle" opacity="0.01" style="font-family:monospace">C21</text>
<g class="stroked-text"><desc>C21</desc>
<path d="M1826997 1533774 L1829092 1535868 L1835374 1537962 L1839562 1537962 L1845845 1535868 L1850033 1531679 L1852127 1527491 L1854221 1519115 L1854221 1512832 L1852127 1504455 L1850033 1500267 L1845845 1496079 L1839562 1493985 L1835374 1493985 L1829092 1496079 L1826997 1498173 "/>
<path d="M1810244 1498173 L1808150 1496079 L1803962 1493985 L1793491 1493985 L1789303 1496079 L1787209 1498173 L1785114 1502361 L1785114 1506550 L1787209 1512832 L1812338 1537962 L1785114 1537962 "/>
<path d="M1743231 1537962 L1768361 1537962 "/>
<path d="M1755796 1537962 L1755796 1493985 L1759985 1500267 L1764173 1504455 L1768361 1506550 "/>
</g><text x="1529691.857933" y="351501.924527" transform="scale(-1 1) translate(-3059383.715865 0)" textLength="158956.701290" font-size="58636.272826" lengthAdjust="spacingAndGlyphs" text-anchor="middle" opacity="0.01" style="font-family:monospace">HOLE</text>
<g class="stroked-text"><desc>HOLE</desc>
<path d="M1602987 349407 L1602987 305430 "/>
<path d="M1602987 326372 L1577857 326372 "/>
<path d="M1577857 349407 L1577857 305430 "/>
<path d="M1548539 305430 L1540162 305430 L1535974 307524 L1531786 311713 L1529691 320089 L1529691 334748 L1531786 343125 L1535974 347313 L1540162 349407 L1548539 349407 L1552727 347313 L1556915 343125 L1559009 334748 L1559009 320089 L1556915 311713 L1552727 307524 L1548539 305430 "/>
<path d="M1489902 349407 L1510844 349407 L1510844 305430 "/>
<path d="M1475243 326372 L1460584 326372 "/>
<path d="M1454302 349407 L1475243 349407 L1475243 305430 L1454302 305430 "/>
</g></g>
<g style="fill:#000084; fill-opacity:0.0;  stroke:#000084; stroke-width:3298.291171; stroke-opacity:1;  stroke-linecap:round; stroke-linejoin:round;">
<g transform="rotate(-90.000000 1105223.772826 1206418.996063)">
<text x="1105223.772826" y="1217413.299966" transform="scale(-1 1) translate(-2210447.545653 0)" textLength="35401.658569" font-size="29318.114425" lengthAdjust="spacingAndGlyphs" text-anchor="middle" opacity="0.01" style="font-family:monospace">U5</text>
</g>
<g class="stroked-text"><desc>U5</desc>
<path d="M1093182 1189665 L1110982 1189665 L1113076 1190712 L1114123 1191759 L1115170 1193854 L1115170 1198042 L1114123 1200136 L1113076 1201183 L1110982 1202230 L1093182 1202230 "/>
<path d="M1093182 1223172 L1093182 1212701 L1103653 1211654 L1102606 1212701 L1101558 1214795 L1101558 1220030 L1102606 1222125 L1103653 1223172 L1105747 1224219 L1110982 1224219 L1113076 1223172 L1114123 1222125 L1115170 1220030 L1115170 1214795 L1114123 1212701 L1113076 1211654 "/>
</g><g transform="rotate(-90.000000 1306287.602614 781950.910957)">
<text x="1306287.602614" y="792945.214860" transform="scale(-1 1) translate(-2612575.205227 0)" textLength="39689.437092" font-size="29318.114425" lengthAdjust="spacingAndGlyphs" text-anchor="middle" opacity="0.01" style="font-family:monospace">U1</text>
</g>
<g class="stroked-text"><desc>U1</desc>
<path d="M1294246 765197 L1312046 765197 L1314140 766244 L1315187 767291 L1316234 769386 L1316234 773574 L1315187 775668 L1314140 776715 L1312046 777762 L1294246 777762 "/>
<path d="M1316234 799751 L1316234 787186 "/>
<path d="M1316234 793468 L1294246 793468 L1297387 791374 L1299481 789280 L1300528 787186 "/>
</g></g>
<g style="fill:#000084; fill-opacity:0.0;  stroke:#000084; stroke-width:6596.582342; stroke-opacity:1;  stroke-linecap:round; stroke-linejoin:round;">
<path d="M1035409 1083546 L1080090 1083546 "/>
<path d="M1080090 1016525 L1035409 1016525 "/>
<path d="M1169452 1016525 L1124771 1016525 "/>
<path d="M1169452 1083546 L1169452 1016525 "/>
<path d="M1124771 1083546 L1169452 1083546 "/>
<path d="M1035409 1016525 L1035409 1083546 "/>
</g>
<g style="fill:#000084; fill-opacity:0.0;  stroke:#000084; stroke-width:4397.721561; stroke-opacity:1;  stroke-linecap:round; stroke-linejoin:round;">
<path d="M1463022 572707 L1463022 650107 "/>
<path d="M1590556 572707 L1463022 572707 "/>
<path d="M1570766 650107 L1463022 650107 "/>
<path d="M1590556 572707 L1590556 630317 "/>
<path d="M1570766 650107 L1590556 630317 "/>
</g>
<g style="fill:#000084; fill-opacity:0.0;  stroke:#000084; stroke-width:6596.582342; stroke-opacity:1;  stroke-linecap:round; stroke-linejoin:round;">
<path d="M1131362 1727956 L1395202 1727956 "/>
<path d="M1130356 1578498 L1394197 1578498 "/>
<path d="M1794984 1373972 L1839665 1373972 "/>
<path d="M1705622 1373972 L1750303 1373972 "/>
<path d="M1839665 1373972 L1839665 1306950 "/>
<path d="M1705622 1306950 L1705622 1373972 "/>
<path d="M1839665 1306950 L1794984 1306950 "/>
<path d="M1750303 1306950 L1705622 1306950 "/>
<path d="M1666526 614397 L1621846 614397 "/>
<path d="M1755888 614397 L1711207 614397 "/>
<path d="M1755888 681418 L1755888 614397 "/>
<path d="M1621846 614397 L1621846 681418 "/>
<path d="M1711207 681418 L1755888 681418 "/>
<path d="M1621846 681418 L1666526 681418 "/>
<path d="M1415197 1061206 L1459878 1061206 "/>
<path d="M1459878 994184 L1415197 994184 "/>
<path d="M1549239 1061206 L1549239 994184 "/>
<path d="M1549239 994184 L1504558 994184 "/>
<path d="M1415197 994184 L1415197 1061206 "/>
<path d="M1504558 1061206 L1549239 1061206 "/>
<path d="M1219718 1508014 L1219718 1440993 "/>
<path d="M1175037 1508014 L1219718 1508014 "/>
<path d="M1219718 1440993 L1175037 1440993 "/>
<path d="M1085675 1440993 L1085675 1508014 "/>
<path d="M1085675 1508014 L1130356 1508014 "/>
<path d="M1130356 1440993 L1085675 1440993 "/>
<path d="M1621846 502695 L1621846 569716 "/>
<path d="M1755888 502695 L1711207 502695 "/>
<path d="M1755888 569716 L1755888 502695 "/>
<path d="M1711207 569716 L1755888 569716 "/>
<path d="M1621846 569716 L1666526 569716 "/>
<path d="M1666526 502695 L1621846 502695 "/>
<path d="M1549239 904823 L1504558 904823 "/>
<path d="M1459878 904823 L1415197 904823 "/>
<path d="M1549239 971844 L1549239 904823 "/>
<path d="M1415197 904823 L1415197 971844 "/>
<path d="M1504558 971844 L1549239 971844 "/>
<path d="M1415197 971844 L1459878 971844 "/>
<path d="M1080090 1396312 L1124771 1396312 "/>
<path d="M1169452 1396312 L1214133 1396312 "/>
<path d="M1214133 1396312 L1214133 1329291 "/>
<path d="M1124771 1329291 L1080090 1329291 "/>
<path d="M1214133 1329291 L1169452 1329291 "/>
<path d="M1080090 1329291 L1080090 1396312 "/>
<path d="M1532484 770780 L1487803 770780 "/>
<path d="M1621846 837801 L1621846 770780 "/>
<path d="M1577165 837801 L1621846 837801 "/>
<path d="M1487803 770780 L1487803 837801 "/>
<path d="M1621846 770780 L1577165 770780 "/>
<path d="M1487803 837801 L1532484 837801 "/>
</g>
<g style="fill:#000084; fill-opacity:0.0;  stroke:#000084; stroke-width:4397.721561; stroke-opacity:1;  stroke-linecap:round; stroke-linejoin:round;">
<path d="M1574417 1585906 L1574417 1629805 "/>
<path d="M1574417 1535305 L1574417 1495650 "/>
<path d="M1640338 1462718 L1508406 1462718 "/>
<path d="M1574417 1535305 L1539231 1585906 "/>
<path d="M1640338 1665013 L1640338 1462718 "/>
<path d="M1508406 1665013 L1508406 1462718 "/>
<path d="M1539231 1535305 L1609603 1535305 "/>
<path d="M1574417 1535305 L1607369 1585906 "/>
<path d="M1508406 1665013 L1640338 1665013 "/>
<path d="M1607369 1585906 L1539231 1585906 "/>
</g>
<g style="fill:#000084; fill-opacity:0.0;  stroke:#000084; stroke-width:6596.582342; stroke-opacity:1;  stroke-linecap:round; stroke-linejoin:round;">
<path d="M1786606 673041 L1786606 717722 "/>
<path d="M1853628 583679 L1786606 583679 "/>
<path d="M1786606 583679 L1786606 628360 "/>
<path d="M1786606 717722 L1853628 717722 "/>
<path d="M1853628 717722 L1853628 673041 "/>
<path d="M1853628 628360 L1853628 583679 "/>
<path d="M1741925 851764 L1741925 807083 "/>
<path d="M1741925 762403 L1741925 717722 "/>
<path d="M1674904 851764 L1741925 851764 "/>
<path d="M1674904 807083 L1674904 851764 "/>
<path d="M1741925 717722 L1674904 717722 "/>
<path d="M1674904 717722 L1674904 762403 "/>
<path d="M1518521 1231551 L1585542 1231551 "/>
<path d="M1585542 1231551 L1585542 1186871 "/>
<path d="M1518521 1186871 L1518521 1231551 "/>
<path d="M1585542 1097509 L1518521 1097509 "/>
<path d="M1518521 1097509 L1518521 1142190 "/>
<path d="M1585542 1142190 L1585542 1097509 "/>
<path d="M1392856 1508014 L1392856 1440993 "/>
<path d="M1348175 1508014 L1392856 1508014 "/>
<path d="M1258814 1508014 L1303495 1508014 "/>
<path d="M1392856 1440993 L1348175 1440993 "/>
<path d="M1303495 1440993 L1258814 1440993 "/>
<path d="M1258814 1440993 L1258814 1508014 "/>
<path d="M1169452 904823 L1124771 904823 "/>
<path d="M1035409 904823 L1035409 971844 "/>
<path d="M1169452 971844 L1169452 904823 "/>
<path d="M1080090 904823 L1035409 904823 "/>
<path d="M1035409 971844 L1080090 971844 "/>
<path d="M1124771 971844 L1169452 971844 "/>
<path d="M1353761 1195248 L1309080 1195248 "/>
<path d="M1443122 1262270 L1443122 1195248 "/>
<path d="M1398441 1262270 L1443122 1262270 "/>
<path d="M1309080 1262270 L1353761 1262270 "/>
<path d="M1309080 1195248 L1309080 1262270 "/>
<path d="M1443122 1195248 L1398441 1195248 "/>
<path d="M1693726 1552695 L1872450 1552695 "/>
<path d="M1872450 1552695 L1872450 1485674 "/>
<path d="M1693726 1485674 L1693726 1552695 "/>
<path d="M1872450 1485674 L1693726 1485674 "/>
</g>
<g style="fill:#000084; fill-opacity:0.0;  stroke:#000084; stroke-width:4397.721561; stroke-opacity:1;  stroke-linecap:round; stroke-linejoin:round;">
<path d="M826056 1798352 L826056 391081 "/>
<path d="M2233327 1798352 L826056 1798352 "/>
<path d="M2233327 391081 L2233327 1798352 "/>
<path d="M826056 391081 L2233327 391081 "/>
<path d="M1144803 1274583 L1144803 1138254 "/>
<path d="M1144803 1274583 L1094229 1274583 "/>
<path d="M1065644 1245998 L1094229 1274583 "/>
<path d="M1065644 1245998 L1065644 1138254 "/>
<path d="M1144803 1138254 L1065644 1138254 "/>
<path d="M1266708 821530 L1295293 850115 "/>
<path d="M1345867 850115 L1345867 713786 "/>
<path d="M1345867 713786 L1266708 713786 "/>
<path d="M1266708 821530 L1266708 713786 "/>
<path d="M1345867 850115 L1295293 850115 "/>
<g>
</g>
<g>
</g>
<g>
</g>
<g>
</g>
<g>
</g>
<g>
</g>
<g>
</g>
<g>
</g>
<g>
</g>
<g>
</g>
<g>
</g>
<g>
</g>
<g>
</g>
<g>
</g>
<g>
</g>
<g>
</g>
<g>
</g>
<g>
</g>
<g>
</g>
<g>
</g>
<g>
</g>
<g>
</g>
<g>
</g>
<g>
</g>
<g>
</g>
<g>
</g>
<g>
</g>
<g>
</g>
<g>
</g>
<g>
</g>
<g>
</g>
<g>
</g>
<g>
</g>
<g>
</g>
<g>
</g>
<g>
</g>
</g> 
<svg:g><svg:g><svg:title>SVG Picture created as PCRD06A-Edge_Cuts.svg date 2023/02/14 07:59:23 </svg:title>
  <svg:desc>Picture generated by PCBNEW </svg:desc>
<svg:g style="fill:#C2C200; fill-opacity:1.000000;stroke:#C2C200; stroke-opacity:1.000000; stroke-linecap:round; stroke-linejoin:round;" transform="translate(0 0) scale(1 1)">
</svg:g>
<svg:g style="fill:#C2C200; fill-opacity:0.0;  stroke:#C2C200; stroke-width:0.000000; stroke-opacity:1;  stroke-linecap:round; stroke-linejoin:round;">
</svg:g>
<svg:g style="fill:#C2C200; fill-opacity:0.0;  stroke:#C2C200; stroke-width:8795.443123; stroke-opacity:1;  stroke-linecap:round; stroke-linejoin:round;">
<svg:path d="M423840 234610 L2635542 234610 "/>
<svg:path d="M423840 1999504 L2635542 1999504 "/>
<svg:path d="M2635542 1999504 L2635542 234610 "/>
<svg:path d="M423840 1999504 L423840 234610 "/>
<svg:g>
</svg:g>
<svg:g>
</svg:g>
<svg:g>
</svg:g>
<svg:g>
</svg:g>
<svg:g>
</svg:g>
<svg:g>
</svg:g>
<svg:g>
</svg:g>
<svg:g>
</svg:g>
<svg:g>
</svg:g>
<svg:g>
</svg:g>
<svg:g>
</svg:g>
<svg:g>
</svg:g>
<svg:g>
</svg:g>
<svg:g>
</svg:g>
<svg:g>
</svg:g>
<svg:g>
</svg:g>
<svg:g>
</svg:g>
<svg:g>
</svg:g>
<svg:g>
</svg:g>
<svg:g>
</svg:g>
<svg:g>
</svg:g>
<svg:g>
</svg:g>
<svg:g>
</svg:g>
<svg:g>
</svg:g>
<svg:g>
</svg:g>
<svg:g>
</svg:g>
<svg:g>
</svg:g>
<svg:g>
</svg:g>
<svg:g>
</svg:g>
<svg:g>
</svg:g>
<svg:g>
</svg:g>
<svg:g>
</svg:g>
<svg:g>
</svg:g>
<svg:g>
</svg:g>
<svg:g>
</svg:g>
<svg:g>
</svg:g>
</svg:g> 
</svg:g></svg:g></svg>
